DBRep_DrawableShape

CASCADE Topology V1, (c) Matra-Datavision
Locations 1
1
1.11022302462516e-16              -1               0               0 
              1 1.11022302462516e-16               0               0 
              0               0               1               0 
Curve2ds 6
1 0 0.022000000000000002 1 0 
2 0 0 1 0 -0 1 0.065000000000000002
1 6.2831853071795862 -0 0 1 
1 0 -0 0 1 
1 0 0 1 0 
2 0 0 1 0 -0 1 0.065000000000000002
Curves 3
2 0.41799999999999998 0 0.90000000000000002 -1 -0 0 -0 0 -1 0 -1 -0 0.065000000000000002
1 0.44 1.5920408388915606e-17 0.83499999999999996 -1 -0 0 
2 0.44 0 0.90000000000000002 -1 -0 0 -0 0 -1 0 -1 -0 0.065000000000000002
Polygon3D 0
PolygonOnTriangulations 0
Surfaces 3
2 0.44 0 0.90000000000000002 -1 -0 0 -0 0 -1 0 -1 -0 0.065000000000000002
1 0.41799999999999998 0 0.90000000000000002 -1 -0 0 -0 0 -1 0 -1 -0 
1 0.44 0 0.90000000000000002 -1 -0 0 -0 0 -1 0 -1 -0 
Triangulations 0

TShapes 14
Ve
1e-07
0.418 1.59204083889156e-17 0.835
0 0

0101101
*
Ve
1e-07
0.44 1.59204083889156e-17 0.835
0 0

0101101
*
Ed
 1e-07 1 1 0
1  1 0 0 6.28318530717959
2  1 1 0 0 6.28318530717959
2  2 2 0 0 6.28318530717959
0

0101000
+14 0 -14 0 *
Ed
 1e-07 1 1 0
1  2 0 0 0.022
3  3 4CN 1 0 0 0.022
0

0101000
-14 0 +13 0 *
Ed
 1e-07 1 1 0
1  3 0 0 6.28318530717959
2  5 1 0 0 6.28318530717959
2  6 3 0 0 6.28318530717959
0

0101000
+13 0 -13 0 *
Wi

0101100
-12 0 +11 0 +10 0 -11 0 *
Wi

0101100
+12 0 *
Wi

0101100
-10 0 *
Fa
0  1e-07 1 0

0111000
+9 0 *
Fa
0  1e-07 2 0

0111000
+8 0 *
Fa
0  1e-07 3 0

0111000
-7 0 *
Sh

0101100
+6 0 +5 0 -4 0 *
So

0100000
+3 0 *
Co

1100000
-14 1 +13 1 -12 1 +11 1 +10 1 +9 1 +8 1 +7 1 +6 1 +5 1 
-4 1 +3 1 +2 1 *

+1 0 