DBRep_DrawableShape

CASCADE Topology V1, (c) Matra-Datavision
Locations 5
1
1.11022302462516e-16               1               0               0 
             -1 1.11022302462516e-16               0               0 
              0               0               1               0 
1
              1               0               0            1.56 
              0               1               0               0 
              0               0               1               0 
2  1 1 2 1 0
2  1 -1 0
2  2 -1 1 -1 0
Curve2ds 40
1 0 0 1 0 
1 0 -1.5600000000000001 1 0 
1 0 0 1 0 
1 0 -1.5600000000000001 1 0 
1 0 0 1 0 
1 0 -1.5600000000000001 1 0 
1 0 0 1 0 
1 0 -1.5600000000000001 1 0 
1 0 0 1 0 
1 0 -1.5600000000000001 1 0 
1 0 0 1 0 
1 0 -1.5600000000000001 1 0 
1 0 0 1 0 
1 0 -1.5600000000000001 1 0 
1 0 0 1 0 
1 0 -1.5600000000000001 1 0 
1 0 0 1 0 
1 0 -1.5600000000000001 1 0 
1 0 0 1 0 
1 0 -1.5600000000000001 1 0 
1 0 0 0 -1 
1 1 0 0 -1 
1 1 0 0 -1 
1 0 0 0 -1 
1 1 0 0 -1 
1 0 0 0 -1 
1 1 0 0 -1 
1 0 0 0 -1 
1 1 0 0 -1 
1 0 0 0 -1 
1 1 0 0 -1 
1 0 0 0 -1 
1 1 0 0 -1 
1 0 0 0 -1 
1 1 0 0 -1 
1 0 0 0 -1 
1 1 0 0 -1 
1 0 0 0 -1 
1 1 0 0 -1 
1 0 0 0 -1 
Curves 20
7 0 0  3 4 2  0.060499999999999998 0.44 0.90015246000000004  0.056652489196846408 0.43999999999999995 0.90069227752254266  0.052800629497761944 0.44000000000000017 0.90120101243425677  0.048945528159684323 0.44 0.90168363290341014 
 0 4 1 4
7 0 0  3 4 2  0.048945528159684323 0.44 0.90168363290341014  0.03888135079669177 0.43999999999999972 0.9029410857277308  0.028796228155522286 0.44000000000000028 0.9040314958123038  0.018695528159684324 0.44 0.90495100627262104 
 0 4 1 4
7 0 0  3 4 2  0.018695528159684324 0.44 0.90495100627262104  0.0062583579951715276 0.43999999999999989 0.90606884013556699  -0.0062072645680476364 0.44000000000000011 0.90696044060078063  -0.01869552815968431 0.44 0.90720854072861501 
 0 4 1 4
7 0 0  3 4 2  -0.01869552815968431 0.44 0.90720854072861501  -0.028791746743577658 0.43999999999999995 0.90734768018725598  -0.03896057984329146 0.43999999999999995 0.90725147281639507  -0.048945528159684309 0.44 0.90557192091346872 
 0 4 1 4
7 0 0  3 4 2  -0.048945528159684309 0.44 0.90557192091346872  -0.052636278509252836 0.43999999999999989 0.9043182237143198  -0.058953499921957975 0.44000000000000011 0.90453584392162212  -0.060499999999999998 0.44 0.90000000000000002 
 0 4 1 4
7 0 0  3 4 2  -0.060499999999999998 0.44 0.90000000000000002  -0.058953499921958051 0.44000000000000017 0.89546415607837804  -0.052636278509252774 0.43999999999999984 0.89568177628568013  -0.048945528159684323 0.44 0.89442807908653132 
 0 4 1 4
7 0 0  3 4 2  -0.048945528159684323 0.44 0.89442807908653132  -0.038960579843291404 0.43999999999999961 0.89274852718360409  -0.028791746743577755 0.44000000000000034 0.89265231981274495  -0.018695528159684324 0.44 0.89279145927138504 
 0 4 1 4
7 0 0  3 4 2  -0.018695528159684324 0.44 0.89279145927138504  -0.0062072645680476502 0.43999999999999984 0.8930395593992192  0.0062583579951715198 0.43999999999999995 0.89393115986443294  0.01869552815968431 0.44 0.89504899372737901 
 0 4 1 4
7 0 0  3 4 2  0.01869552815968431 0.44 0.89504899372737901  0.028796228155522262 0.43999999999999989 0.89596850418769602  0.038881350796691756 0.44000000000000006 0.89705891427226958  0.048945528159684323 0.44 0.89831636709658991 
 0 4 1 4
7 0 0  3 4 2  0.048945528159684323 0.44 0.89831636709658991  0.052687366752767084 0.44000000000000011 0.89924147339302651  0.056914693412002233 0.43999999999999995 0.89872096977942417  0.060499999999999998 0.44 0.90015246000000004 
 0 4 1 4
1 0.44 -0.06049999999999995 0.90015246000000004 1 0 0 
1 0.44 -0.048945528159684275 0.90168363290341014 1 0 0 
1 0.44 -0.018695528159684276 0.90495100627262104 1 0 0 
1 0.44 0.018695528159684359 0.90720854072861501 1 0 0 
1 0.44 0.048945528159684358 0.90557192091346872 1 0 0 
1 0.44 0.060500000000000047 0.90000000000000002 1 0 0 
1 0.44 0.048945528159684372 0.89442807908653132 1 0 0 
1 0.44 0.018695528159684373 0.89279145927138504 1 0 0 
1 0.44 -0.018695528159684262 0.89504899372737901 1 0 0 
1 0.44 -0.048945528159684275 0.89831636709658991 1 0 0 
Polygon3D 0
PolygonOnTriangulations 0
Surfaces 11
6 -1 -0 -0 
7 0 0  3 4 2  0.44 -0.06049999999999995 0.90015246000000004  0.43999999999999995 -0.056652489196846359 0.90069227752254266  0.44000000000000017 -0.052800629497761896 0.90120101243425677  0.44 -0.048945528159684275 0.90168363290341014 
 0 4 1 4
6 -1 -0 -0 
7 0 0  3 4 2  0.44 -0.048945528159684275 0.90168363290341014  0.43999999999999972 -0.038881350796691722 0.9029410857277308  0.44000000000000028 -0.028796228155522238 0.9040314958123038  0.44 -0.018695528159684276 0.90495100627262104 
 0 4 1 4
6 -1 -0 -0 
7 0 0  3 4 2  0.44 -0.018695528159684276 0.90495100627262104  0.43999999999999989 -0.0062583579951714791 0.90606884013556699  0.44000000000000011 0.0062072645680476849 0.90696044060078063  0.44 0.018695528159684359 0.90720854072861501 
 0 4 1 4
6 -1 -0 -0 
7 0 0  3 4 2  0.44 0.018695528159684359 0.90720854072861501  0.43999999999999995 0.028791746743577706 0.90734768018725598  0.43999999999999995 0.038960579843291508 0.90725147281639507  0.44 0.048945528159684358 0.90557192091346872 
 0 4 1 4
6 -1 -0 -0 
7 0 0  3 4 2  0.44 0.048945528159684358 0.90557192091346872  0.43999999999999989 0.052636278509252885 0.9043182237143198  0.44000000000000011 0.058953499921958023 0.90453584392162212  0.44 0.060500000000000047 0.90000000000000002 
 0 4 1 4
6 -1 -0 -0 
7 0 0  3 4 2  0.44 0.060500000000000047 0.90000000000000002  0.44000000000000017 0.0589534999219581 0.89546415607837804  0.43999999999999984 0.052636278509252822 0.89568177628568013  0.44 0.048945528159684372 0.89442807908653132 
 0 4 1 4
6 -1 -0 -0 
7 0 0  3 4 2  0.44 0.048945528159684372 0.89442807908653132  0.43999999999999961 0.038960579843291453 0.89274852718360409  0.44000000000000034 0.028791746743577804 0.89265231981274495  0.44 0.018695528159684373 0.89279145927138504 
 0 4 1 4
6 -1 -0 -0 
7 0 0  3 4 2  0.44 0.018695528159684373 0.89279145927138504  0.43999999999999984 0.0062072645680476988 0.8930395593992192  0.43999999999999995 -0.0062583579951714713 0.89393115986443294  0.44 -0.018695528159684262 0.89504899372737901 
 0 4 1 4
6 -1 -0 -0 
7 0 0  3 4 2  0.44 -0.018695528159684262 0.89504899372737901  0.43999999999999989 -0.028796228155522213 0.89596850418769602  0.44000000000000006 -0.038881350796691708 0.89705891427226958  0.44 -0.048945528159684275 0.89831636709658991 
 0 4 1 4
6 -1 -0 -0 
7 0 0  3 4 2  0.44 -0.048945528159684275 0.89831636709658991  0.44000000000000011 -0.052687366752767036 0.89924147339302651  0.43999999999999995 -0.056914693412002185 0.89872096977942417  0.44 -0.06049999999999995 0.90015246000000004 
 0 4 1 4
1 -0.0015119400227422022 0.43999999999999989 0.89999881012206717 1.7544262184343525e-16 -1 2.939207657464375e-15 0 -2.939207657464375e-15 -1 1 1.7544262184343525e-16 -5.1566229756785147e-31 
Triangulations 0

TShapes 55
Ve
1e-07
0.0605 0.44 0.90015246
0 0

0101101
*
Ve
1e-07
0.0489455281596843 0.44 0.90168363290341
0 0

0101101
*
Ve
1e-07
0.0186955281596843 0.44 0.904951006272621
0 0

0101101
*
Ve
1e-07
-0.0186955281596843 0.44 0.907208540728615
0 0

0101101
*
Ve
1e-07
-0.0489455281596843 0.44 0.905571920913469
0 0

0101101
*
Ve
1e-07
-0.0605 0.44 0.9
0 0

0101101
*
Ve
1e-07
-0.0489455281596843 0.44 0.894428079086531
0 0

0101101
*
Ve
1e-07
-0.0186955281596843 0.44 0.892791459271385
0 0

0101101
*
Ve
1e-07
0.0186955281596843 0.44 0.895048993727379
0 0

0101101
*
Ve
1e-07
0.0489455281596843 0.44 0.89831636709659
0 0

0101101
*
Ed
 1e-07 1 1 0
1  1 0 0 1
2  1 1 4 0 1
2  2 1 5 0 1
0

0101000
+55 0 -54 0 *
Ed
 1e-07 1 1 0
1  2 0 0 1
2  3 2 4 0 1
2  4 2 5 0 1
0

0101000
+54 0 -53 0 *
Ed
 1e-07 1 1 0
1  3 0 0 1
2  5 3 4 0 1
2  6 3 5 0 1
0

0101000
+53 0 -52 0 *
Ed
 1e-07 1 1 0
1  4 0 0 1
2  7 4 4 0 1
2  8 4 5 0 1
0

0101000
+52 0 -51 0 *
Ed
 1e-07 1 1 0
1  5 0 0 1
2  9 5 4 0 1
2  10 5 5 0 1
0

0101000
+51 0 -50 0 *
Ed
 1e-07 1 1 0
1  6 0 0 1
2  11 6 4 0 1
2  12 6 5 0 1
0

0101000
+50 0 -49 0 *
Ed
 1e-07 1 1 0
1  7 0 0 1
2  13 7 4 0 1
2  14 7 5 0 1
0

0101000
+49 0 -48 0 *
Ed
 1e-07 1 1 0
1  8 0 0 1
2  15 8 4 0 1
2  16 8 5 0 1
0

0101000
+48 0 -47 0 *
Ed
 1e-07 1 1 0
1  9 0 0 1
2  17 9 4 0 1
2  18 9 5 0 1
0

0101000
+47 0 -46 0 *
Ed
 1e-07 1 1 0
1  10 0 0 1
2  19 10 4 0 1
2  20 10 5 0 1
0

0101000
+46 0 -55 0 *
Ed
 1e-07 1 1 0
1  11 0 0 1.56
2  21 1 0 0 1.56
2  22 10 0 0 1.56
0

0101000
+55 1 -55 3 *
Ed
 1e-07 1 1 0
1  12 0 0 1.56
2  23 1 0 0 1.56
2  24 2 0 0 1.56
4 G1 1 0 2 0
0

0101000
+54 1 -54 3 *
Ed
 1e-07 1 1 0
1  13 0 0 1.56
2  25 2 0 0 1.56
2  26 3 0 0 1.56
4 G1 2 0 3 0
0

0101000
+53 1 -53 3 *
Ed
 1e-07 1 1 0
1  14 0 0 1.56
2  27 3 0 0 1.56
2  28 4 0 0 1.56
0

0101000
+52 1 -52 3 *
Ed
 1e-07 1 1 0
1  15 0 0 1.56
2  29 4 0 0 1.56
2  30 5 0 0 1.56
0

0101000
+51 1 -51 3 *
Ed
 1e-07 1 1 0
1  16 0 0 1.56
2  31 5 0 0 1.56
2  32 6 0 0 1.56
0

0101000
+50 1 -50 3 *
Ed
 1e-07 1 1 0
1  17 0 0 1.56
2  33 6 0 0 1.56
2  34 7 0 0 1.56
0

0101000
+49 1 -49 3 *
Ed
 1e-07 1 1 0
1  18 0 0 1.56
2  35 7 0 0 1.56
2  36 8 0 0 1.56
0

0101000
+48 1 -48 3 *
Ed
 1e-07 1 1 0
1  19 0 0 1.56
2  37 8 0 0 1.56
2  38 9 0 0 1.56
4 G1 8 0 9 0
0

0101000
+47 1 -47 3 *
Ed
 1e-07 1 1 0
1  20 0 0 1.56
2  39 9 0 0 1.56
2  40 10 0 0 1.56
0

0101000
+46 1 -46 3 *
Wi

0101100
+45 0 +44 0 +43 0 +42 0 +41 0 +40 0 +39 0 +38 0 +37 0 +36 0 
*
Wi

0101100
+35 0 -34 0 -45 1 +45 3 *
Wi

0101100
+34 0 -33 0 -44 1 +44 3 *
Wi

0101100
+33 0 -32 0 -43 1 +43 3 *
Wi

0101100
+32 0 -31 0 -42 1 +42 3 *
Wi

0101100
+31 0 -30 0 -41 1 +41 3 *
Wi

0101100
+30 0 -29 0 -40 1 +40 3 *
Wi

0101100
+29 0 -28 0 -39 1 +39 3 *
Wi

0101100
+28 0 -27 0 -38 1 +38 3 *
Wi

0101100
+27 0 -26 0 -37 1 +37 3 *
Wi

0101100
+26 0 -35 0 -36 1 +36 3 *
Fa
0  1e-07 11 0

0111000
+25 0 *
Fa
0  1e-07 1 0

0101000
+24 0 *
Fa
0  1e-07 2 0

0101000
+23 0 *
Fa
0  1e-07 3 0

0101000
+22 0 *
Fa
0  1e-07 4 0

0101000
+21 0 *
Fa
0  1e-07 5 0

0101000
+20 0 *
Fa
0  1e-07 6 0

0101000
+19 0 *
Fa
0  1e-07 7 0

0101000
+18 0 *
Fa
0  1e-07 8 0

0101000
+17 0 *
Fa
0  1e-07 9 0

0101000
+16 0 *
Fa
0  1e-07 10 0

0101000
+15 0 *
Sh

0101100
+13 0 +12 0 +11 0 +10 0 +9 0 +8 0 +7 0 +6 0 +5 0 +4 0 
+14 1 -14 3 *
So

0100000
+3 0 *
Co

1100000
+55 1 -54 1 -53 1 -52 1 -51 1 -50 1 -49 1 -48 1 -47 1 -46 1 
-55 3 +54 3 +53 3 +52 3 +51 3 +50 3 +49 3 +48 3 +47 3 +46 3 
+45 1 +44 1 +43 1 +42 1 +41 1 +40 1 +39 1 +38 1 +37 1 +36 1 
+35 0 -34 0 +45 3 -33 0 +44 3 -32 0 +43 3 -31 0 +42 3 -30 0 
+41 3 -29 0 +40 3 -28 0 +39 3 -27 0 +38 3 -26 0 +37 3 +36 3 
+25 1 +24 0 +23 0 +22 0 +21 0 +20 0 +19 0 +18 0 +17 0 +16 0 
+15 0 -25 3 +14 1 +13 0 +12 0 +11 0 +10 0 +9 0 +8 0 +7 0 
+6 0 +5 0 +4 0 -14 3 +3 0 +2 0 *

+1 0 