DBRep_DrawableShape

CASCADE Topology V1, (c) Matra-Datavision
Locations 8
1
1.11022302462516e-16               1               0               0 
             -1 1.11022302462516e-16               0               0 
              0               0               1               0 
1
1.11022302462516e-16               1               0               0 
             -1 1.11022302462516e-16               0               0 
              0               0               1               0 
2  1 1 2 1 0
1
              1               0               0            1.56 
              0               1               0               0 
              0               0               1               0 
2  1 1 4 1 2 1 0
2  1 1 4 1 0
2  1 -1 0
2  4 -1 1 -1 0
Curve2ds 40
1 0 0 0 -1 
1 1 0 0 -1 
1 1 0 0 -1 
1 0 0 0 -1 
1 0 0 1 0 
1 0 -1.5600000000000001 1 0 
1 1 0 0 -1 
1 0 0 0 -1 
1 0 0 1 0 
1 0 -1.5600000000000001 1 0 
1 1 0 0 -1 
1 0 0 0 -1 
1 0 0 1 0 
1 0 -1.5600000000000001 1 0 
1 1 0 0 -1 
1 0 0 0 -1 
1 0 0 1 0 
1 0 -1.5600000000000001 1 0 
1 1 0 0 -1 
1 0 0 0 -1 
1 0 0 1 0 
1 0 -1.5600000000000001 1 0 
1 1 0 0 -1 
1 0 0 0 -1 
1 0 0 1 0 
1 0 -1.5600000000000001 1 0 
1 1 0 0 -1 
1 0 0 0 -1 
1 0 0 1 0 
1 0 -1.5600000000000001 1 0 
1 1 0 0 -1 
1 0 0 0 -1 
1 0 0 1 0 
1 0 -1.5600000000000001 1 0 
1 1 0 0 -1 
1 0 0 0 -1 
1 0 0 1 0 
1 0 -1.5600000000000001 1 0 
1 0 0 1 0 
1 0 -1.5600000000000001 1 0 
Curves 20
1 0.44 -0.06049999999999995 0.90015246000000004 1 0 0 
1 0.44 -0.048945528159684275 0.90168363290341014 1 0 0 
7 0 0  3 4 2  0.060499999999999998 0.44 0.90015246000000004  0.056652489196846408 0.43999999999999995 0.90069227752254266  0.052800629497761944 0.44000000000000017 0.90120101243425677  0.048945528159684323 0.44 0.90168363290341014 
 0 4 1 4
1 0.44 -0.018695528159684276 0.90495100627262104 1 0 0 
7 0 0  3 4 2  0.048945528159684323 0.44 0.90168363290341014  0.03888135079669177 0.43999999999999972 0.9029410857277308  0.028796228155522286 0.44000000000000028 0.9040314958123038  0.018695528159684324 0.44 0.90495100627262104 
 0 4 1 4
1 0.44 0.018695528159684359 0.90720854072861501 1 0 0 
7 0 0  3 4 2  0.018695528159684324 0.44 0.90495100627262104  0.0062583579951715276 0.43999999999999989 0.90606884013556699  -0.0062072645680476364 0.44000000000000011 0.90696044060078063  -0.01869552815968431 0.44 0.90720854072861501 
 0 4 1 4
1 0.44 0.048945528159684358 0.90557192091346872 1 0 0 
7 0 0  3 4 2  -0.01869552815968431 0.44 0.90720854072861501  -0.028791746743577658 0.43999999999999995 0.90734768018725598  -0.03896057984329146 0.43999999999999995 0.90725147281639507  -0.048945528159684309 0.44 0.90557192091346872 
 0 4 1 4
1 0.44 0.060500000000000047 0.90000000000000002 1 0 0 
7 0 0  3 4 2  -0.048945528159684309 0.44 0.90557192091346872  -0.052636278509252836 0.43999999999999989 0.9043182237143198  -0.058953499921957975 0.44000000000000011 0.90453584392162212  -0.060499999999999998 0.44 0.90000000000000002 
 0 4 1 4
1 0.44 0.048945528159684372 0.89442807908653132 1 0 0 
7 0 0  3 4 2  -0.060499999999999998 0.44 0.90000000000000002  -0.058953499921958051 0.44000000000000017 0.89546415607837804  -0.052636278509252774 0.43999999999999984 0.89568177628568013  -0.048945528159684323 0.44 0.89442807908653132 
 0 4 1 4
1 0.44 0.018695528159684373 0.89279145927138504 1 0 0 
7 0 0  3 4 2  -0.048945528159684323 0.44 0.89442807908653132  -0.038960579843291404 0.43999999999999961 0.89274852718360409  -0.028791746743577755 0.44000000000000034 0.89265231981274495  -0.018695528159684324 0.44 0.89279145927138504 
 0 4 1 4
1 0.44 -0.018695528159684262 0.89504899372737901 1 0 0 
7 0 0  3 4 2  -0.018695528159684324 0.44 0.89279145927138504  -0.0062072645680476502 0.43999999999999984 0.8930395593992192  0.0062583579951715198 0.43999999999999995 0.89393115986443294  0.01869552815968431 0.44 0.89504899372737901 
 0 4 1 4
1 0.44 -0.048945528159684275 0.89831636709658991 1 0 0 
7 0 0  3 4 2  0.01869552815968431 0.44 0.89504899372737901  0.028796228155522262 0.43999999999999989 0.89596850418769602  0.038881350796691756 0.44000000000000006 0.89705891427226958  0.048945528159684323 0.44 0.89831636709658991 
 0 4 1 4
7 0 0  3 4 2  0.048945528159684323 0.44 0.89831636709658991  0.052687366752767084 0.44000000000000011 0.89924147339302651  0.056914693412002233 0.43999999999999995 0.89872096977942417  0.060499999999999998 0.44 0.90015246000000004 
 0 4 1 4
Polygon3D 0
PolygonOnTriangulations 0
Surfaces 11
6 -1 -0 -0 
7 0 0  3 4 2  0.44 -0.06049999999999995 0.90015246000000004  0.43999999999999995 -0.056652489196846359 0.90069227752254266  0.44000000000000017 -0.052800629497761896 0.90120101243425677  0.44 -0.048945528159684275 0.90168363290341014 
 0 4 1 4
6 -1 -0 -0 
7 0 0  3 4 2  0.44 -0.048945528159684275 0.89831636709658991  0.44000000000000011 -0.052687366752767036 0.89924147339302651  0.43999999999999995 -0.056914693412002185 0.89872096977942417  0.44 -0.06049999999999995 0.90015246000000004 
 0 4 1 4
6 -1 -0 -0 
7 0 0  3 4 2  0.44 -0.048945528159684275 0.90168363290341014  0.43999999999999972 -0.038881350796691722 0.9029410857277308  0.44000000000000028 -0.028796228155522238 0.9040314958123038  0.44 -0.018695528159684276 0.90495100627262104 
 0 4 1 4
6 -1 -0 -0 
7 0 0  3 4 2  0.44 -0.018695528159684276 0.90495100627262104  0.43999999999999989 -0.0062583579951714791 0.90606884013556699  0.44000000000000011 0.0062072645680476849 0.90696044060078063  0.44 0.018695528159684359 0.90720854072861501 
 0 4 1 4
6 -1 -0 -0 
7 0 0  3 4 2  0.44 0.018695528159684359 0.90720854072861501  0.43999999999999995 0.028791746743577706 0.90734768018725598  0.43999999999999995 0.038960579843291508 0.90725147281639507  0.44 0.048945528159684358 0.90557192091346872 
 0 4 1 4
6 -1 -0 -0 
7 0 0  3 4 2  0.44 0.048945528159684358 0.90557192091346872  0.43999999999999989 0.052636278509252885 0.9043182237143198  0.44000000000000011 0.058953499921958023 0.90453584392162212  0.44 0.060500000000000047 0.90000000000000002 
 0 4 1 4
6 -1 -0 -0 
7 0 0  3 4 2  0.44 0.060500000000000047 0.90000000000000002  0.44000000000000017 0.0589534999219581 0.89546415607837804  0.43999999999999984 0.052636278509252822 0.89568177628568013  0.44 0.048945528159684372 0.89442807908653132 
 0 4 1 4
6 -1 -0 -0 
7 0 0  3 4 2  0.44 0.048945528159684372 0.89442807908653132  0.43999999999999961 0.038960579843291453 0.89274852718360409  0.44000000000000034 0.028791746743577804 0.89265231981274495  0.44 0.018695528159684373 0.89279145927138504 
 0 4 1 4
6 -1 -0 -0 
7 0 0  3 4 2  0.44 0.018695528159684373 0.89279145927138504  0.43999999999999984 0.0062072645680476988 0.8930395593992192  0.43999999999999995 -0.0062583579951714713 0.89393115986443294  0.44 -0.018695528159684262 0.89504899372737901 
 0 4 1 4
6 -1 -0 -0 
7 0 0  3 4 2  0.44 -0.018695528159684262 0.89504899372737901  0.43999999999999989 -0.028796228155522213 0.89596850418769602  0.44000000000000006 -0.038881350796691708 0.89705891427226958  0.44 -0.048945528159684275 0.89831636709658991 
 0 4 1 4
1 -0.0015119400227422022 0.43999999999999989 0.89999881012206717 1.7544262184343525e-16 -1 2.939207657464375e-15 0 -2.939207657464375e-15 -1 1 1.7544262184343525e-16 -5.1566229756785147e-31 
Triangulations 0

TShapes 55
Ve
1e-07
0.0605 0.44 0.90015246
0 0

0101101
*
Ve
1e-07
0.0489455281596843 0.44 0.90168363290341
0 0

0101101
*
Ve
1e-07
0.0186955281596843 0.44 0.904951006272621
0 0

0101101
*
Ve
1e-07
-0.0186955281596843 0.44 0.907208540728615
0 0

0101101
*
Ve
1e-07
-0.0489455281596843 0.44 0.905571920913469
0 0

0101101
*
Ve
1e-07
-0.0605 0.44 0.9
0 0

0101101
*
Ve
1e-07
-0.0489455281596843 0.44 0.894428079086531
0 0

0101101
*
Ve
1e-07
-0.0186955281596843 0.44 0.892791459271385
0 0

0101101
*
Ve
1e-07
0.0186955281596843 0.44 0.895048993727379
0 0

0101101
*
Ve
1e-07
0.0489455281596843 0.44 0.89831636709659
0 0

0101101
*
Ed
 1e-07 1 1 0
1  1 0 0 1.56
2  1 1 0 0 1.56
2  2 2 0 0 1.56
0

0101000
+55 1 -55 6 *
Ed
 1e-07 1 1 0
1  2 0 0 1.56
2  3 1 0 0 1.56
2  4 3 0 0 1.56
4 G1 1 0 3 0
0

0101000
+54 1 -54 6 *
Ed
 1e-07 1 1 0
1  3 0 0 1
2  5 1 7 0 1
2  6 1 8 0 1
0

0101000
+55 0 -54 0 *
Ed
 1e-07 1 1 0
1  4 0 0 1.56
2  7 3 0 0 1.56
2  8 4 0 0 1.56
4 G1 3 0 4 0
0

0101000
+53 1 -53 6 *
Ed
 1e-07 1 1 0
1  5 0 0 1
2  9 3 7 0 1
2  10 3 8 0 1
0

0101000
+54 0 -53 0 *
Ed
 1e-07 1 1 0
1  6 0 0 1.56
2  11 4 0 0 1.56
2  12 5 0 0 1.56
0

0101000
+52 1 -52 6 *
Ed
 1e-07 1 1 0
1  7 0 0 1
2  13 4 7 0 1
2  14 4 8 0 1
0

0101000
+53 0 -52 0 *
Ed
 1e-07 1 1 0
1  8 0 0 1.56
2  15 5 0 0 1.56
2  16 6 0 0 1.56
0

0101000
+51 1 -51 6 *
Ed
 1e-07 1 1 0
1  9 0 0 1
2  17 5 7 0 1
2  18 5 8 0 1
0

0101000
+52 0 -51 0 *
Ed
 1e-07 1 1 0
1  10 0 0 1.56
2  19 6 0 0 1.56
2  20 7 0 0 1.56
0

0101000
+50 1 -50 6 *
Ed
 1e-07 1 1 0
1  11 0 0 1
2  21 6 7 0 1
2  22 6 8 0 1
0

0101000
+51 0 -50 0 *
Ed
 1e-07 1 1 0
1  12 0 0 1.56
2  23 7 0 0 1.56
2  24 8 0 0 1.56
0

0101000
+49 1 -49 6 *
Ed
 1e-07 1 1 0
1  13 0 0 1
2  25 7 7 0 1
2  26 7 8 0 1
0

0101000
+50 0 -49 0 *
Ed
 1e-07 1 1 0
1  14 0 0 1.56
2  27 8 0 0 1.56
2  28 9 0 0 1.56
0

0101000
+48 1 -48 6 *
Ed
 1e-07 1 1 0
1  15 0 0 1
2  29 8 7 0 1
2  30 8 8 0 1
0

0101000
+49 0 -48 0 *
Ed
 1e-07 1 1 0
1  16 0 0 1.56
2  31 9 0 0 1.56
2  32 10 0 0 1.56
4 G1 9 0 10 0
0

0101000
+47 1 -47 6 *
Ed
 1e-07 1 1 0
1  17 0 0 1
2  33 9 7 0 1
2  34 9 8 0 1
0

0101000
+48 0 -47 0 *
Ed
 1e-07 1 1 0
1  18 0 0 1.56
2  35 10 0 0 1.56
2  36 2 0 0 1.56
0

0101000
+46 1 -46 6 *
Ed
 1e-07 1 1 0
1  19 0 0 1
2  37 10 7 0 1
2  38 10 8 0 1
0

0101000
+47 0 -46 0 *
Ed
 1e-07 1 1 0
1  20 0 0 1
2  39 2 7 0 1
2  40 2 8 0 1
0

0101000
+46 0 -55 0 *
Wi

0101100
+45 0 -44 0 -43 1 +43 6 *
Wi

0101100
+44 0 -42 0 -41 1 +41 6 *
Wi

0101100
+42 0 -40 0 -39 1 +39 6 *
Wi

0101100
+40 0 -38 0 -37 1 +37 6 *
Wi

0101100
+38 0 -36 0 -35 1 +35 6 *
Wi

0101100
+36 0 -34 0 -33 1 +33 6 *
Wi

0101100
+34 0 -32 0 -31 1 +31 6 *
Wi

0101100
+32 0 -30 0 -29 1 +29 6 *
Wi

0101100
+30 0 -28 0 -27 1 +27 6 *
Wi

0101100
+28 0 -45 0 -26 1 +26 6 *
Wi

0101100
+43 0 +41 0 +39 0 +37 0 +35 0 +33 0 +31 0 +29 0 +27 0 +26 0 
*
Fa
0  1e-07 1 0

0101000
+25 0 *
Fa
0  1e-07 3 0

0101000
+24 0 *
Fa
0  1e-07 4 0

0101000
+23 0 *
Fa
0  1e-07 5 0

0101000
+22 0 *
Fa
0  1e-07 6 0

0101000
+21 0 *
Fa
0  1e-07 7 0

0101000
+20 0 *
Fa
0  1e-07 8 0

0101000
+19 0 *
Fa
0  1e-07 9 0

0101000
+18 0 *
Fa
0  1e-07 10 0

0101000
+17 0 *
Fa
0  1e-07 2 0

0101000
+16 0 *
Fa
0  1e-07 11 0

0111000
+15 0 *
Sh

0101100
+14 0 +13 0 +12 0 +11 0 +10 0 +9 0 +8 0 +7 0 +6 0 +5 0 
+4 1 -4 6 *
So

0100000
+3 0 *
Co

1100000
+55 3 -55 5 -54 3 +54 5 -53 3 +53 5 -52 3 +52 5 -51 3 +51 5 
-50 3 +50 5 -49 3 +49 5 -48 3 +48 5 -47 3 +47 5 -46 3 +46 5 
+45 2 -44 2 -43 3 +43 5 -42 2 -41 3 +41 5 -40 2 -39 3 +39 5 
-38 2 -37 3 +37 5 -36 2 -35 3 +35 5 -34 2 -33 3 +33 5 -32 2 
-31 3 +31 5 -30 2 -29 3 +29 5 -28 2 -27 3 +27 5 -26 3 +26 5 
+25 2 +24 2 +23 2 +22 2 +21 2 +20 2 +19 2 +18 2 +17 2 +16 2 
+15 3 -15 5 +14 2 +13 2 +12 2 +11 2 +10 2 +9 2 +8 2 +7 2 
+6 2 +5 2 +4 3 -4 5 +3 2 +2 2 *

+1 0 