DBRep_DrawableShape

CASCADE Topology V1, (c) Matra-Datavision
Locations 8
1
             -1 -1.22464679914735e-16               0               0 
1.22464679914735e-16              -1               0               0 
              0               0               1               0 
1
1.11022302462516e-16               1               0               0 
             -1 1.11022302462516e-16               0               0 
              0               0               1               0 
2  2 1 1 1 0
1
              1               0               0               2 
              0               1               0               0 
              0               0               1               0 
2  2 1 4 1 1 1 0
2  2 -1 0
2  4 -1 2 -1 0
2  2 1 4 1 0
Curve2ds 66
1 0 0.022000000000000002 1 0 
2 0 0 1 0 -0 1 0.065000000000000002
1 6.2831853071795862 -0 0 1 
1 0 -0 0 1 
1 0 0 1 0 
2 0 0 1 0 -0 1 0.065000000000000002
1 0 0 1 0 
1 0 -2 1 0 
7 0 0  3 4 2  -0.00015364987793287099 0.062011940022742199  -0.00069346740047548927 0.058164429219588608  -0.0012022023121895931 0.054312569520504145  -0.001684822781342965 0.050457468182426524 
 0 4 1 4
7 0 0  3 4 2  -0.00015246000000002091 0.06049999999999995  -0.00069227752254263919 0.056652489196846359  -0.001201012434256743 0.052800629497761896  -0.001683632903410115 0.048945528159684275 
 0 4 1 4
1 0 0 1 0 
1 0 -2 1 0 
7 0 0  3 4 2  -0.001684822781342965 0.050457468182426524  -0.0029422756056636246 0.04039329081943397  -0.0040326856902366259 0.030308168178264486  -0.004952196150553867 0.020207468182426525 
 0 4 1 4
7 0 0  3 4 2  -0.001683632903410115 0.048945528159684275  -0.0029410857277307745 0.038881350796691722  -0.0040314958123037758 0.028796228155522238  -0.0049510062726210169 0.018695528159684276 
 0 4 1 4
1 0 0 1 0 
1 0 -2 1 0 
7 0 0  3 4 2  -0.004952196150553867 0.020207468182426525  -0.0060700300134998164 0.0077702980179137297  -0.0069616304787134542 -0.0046953245453054343  -0.0072097306065478373 -0.01718358813694211 
 0 4 1 4
7 0 0  3 4 2  -0.0049510062726210169 0.018695528159684276  -0.0060688401355669663 0.0062583579951714791  -0.0069604406007806041 -0.0062072645680476849  -0.0072085407286149872 -0.018695528159684359 
 0 4 1 4
1 0 0 1 0 
1 0 -2 1 0 
7 0 0  3 4 2  -0.0072097306065478373 -0.01718358813694211  -0.0073488700651888061 -0.027279806720835457  -0.0072526626943278938 -0.037448639820549259  -0.0055731107914015476 -0.047433588136942109 
 0 4 1 4
7 0 0  3 4 2  -0.0072085407286149872 -0.018695528159684359  -0.0073476801872559561 -0.028791746743577706  -0.0072514728163950437 -0.038960579843291508  -0.0055719209134686976 -0.048945528159684358 
 0 4 1 4
1 0 0 1 0 
1 0 -2 1 0 
7 0 0  3 4 2  -0.0055731107914015476 -0.047433588136942109  -0.00431941359225263 -0.051124338486510636  -0.0045370337995549459 -0.057441559899215774  -1.1898779328500808e-06 -0.058988059977257798 
 0 4 1 4
7 0 0  3 4 2  -0.0055719209134686976 -0.048945528159684358  -0.0043182237143197799 -0.052636278509252885  -0.0045358439216220958 -0.058953499921958023  0 -0.060500000000000047 
 0 4 1 4
1 0 0 1 0 
1 0 -2 1 0 
7 0 0  3 4 2  -1.1898779328500808e-06 -0.058988059977257798  0.0045346540436891347 -0.057441559899215851  0.0043170338363870409 -0.051124338486510573  0.0055707310355358475 -0.047433588136942123 
 0 4 1 4
7 0 0  3 4 2  0 -0.060500000000000047  0.0045358439216219848 -0.0589534999219581  0.0043182237143198909 -0.052636278509252822  0.0055719209134686976 -0.048945528159684372 
 0 4 1 4
1 0 0 1 0 
1 0 -2 1 0 
7 0 0  3 4 2  0.0055707310355358475 -0.047433588136942123  0.0072502829384630818 -0.037448639820549204  0.0073464903093222178 -0.027279806720835555  0.0072073508506821371 -0.017183588136942124 
 0 4 1 4
7 0 0  3 4 2  0.0055719209134686976 -0.048945528159684372  0.0072514728163959319 -0.038960579843291453  0.0073476801872550679 -0.028791746743577804  0.0072085407286149872 -0.018695528159684373 
 0 4 1 4
1 0 0 1 0 
1 0 -2 1 0 
7 0 0  3 4 2  0.0072073508506821371 -0.017183588136942124  0.0069592507228479761 -0.0046953245453054482  0.0060676502576342273 0.0077702980179137219  0.0049498163946881668 0.020207468182426511 
 0 4 1 4
7 0 0  3 4 2  0.0072085407286149872 -0.018695528159684373  0.0069604406007808262 -0.0062072645680476988  0.0060688401355670774 0.0062583579951714713  0.0049510062726210169 0.018695528159684262 
 0 4 1 4
1 0 0 1 0 
1 0 -2 1 0 
7 0 0  3 4 2  0.0049498163946881668 0.020207468182426511  0.0040303059343711478 0.030308168178264462  0.0029398958497975913 0.040393290819433957  0.0016824430254772649 0.050457468182426524 
 0 4 1 4
7 0 0  3 4 2  0.0049510062726210169 0.018695528159684262  0.0040314958123039979 0.028796228155522213  0.0029410857277304414 0.038881350796691708  0.001683632903410115 0.048945528159684275 
 0 4 1 4
1 0 0 1 0 
1 0 -2 1 0 
7 0 0  3 4 2  0.0016824430254772649 0.050457468182426524  0.00075733672904065852 0.054199306775509284  0.0012778403426429996 0.058426633434744434  -0.00015364987793287099 0.062011940022742199 
 0 4 1 4
7 0 0  3 4 2  0.001683632903410115 0.048945528159684275  0.0007585266069735086 0.052687366752767036  0.0012790302205758497 0.056914693412002185  -0.00015246000000002091 0.06049999999999995 
 0 4 1 4
1 0 0 0 -1 
1 1 0 0 -1 
1 1 0 0 -1 
1 0 0 0 -1 
1 1 0 0 -1 
1 0 0 0 -1 
1 1 0 0 -1 
1 0 0 0 -1 
1 1 0 0 -1 
1 0 0 0 -1 
1 1 0 0 -1 
1 0 0 0 -1 
1 1 0 0 -1 
1 0 0 0 -1 
1 1 0 0 -1 
1 0 0 0 -1 
1 1 0 0 -1 
1 0 0 0 -1 
1 1 0 0 -1 
1 0 0 0 -1 
Curves 23
2 0.41799999999999998 0 0.90000000000000002 -1 -0 0 -0 0 -1 0 -1 -0 0.065000000000000002
1 0.44 1.5920408388915606e-17 0.83499999999999996 -1 -0 0 
2 0.44 0 0.90000000000000002 -1 -0 0 -0 0 -1 0 -1 -0 0.065000000000000002
7 0 0  3 4 2  0.060499999999999998 0.44 0.90015246000000004  0.056652489196846408 0.43999999999999995 0.90069227752254266  0.052800629497761944 0.44000000000000017 0.90120101243425677  0.048945528159684323 0.44 0.90168363290341014 
 0 4 1 4
7 0 0  3 4 2  0.048945528159684323 0.44 0.90168363290341014  0.03888135079669177 0.43999999999999972 0.9029410857277308  0.028796228155522286 0.44000000000000028 0.9040314958123038  0.018695528159684324 0.44 0.90495100627262104 
 0 4 1 4
7 0 0  3 4 2  0.018695528159684324 0.44 0.90495100627262104  0.0062583579951715276 0.43999999999999989 0.90606884013556699  -0.0062072645680476364 0.44000000000000011 0.90696044060078063  -0.01869552815968431 0.44 0.90720854072861501 
 0 4 1 4
7 0 0  3 4 2  -0.01869552815968431 0.44 0.90720854072861501  -0.028791746743577658 0.43999999999999995 0.90734768018725598  -0.03896057984329146 0.43999999999999995 0.90725147281639507  -0.048945528159684309 0.44 0.90557192091346872 
 0 4 1 4
7 0 0  3 4 2  -0.048945528159684309 0.44 0.90557192091346872  -0.052636278509252836 0.43999999999999989 0.9043182237143198  -0.058953499921957975 0.44000000000000011 0.90453584392162212  -0.060499999999999998 0.44 0.90000000000000002 
 0 4 1 4
7 0 0  3 4 2  -0.060499999999999998 0.44 0.90000000000000002  -0.058953499921958051 0.44000000000000017 0.89546415607837804  -0.052636278509252774 0.43999999999999984 0.89568177628568013  -0.048945528159684323 0.44 0.89442807908653132 
 0 4 1 4
7 0 0  3 4 2  -0.048945528159684323 0.44 0.89442807908653132  -0.038960579843291404 0.43999999999999961 0.89274852718360409  -0.028791746743577755 0.44000000000000034 0.89265231981274495  -0.018695528159684324 0.44 0.89279145927138504 
 0 4 1 4
7 0 0  3 4 2  -0.018695528159684324 0.44 0.89279145927138504  -0.0062072645680476502 0.43999999999999984 0.8930395593992192  0.0062583579951715198 0.43999999999999995 0.89393115986443294  0.01869552815968431 0.44 0.89504899372737901 
 0 4 1 4
7 0 0  3 4 2  0.01869552815968431 0.44 0.89504899372737901  0.028796228155522262 0.43999999999999989 0.89596850418769602  0.038881350796691756 0.44000000000000006 0.89705891427226958  0.048945528159684323 0.44 0.89831636709658991 
 0 4 1 4
7 0 0  3 4 2  0.048945528159684323 0.44 0.89831636709658991  0.052687366752767084 0.44000000000000011 0.89924147339302651  0.056914693412002233 0.43999999999999995 0.89872096977942417  0.060499999999999998 0.44 0.90015246000000004 
 0 4 1 4
1 0.44 -0.06049999999999995 0.90015246000000004 1 0 0 
1 0.44 -0.048945528159684275 0.90168363290341014 1 0 0 
1 0.44 -0.018695528159684276 0.90495100627262104 1 0 0 
1 0.44 0.018695528159684359 0.90720854072861501 1 0 0 
1 0.44 0.048945528159684358 0.90557192091346872 1 0 0 
1 0.44 0.060500000000000047 0.90000000000000002 1 0 0 
1 0.44 0.048945528159684372 0.89442807908653132 1 0 0 
1 0.44 0.018695528159684373 0.89279145927138504 1 0 0 
1 0.44 -0.018695528159684262 0.89504899372737901 1 0 0 
1 0.44 -0.048945528159684275 0.89831636709658991 1 0 0 
Polygon3D 0
PolygonOnTriangulations 0
Surfaces 14
2 0.44 0 0.90000000000000002 -1 -0 0 -0 0 -1 0 -1 -0 0.065000000000000002
1 0.41799999999999998 0 0.90000000000000002 -1 -0 0 -0 0 -1 0 -1 -0 
1 0.44 0 0.90000000000000002 -1 -0 0 -0 0 -1 0 -1 -0 
6 -1 -0 -0 
7 0 0  3 4 2  0.44 -0.06049999999999995 0.90015246000000004  0.43999999999999995 -0.056652489196846359 0.90069227752254266  0.44000000000000017 -0.052800629497761896 0.90120101243425677  0.44 -0.048945528159684275 0.90168363290341014 
 0 4 1 4
1 -0.0015119400227422022 0.43999999999999989 0.89999881012206717 1.7544262184343525e-16 -1 2.939207657464375e-15 0 -2.939207657464375e-15 -1 1 1.7544262184343525e-16 -5.1566229756785147e-31 
6 -1 -0 -0 
7 0 0  3 4 2  0.44 -0.048945528159684275 0.90168363290341014  0.43999999999999972 -0.038881350796691722 0.9029410857277308  0.44000000000000028 -0.028796228155522238 0.9040314958123038  0.44 -0.018695528159684276 0.90495100627262104 
 0 4 1 4
6 -1 -0 -0 
7 0 0  3 4 2  0.44 -0.018695528159684276 0.90495100627262104  0.43999999999999989 -0.0062583579951714791 0.90606884013556699  0.44000000000000011 0.0062072645680476849 0.90696044060078063  0.44 0.018695528159684359 0.90720854072861501 
 0 4 1 4
6 -1 -0 -0 
7 0 0  3 4 2  0.44 0.018695528159684359 0.90720854072861501  0.43999999999999995 0.028791746743577706 0.90734768018725598  0.43999999999999995 0.038960579843291508 0.90725147281639507  0.44 0.048945528159684358 0.90557192091346872 
 0 4 1 4
6 -1 -0 -0 
7 0 0  3 4 2  0.44 0.048945528159684358 0.90557192091346872  0.43999999999999989 0.052636278509252885 0.9043182237143198  0.44000000000000011 0.058953499921958023 0.90453584392162212  0.44 0.060500000000000047 0.90000000000000002 
 0 4 1 4
6 -1 -0 -0 
7 0 0  3 4 2  0.44 0.060500000000000047 0.90000000000000002  0.44000000000000017 0.0589534999219581 0.89546415607837804  0.43999999999999984 0.052636278509252822 0.89568177628568013  0.44 0.048945528159684372 0.89442807908653132 
 0 4 1 4
6 -1 -0 -0 
7 0 0  3 4 2  0.44 0.048945528159684372 0.89442807908653132  0.43999999999999961 0.038960579843291453 0.89274852718360409  0.44000000000000034 0.028791746743577804 0.89265231981274495  0.44 0.018695528159684373 0.89279145927138504 
 0 4 1 4
6 -1 -0 -0 
7 0 0  3 4 2  0.44 0.018695528159684373 0.89279145927138504  0.43999999999999984 0.0062072645680476988 0.8930395593992192  0.43999999999999995 -0.0062583579951714713 0.89393115986443294  0.44 -0.018695528159684262 0.89504899372737901 
 0 4 1 4
6 -1 -0 -0 
7 0 0  3 4 2  0.44 -0.018695528159684262 0.89504899372737901  0.43999999999999989 -0.028796228155522213 0.89596850418769602  0.44000000000000006 -0.038881350796691708 0.89705891427226958  0.44 -0.048945528159684275 0.89831636709658991 
 0 4 1 4
6 -1 -0 -0 
7 0 0  3 4 2  0.44 -0.048945528159684275 0.89831636709658991  0.44000000000000011 -0.052687366752767036 0.89924147339302651  0.43999999999999995 -0.056914693412002185 0.89872096977942417  0.44 -0.06049999999999995 0.90015246000000004 
 0 4 1 4
Triangulations 0

TShapes 67
Ve
1e-07
0.418 1.59204083889156e-17 0.835
0 0

0101101
*
Ve
1e-07
0.44 1.59204083889156e-17 0.835
0 0

0101101
*
Ve
1e-07
0.0605 0.44 0.90015246
0 0

0101101
*
Ve
1e-07
0.0489455281596843 0.44 0.90168363290341
0 0

0101101
*
Ve
1e-07
0.0186955281596843 0.44 0.904951006272621
0 0

0101101
*
Ve
1e-07
-0.0186955281596843 0.44 0.907208540728615
0 0

0101101
*
Ve
1e-07
-0.0489455281596843 0.44 0.905571920913469
0 0

0101101
*
Ve
1e-07
-0.0605 0.44 0.9
0 0

0101101
*
Ve
1e-07
-0.0489455281596843 0.44 0.894428079086531
0 0

0101101
*
Ve
1e-07
-0.0186955281596843 0.44 0.892791459271385
0 0

0101101
*
Ve
1e-07
0.0186955281596843 0.44 0.895048993727379
0 0

0101101
*
Ve
1e-07
0.0489455281596843 0.44 0.89831636709659
0 0

0101101
*
Ed
 1e-07 1 1 0
1  1 0 0 6.28318530717959
2  1 1 0 0 6.28318530717959
2  2 2 0 0 6.28318530717959
0

0101000
+67 0 -67 0 *
Ed
 1e-07 1 1 0
1  2 0 0 0.022
3  3 4CN 1 0 0 0.022
0

0101000
-67 0 +66 0 *
Ed
 1e-07 1 1 0
1  3 0 0 6.28318530717959
2  5 1 0 0 6.28318530717959
2  6 3 0 0 6.28318530717959
0

0101000
+66 0 -66 0 *
Ed
 1e-07 1 1 0
1  4 0 0 1
2  7 4 6 0 1
2  8 4 7 0 1
2  9 5 0 0 1
2  10 3 6 0 1
0

0101000
+65 0 -64 0 *
Ed
 1e-07 1 1 0
1  5 0 0 1
2  11 6 6 0 1
2  12 6 7 0 1
2  13 5 0 0 1
2  14 3 6 0 1
0

0101000
+64 0 -63 0 *
Ed
 1e-07 1 1 0
1  6 0 0 1
2  15 7 6 0 1
2  16 7 7 0 1
2  17 5 0 0 1
2  18 3 6 0 1
0

0101000
+63 0 -62 0 *
Ed
 1e-07 1 1 0
1  7 0 0 1
2  19 8 6 0 1
2  20 8 7 0 1
2  21 5 0 0 1
2  22 3 6 0 1
0

0101000
+62 0 -61 0 *
Ed
 1e-07 1 1 0
1  8 0 0 1
2  23 9 6 0 1
2  24 9 7 0 1
2  25 5 0 0 1
2  26 3 6 0 1
0

0101000
+61 0 -60 0 *
Ed
 1e-07 1 1 0
1  9 0 0 1
2  27 10 6 0 1
2  28 10 7 0 1
2  29 5 0 0 1
2  30 3 6 0 1
0

0101000
+60 0 -59 0 *
Ed
 1e-07 1 1 0
1  10 0 0 1
2  31 11 6 0 1
2  32 11 7 0 1
2  33 5 0 0 1
2  34 3 6 0 1
0

0101000
+59 0 -58 0 *
Ed
 1e-07 1 1 0
1  11 0 0 1
2  35 12 6 0 1
2  36 12 7 0 1
2  37 5 0 0 1
2  38 3 6 0 1
0

0101000
+58 0 -57 0 *
Ed
 1e-07 1 1 0
1  12 0 0 1
2  39 13 6 0 1
2  40 13 7 0 1
2  41 5 0 0 1
2  42 3 6 0 1
0

0101000
+57 0 -56 0 *
Ed
 1e-07 1 1 0
1  13 0 0 1
2  43 14 6 0 1
2  44 14 7 0 1
2  45 5 0 0 1
2  46 3 6 0 1
0

0101000
+56 0 -65 0 *
Ed
 1e-07 1 1 0
1  14 0 0 2
2  47 4 0 0 2
2  48 14 0 0 2
0

0101000
+65 2 -65 8 *
Ed
 1e-07 1 1 0
1  15 0 0 2
2  49 4 0 0 2
2  50 6 0 0 2
4 G1 4 0 6 0
0

0101000
+64 2 -64 8 *
Ed
 1e-07 1 1 0
1  16 0 0 2
2  51 6 0 0 2
2  52 7 0 0 2
4 G1 6 0 7 0
0

0101000
+63 2 -63 8 *
Ed
 1e-07 1 1 0
1  17 0 0 2
2  53 7 0 0 2
2  54 8 0 0 2
0

0101000
+62 2 -62 8 *
Ed
 1e-07 1 1 0
1  18 0 0 2
2  55 8 0 0 2
2  56 9 0 0 2
0

0101000
+61 2 -61 8 *
Ed
 1e-07 1 1 0
1  19 0 0 2
2  57 9 0 0 2
2  58 10 0 0 2
0

0101000
+60 2 -60 8 *
Ed
 1e-07 1 1 0
1  20 0 0 2
2  59 10 0 0 2
2  60 11 0 0 2
0

0101000
+59 2 -59 8 *
Ed
 1e-07 1 1 0
1  21 0 0 2
2  61 11 0 0 2
2  62 12 0 0 2
0

0101000
+58 2 -58 8 *
Ed
 1e-07 1 1 0
1  22 0 0 2
2  63 12 0 0 2
2  64 13 0 0 2
4 G1 12 0 13 0
0

0101000
+57 2 -57 8 *
Ed
 1e-07 1 1 0
1  23 0 0 2
2  65 13 0 0 2
2  66 14 0 0 2
0

0101000
+56 2 -56 8 *
Wi

0101100
-55 0 +54 0 +53 0 -54 0 *
Wi

0101100
+55 0 *
Wi

0101100
+53 0 *
Wi

0101100
-52 2 -51 2 -50 2 -49 2 -48 2 -47 2 -46 2 -45 2 -44 2 -43 2 
*
Wi

0101100
+42 0 -52 2 +52 8 -41 0 *
Wi

0101100
+41 0 -51 2 +51 8 -40 0 *
Wi

0101100
+40 0 -50 2 +50 8 -39 0 *
Wi

0101100
+39 0 -49 2 +49 8 -38 0 *
Wi

0101100
+38 0 -48 2 +48 8 -37 0 *
Wi

0101100
+37 0 -47 2 +47 8 -36 0 *
Wi

0101100
+36 0 -46 2 +46 8 -35 0 *
Wi

0101100
+35 0 -45 2 +45 8 -34 0 *
Wi

0101100
+34 0 -44 2 +44 8 -33 0 *
Wi

0101100
+33 0 -43 2 +43 8 -42 0 *
Wi

0101100
+52 0 +51 0 +50 0 +49 0 +48 0 +47 0 +46 0 +45 0 +44 0 +43 0 
*
Fa
0  1e-07 1 0

0111000
+32 0 *
Fa
0  1e-07 2 0

0111000
+31 0 *
Fa
0  1e-07 3 0

0111000
+30 0 +29 0 *
Fa
0  1e-07 4 0

0111000
+28 0 *
Fa
0  1e-07 6 0

0111000
+27 0 *
Fa
0  1e-07 7 0

0111000
+26 0 *
Fa
0  1e-07 8 0

0111000
+25 0 *
Fa
0  1e-07 9 0

0111000
+24 0 *
Fa
0  1e-07 10 0

0111000
+23 0 *
Fa
0  1e-07 11 0

0111000
+22 0 *
Fa
0  1e-07 12 0

0111000
+21 0 *
Fa
0  1e-07 13 0

0111000
+20 0 *
Fa
0  1e-07 14 0

0111000
+19 0 *
Fa
0  1e-07 5 0

0111000
+18 0 *
Sh

0101100
+17 0 +16 0 -15 0 +14 0 +13 0 +12 0 +11 0 +10 0 +9 0 +8 0 
+7 0 +6 0 +5 0 -4 8 *
So

0100000
+3 0 *
Co

1100000
-67 1 +66 1 +65 3 -64 3 -63 3 -62 3 -61 3 -60 3 -59 3 -58 3 
-57 3 -56 3 -65 5 -64 5 -63 5 -62 5 -61 5 -60 5 -59 5 -58 5 
-57 5 -56 5 -55 1 +54 1 +53 1 +52 3 +51 3 +50 3 +49 3 +48 3 
+47 3 +46 3 +45 3 +44 3 +43 3 +42 1 +52 5 -41 1 +51 5 -40 1 
+50 5 -39 1 +49 5 -38 1 +48 5 -37 1 +47 5 -36 1 +46 5 -35 1 
+45 5 -34 1 +44 5 -33 1 +43 5 +32 1 +31 1 -30 1 -29 1 +28 1 
+27 1 +26 1 +25 1 +24 1 +23 1 +22 1 +21 1 +20 1 +19 1 -18 5 
+17 1 +16 1 -15 1 +14 1 +13 1 +12 1 +11 1 +10 1 +9 1 +8 1 
+7 1 +6 1 +5 1 -4 5 +3 1 +2 1 *

+1 0 