DBRep_DrawableShape

CASCADE Topology V1, (c) Matra-Datavision
Locations 0
Curve2ds 107
1 0 0.10000000000000001 1 0 
2 0 0 1 0 -0 1 0.44
8 -3.9999999999999998e-07 0.1000004
1 6.1930633621649909 0 0 1 
8 -3.9999999999999998e-07 0.1000004
1 0 0.077414376760963854 1 0 
1 0 0 1 0 
2 0 0 1 0 -0 1 0.44
8 -3.9999999999999998e-07 0.1000004
1 0.090121945014595264 0 0 1 
8 -3.9999999999999998e-07 0.1000004
1 0 0.077414376760963854 1 0 
1 0.10000000000000001 0 0 1 
1 0 0.079200000000000007 1 0 
1 0.36080000000000001 0.039600000000000003 1 0 
1 0.10000000000000001 0 0 -1 
1 0 0 0 1 
1 0.36080000000000001 -0.039600000000000003 0 1 
1 0.10000000000000001 0 0 1 
1 0 0 1 0 
1 0.36080000000000001 -0.039600000000000003 1 0 
2 -0.40040000000000003 4.9034857837860028e-17 1 0 -0 1 0.026400000000000003
1 0 0.10000000000000001 1 0 
1 0 0.10000000000000001 1 0 
2 0 0 1 0 -0 1 0.066000000000000003
2 0 0 1 0 -0 1 0.066000000000000003
2 2.4517428918930014e-17 0.40040000000000003 1 0 -0 1 0.026400000000000003
1 0 0.10000000000000001 1 0 
2 -7.3552286756790033e-17 -0.40040000000000003 1 0 -0 1 0.026400000000000003
1 0 0.10000000000000001 1 0 
1 0 0 0 1 
1 0 0 1 0 
1 0.36080000000000001 -0.039600000000000003 1 0 
1 0 0 1 0 
1 0 0 1 0 
1 0 0 1 0 
2 0 0 1 0 -0 1 0.013200000000000002
2 0.050000000000000003 0.039599999999999969 1 0 -0 1 0.013200000000000003
1 0 0 0 1 
1 0 0.079200000000000007 1 0 
1 0.36080000000000001 0.039600000000000003 1 0 
1 0 0 0 -1 
1 0 0 0 1 
1 0.36080000000000001 -0.039600000000000003 0 1 
1 0 0 1 0 
2 0 0 1 0 -0 1 0.026400000000000003
2 -0.40040000000000003 4.9034857837860028e-17 1 0 -0 1 0.026399999999999979
1 0 0 1 0 
2 0 0 1 0 -0 1 0.066000000000000003
2 0 0 1 0 -0 1 0.066000000000000003
1 0 0 1 0 
2 0 0 1 0 -0 1 0.026400000000000003
2 2.4517428918930014e-17 0.40040000000000003 1 0 -0 1 0.026400000000000003
1 0 0 1 0 
2 0 0 1 0 -0 1 0.026400000000000003
2 -7.3552286756790033e-17 -0.40040000000000003 1 0 -0 1 0.026400000000000003
1 0 -0.079200000000000007 1 0 
1 0 0 1 0 
1 0 0.079200000000000007 1 0 
2 0 0 1 0 -0 1 0.013200000000000002
2 0.050000000000000003 0.039599999999999969 1 0 -0 1 0.013200000000000003
1 6.2831853071795862 -0 0 1 
1 0 -0 0 1 
1 0 0.12666666666666668 1 0 
2 0 0 1 0 -0 1 0.026400000000000003
1 6.2831853071795862 -0 0 1 
1 0 -0 0 1 
1 6.2831853071795862 -0 0 1 
1 0 -0 0 1 
1 0 0.12666666666666668 1 0 
2 0 0 1 0 -0 1 0.026400000000000003
1 6.2831853071795862 -0 0 1 
1 0 -0 0 1 
1 0 0.12666666666666668 1 0 
2 0 0 1 0 -0 1 0.026400000000000003
1 6.2831853071795862 -0 0 1 
1 0 -0 0 1 
1 0 0.016500000000000001 1 0 
2 0 0 1 0 -0 1 0.013200000000000002
1 0 0 1 0 
2 0 0 1 0 -0 1 0.013200000000000002
2 0 0 1 0 -0 1 0.01319999999999999
1 0 0 1 0 
2 0 0 1 0 -0 1 0.013200000000000002
2 0 0 1 0 -0 1 0.013200000000000002
1 0 0 1 0 
2 0 0 1 0 -0 1 0.013200000000000002
2 0 0 1 0 -0 1 0.013200000000000002
1 0 0.062700000000000006 1 0 
2 0 0 1 0 -0 1 0.013200000000000002
1 0 0.12666666666666668 1 0 
2 0 0 1 0 -0 1 0.013200000000000002
2 0 0 1 0 -0 1 0.01319999999999999
1 0 0.12666666666666668 1 0 
2 0 0 1 0 -0 1 0.013200000000000002
2 0 0 1 0 -0 1 0.013200000000000002
1 0 0.12666666666666668 1 0 
2 0 0 1 0 -0 1 0.013200000000000002
2 0 0 1 0 -0 1 0.013200000000000002
1 0 0 1 0 
2 0 0 1 0 -0 1 0.023100000000000002
1 6.2831853071795862 -0 0 1 
1 0 -0 0 1 
1 6.2831853071795862 -0 0 1 
1 0 -0 0 1 
1 6.2831853071795862 -0 0 1 
1 0 -0 0 1 
1 0 0.046200000000000005 1 0 
2 0 0 1 0 -0 1 0.023100000000000002
1 6.2831853071795862 -0 0 1 
1 0 -0 0 1 
Curves 44
2 0 0 0.10000000000000001 0 0 1 1 0 -0 -0 1 0 0.44
1 0.43821437676096386 -0.039600000000000003 0 0 0 1 
2 0 0 0 0 0 1 1 0 -0 -0 1 0 0.44
1 0.43821437676096386 0.039600000000000003 0 0 0 1 
1 0.36080000000000001 0.039600000000000003 0.10000000000000001 1 0 -0 
1 0.36080000000000001 -0.039600000000000003 0.10000000000000001 -0 1 0 
1 0.36080000000000001 -0.039600000000000003 0.10000000000000001 1 0 -0 
2 -0.40040000000000003 4.9034857837860028e-17 0.10000000000000001 0 0 1 1 0 -0 -0 1 0 0.026400000000000003
2 0 0 0.10000000000000001 0 0 1 1 0 -0 -0 1 0 0.066000000000000003
2 2.4517428918930014e-17 0.40040000000000003 0.10000000000000001 0 0 1 1 0 -0 -0 1 0 0.026400000000000003
2 -7.3552286756790033e-17 -0.40040000000000003 0.10000000000000001 0 0 1 1 0 -0 -0 1 0 0.026400000000000003
1 0.36080000000000001 -0.039600000000000003 0 1 0 -0 
1 0.36080000000000001 -0.039600000000000003 0 0 0 1 
2 0.40039999999999998 -0.039600000000000003 0.050000000000000003 0 1 0 0 -0 1 1 0 -0 0.013200000000000002
1 0.36080000000000001 0.039600000000000003 0 1 0 -0 
1 0.36080000000000001 -0.039600000000000003 0 -0 1 0 
2 -0.40040000000000003 4.9034857837860028e-17 0 0 0 1 1 0 -0 -0 1 0 0.026400000000000003
2 0 0 0 0 0 1 1 0 -0 -0 1 0 0.066000000000000003
2 2.4517428918930014e-17 0.40040000000000003 0 0 0 1 1 0 -0 -0 1 0 0.026400000000000003
2 -7.3552286756790033e-17 -0.40040000000000003 0 0 0 1 1 0 -0 -0 1 0 0.026400000000000003
1 0.36080000000000001 0.039600000000000003 0 0 0 1 
2 0.40039999999999998 0.039600000000000003 0.050000000000000003 0 1 0 0 -0 1 1 0 -0 0.013200000000000002
1 -0.37400000000000005 4.2568722738361992e-17 0 0 0 1 
2 -0.40040000000000003 4.9034857837860028e-17 0.12666666666666668 0 0 1 1 0 -0 -0 1 0 0.026400000000000003
1 0.066000000000000003 -1.6165337748745064e-17 0 0 0 1 
1 0.026400000000000028 0.40040000000000003 0 0 0 1 
2 2.4517428918930014e-17 0.40040000000000003 0.12666666666666668 0 0 1 1 0 -0 -0 1 0 0.026400000000000003
1 0.02639999999999993 -0.40040000000000003 0 0 0 1 
2 -7.3552286756790033e-17 -0.40040000000000003 0.12666666666666668 0 0 1 1 0 -0 -0 1 0 0.026400000000000003
1 0.40039999999999998 -0.039600000000000003 0.063200000000000006 0 1 0 
2 0.40039999999999998 -0.023100000000000002 0.050000000000000003 0 1 0 0 -0 1 1 0 -0 0.013200000000000002
2 -0.40040000000000003 4.9034857837860028e-17 0 0 0 1 1 0 -0 -0 1 0 0.013200000000000002
2 2.4517428918930014e-17 0.40040000000000003 0 0 0 1 1 0 -0 -0 1 0 0.013200000000000002
2 -7.3552286756790033e-17 -0.40040000000000003 0 0 0 1 1 0 -0 -0 1 0 0.013200000000000002
2 0.40039999999999998 0.023100000000000002 0.050000000000000003 0 1 0 0 -0 1 1 0 -0 0.013200000000000002
2 -0.40040000000000003 4.9034857837860028e-17 0.12666666666666668 0 0 1 1 0 -0 -0 1 0 0.013200000000000002
2 2.4517428918930014e-17 0.40040000000000003 0.12666666666666668 0 0 1 1 0 -0 -0 1 0 0.013200000000000002
2 -7.3552286756790033e-17 -0.40040000000000003 0.12666666666666668 0 0 1 1 0 -0 -0 1 0 0.013200000000000002
2 0.40039999999999998 -0.023100000000000002 0.050000000000000003 0 1 0 0 -0 1 1 0 -0 0.023100000000000002
1 -0.38720000000000004 4.5801790288111007e-17 0 0 0 1 
1 0.013200000000000026 0.40040000000000003 0 0 0 1 
1 0.013199999999999929 -0.40040000000000003 0 0 0 1 
2 0.40039999999999998 0.023100000000000002 0.050000000000000003 0 1 0 0 -0 1 1 0 -0 0.023100000000000002
1 0.40039999999999998 -0.023100000000000002 0.073099999999999998 0 1 0 
Polygon3D 0
PolygonOnTriangulations 0
Surfaces 35
2 0 0 0 0 0 1 1 0 -0 -0 1 0 0.44
1 0 0 0.10000000000000001 0 0 1 1 0 -0 -0 1 0 
1 0.36080000000000001 -0.039600000000000003 0 -0 1 0 0 0 1 1 0 -0 
1 0 0 0 0 0 1 1 0 -0 -0 1 0 
1 0.36080000000000001 0.039600000000000003 0 -0 1 0 0 0 1 1 0 -0 
1 0.36080000000000001 -0.039600000000000003 0.10000000000000001 0 0 1 1 0 -0 -0 1 0 
1 0.36080000000000001 -0.039600000000000003 0 1 0 -0 0 0 1 0 -1 0 
2 -0.40040000000000003 4.9034857837860028e-17 0 0 0 1 1 0 -0 -0 1 0 0.026400000000000003
2 0 0 0 0 0 1 1 0 -0 -0 1 0 0.066000000000000003
1 0 0 0.10000000000000001 0 0 1 1 0 -0 -0 1 0 
2 2.4517428918930014e-17 0.40040000000000003 0 0 0 1 1 0 -0 -0 1 0 0.026400000000000003
2 -7.3552286756790033e-17 -0.40040000000000003 0 0 0 1 1 0 -0 -0 1 0 0.026400000000000003
1 0.36080000000000001 -0.039600000000000003 0 0 0 1 1 0 -0 -0 1 0 
2 0.40039999999999998 -0.039600000000000003 0.050000000000000003 0 1 0 0 -0 1 1 0 -0 0.013200000000000002
1 0.40039999999999998 -0.039600000000000003 0.050000000000000003 0 1 0 0 -0 1 1 0 -0 
1 -0.40040000000000003 4.9034857837860028e-17 0 0 0 1 1 0 -0 -0 1 0 
1 0 0 0 0 0 1 1 0 -0 -0 1 0 
1 2.4517428918930014e-17 0.40040000000000003 0 0 0 1 1 0 -0 -0 1 0 
1 -7.3552286756790033e-17 -0.40040000000000003 0 0 0 1 1 0 -0 -0 1 0 
1 0.40039999999999998 0.039600000000000003 0.050000000000000003 0 1 0 0 -0 1 1 0 -0 
1 -0.40040000000000003 4.9034857837860028e-17 0.12666666666666668 0 0 1 1 0 -0 -0 1 0 
1 2.4517428918930014e-17 0.40040000000000003 0.12666666666666668 0 0 1 1 0 -0 -0 1 0 
1 -7.3552286756790033e-17 -0.40040000000000003 0.12666666666666668 0 0 1 1 0 -0 -0 1 0 
1 0.40039999999999998 -0.023100000000000002 0.050000000000000003 0 1 0 0 -0 1 1 0 -0 
2 -0.40040000000000003 4.9034857837860028e-17 0 0 0 1 1 0 -0 -0 1 0 0.013200000000000002
1 -0.40040000000000003 4.9034857837860028e-17 0 0 0 1 1 0 -0 -0 1 0 
2 2.4517428918930014e-17 0.40040000000000003 0 0 0 1 1 0 -0 -0 1 0 0.013200000000000002
1 2.4517428918930014e-17 0.40040000000000003 0 0 0 1 1 0 -0 -0 1 0 
2 -7.3552286756790033e-17 -0.40040000000000003 0 0 0 1 1 0 -0 -0 1 0 0.013200000000000002
1 -7.3552286756790033e-17 -0.40040000000000003 0 0 0 1 1 0 -0 -0 1 0 
1 0.40039999999999998 0.023100000000000002 0.050000000000000003 0 1 0 0 -0 1 1 0 -0 
1 -0.40040000000000003 4.9034857837860028e-17 0.12666666666666668 0 0 1 1 0 -0 -0 1 0 
1 2.4517428918930014e-17 0.40040000000000003 0.12666666666666668 0 0 1 1 0 -0 -0 1 0 
1 -7.3552286756790033e-17 -0.40040000000000003 0.12666666666666668 0 0 1 1 0 -0 -0 1 0 
2 0.40039999999999998 -0.023100000000000002 0.050000000000000003 0 1 0 0 -0 1 1 0 -0 0.023100000000000002
Triangulations 0

TShapes 145
Ve
1.00000004437423e-07
0.438214376760963 0.0396000000000044 0.1
0 0

0101101
*
Ve
1.00000004357625e-07
0.438214376760963 -0.0396000000000044 0.1
0 0

0101101
*
Ve
1.00000004357625e-07
0.438214376760963 -0.0396000000000044 0
0 0

0101101
*
Ve
1.00000004437423e-07
0.438214376760963 0.0396000000000044 0
0 0

0101101
*
Ve
1e-07
0.3608 0.0396 0.1
0 0

0101101
*
Ve
1e-07
0.3608 -0.0396 0.1
0 0

0101101
*
Ve
2.00001e-07
-0.374 4.2568722738362e-17 0.1
0 0

0101101
*
Ve
1e-07
0.066 -1.61653377487451e-17 0.1
0 0

0101101
*
Ve
2.00001e-07
0.0264 0.4004 0.1
0 0

0101101
*
Ve
2.00001e-07
0.0263999999999999 -0.4004 0.1
0 0

0101101
*
Ve
1e-07
0.3608 -0.0396 0
0 0

0101101
*
Ve
1e-07
0.4004 -0.0396 0.0632
0 0

0101101
*
Ve
1e-07
0.3608 0.0396 0
0 0

0101101
*
Ve
1e-07
-0.374 4.2568722738362e-17 0
0 0

0101101
*
Ve
1e-07
0.066 -1.61653377487451e-17 0
0 0

0101101
*
Ve
1e-07
0.0264 0.4004 0
0 0

0101101
*
Ve
1e-07
0.0263999999999999 -0.4004 0
0 0

0101101
*
Ve
1e-07
0.4004 0.0396 0.0632
0 0

0101101
*
Ve
1e-07
-0.374 4.2568722738362e-17 0.126666666666667
0 0

0101101
*
Ve
1e-07
0.0264 0.4004 0.126666666666667
0 0

0101101
*
Ve
1e-07
0.0263999999999999 -0.4004 0.126666666666667
0 0

0101101
*
Ve
2.00001e-07
0.4004 -0.0231 0.0632
0 0

0101101
*
Ve
1e-07
-0.3872 4.5801790288111e-17 0
0 0

0101101
*
Ve
1e-07
0.0132 0.4004 0
0 0

0101101
*
Ve
1e-07
0.0131999999999999 -0.4004 0
0 0

0101101
*
Ve
2.00001e-07
0.4004 0.0231 0.0632
0 0

0101101
*
Ve
1e-07
-0.3872 4.5801790288111e-17 0.126666666666667
0 0

0101101
*
Ve
1e-07
0.0132 0.4004 0.126666666666667
0 0

0101101
*
Ve
1e-07
0.0131999999999999 -0.4004 0.126666666666667
0 0

0101101
*
Ve
1e-07
0.4004 -0.0231 0.0731
0 0

0101101
*
Ve
1e-07
0.4004 0.0231 0.0731
0 0

0101101
*
Ed
 1e-07 1 1 0
1  1 0 0.0901219450146055 6.19306336216498
2  1 1 0 0.0901219450146055 6.19306336216498
2  2 2 0 0.0901219450146055 6.19306336216498
0

0101000
+145 0 -144 0 *
Ed
 1e-07 1 1 0
1  2 0 0 0.1
2  3 1 0 0 0.1
2  4 3 0 0 0.1
0

0101000
+143 0 -144 0 *
Ed
 1e-07 1 1 0
1  3 0 0.0901219450146055 6.19306336216498
2  5 1 0 0.0901219450146055 6.19306336216498
2  6 4 0 0.0901219450146055 6.19306336216498
0

0101000
+142 0 -143 0 *
Ed
 1e-07 1 1 0
1  4 0 0 0.1
2  7 1 0 0 0.1
2  8 5 0 0 0.1
0

0101000
+142 0 -145 0 *
Ed
 1e-07 1 1 0
1  5 0 0 0.077414376760963
2  9 5 0 0 0.077414376760963
2  10 6 0 0 0.077414376760963
2  11 2 0 0 0.077414376760963
0

0101000
+141 0 -145 0 *
Ed
 1e-07 1 1 0
1  6 0 0 0.0792
2  12 7 0 0 0.0792
2  13 6 0 0 0.0792
2  14 2 0 0 0.0792
0

0101000
-141 0 +140 0 *
Ed
 1e-07 1 1 0
1  7 0 0 0.0774143767609631
2  15 3 0 0 0.0774143767609631
2  16 6 0 0 0.0774143767609631
2  17 2 0 0 0.0774143767609631
0

0101000
+140 0 -144 0 *
Ed
 1e-07 1 1 0
1  8 0 0 6.28318530717959
2  18 2 0 0 6.28318530717959
2  19 8 0 0 6.28318530717959
0

0101000
+139 0 -139 0 *
Ed
 1e-07 1 1 0
1  9 0 0 6.28318530717959
2  20 9 0 0 6.28318530717959
2  21 10 0 0 6.28318530717959
2  22 2 0 0 6.28318530717959
0

0101000
+138 0 -138 0 *
Ed
 1e-07 1 1 0
1  10 0 0 6.28318530717959
2  23 2 0 0 6.28318530717959
2  24 11 0 0 6.28318530717959
0

0101000
+137 0 -137 0 *
Ed
 1e-07 1 1 0
1  11 0 0 6.28318530717959
2  25 2 0 0 6.28318530717959
2  26 12 0 0 6.28318530717959
0

0101000
+136 0 -136 0 *
Ed
 1e-07 1 1 0
1  12 0 0 0.0774143767609631
2  27 3 0 0 0.0774143767609631
2  28 13 0 0 0.0774143767609631
2  29 4 0 0 0.0774143767609631
0

0101000
+135 0 -143 0 *
Ed
 1e-07 1 1 0
1  13 0 0 0.1
2  30 7 0 0 0.1
2  31 3 0 0 0.1
0

0101000
-140 0 +135 0 *
Ed
 1e-07 1 1 0
1  14 0 0 6.28318530717959
2  32 14 0 0 6.28318530717959
2  33 15 0 0 6.28318530717959
2  34 3 0 0 6.28318530717959
0

0101000
+134 0 -134 0 *
Ed
 1e-07 1 1 0
1  15 0 0 0.077414376760963
2  35 5 0 0 0.077414376760963
2  36 13 0 0 0.077414376760963
2  37 4 0 0 0.077414376760963
0

0101000
+133 0 -142 0 *
Ed
 1e-07 1 1 0
1  16 0 0 0.0792
2  38 7 0 0 0.0792
2  39 13 0 0 0.0792
2  40 4 0 0 0.0792
0

0101000
-133 0 +135 0 *
Ed
 1e-07 1 1 0
1  17 0 0 6.28318530717959
2  41 8 0 0 6.28318530717959
2  42 16 0 0 6.28318530717959
2  43 4 0 0 6.28318530717959
0

0101000
+132 0 -132 0 *
Ed
 1e-07 1 1 0
1  18 0 0 6.28318530717959
2  44 9 0 0 6.28318530717959
2  45 17 0 0 6.28318530717959
2  46 4 0 0 6.28318530717959
0

0101000
+131 0 -131 0 *
Ed
 1e-07 1 1 0
1  19 0 0 6.28318530717959
2  47 11 0 0 6.28318530717959
2  48 18 0 0 6.28318530717959
2  49 4 0 0 6.28318530717959
0

0101000
+130 0 -130 0 *
Ed
 1e-07 1 1 0
1  20 0 0 6.28318530717959
2  50 12 0 0 6.28318530717959
2  51 19 0 0 6.28318530717959
2  52 4 0 0 6.28318530717959
0

0101000
+129 0 -129 0 *
Ed
 1e-07 1 1 0
1  21 0 0 0.1
2  53 7 0 0 0.1
2  54 5 0 0 0.1
0

0101000
-141 0 +133 0 *
Ed
 1e-07 1 1 0
1  22 0 0 6.28318530717959
2  55 14 0 0 6.28318530717959
2  56 20 0 0 6.28318530717959
2  57 5 0 0 6.28318530717959
0

0101000
+128 0 -128 0 *
Ed
 1e-07 1 1 0
1  23 0 0.1 0.126666666666667
3  58 59CN 8 0 0.1 0.126666666666667
0

0101000
+139 0 -127 0 *
Ed
 1e-07 1 1 0
1  24 0 0 6.28318530717959
2  60 8 0 0 6.28318530717959
2  61 21 0 0 6.28318530717959
0

0101000
+127 0 -127 0 *
Ed
 1e-07 1 1 0
1  25 0 0 0.1
3  62 63CN 9 0 0 0.1
0

0101000
-138 0 +131 0 *
Ed
 1e-07 1 1 0
1  26 0 0.1 0.126666666666667
3  64 65CN 11 0 0.1 0.126666666666667
0

0101000
+137 0 -126 0 *
Ed
 1e-07 1 1 0
1  27 0 0 6.28318530717959
2  66 11 0 0 6.28318530717959
2  67 22 0 0 6.28318530717959
0

0101000
+126 0 -126 0 *
Ed
 1e-07 1 1 0
1  28 0 0.1 0.126666666666667
3  68 69CN 12 0 0.1 0.126666666666667
0

0101000
+136 0 -125 0 *
Ed
 1e-07 1 1 0
1  29 0 0 6.28318530717959
2  70 12 0 0 6.28318530717959
2  71 23 0 0 6.28318530717959
0

0101000
+125 0 -125 0 *
Ed
 1e-07 1 1 0
1  30 0 0 0.0165
3  72 73CN 14 0 0 0.0165
0

0101000
+134 0 -124 0 *
Ed
 1e-07 1 1 0
1  31 0 0 6.28318530717959
2  74 14 0 0 6.28318530717959
2  75 24 0 0 6.28318530717959
0

0101000
+124 0 -124 0 *
Ed
 1e-07 1 1 0
1  32 0 0 6.28318530717959
2  76 25 0 0 6.28318530717959
2  77 26 0 0 6.28318530717959
2  78 16 0 0 6.28318530717959
0

0101000
+123 0 -123 0 *
Ed
 1e-07 1 1 0
1  33 0 0 6.28318530717959
2  79 27 0 0 6.28318530717959
2  80 28 0 0 6.28318530717959
2  81 18 0 0 6.28318530717959
0

0101000
+122 0 -122 0 *
Ed
 1e-07 1 1 0
1  34 0 0 6.28318530717959
2  82 29 0 0 6.28318530717959
2  83 30 0 0 6.28318530717959
2  84 19 0 0 6.28318530717959
0

0101000
+121 0 -121 0 *
Ed
 1e-07 1 1 0
1  35 0 0 6.28318530717959
2  85 14 0 0 6.28318530717959
2  86 31 0 0 6.28318530717959
0

0101000
+120 0 -120 0 *
Ed
 1e-07 1 1 0
1  30 0 0.0627 0.0792
3  72 73CN 14 0 0.0627 0.0792
0

0101000
+120 0 -128 0 *
Ed
 1e-07 1 1 0
1  36 0 0 6.28318530717959
2  87 25 0 0 6.28318530717959
2  88 32 0 0 6.28318530717959
2  89 21 0 0 6.28318530717959
0

0101000
+119 0 -119 0 *
Ed
 1e-07 1 1 0
1  37 0 0 6.28318530717959
2  90 27 0 0 6.28318530717959
2  91 33 0 0 6.28318530717959
2  92 22 0 0 6.28318530717959
0

0101000
+118 0 -118 0 *
Ed
 1e-07 1 1 0
1  38 0 0 6.28318530717959
2  93 29 0 0 6.28318530717959
2  94 34 0 0 6.28318530717959
2  95 23 0 0 6.28318530717959
0

0101000
+117 0 -117 0 *
Ed
 1e-07 1 1 0
1  39 0 0 6.28318530717959
2  96 35 0 0 6.28318530717959
2  97 24 0 0 6.28318530717959
0

0101000
+116 0 -116 0 *
Ed
 1e-07 1 1 0
1  40 0 0 0.126666666666667
3  98 99CN 25 0 0 0.126666666666667
0

0101000
-119 0 +123 0 *
Ed
 1e-07 1 1 0
1  41 0 0 0.126666666666667
3  100 101CN 27 0 0 0.126666666666667
0

0101000
-118 0 +122 0 *
Ed
 1e-07 1 1 0
1  42 0 0 0.126666666666667
3  102 103CN 29 0 0 0.126666666666667
0

0101000
-117 0 +121 0 *
Ed
 1e-07 1 1 0
1  43 0 0 6.28318530717959
2  104 35 0 0 6.28318530717959
2  105 31 0 0 6.28318530717959
0

0101000
+115 0 -115 0 *
Ed
 1e-07 1 1 0
1  44 0 0 0.0462
3  106 107CN 35 0 0 0.0462
0

0101000
-115 0 +116 0 *
Wi

0101100
-114 0 +113 0 +112 0 -111 0 *
Wi

0101100
+110 0 +109 0 -108 0 +114 0 *
Wi

0101100
-107 0 *
Wi

0101100
-106 0 *
Wi

0101100
-105 0 *
Wi

0101100
-104 0 *
Wi

0101100
-103 0 +102 0 -113 0 +108 0 *
Wi

0101100
-101 0 *
Wi

0101100
+100 0 +99 0 -103 0 +112 0 *
Wi

0101100
-98 0 *
Wi

0101100
-97 0 *
Wi

0101100
-96 0 *
Wi

0101100
-95 0 *
Wi

0101100
-100 0 +94 0 -111 0 +110 0 *
Wi

0101100
-93 0 *
Wi

0101100
-102 0 -109 0 +99 0 +94 0 *
Wi

0101100
+92 0 +107 0 -92 0 -91 0 *
Wi

0101100
+90 0 +97 0 -90 0 -106 0 *
Wi

0101100
+89 0 +105 0 -89 0 -88 0 *
Wi

0101100
+87 0 +104 0 -87 0 -86 0 *
Wi

0101100
+85 0 +101 0 -85 0 -84 0 *
Wi

0101100
+98 0 *
Wi

0101100
-83 0 *
Wi

0101100
+96 0 *
Wi

0101100
-82 0 *
Wi

0101100
+95 0 *
Wi

0101100
-81 0 *
Wi

0101100
+80 0 -79 0 -93 0 +79 0 *
Wi

0101100
+91 0 *
Wi

0101100
-78 0 *
Wi

0101100
+88 0 *
Wi

0101100
-77 0 *
Wi

0101100
+86 0 *
Wi

0101100
-76 0 *
Wi

0101100
+75 0 *
Wi

0101100
-84 0 *
Wi

0101100
+74 0 +83 0 -74 0 -78 0 *
Wi

0101100
+73 0 +82 0 -73 0 -77 0 *
Wi

0101100
+72 0 +81 0 -72 0 -76 0 *
Wi

0101100
+71 0 *
Wi

0101100
-80 0 *
Wi

0101100
-71 0 +70 0 +75 0 -70 0 *
Fa
0  1e-07 1 0

0111000
+69 0 *
Fa
0  1e-07 2 0

0101000
+68 0 +67 0 +66 0 +65 0 +64 0 *
Fa
0  1e-07 3 0

0111000
+63 0 +62 0 *
Fa
0  1e-07 4 0

0101000
+61 0 +60 0 +59 0 +58 0 +57 0 *
Fa
0  1e-07 5 0

0111000
+56 0 +55 0 *
Fa
0  1e-07 7 0

0111000
+54 0 *
Fa
0  1e-07 8 0

0101000
+53 0 *
Fa
0  1e-07 9 0

0111000
+52 0 *
Fa
0  1e-07 11 0

0101000
+51 0 *
Fa
0  1e-07 12 0

0101000
+50 0 *
Fa
0  1e-07 14 0

0111000
+49 0 *
Fa
0  1e-07 16 0

0101000
+48 0 +47 0 *
Fa
0  1e-07 18 0

0101000
+46 0 +45 0 *
Fa
0  1e-07 19 0

0101000
+44 0 +43 0 *
Fa
0  1e-07 14 0

0111000
+42 0 *
Fa
0  1e-07 21 0

0101000
+41 0 +40 0 *
Fa
0  1e-07 22 0

0101000
+39 0 +38 0 *
Fa
0  1e-07 23 0

0101000
+37 0 +36 0 *
Fa
0  1e-07 24 0

0111000
+35 0 +34 0 *
Fa
0  1e-07 25 0

0101000
+33 0 *
Fa
0  1e-07 27 0

0101000
+32 0 *
Fa
0  1e-07 29 0

0101000
+31 0 *
Fa
0  1e-07 31 0

0111000
+30 0 +29 0 *
Fa
0  1e-07 35 0

0101000
+28 0 *
Sh

0101100
+27 0 +26 0 +25 0 -24 0 -23 0 +22 0 +21 0 -20 0 +19 0 +18 0 
+17 0 -16 0 -15 0 -14 0 +13 0 +12 0 +11 0 +10 0 -9 0 -8 0 
-7 0 -6 0 +5 0 +4 0 *
So

0100000
+3 0 *
Co

1100000
-145 0 +144 0 +143 0 +142 0 +141 0 +140 0 -139 0 -138 0 -137 0 -136 0 
-135 0 -134 0 -133 0 +132 0 +131 0 +130 0 +129 0 +128 0 -127 0 -126 0 
-125 0 -124 0 +123 0 +122 0 +121 0 +120 0 -119 0 -118 0 -117 0 -116 0 
+115 0 -114 0 +113 0 +112 0 -111 0 +110 0 +109 0 -108 0 -107 0 -106 0 
-105 0 -104 0 -103 0 +102 0 -101 0 -100 0 -99 0 +98 0 +97 0 +96 0 
+95 0 -94 0 +93 0 +92 0 -91 0 -90 0 +89 0 -88 0 +87 0 -86 0 
+85 0 -84 0 +83 0 +82 0 +81 0 +80 0 -79 0 -78 0 -77 0 -76 0 
-75 0 -74 0 -73 0 -72 0 +71 0 +70 0 +69 0 +68 0 +67 0 +66 0 
+65 0 +64 0 +63 0 +62 0 -61 0 -60 0 -59 0 -58 0 -57 0 -56 0 
-55 0 +54 0 +53 0 -52 0 +51 0 +50 0 +49 0 -48 0 -47 0 -46 0 
-45 0 -44 0 -43 0 +42 0 +41 0 +40 0 +39 0 +38 0 +37 0 +36 0 
-35 0 -34 0 -33 0 -32 0 -31 0 +30 0 +29 0 +28 0 +27 0 +26 0 
+25 0 -24 0 -23 0 +22 0 +21 0 -20 0 +19 0 +18 0 +17 0 -16 0 
-15 0 -14 0 +13 0 +12 0 +11 0 +10 0 -9 0 -8 0 -7 0 -6 0 
+5 0 +4 0 +3 0 +2 0 *

+1 0 