DBRep_DrawableShape

CASCADE Topology V1, (c) Matra-Datavision
Locations 0
Curve2ds 27
1 0 0 1 0 
2 0 0 1 0 -0 1 0.066000000000000003
1 6.2831853071795862 -0 0 1 
1 0 -0 0 1 
1 0 0.80000000000000004 1 0 
2 0 0 1 0 -0 1 0.066000000000000003
2 0 0 1 0 -0 1 0.066000000000000003
1 0 0 1 0 
2 0 0 1 0 -0 1 0.22
7 0 0  7 98 17  6.2831853071795862 0.16500000000000001  6.2745505679993263 0.16499999981003571  6.2659220134047553 0.1649352274852193  6.2573210492144122 0.16480585753611504  6.248769428077642 0.16461265082441701  6.2402892930999219 0.16435701003820333  6.2319032214681682 0.16404103516719087  6.215689226165301 0.16330875181639565  6.2078504099878939 0.16289679353081019  6.2001224995204796 0.16243343706302418  6.192510361318269 0.16192042889164776  6.1850190485150653 0.16135952903211029  6.1776538008232569 0.1607525110366603  6.1652589781013365 0.15963644414329284  6.1601621962279891 0.15914892234745465  6.1551297366002773 0.15863905306855464  6.1501614160014162 0.15810719793220626  6.1452568303113333 0.15755362372793311  6.1404153545066764 0.15697850240916858  6.1316824593961599 0.15588837090763205  6.127771445265016 0.15538013559264013  6.123902652979174 0.15485724815487417  6.1200756327763708 0.15431969957221772  6.1162899324202673 0.15376742879384367  6.1125450972004511 0.15320032274021431  6.1031120519459021 0.15171803250554211  6.0974808702816805 0.15078210087130925  6.0919446361342589 0.14980965858184495  6.0865016549006352 0.14879971561871758  6.0811509726331385 0.14775096402791504  6.075892322492245 0.1466616871841577  6.0662537920970356 0.14454971265459612  6.0618528512800482 0.14353818746600028  6.0575206521346106 0.14249306976296366  6.0532565503182321 0.14141225532691945  6.0490617216346836 0.14029348070981618  6.0449390299088774 0.13913424449673958  6.03566397238622 0.13637768687416882  6.0305853800744336 0.13475803999564456  6.025634154166247 0.13305862741564725  6.0208073499784263 0.13126542837959224  6.0161220291995585 0.12936503215286727  6.0116152471849409 0.12734510827807471  6.0021572629912674 0.12258372458867714  5.997205376830963 0.11972376942317514  5.9926063867509729 0.11657484839691853  5.9885715510852862 0.1131058426505242  5.9853981709672599 0.10929394982659871  5.9834602501317535 0.10512253062062574  5.983084751647965 0.096325703139654009  5.9844629024183575 0.092348268923022461  5.9870319852609883 0.088656133116658847  5.9904905786080471 0.085251272832021247  5.9945716140570813 0.082134058089034415  5.9990279047401156 0.079303869082619299  6.0078831794306327 0.074413106436151705  6.0124184686363282 0.072221581721492289  6.0171644324781388 0.070171062720802091  6.022070650075249 0.068246188102085589  6.0271136344131051 0.066429852758904659  6.0322973859884952 0.064703803013857114  6.041545553238735 0.0618476243289523  6.0455106907983902 0.0606890159463487  6.0495455054283349 0.059570554568686727  6.0536467811807038 0.05848970951435075  6.0578130909467429 0.057444151820492492  6.0620449362057736 0.056431681170411176  6.071669789817471 0.054234663663054371  6.077095818581725 0.053067383283410083  6.0826219945196858 0.051945506069360818  6.0882482283156083 0.050866852110981353  6.0939753982591212 0.049829745705485672  6.0998054286191303 0.048832893861651502  6.1093450034796737 0.047293900036360866  6.1129872412780974 0.046727060710876268  6.1166684960619033 0.046174565123416021  6.1203891880785779 0.045636280786256388  6.1241497431742085 0.045112124428324997  6.127950592793475 0.044602061995200844  6.1363955192586488 0.043511810524549978  6.1410572814533193 0.042937769632264845  6.145778256939459 0.042384012037207319  6.1505590794848457 0.041850650441446542  6.155400220249243 0.041337884184172342  6.1603019877843943 0.040845999241695186  6.1720088150533456 0.039735762202987315  6.1788688944444647 0.039135073550645591  6.1858414989934118 0.038574613610239505  6.1929234723224296 0.038055728847531355  6.2001117688899878 0.037579800854227352  6.2074034539907714 0.037148246347977566  6.2242114103306161 0.036271203587154806  6.233800093280542 0.035853746826442483  6.2435279664411238 0.035514950241315679  6.2533621458709741 0.035258330897276438  6.2632705589694231 0.035086242779819574  6.2732218535942774 0.034999999999999969  6.2831853071795862 0.034999999999999969 
 0 8 0.070618603648857317 6 0.13847093502197066 6 0.18688152224702398 6 0.22692999356723551 6 0.28886194054286174 6 0.34247469310349637 6 0.41175980681779756 6 0.49589678680487409 6 0.57480755683948459 6 0.64752545253947258 6 0.70033219500793742 6 0.76572615226603202 6 0.80542601568217465 6 0.85299814027785992 6 0.91765052519616219 6 1 8
7 0 0  7 98 17  0 0.22  0.029225271071651741 0.21999999994387423  0.058429629827682031 0.21998086392376762  0.087577761503163543 0.21994263859731192  0.11663309888864277 0.21988566445588797  0.14555630639964381 0.21981057381605668  0.17430376414617205 0.21971828881098959  0.23023106466362583 0.21950599108339844  0.25743473682261542 0.21938717982823228  0.28444762012254465 0.21925443784509818  0.31127805160878053 0.21910866061683262  0.33793215372869945 0.21895078688041211  0.36441383433168706 0.21878179862695313  0.40949685576875855 0.21847495470105521  0.42819175925949798 0.2183419850535652  0.44681715419887341 0.21820412654903115  0.46538178462611873 0.21806167833793366  0.48389548156218604 0.21791492433144444  0.50236916300974488 0.21776413320142665  0.53607432502950636 0.21748168376374094  0.5513145629420324 0.21735122074095053  0.56654225429879923 0.21721831215580822  0.58176455916215553 0.21708309559047786  0.59698909104876052 0.21694570336554259  0.61222391692958389 0.21680626254000432  0.65106616401370554 0.21644628051234882  0.67469651960990973 0.21622308932809364  0.69840404590631178 0.21599574516275027  0.72222428383927895 0.215764668377385  0.74619484642249212 0.21553028412716893  0.77035737177568731 0.21529303059864727  0.81588369471664612 0.21484589739345758  0.83717752803432965 0.21463671912622292  0.85868500701231609 0.21442600530636827  0.88044750219806123 0.21421399789310899  0.90250589223166811 0.21400101947631822  0.92490273229694364 0.21378748480903312  0.97712577609292872 0.21329790724603731  1.0070832757978405 0.21302302974818607  1.0378210799248835 0.21274876492551179  1.0695686359327479 0.21247548671168398  1.1025259864677082 0.21220467537683926  1.1368690753302064 0.21193913500948464  1.2163335028412821 0.21137242745133789  1.2631325267009368 0.21106907717962173  1.3137108917025568 0.21078130609723281  1.3684663634264487 0.21052377257584698  1.4277557013098585 0.21031785382540716  1.4919852325126954 0.21019189887281636  1.627326486419818 0.21016749245359165  1.6884761318020025 0.21025707576322986  1.7456573831569087 0.21042423330001059  1.7990452476075629 0.21064655059075579  1.8486811943691475 0.21090409124921633  1.8945202164405595 0.21117985169749498  1.9750891086253726 0.21171739224827288  2.0118585449858859 0.21198824856015652  2.0469497977363469 0.21226634516953499  2.0805794413685792 0.21254791045265703  2.1129990261873557 0.21283103085922336  2.1445046541390957 0.21311538152689694  2.1979155544122357 0.21360993260241692  2.2199886392077937 0.21381820246535785  2.2417107691303992 0.21402616349596554  2.2631239530257008 0.21423340068123412  2.2842690183949914 0.214439599581732  2.3051877205994136 0.21464453505769968  2.3516049645890154 0.21510009790618279  2.3769906322521557 0.21534981537376061  2.4021391899268081 0.21559666723137369  2.427100318980044 0.21584014568615376  2.4519186945100024 0.21607976871090492  2.4766366325831202 0.21631506843613879  2.5162675824383718 0.21668551998625035  2.5312153367063819 0.21682367860592153  2.5461482624212688 0.21695994222978926  2.5610741913969917 0.21709419315903664  2.5760005251155831 0.21722630916736221  2.5909342347271505 0.21735616350098025  2.6237935181853334 0.21763636113553655  2.6417250696349686 0.21778565974672195  2.6596879012350469 0.21793129413935614  2.6776924770311754 0.21807302429601408  2.6957483392782953 0.21821059675466628  2.7138641084406916 0.21834374460867903  2.7567594033243332 0.21864674644780852  2.7816094067053982 0.2188127093936913  2.8066034497305123 0.21896926092794042  2.8317488577366094 0.21911560479725867  2.8570543250022302 0.21925096391157375  2.8825299147475127 0.21937458034403839  2.9408672513325236 0.21962727094143311  2.9738761142124099 0.21974872691533989  3.0071398167765975 0.21984804750220791  3.0405955937299276 0.21992367254837469  3.0741888383405382 0.21997452193233216  3.1078701953010563 0.22  3.1415926535897931 0.22 
 0 8 0.070618603648857317 6 0.13847093502197066 6 0.18688152224702398 6 0.22692999356723551 6 0.28886194054286174 6 0.34247469310349637 6 0.41175980681779756 6 0.49589678680487409 6 0.57480755683948459 6 0.64752545253947258 6 0.70033219500793742 6 0.76572615226603202 6 0.80542601568217465 6 0.85299814027785992 6 0.91765052519616219 6 1 8
1 6.2831853071795862 -0 0 1 
1 0 -0 0 1 
7 0 0  7 86 15  0 0.034999999999999969  0.014463851554417515 0.034999999999999969  0.028859454143648319 0.035181735821993042  0.043116473879753134 0.035542133940427816  0.057163774877382924 0.036075625491476269  0.070927746968525371 0.036774007013947264  0.084330656757204414 0.03762553784923052  0.10367973570034937 0.039100398933354097  0.10997795743781733 0.039621842681671723  0.11618379496658031 0.040176706761086999  0.12229733992794478 0.040764208246168887  0.12831866786447976 0.041383679970192447  0.13424783822001679 0.042034570525138891  0.14452757882021419 0.043235430169149013  0.14891757023411265 0.043772448118253919  0.15325541058802747 0.044327371733389867  0.1575416684361827 0.044900149444151383  0.16177693888034414 0.045490804485348001  0.16596184356981944 0.046099434897004202  0.17481828535149616 0.047441823583769915  0.17947448544613934 0.048181058674781292  0.1840667820717122 0.048944222316150435  0.18859608610443068 0.049731728086082408  0.19306308193099228 0.050544127464840105  0.19746824116916686 0.051382137677354035  0.20689436613715456 0.053258275974210324  0.21189037846791375 0.054305745211610419  0.21680303845400201 0.055391042292035453  0.22163351003413054 0.056516284112750441  0.22638109637825041 0.057683852017054012  0.23104338025341878 0.058896504387049804  0.24036976731351908 0.061468223953911265  0.24501677322863763 0.0628284259329491  0.24956809255905585 0.064245521083542062  0.25402460900117146 0.065726527156672307  0.25837824168698381 0.067278265859501793  0.262612807347332 0.068907574970580462  0.27241571460746017 0.073013474326890732  0.27775876479496864 0.075532537112039999  0.28284739536775882 0.078256866942147452  0.28763924515868411 0.081254222405409526  0.2919506281925231 0.084577089360483887  0.29547866683796398 0.088264458577221011  0.30070952254312067 0.097540066397321407  0.30123902936822078 0.10264525925085974  0.29954676376337958 0.10756463202511593  0.29594458530924495 0.11220344496075385  0.29088520629450376 0.11644993876987503  0.28507546280553114 0.12018882591968083  0.27536686233979529 0.12555133820153935  0.27090149819606585 0.12771340387342572  0.26623048915195963 0.12973829350481411  0.26140240590027652 0.13164072528113957  0.25644032010036555 0.13343707789814255  0.25134128673502903 0.13514483643598632  0.24203787594976456 0.13803713388733349  0.23791972042295995 0.13924540867740051  0.23372606647674368 0.14041008722876011  0.22946062637615475 0.14153402430221587  0.22512501846390223 0.14261983714591836  0.22071859693765 0.14366999437041494  0.21130372650654985 0.14580691543389251  0.20628269843121355 0.14688587399065109  0.20117595322018511 0.14792596386558257  0.19598356844802106 0.14892891863024235  0.19070488747748929 0.14989610522826954  0.18533846349211683 0.15082860714752303  0.17612749375419642 0.15234569013815949  0.17233076241736844 0.15294800337722561  0.1684913453289511 0.15353448062725922  0.1646087664583831 0.15410529491158781  0.1606825379338444 0.15466055895902267  0.15671216004225583 0.15520032520385882  0.14770177288411576 0.15637684952547981  0.14263739328205938 0.15700511495910868  0.13750292481017806 0.1576093667213144  0.13229753867458827 0.15818946799579375  0.12702063490045509 0.15874516051538734  0.12167184233199221 0.15927606456208002  0.10115127894445694 0.16119007118190837  0.085358219532871274 0.16241484550336965  0.068995334515887671 0.16342597755271074  0.052175356737771968 0.16420312184629834  0.035003150401338189 0.16473157065870744  0.017578672064370342 0.16499999961326919  0 0.16500000000000001 
 0 8 0.10946874040718009 6 0.1634557490816731 6 0.20454619616227615 6 0.25146026756357914 6 0.30635538359045844 6 0.3634162867672901 6 0.44304953620298099 6 0.54446545497671484 6 0.62131170966530058 6 0.68021922999253026 6 0.74509912927330579 6 0.78974203285103795 6 0.84528492169922997 6 1 8
7 0 0  7 86 15  3.1415926535897931 0.22  3.1905472280816682 0.22  3.2392707351598768 0.21994630412656155  3.2877004022662732 0.2198398268110264  3.3357620621508488 0.21968306282984421  3.3833618334678777 0.2194800951736498  3.4303689942638131 0.21923657219806164  3.4993850164820208 0.21882308555206725  3.5220446597545285 0.21867806064700898  3.5445832129337522 0.21852512956543557  3.5670149773064077 0.21836483008052973  3.5893543206866636 0.21819768751424709  3.6116156774161405 0.21802421473731631  3.6507087322956777 0.21770844188007327  3.6675698470012605 0.2175685738622874  3.6844053149172971 0.21742551014023598  3.7012242166202438 0.21727944409567038  3.7180362908263831 0.21713056046773857  3.7348519343918207 0.21697903535298532  3.7708977730115465 0.21664921122604114  3.7901315103419795 0.21647017040024735  3.809400983034291 0.21628815678792962  3.8287241550176234 0.21610340827867183  3.8481199755634852 0.21591615988517807  3.8676089694294791 0.21572664603676817  3.9101538724743525 0.21531097429285231  3.9332424148304304 0.215084165778229  3.9565278962423087 0.21485494329146312  3.9800564147097925 0.21462363000619442  4.0038745501208286 0.2143906208616875  4.0280321903109035 0.21415639711727752  4.0781072245583356 0.21367741887091088  4.1040029344906062 0.21343312478776427  4.1304123830031818 0.21318856101951209  4.1574537897984483 0.2129440665731463  4.1852323751583667 0.2127004584038954  4.2138490369056161 0.21245907271860534  4.2846624594433056 0.21189068117407991  4.3271021152326847 0.21157280953899138  4.3720862760401502 0.21126348081019278  4.4206260275527534 0.21096599166189894  4.473448980187344 0.21069281891228014  4.5311282250890415 0.21046638712920404  4.6748300975273711 0.21012874806256357  4.7530245533434083 0.21009248056703919  4.8283931986896755 0.21020362697762279  4.9002168989378925 0.21044025338330616  4.9672906793439759 0.21076394156926107  5.027756241555335 0.21112411909853587  5.1160956139105549 0.21171346547772246  5.1523601999840016 0.21198020817432456  5.1869914568714544 0.21225406141702965  5.220197088595607 0.21253139114497163  5.2522178777997128 0.21281032328937738  5.2833366576803495 0.21309049395202623  5.3373057115551594 0.21358908025975501  5.3602907111809852 0.21380572303667056  5.3828932059767398 0.21402205407148922  5.4051604440583407 0.21423760189728575  5.4271382487159086 0.21445201321352511  5.448873586740187 0.21466503913354096  5.4941448942059719 0.21510944500693735  5.5176247369356517 0.21534034630370921  5.5409015380347597 0.21556879445022434  5.5640147505225555 0.21579438681556429  5.5870002281478799 0.21601674100248067  5.6098920461962347 0.21623548683988109  5.6484348753606133 0.21659803950712483  5.6641155750369743 0.21674392270112647  5.679776157484409 0.21688777904147019  5.6954258294118123 0.21702947438064715  5.7110732680785361 0.21716886933948734  5.7267266212943779 0.21730581930715973  5.7618856113131995 0.21760733364625479  5.7813985404228259 0.21777047396719687  5.8009471692311552 0.21792930588784049  5.8205450783600501 0.21808352107034351  5.8402045545705601 0.21823279235517995  5.8599365907629082 0.21837677376113981  5.9349437342243352 0.21890041047564221  5.9912671679790472 0.21924528805483373  6.0484318696238262 0.21953682312251457  6.1062773494877831 0.21976456993373894  6.1647133145195712 0.21992068637620785  6.2236882632694099 0.21999999988573865  6.2831853071795862 0.22 
 0 8 0.10946874040718009 6 0.1634557490816731 6 0.20454619616227615 6 0.25146026756357914 6 0.30635538359045844 6 0.3634162867672901 6 0.44304953620298099 6 0.54446545497671484 6 0.62131170966530058 6 0.68021922999253026 6 0.74509912927330579 6 0.78974203285103795 6 0.84528492169922997 6 1 8
1 0 0.20000000000000001 1 0 
2 0 0 1 0 -0 1 0.22
7 0 0  6 162 33  3.1415926535897931 0.034999999999999969  3.1316014046163922 0.035000000219807446  3.1216967660253476 0.035089200960649908  3.1119614750639073 0.035264682833462353  3.1024828444040637 0.03551953222494126  3.093355996059763 0.035842171681873397  3.0747314755755113 0.036644650019804104  3.065258594927736 0.037145942262876985  3.0562394114247682 0.037706401138829213  3.0476392336644751 0.038316048301870818  3.0394177207786108 0.038968092946275824  3.0253009202368522 0.040204324944846846  3.0192787017699794 0.040774063007996984  3.0134493548919346 0.041365558783659474  3.0077987853970662 0.041977061196801668  3.0023116770143372 0.042607655309531561  2.9922643056962905 0.043829868044505393  2.9876744760004059 0.044416856710100677  2.983194222178049 0.045017744067251932  2.9788167110023802 0.045632189878535574  2.9745360561613423 0.046259997919736222  2.9639509151446899 0.047880133920279365  2.9577659977769812 0.048890589108811389  2.9517783558618098 0.049931784378344973  2.9459751995351264 0.051003726713035408  2.940344521556483 0.052107368179414366  2.9294046894926464 0.054382264806750853  2.9240999300559842 0.055552599275072799  2.9189496556075416 0.056757585796977046  2.9139476601633327 0.057999150813592561  2.9090911200490672 0.059279567135892275  2.8986141711416527 0.062219411519447376  2.8930773969063694 0.063896302008754138  2.8877476896376231 0.06564261660819877  2.8826257940438444 0.067467464374252287  2.8777299644053387 0.069379266611438825  2.8664445943034718 0.074261925983626798  2.8603475624428785 0.077323676049614321  2.8547677457410945 0.080644885517015152  2.8498836545199056 0.084281872824463866  2.8460070474847532 0.088276986476759536  2.8413851372974546 0.096831292998637519  2.8405932795853679 0.10117350466042288  2.8415476633070851 0.1055205079298904  2.8441609718799268 0.10971365470596181  2.8480533466028661 0.11359198966078207  2.8565049199588692 0.12020656541548772  2.8614488068607788 0.12325319022738937  2.8669154146612921 0.12607277238239739  2.87278059882903 0.12869596970986294  2.8790011899915351 0.13116111852719739  2.8899282325983102 0.13502598440125355  2.8943615979726705 0.13648451877868764  2.8989433745404161 0.1378929094155775  2.9036696822769024 0.13925490501639426  2.9085428179673865 0.14057429412343153  2.9187571933926866 0.1431751870726421  2.924108934162573 0.1444544662585773  2.9296316979866996 0.14569528660854289  2.9353293319583251 0.1468988799508677  2.9412065481425302 0.14806571810110677  2.9521501350107688 0.1501056317152277  2.9571550985512176 0.15099236246092942  2.9622940273089289 0.15185711101694174  2.9675761698220149 0.15270019276769245  2.9730108129231279 0.15352133440237364  2.9830997211722541 0.15496066569542274  2.9876957512899942 0.15558685202565045  2.9924044533175604 0.1561984955793401  2.9972341919719239 0.15679532897604606  3.0021928978887651 0.15737667423010707  3.0132135518878767 0.15859824657798624  3.0193205279098998 0.15923232216729302  3.0256323621071304 0.1598432854807337  3.0321703795020589 0.16042949418318911  3.0389538637210811 0.16098804764225375  3.0551160619520856 0.16219625531209111  3.0647148472577985 0.16282773791687413  3.0748234105356258 0.16339796845440818  3.0854642500082061 0.16389322377227244  3.096655982566443 0.16429688607983198  3.1201220076294591 0.16487988370488596  3.1323716465043421 0.16505965407371001  3.1448531400926658 0.16510123448925645  3.157289528367329 0.16499814149356226  3.1694001623758221 0.16476141712533696  3.1949928806294565 0.16400714140165015  3.2082404250472787 0.16343402820052078  3.2206570874597422 0.16274078523410884  3.2323080014776018 0.16195398023502788  3.2432728020855182 0.16109230811538644  3.2602738266991147 0.15957256070098771  3.2666670075630293 0.15895273721331254  3.2728433479930641 0.15830841491804779  3.2788195214824003 0.15764162369186233  3.284613696220068 0.15695333530804759  3.2950671808457912 0.15563571332606221  3.299766038430088 0.15501261968937755  3.3043503658094537 0.15437464534724094  3.308827377403984 0.15372209612883772  3.3132032440882675 0.15305512087176071  3.3234693066121395 0.15142062585874375  3.3292696194543567 0.15043902481579122  3.3348958272376383 0.14942926064246406  3.3403583802170456 0.14839113481904395  3.3456668926724862 0.14732371601933228  3.3563848039365074 0.14504354680253898  3.3617669891982431 0.14382686923911189  3.3669886203110178 0.14257299181178554  3.3720559091052649 0.14127962394881335  3.3769709951564457 0.13994414425933208  3.3875174415406586 0.13688630649479108  3.3930629361634419 0.13514628184517305  3.3983933239651147 0.13333121063998912  3.4035060499942738 0.13143055222056194  3.4083779713680755 0.12943471600991044  3.4196470546755728 0.12428167711175203  3.425768940053378 0.1209920546687861  3.431278908848034 0.11739943085538473  3.4359170508346439 0.11345514777907698  3.4392994264333492 0.1091224562954671  3.4426408905935233 0.098708249099505874  3.4415344238638212 0.09331436386567632  3.4380627603479832 0.08824653553681884  3.4327227801654234 0.083569461732938499  3.426135115563842 0.079359599191859795  3.4146196126770483 0.073304739788284376  3.409624178282245 0.071013681460790415  3.4043237635791415 0.068849112876503762  3.3987611157008915 0.066796884036127505  3.392944734337048 0.064840848113392288  3.3823636502226631 0.061584201380707221  3.3777442947014484 0.060251622662094488  3.372983835936552 0.058960862534586655  3.368081991036957 0.057709203935605968  3.3630342767262142 0.056494113030202742  3.3523531256292807 0.054069780488585677  3.3467077001937415 0.0528653306679003  3.340885008597402 0.051697073014970209  3.3348745149334449 0.050563520265197615  3.3286639629443671 0.049464105424746128  3.3181420418883065 0.047719810153023928  3.3139574200680282 0.047054499765174757  3.3096803017131897 0.04640291909651123  3.3053054401655633 0.045765132319548908  3.3008267161997007 0.045141334125885897  3.2909455333733622 0.043829137982551947  3.2855105686804413 0.043145981829545259  3.2799165327116118 0.042482214956793808  3.274148769768741 0.041838489706505715  3.2681936796881286 0.041216277073486102  3.2535713618420541 0.039794635993488342  3.2447326943381705 0.039017077317555944  3.2354533878102836 0.03828733095936989  3.2256744629214658 0.037612917714286542  3.2153457760231086 0.037006365881158722  3.194999372249745 0.036034756138711758  3.1850001733854918 0.035641682497129699  3.1745538672856046 0.035328548395035624  3.1637712869886947 0.035111295366442807  3.1527525811089387 0.035000000245518373  3.1415926535897931 0.034999999999999969 
 0 7 0.022605215085960351 5 0.048565706689529156 5 0.069060607612693281 5 0.087126141636077126 5 0.11471307610700418 5 0.14229853773879561 5 0.17605526323879395 5 0.22442120609906688 5 0.27042212687302697 5 0.31614877987292084 5 0.34555144311339542 5 0.37585703413402927 5 0.40025152946744974 5 0.41983144259328437 5 0.44260212015824524 5 0.47206165973018538 5 0.50139609129117269 5 0.5375582295957485 5 0.56064857790576528 5 0.5804171619258629 5 0.60806742718511941 5 0.63780811671469184 5 0.67393332232381931 5 0.72644025363117926 5 0.78910054337116053 5 0.83113273578728475 5 0.86194198161796842 5 0.89437636669703413 5 0.91505476648033346 5 0.9388961549968956 5 0.97169465628178087 5 1 7
7 0 0  6 162 33  6.2831853071795862 0.22  6.2493687721926898 0.21999999993505692  6.2158453546062375 0.21997364927982721  6.1828316924200601 0.21992179011240587  6.1505649631747543 0.2198467550557088  6.1193283753285392 0.21975235876763743  6.0551940743240742 0.21951932006589936  6.0223180813054062 0.21937466741206765  5.9907279179467565 0.21921434167415546  5.9602897261424603 0.21904177792018278  5.9308565523125472 0.21885943608178207  5.8796989586506143 0.21851830118277774  5.857648568839811 0.21836259651265985  5.8360715344677017 0.21820264371132  5.8149164403765923 0.21803916368615861  5.794126099753754 0.21787264148450111  5.7555776220820656 0.21755408091039707  5.7377640988540266 0.21740277218630841  5.7201670823662107 0.21724968740910069  5.7027592623446566 0.21709507916212265  5.6855159203225227 0.2169391653243021  5.6423008989818344 0.21654232719950503  5.6165072410715728 0.21629981130928669  5.5909677534022428 0.21605538269491639  5.5656179236202163 0.21580967095982229  5.5403882576095356 0.21556314929442708  5.4900083024466371 0.21506916340291171  5.4648783196177648 0.21482189876864641  5.4397339484169978 0.2145747635713133  5.414510448412476 0.21432822869016291  5.3891456677002632 0.21408284654929544  5.3322808296369741 0.21354120077219893  5.300740244349992 0.21324643179429634  5.268725082261061 0.21295510264625064  5.2360635604948795 0.21266829272011264  5.202611093386996 0.21238802802184717  5.1189511069568407 0.21172937840393821  5.0679183273738504 0.21136228509804586  5.0138485019191323 0.21101768619807515  4.9559063417532405 0.21070853358384614  4.8934183380551532 0.21045956844899213  4.7609667353980401 0.2101610651793783  4.69430223156529 0.21010862702904409  4.6277152466276972 0.21017088390785837  4.5629656900141962 0.21034276119279688  4.5020739205384182 0.21059156983088412  4.3966826623964685 0.21112200824859842  4.3472476166206144 0.21142780608060333  4.3004755663941259 0.21175898510700275  4.255901911744453 0.21210547118219203  4.2129276162579528 0.21246321833863799  4.1435332811065653 0.21307179184803396  4.1168125440649197 0.21331403570308857  4.0904553515565025 0.21355921810553205  4.0643877148624883 0.21380650632308382  4.0385268780948209 0.21405535619622881  3.9862274415009167 0.21456332528259844  3.9597917812852645 0.21482256005524655  3.9333948231702074 0.21508253653721776  3.9069800477517567 0.21534252090116357  3.8804971155368833 0.21560172147120552  3.8324793905583712 0.21606663253997904  3.8109693408433869 0.21627308630574382  3.78931097183191 0.21647846144404301  3.7674584385944296 0.21668244711268203  3.7453695479355313 0.21688461360150266  3.7050500891657081 0.21724476926327799  3.6869204939995535 0.21740358154373043  3.6685775447559408 0.21756069926556634  3.6499878484709325 0.21771587050475405  3.6311208993250368 0.21786873642330795  3.589652996721199 0.21819338573845351  3.5669551609857919 0.21836409912198587  3.5437692784656982 0.21853059848896181  3.52001735566563 0.2186921447833394  3.4956296985662854 0.21884763282395903  3.4380914978323838 0.21918701242942221  3.4043168651045366 0.21936673182502794  3.3691268058050068 0.21953095389849886  3.3324322534993271 0.21967495525591549  3.2941338320150613 0.21979311087760101  3.2142489624383725 0.21996436529603705  3.1727445939376504 0.22001759429526765  3.1305738065496191 0.22003004842923968  3.0885315743813142 0.21999933406164479  3.0474318432726482 0.21992939054431171  2.9601027014906678 0.21970834215556118  2.9145565851221322 0.21954124930492064  2.8713899544213599 0.21934104827710943  2.8303470931302703 0.21911697773714808  2.7911489949880992 0.21887547827222339  2.7293725411575274 0.21845724022849389  2.7058782748472723 0.21828844976392381  2.6829099402391208 0.2181150003046676  2.6604064653343946 0.21793774271139044  2.6382994317307262 0.21775723216086393  2.5978608903755647 0.21741662291360578  2.5794579957423251 0.21725745351278758  2.5612721589635936 0.21709652236359389  2.5432739063334364 0.21693409607545899  2.5254365221987425 0.216770405447169  2.4829784446821672 0.21637519612587941  2.4584807007548535 0.2161425894008345  2.4341856665151553 0.21590846837900027  2.4100377596334028 0.21567335329594603  2.3859778044796367 0.21543765443879537  2.3360804616606887 0.21494787582631056  2.3102671792413307 0.21469395980572634  2.284415555171472 0.2144403485964694  2.2584542293085641 0.21418754888021219  2.2323155148450553 0.21393618293074687  2.1738757240211433 0.21338434450729107  2.1415295000733274 0.21308560574788191  2.1086311489451464 0.2127908628337781  2.0749879924230132 0.21250133275063496  2.0404396810139205 0.21221937845796676  1.9530602434446962 0.21155480534734084  1.8987680654750247 0.21118243065852274  1.8408566071456529 0.21083843546250564  1.7786019685710746 0.21054160377000614  1.7113586957374303 0.21032281171648806  1.5507760613233017 0.21010610895638643  1.4682209272964011 0.21017705333634742  1.3899922889211165 0.21040544448121792  1.3164039927358837 0.21074955899004388  1.2483325903950613 0.21115886421898064  1.1479224239653896 0.2118532635355064  1.1091447036016111 0.21214908216671158  1.0716721475615918 0.21245616180751362  1.035280088525629 0.2127707056307491  0.99968969827296428 0.21309092170552582  0.93872090788335993 0.2136561101041996  0.91321998261131998 0.21389772442710631  0.88794054987275484 0.2141411150150884  0.86281935873656701 0.21438566530604178  0.83778838446679282 0.21463091045469129  0.78642817946593857 0.21513508800199266  0.76012347743727171 0.21539383017039429  0.73376799435294682 0.21565229739069391  0.70728715381828877 0.21590995354064857  0.68060996226744175 0.21616615488011312  0.6364799682420812 0.21658204746185636  0.61918515658441031 0.21674308825578201  0.60175519432406199 0.21690307758838737  0.5841664216816439 0.21706181524637033  0.56639298799647086 0.21721907360537304  0.52766953804579586 0.2175539107650997  0.50666468004845966 0.21773077623883577  0.48533025405345115 0.2179049799724517  0.46360998267404879 0.21807608457783897  0.44145333481791488 0.21824342935751906  0.38767278367153013 0.21862995733634516  0.35564413490549102 0.21884480948574539  0.32247336031317958 0.21904939787211652  0.28795492356490482 0.21924090915112437  0.25190874075646308 0.2194150147752513  0.18157315580957153 0.21969607825321755  0.14726078816845825 0.21981080522440474  0.11164943157429491 0.21990291710056228  0.07506621119752642 0.21996712349833478  0.037772062372493476 0.21999999992746047  0 0.22 
 0 7 0.022605215085960351 5 0.048565706689529156 5 0.069060607612693281 5 0.087126141636077126 5 0.11471307610700418 5 0.14229853773879561 5 0.17605526323879395 5 0.22442120609906688 5 0.27042212687302697 5 0.31614877987292084 5 0.34555144311339542 5 0.37585703413402927 5 0.40025152946744974 5 0.41983144259328437 5 0.44260212015824524 5 0.47206165973018538 5 0.50139609129117269 5 0.5375582295957485 5 0.56064857790576528 5 0.5804171619258629 5 0.60806742718511941 5 0.63780811671469184 5 0.67393332232381931 5 0.72644025363117926 5 0.78910054337116053 5 0.83113273578728475 5 0.86194198161796842 5 0.89437636669703413 5 0.91505476648033346 5 0.9388961549968956 5 0.97169465628178087 5 1 7
1 6.2831853071795862 -0 0 1 
1 0 -0 0 1 
1 0 0.23100000000000001 1 0 
2 0 0 1 0 -0 1 0.065000000000000002
1 6.2831853071795862 -0 0 1 
1 0 -0 0 1 
1 0 0.23100000000000001 1 0 
2 0 0 1 0 -0 1 0.065000000000000002
Curves 13
2 0 0 0 0 0 1 1 0 -0 -0 1 0 0.066000000000000003
1 0.066000000000000003 -1.6165337748745064e-17 0 0 0 1 
2 0 0 0.80000000000000004 0 0 1 1 0 -0 -0 1 0 0.066000000000000003
2 0 0 0.80000000000000004 0 0 1 1 0 -0 -0 1 0 0.22
7 0 0  7 98 17  0.22 -2.7755575615628914e-17 0.96499999999999997  0.21999999994387423 -0.0018996426196573842 0.96499999981003592  0.21998086392376756 -0.0037979247084534286 0.96493522748521932  0.21994263859731186 -0.0056899053712289776 0.96480585753611492  0.21988566445588795 -0.0075705694224851017 0.96461265082441716  0.21981057381605668 -0.0094348317073431904 0.9643570100382034  0.21971828881098951 -0.011277541422505014 0.96404103516719086  0.21950599108339838 -0.014838297245225743 0.96330875181639597  0.21938717982823225 -0.01655881599604583 0.96289679353081037  0.21925443784509818 -0.018253880347799265 0.96243343706302398  0.21910866061683262 -0.019922312732207782 0.96192042889164775  0.21895078688041208 -0.021562920354588622 0.96135952903211042  0.21878179862695313 -0.023174495193854523 0.96075251103666015  0.21847495470105519 -0.0258840371684394 0.95963644414329285  0.21834198505356509 -0.026997437864231096 0.95914892234745486  0.2182041265490311 -0.028095994156935433 0.95863905306855457  0.21806167833793363 -0.029179736255017387 0.95810719793220633  0.21791492433144444 -0.030248746508360316 0.95755362372793307  0.21776413320142665 -0.031303159408265932 0.95697850240916871  0.21748168376374094 -0.03320352085664792 0.95588837090763212  0.21735122074095051 -0.034054005000410392 0.95538013559264001  0.21721831215580817 -0.034894712485834388 0.95485724815487416  0.21708309559047784 -0.035725743471099317 0.95431969957221785  0.2169457033655425 -0.036547199805471331 0.9537674287938438  0.21680626254000429 -0.037359185029303361 0.95320032274021416  0.21644628051234879 -0.039402994788073409 0.95171803250554221  0.21622308932809359 -0.040621613074295224 0.95078210087130899  0.21599574516275025 -0.041818221454993761 0.94980965858184485  0.215764668377385 -0.042993214161913887 0.94879971561871757  0.21553028412716888 -0.044146830007318567 0.94775096402791514  0.21529303059864718 -0.045279164955055427 0.94666168718415766  0.21484589739345755 -0.047351963371857965 0.9445497126545962  0.2146367191262229 -0.048297318035638193 0.94353818746600027  0.21442600530636824 -0.049226837729332729 0.94249306976296376  0.21421399789310888 -0.05014069117873534 0.94141225532691963  0.21400101947631819 -0.051038659124153028 0.94029348070981622  0.21378748480903312 -0.051920166655494281 0.93913424449673955  0.21329790724603731 -0.053901076977786296 0.93637768687416867  0.21302302974818607 -0.054984048587755484 0.93475803999564455  0.21274876492551176 -0.056038257369522726 0.93305862741564738  0.21247548671168395 -0.057064419424992414 0.93126542837959225  0.21220467537683924 -0.05805900217998549 0.92936503215286737  0.21193913500948472 -0.059014286598509304 0.9273451082780747  0.21137242745133789 -0.06101638306219799 0.92258372458867721  0.21106907717962139 -0.062062734341646573 0.91972376942317546  0.21078130609723345 -0.063032756404005394 0.91657484839691783  0.2105237725758464 -0.063882263135774248 0.91310584265052519  0.21031785382540741 -0.064549345651985876 0.90929394982659839  0.21019189887281634 -0.064956658361196934 0.90512253062062586  0.21016749245359162 -0.065035580371364449 0.89632570313965398  0.21025707576322997 -0.064745923352123064 0.89234826892302277  0.21042423330001059 -0.064206011446740444 0.88865613311665859  0.21064655059075571 -0.063478312237481765 0.8852512728320211  0.21090409124921636 -0.062618189264183707 0.88213405808903467  0.21117985169749495 -0.061677371516286258 0.87930386908261937  0.21171739224827288 -0.059804838679526372 0.87441310643615178  0.21198824856015649 -0.058844531295214775 0.87222158172149222  0.21226634516953496 -0.057838110027242332 0.87017106272080191  0.21254791045265706 -0.056796080796499886 0.86824618810208531  0.21283103085922336 -0.055723323789056423 0.86642985275890505  0.21311538152689694 -0.054618892424720906 0.86470380301385708  0.21360993260241692 -0.052645316139866102 0.86184762432895223  0.21381820246535785 -0.051798204016170558 0.86068901594634872  0.21402616349596551 -0.050935233586345038 0.85957055456868681  0.21423340068123403 -0.050057055547332037 0.85848970951435077  0.214439599581732 -0.049163943727888869 0.8574441518204925  0.21464453505769968 -0.048255760954404793 0.85643168117041124  0.21510009790618279 -0.046187879828194597 0.85423466366305434  0.21534981537376061 -0.045020542313322739 0.85306738328341025  0.21559666723137369 -0.043830068560057701 0.8519455060693607  0.21584014568615367 -0.042616431537724715 0.85086685211098145  0.2160797687109049 -0.041379402314531508 0.84982974570548564  0.21631506843613876 -0.040118531375080604 0.84883289386165128  0.21668551998625032 -0.03805277860831939 0.84729390003636063  0.2168236786059215 -0.037263479827961681 0.84672706071087611  0.21695994222978923 -0.036465137531734713 0.84617456512341604  0.21709419315903661 -0.035657655455004919 0.84563628078625641  0.21722630916736216 -0.034840937133579067 0.84511212442832517  0.21735616350098025 -0.034014885903704321 0.84460206199520105  0.21763636113553647 -0.032178252684224744 0.84351181052454982  0.2177856597467219 -0.031163575771774161 0.84293776963226474  0.21793129413935614 -0.030135197396303513 0.84238401203720714  0.21807302429601408 -0.029092979533787453 0.84185065044144647  0.21821059675466628 -0.02803682290458823 0.84133788418417232  0.21834374460867897 -0.026966666973455677 0.84084599924169523  0.21864674644780852 -0.024409050811243404 0.83973576220298729  0.21881270939369127 -0.022908940804894366 0.83913507355064565  0.21896926092794039 -0.021382898194060751 0.83857461361023944  0.21911560479725864 -0.01983165610059353 0.83805572884753143  0.2192509639115737 -0.01825594250461398 0.83757980085422745  0.21937458034403837 -0.016656480244513692 0.83714824634797769  0.21962727094143311 -0.012967373924009748 0.83627120358715479  0.21974872691533989 -0.010861240311365697 0.83585374682644231  0.21984804750220782 -0.0087231969308665079 0.83551495024131561  0.21992367254837467 -0.0065607399672426249 0.83525833089727641  0.21997452193233211 -0.0043812448039097854 0.83508624277981969  0.22 -0.0021919597887679085 0.83499999999999996  0.22 -2.7755575615628914e-17 0.83499999999999996 
 0 8 0.070618603648857317 6 0.13847093502197066 6 0.18688152224702398 6 0.22692999356723551 6 0.28886194054286174 6 0.34247469310349637 6 0.41175980681779756 6 0.49589678680487409 6 0.57480755683948459 6 0.64752545253947258 6 0.70033219500793742 6 0.76572615226603202 6 0.80542601568217465 6 0.85299814027785992 6 0.91765052519616219 6 1 8
1 0.22 -5.3884459162483539e-17 0.80000000000000004 0 0 1 
7 0 0  7 86 15  0.22 -3.0922331678470674e-17 0.83499999999999996  0.22 0.0031820473419718223 0.83499999999999996  0.2199463041265616 0.0063490796863420714 0.83518173582199307  0.21983982681102635 0.0094845374817771801 0.83554213394042809  0.21968306282984415 0.012571727014580158 0.83607562549147629  0.21948009517364989 0.015593594197234632 0.83677400701394711  0.21923657219806164 0.018532476941372202 0.83762553784923044  0.21882308555206725 0.02276914457306934 0.83910039893335431  0.21867806064700898 0.024147182360704466 0.83962184268167184  0.21852512956543557 0.025503933814074602 0.84017670676108713  0.21836483008052973 0.026839389444252744 0.84076420824616904  0.21819768751424709 0.028153545937378711 0.84138367997019259  0.21802421473731631 0.029446406154659151 0.84203457052513886  0.21770844188007327 0.031685795342831724 0.84323543016914926  0.2175685738622874 0.032641425144856413 0.84377244811825414  0.21742551014023598 0.033584985970727503 0.84432737173339001  0.21727944409567038 0.03451660289550175 0.84490014944415148  0.21713056046773863 0.035436408637006825 0.84549080448534808  0.21697903535298538 0.036344543555841331 0.84609943489700423  0.21664921122604119 0.038264841865803992 0.84744182358377007  0.21647017040024732 0.039273454148894424 0.84818105867478111  0.21628815678792959 0.040267252876331538 0.84894422231615041  0.21610340827867183 0.041246448561575721 0.84973172808608255  0.21591615988517812 0.042211204938877964 0.85054412746483998  0.21572664603676817 0.043161642042295681 0.85138213767735393  0.21531097429285231 0.04519330285696347 0.85325827597421033  0.215084165778229 0.046268789912756493 0.8543057452116104  0.21485494329146312 0.047325017784059391 0.85539104229203544  0.21462363000619442 0.048362272747437714 0.85651628411275049  0.2143906208616875 0.049380444455252935 0.85768385201705399  0.21415639711727752 0.050379060366864646 0.85889650438704968  0.21367741887091091 0.052374175457854687 0.86146822395391121  0.2134331247877643 0.053366916702059106 0.86282842593294917  0.21318856101951209 0.054337905177992592 0.86424552108354202  0.2129440665731463 0.055287388878121291 0.86572652715667231  0.21270045840389543 0.056213709387053966 0.86727826585950185  0.21245907271860534 0.057113508746764859 0.86890757497058047  0.21189068117407991 0.059193899432295971 0.87301347432689069  0.2115728095389913 0.060325606198433038 0.87553253711204215  0.21126348081019303 0.061401552739944888 0.87825686694214233  0.21096599166189867 0.062412954028234414 0.88125422240541462  0.2106928189122802 0.063321280935023413 0.88457708936048196  0.21046638712920404 0.064063687789717036 0.88826445857722103  0.21012874806256357 0.065163830266323386 0.89754006639732142  0.21009248056703925 0.065274552864160923 0.90264525925085948  0.21020362697762274 0.064919221707124525 0.90756463202511728  0.21044025338330619 0.064162916080492932 0.91220344496075212  0.21076394156926101 0.063097871982733783 0.9164499387698759  0.21112411909853587 0.061871503130082182 0.92018882591968088  0.21171346547772246 0.059818528235277398 0.92555133820153934  0.21198020817432456 0.058873044770274351 0.92771340387342538  0.21225406141702965 0.05788256020254845 0.92973829350481429  0.21253139114497169 0.056857194094066067 0.93164072528113984  0.21281032328937735 0.055801740426396483 0.93343707789814256  0.21309049395202623 0.054715480026214 0.93514483643598623  0.21358908025975504 0.052730385876776455 0.93803713388733356  0.21380572303667056 0.051850664863559659 0.93924540867740069  0.21402205407148919 0.05095376460795422 0.94041008722876018  0.21423760189728575 0.050040437205263903 0.94153402430221589  0.21445201321352511 0.049110993712094757 0.94261983714591835  0.2146650391335409 0.048165262564413724 0.94366999437041499  0.21510944500693732 0.046142227956445805 0.9458069154338925  0.21534034630370918 0.045061985971049857 0.94688587399065116  0.21556879445022434 0.043961942028025447 0.94792596386558248  0.21579438681556429 0.042842076116446241 0.94892891863024231  0.21601674100248067 0.041702214873136002 0.94989610522826973  0.21623548683988109 0.040542018229951161 0.95082860714752293  0.21659803950712483 0.038548301450291089 0.95234569013815928  0.21674392270112647 0.037725850719177043 0.95294800337722563  0.21688777904147019 0.036893505737448921 0.95353448062725932  0.21702947438064715 0.036051157002185863 0.95410529491158791  0.2171688693394874 0.035198693637818135 0.95466055895902269  0.21730581930715981 0.034336003396127142 0.95520032520385889  0.21760733364625479 0.032376783240678678 0.95637684952547997  0.21777047396719687 0.031274609938914129 0.95700511495910889  0.2179293058878404 0.030156217447887747 0.95760936672131447  0.21808352107034348 0.029021424986700368 0.95818946799579385  0.21823279235517995 0.027870106296617753 0.95874516051538738  0.21837677376113981 0.026702189641070576 0.95927606456208003  0.21890041047564221 0.022218136670427747 0.96119007118190836  0.21924528805483362 0.018760327498339748 0.96241484550336975  0.2195368231225146 0.015171319118181181 0.96342597755271075  0.219764569933739 0.011476627940375374 0.96420312184629842  0.21992068637620782 0.0077006924920819883 0.96473157065870729  0.21999999988573865 0.0038673078541614538 0.96499999961326921  0.22 -1.8982025386783973e-17 0.96499999999999997 
 0 8 0.10946874040718009 6 0.1634557490816731 6 0.20454619616227615 6 0.25146026756357914 6 0.30635538359045844 6 0.3634162867672901 6 0.44304953620298099 6 0.54446545497671484 6 0.62131170966530058 6 0.68021922999253026 6 0.74509912927330579 6 0.78974203285103795 6 0.84528492169922997 6 1 8
2 0 0 1 0 0 1 1 0 -0 -0 1 0 0.22
7 0 0  6 162 33  -0.22 1.3877787807814457e-17 0.83499999999999996  -0.21999999993505692 0.0021980747741482212 0.83500000021980758  -0.21997364927982718 0.0043770959270869282 0.8350892009606502  -0.21992179011240584 0.0065184632643258966 0.83526468283346234  -0.2198467550557088 0.0086026123045114169 0.83551953222494124  -0.21975235876763743 0.010608396124326312 0.83584217168187347  -0.21951932006589936 0.014699158242279025 0.83664465001980426  -0.21937466741206765 0.016778314291128124 0.83714594226287709  -0.21921434167415543 0.018756243811867732 0.83770640113882922  -0.21904177792018276 0.020640549477828469 0.83831604830187079  -0.21885943608178207 0.02244012817374107 0.83896809294627583  -0.21851830118277774 0.025527032021517172 0.84020432494484687  -0.2183625965126598 0.026842776415964335 0.84077406300799706  -0.21820264371132 0.028115269664920534 0.84136555878365948  -0.21803916368615861 0.029347641598441641 0.84197706119680171  -0.21787264148450111 0.030543286390796721 0.84260765530953163  -0.21755408091039707 0.032730632547242365 0.84382986804450555  -0.21740277218630835 0.033729010784103473 0.84441685671010058  -0.21724968740910069 0.034702728787591806 0.84501774406725183  -0.21709507916212265 0.035653309786074165 0.84563218987853572  -0.2169391653243021 0.036582068719743739 0.84625999791973638  -0.21654232719950503 0.038876738125841331 0.84788013392027928  -0.21629981130928666 0.040215677037012405 0.84889058910881143  -0.21605538269491642 0.041510135618925033 0.84993178437834505  -0.21580967095982231 0.042763006670784177 0.85100372671303537  -0.21556314929442702 0.04397700388481806 0.85210736817941435  -0.21506916340291168 0.046332526403771022 0.85438226480675106  -0.21482189876864641 0.047473105733991043 0.85555259927507288  -0.21457476357131325 0.048578920390064916 0.85675758579697703  -0.21432822869016288 0.049651416774441216 0.85799915081359268  -0.21408284654929544 0.050691312777620262 0.85927956713589226  -0.21354120077219893 0.052931695878593969 0.86221941151944748  -0.21324643179429628 0.054113614405701005 0.86389630200875411  -0.21295510264625064 0.055249420802296688 0.86564261660819886  -0.21266829272011264 0.056339155998995395 0.86746746437425237  -0.21238802802184717 0.057379151983071926 0.86937926661143872  -0.21172937840393818 0.059772974088470751 0.87426192598362673  -0.21136228509804572 0.061063162725446207 0.87732367604961448  -0.21101768619807534 0.062241412860110978 0.88064488551701503  -0.21070853358384606 0.063270499188184837 0.88428187282446402  -0.21045956844899213 0.064086204814767234 0.88827698647675957  -0.21016106517937827 0.065058222922085934 0.89683129299863751  -0.21010862702904418 0.065224355234797915 0.90117350466042145  -0.21017088390785824 0.065023837531448692 0.90552050792989336  -0.21034276119279693 0.064475191130165505 0.90971365470596  -0.21059156983088409 0.063655794586325892 0.91359198966078226  -0.21112200824859836 0.06187371626394475 0.92020656541548784  -0.21142780608060344 0.060829924101478083 0.9232531902273885  -0.21175898510700256 0.05967372953485163 0.92607277238239893  -0.21210547118219211 0.058430727656614168 0.92869596970986223  -0.21246321833863796 0.057109733198877036 0.93116111852719741  -0.21307179184803396 0.054784091164090443 0.93502598440125373  -0.21331403570308857 0.053839300001615693 0.93648451877868755  -0.21355921810553205 0.052861560471278803 0.93789290941557757  -0.21380650632308376 0.051851579654568054 0.9392549050163943  -0.21405535619622881 0.050808749496780804 0.94057429412343163  -0.21456332528259847 0.04861975266507567 0.94317518707264225  -0.2148225600552465 0.04747124124390014 0.94445446625857743  -0.21508253653721773 0.046284333990260294 0.94569528660854285  -0.21534252090116357 0.045058066144937126 0.94689887995086763  -0.21560172147120552 0.043791288373620341 0.94806571810110685  -0.21606663253997904 0.041429013405375206 0.95010563171522777  -0.21627308630574374 0.040347431210691641 0.95099236246092966  -0.21647846144404301 0.039235646147003242 0.95185711101694181  -0.21668244711268203 0.038091581771045872 0.95270019276769247  -0.21688461360150266 0.036913147337385294 0.95352133440237363  -0.21724476926327796 0.034723002668464759 0.95496066569542293  -0.21740358154373041 0.033724412439259575 0.9555868520256503  -0.21756069926556634 0.032700457564900004 0.95619849557934  -0.21771587050475405 0.031649277968228001 0.95679532897604602  -0.21786873642330795 0.030569105152662712 0.95737667423010697  -0.21819338573845348 0.028166395047953114 0.95859824657798642  -0.21836409912198593 0.026833721614506006 0.95923232216729304  -0.21853059848896181 0.025455076261909289 0.95984328548073361  -0.21869214478333943 0.024025740318951733 0.96042949418318913  -0.218847632823959 0.022541442083160779 0.96098804764225376  -0.21918701242942221 0.019001991924780769 0.96219625531209119  -0.21936673182502789 0.016897805663201548 0.96282773791687415  -0.21953095389849883 0.014679771369312054 0.96339796845440828  -0.21967495525591549 0.012342919541748798 0.96389322377227249  -0.21979311087760101 0.0098833048345641199 0.96429688607983188  -0.21996436529603702 0.0047236205801297199 0.96487988370488598  -0.22001759429526788 0.002028983570487447 0.96505965407370886  -0.22003004842923932 -0.00071741202487377032 0.96510123448925877  -0.21999933406164499 -0.0034537297241890724 0.96499814149356133  -0.21992939054431165 -0.0061173757633437992 0.96476141712533692  -0.21970834215556115 -0.011743432946322886 0.96400714140165011  -0.21954124930492069 -0.014653576268043596 0.9634340282005216  -0.21934104827710937 -0.017378365715076782 0.96274078523410744  -0.21911697773714806 -0.019932084788743393 0.96195398023502876  -0.21887547827222339 -0.022332390052394596 0.96109230811538648  -0.21845724022849389 -0.026049157881264804 0.95957256070098784  -0.21828844976392381 -0.027445537937005382 0.95895273721331264  -0.21811500030466754 -0.02879327802823425 0.95830841491804775  -0.21793774271139041 -0.030096083239620448 0.95764162369186234  -0.21775723216086393 -0.031357981024269975 0.9569533353080476  -0.21741662291360578 -0.033632384646405077 0.95563571332606223  -0.21725745351278758 -0.034653823713120889 0.95501261968937745  -0.21709652236359386 -0.035649477735703573 0.95437464534724104  -0.21693409607545899 -0.036620956505614963 0.95372209612883774  -0.216770405447169 -0.037569640273948247 0.9530551208717607  -0.21637519612587941 -0.039793327373334741 0.95142062585874398  -0.2161425894008345 -0.041048052463058267 0.95043902481579112  -0.21590846837900024 -0.042263519119837521 0.94942926064246425  -0.21567335329594597 -0.043442094517343148 0.94839113481904402  -0.21543765443879537 -0.044585957514358919 0.9473237160193323  -0.21494787582631056 -0.046892470078587135 0.94504354680253899  -0.21469395980572625 -0.048049033917625793 0.94382686923911174  -0.2144403485964694 -0.049169484133076952 0.94257299181178567  -0.21418754888021221 -0.050255276168095254 0.94127962394881359  -0.21393618293074682 -0.051306989961879323 0.93994414425933215  -0.21338434450729107 -0.053560628546704993 0.93688630649479121  -0.21308560574788191 -0.054743529072368881 0.93514628184517301  -0.2127908628337781 -0.055878609239429937 0.93333121063998925  -0.2125013327506349 -0.056965537029527946 0.93143055222056181  -0.21221937845796676 -0.057999624905954207 0.92943471600991046  -0.21155480534734084 -0.060388090297885388 0.92428167711175202  -0.21118243065852266 -0.061682455694397065 0.92099205466878575  -0.21083843546250583 -0.062844869147929083 0.91739943085538567  -0.21054160377000597 -0.063821143792275117 0.91345514777907633  -0.21032281171648806 -0.064532373281468977 0.90912245629546717  -0.21010610895638643 -0.065234829285839901 0.89870824909950597  -0.21017705333634734 -0.06500196502329969 0.8933143638656762  -0.21040544448121801 -0.064273173959695798 0.88824653553681898  -0.21074955899004377 -0.063149827198901165 0.88356946173293849  -0.21115886421898064 -0.061759478620294073 0.8793595991918598  -0.2118532635355064 -0.059323092149469049 0.87330473978828438  -0.21214908216671155 -0.058264642265243465 0.8710136814607905  -0.21245616180751359 -0.057139678012174767 0.86884911287650368  -0.2127707056307491 -0.055956963541083628 0.86679688403612731  -0.21309092170552582 -0.054718035448505599 0.86484084811339235  -0.21365611010419963 -0.052459851625135313 0.86158420138070735  -0.21389772442710631 -0.051472718680416842 0.86025162266209465  -0.2141411150150884 -0.050454067073139423 0.8589608625345867  -0.21438566530604178 -0.049403725753694151 0.85770920393560601  -0.21463091045469129 -0.04832062391890992 0.85649411303020273  -0.21513508800199266 -0.046025495326311061 0.85406978048858573  -0.21539383017039418 -0.044810726337975289 0.85286533066790049  -0.21565229739069389 -0.043556035727197163 0.85169707301497033  -0.21590995354064865 -0.042259018289354744 0.85056352026519766  -0.21616615488011312 -0.040916888064279726 0.84946410542474615  -0.2165820474618563 -0.038639732562427982 0.84771981015302378  -0.21674308825578192 -0.037733300056072692 0.84705449976517466  -0.21690307758838734 -0.036806016373919871 0.84640291909651122  -0.21706181524637033 -0.035856706030399983 0.84576513231954886  -0.21721907360537304 -0.034884001643318119 0.84514133412588566  -0.2175539107650997 -0.032736083502334194 0.84382913798255188  -0.21773077623883577 -0.03155352339336525 0.84314598182954537  -0.2179049799724517 -0.030335185423918953 0.84248221495679398  -0.21807608457783892 -0.029077817335940847 0.84183848970650577  -0.21824342935751903 -0.027778392796350266 0.84121627707348612  -0.21862995733634513 -0.024584788939504457 0.83979463599348847  -0.21884480948574536 -0.022652094587160429 0.83901707731755593  -0.21904939787211655 -0.020620755840002999 0.83828733095936991  -0.21924090915112435 -0.01847770136266785 0.83761291771428648  -0.21941501477525127 -0.016211852417304443 0.83700636588115884  -0.21969607825321746 -0.011744476362797995 0.83603475613871181  -0.21981080522440477 -0.0095475224415371759 0.83564168249712967  -0.21990291710056223 -0.0072509148018627297 0.83532854839503567  -0.21996712349833472 -0.0048793005079872274 0.8351112953664428  -0.21999999992746047 -0.002455184054212052 0.83500000024551835  -0.22 1.3877787807814457e-17 0.83499999999999996 
 0 7 0.022605215085960351 5 0.048565706689529156 5 0.069060607612693281 5 0.087126141636077126 5 0.11471307610700418 5 0.14229853773879561 5 0.17605526323879395 5 0.22442120609906688 5 0.27042212687302697 5 0.31614877987292084 5 0.34555144311339542 5 0.37585703413402927 5 0.40025152946744974 5 0.41983144259328437 5 0.44260212015824524 5 0.47206165973018538 5 0.50139609129117269 5 0.5375582295957485 5 0.56064857790576528 5 0.5804171619258629 5 0.60806742718511941 5 0.63780811671469184 5 0.67393332232381931 5 0.72644025363117926 5 0.78910054337116053 5 0.83113273578728475 5 0.86194198161796842 5 0.89437636669703413 5 0.91505476648033346 5 0.9388961549968956 5 0.97169465628178087 5 1 7
1 0 1.592040838891563e-17 0.96500000000000008 1 0 0 
2 0.23100000000000001 0 0.90000000000000002 1 0 0 -0 0 1 0 -1 0 0.065000000000000002
1 0 1.5920408388915606e-17 0.83499999999999996 -1 0 0 
2 -0.23100000000000001 0 0.90000000000000002 -1 0 0 0 0 -1 -0 -1 -0 0.065000000000000002
Polygon3D 0
PolygonOnTriangulations 0
Surfaces 10
2 0 0 0 0 0 1 1 0 -0 -0 1 0 0.066000000000000003
1 0 0 0 0 0 1 1 0 -0 -0 1 0 
1 0 0 0.80000000000000004 0 0 1 1 0 -0 -0 1 0 
1 0 0 0.80000000000000004 0 0 1 1 0 -0 -0 1 0 
2 0 0 0.80000000000000004 0 0 1 1 0 -0 -0 1 0 0.22
2 0 0 0.90000000000000002 1 0 0 -0 0 1 0 -1 0 0.065000000000000002
1 0 0 1 0 0 1 1 0 -0 -0 1 0 
2 0 0 0.90000000000000002 -1 0 0 0 0 -1 -0 -1 -0 0.065000000000000002
1 0.23100000000000001 0 0.90000000000000002 1 0 0 -0 0 1 0 -1 0 
1 -0.23100000000000001 0 0.90000000000000002 -1 0 0 0 0 -1 -0 -1 -0 
Triangulations 0

TShapes 46
Ve
1e-07
0.066 -1.61653377487451e-17 0
0 0

0101101
*
Ve
1e-07
0.066 -1.61653377487451e-17 0.8
0 0

0101101
*
Ve
1e-07
0.22 -5.38844591624835e-17 0.8
0 0

0101101
*
Ve
1.00000000034902e-07
0.22 -1.8982025386784e-17 0.965
0 0

0101101
*
Ve
2.00001e-07
0.22 -5.38844591624835e-17 0.835000000000001
0 0

0101101
*
Ve
1e-07
0.22 -5.38844591624835e-17 1
0 0

0101101
*
Ve
2.00001e-07
-0.22 1.59204083889156e-17 0.835
0 0

0101101
*
Ve
1e-07
0.231 1.59204083889156e-17 0.965
0 0

0101101
*
Ve
1e-07
-0.231 1.59204083889156e-17 0.835
0 0

0101101
*
Ed
 1e-07 1 1 0
1  1 0 0 6.28318530717959
2  1 1 0 0 6.28318530717959
2  2 2 0 0 6.28318530717959
0

0101000
+46 0 -46 0 *
Ed
 1e-07 1 1 0
1  2 0 0 0.8
3  3 4CN 1 0 0 0.8
0

0101000
-45 0 +46 0 *
Ed
 1e-07 1 1 0
1  3 0 0 6.28318530717959
2  5 1 0 0 6.28318530717959
2  6 3 0 0 6.28318530717959
2  7 4 0 0 6.28318530717959
0

0101000
+45 0 -45 0 *
Ed
 1e-07 1 1 0
1  4 0 0 6.28318530717959
2  8 5 0 0 6.28318530717959
2  9 4 0 0 6.28318530717959
0

0101000
+44 0 -44 0 *
Ed
 1e-07 1 1 0
1  5 0 0 1
2  10 5 0 0 1
2  11 6 0 0 1
0

0101000
+43 0 -42 0 *
Ed
 1e-07 1 1 0
1  6 0 0 0.0350000000000007
3  12 13CN 5 0 0 0.0350000000000007
0

0101000
+44 0 -42 0 *
Ed
 1e-07 1 1 0
1  7 0 0 1
2  14 5 0 0 1
2  15 6 0 0 1
0

0101000
+42 0 -43 0 *
Ed
 1e-07 1 1 0
1  6 0 0.165 0.2
3  12 13CN 5 0 0.165 0.2
0

0101000
+43 0 -41 0 *
Ed
 1e-07 1 1 0
1  8 0 0 6.28318530717959
2  16 5 0 0 6.28318530717959
2  17 7 0 0 6.28318530717959
0

0101000
+41 0 -41 0 *
Ed
 1e-07 1 1 0
1  9 0 0 1
2  18 5 0 0 1
2  19 8 0 0 1
0

0101000
+40 0 -40 0 *
Ed
 1e-07 1 1 0
1  10 0 0.22 0.231
3  20 21CN 6 0 0.22 0.231
0

0101000
+43 0 -39 0 *
Ed
 1e-07 1 1 0
1  11 0 0 6.28318530717959
2  22 6 0 0 6.28318530717959
2  23 9 0 0 6.28318530717959
0

0101000
+39 0 -39 0 *
Ed
 1e-07 1 1 0
1  12 0 0.22 0.231
3  24 25CN 8 0 0.22 0.231
0

0101000
+40 0 -38 0 *
Ed
 1e-07 1 1 0
1  13 0 0 6.28318530717959
2  26 8 0 0 6.28318530717959
2  27 10 0 0 6.28318530717959
0

0101000
+38 0 -38 0 *
Wi

0101100
-37 0 *
Wi

0101100
+36 0 +37 0 -36 0 -35 0 *
Wi

0101100
+34 0 *
Wi

0101100
-35 0 *
Wi

0101100
-33 0 +32 0 +34 0 -32 0 -31 0 -30 0 -29 0 +30 0 *
Wi

0101100
+28 0 *
Wi

0101100
+27 0 +31 0 +33 0 -27 0 -26 0 *
Wi

0101100
+29 0 *
Wi

0101100
+25 0 -28 0 -25 0 -24 0 *
Wi

0101100
+26 0 *
Wi

0101100
+24 0 *
Fa
0  1e-07 2 0

0111000
-23 0 *
Fa
0  1e-07 1 0

0111000
+22 0 *
Fa
0  1e-07 4 0

0111000
+21 0 +20 0 *
Fa
0  1e-07 5 0

0111000
+19 0 +18 0 *
Fa
0  1e-07 6 0

0101000
+17 0 *
Fa
0  1e-07 7 0

0111000
+16 0 *
Fa
0  1e-07 8 0

0111000
+15 0 *
Fa
0  1e-07 9 0

0101000
+14 0 *
Fa
0  1e-07 10 0

0101000
+13 0 *
Sh

0101100
-12 0 +11 0 -10 0 +9 0 +8 0 +7 0 +6 0 +5 0 +4 0 *
So

0100000
+3 0 *
Co

1100000
-46 0 -45 0 -44 0 -43 0 +42 0 +41 0 +40 0 -39 0 -38 0 -37 0 
+36 0 -35 0 -34 0 -33 0 +32 0 -31 0 -30 0 -29 0 +28 0 +27 0 
-26 0 +25 0 -24 0 +23 0 +22 0 -21 0 -20 0 +19 0 +18 0 +17 0 
+16 0 +15 0 +14 0 +13 0 -12 0 +11 0 -10 0 +9 0 +8 0 +7 0 
+6 0 +5 0 +4 0 +3 0 +2 0 *

+1 0 