DBRep_DrawableShape

CASCADE Topology V1, (c) Matra-Datavision
Locations 0
Curve2ds 25
1 0 0 1 0 
2 0 0 1 0 -0 1 0.066000000000000003
1 6.2831853071795862 -0 0 1 
1 0 -0 0 1 
1 0 0.80000000000000004 1 0 
2 0 0 1 0 -0 1 0.066000000000000003
2 0 0 1 0 -0 1 0.066000000000000003
1 0 0 1 0 
2 0 0 1 0 -0 1 0.22
1 6.2831853071795862 -0 0 1 
1 0 -0 0 1 
7 0 0  7 98 17  6.2831853071795862 0.16500000000000001  6.2745505679993228 0.16499999981003571  6.2659220134047544 0.16493522748521935  6.2573210492144131 0.16480585753611512  6.2487694280776456 0.16461265082441706  6.2402892930999245 0.16435701003820341  6.2319032214681682 0.16404103516719087  6.2156892261652983 0.16330875181639556  6.2078504099878931 0.16289679353081016  6.2001224995204769 0.16243343706302413  6.192510361318269 0.16192042889164779  6.1850190485150653 0.16135952903211034  6.1776538008232569 0.1607525110366603  6.1652589781013365 0.15963644414329284  6.1601621962279891 0.15914892234745465  6.1551297366002773 0.15863905306855461  6.1501614160014162 0.15810719793220626  6.1452568303113333 0.15755362372793311  6.1404153545066764 0.15697850240916858  6.1316824593961599 0.15588837090763205  6.127771445265016 0.15538013559264013  6.1239026529791749 0.1548572481548742  6.1200756327763717 0.15431969957221772  6.1162899324202682 0.15376742879384361  6.1125450972004511 0.15320032274021431  6.1031120519459021 0.15171803250554211  6.0974808702816787 0.15078210087130919  6.0919446361342562 0.14980965858184472  6.0865016549006343 0.14879971561871722  6.0811509726331368 0.1477509640279146  6.075892322492245 0.14666168718415734  6.0662537920970356 0.14454971265459601  6.0618528512800491 0.14353818746600039  6.0575206521346106 0.1424930697629638  6.0532565503182312 0.14141225532691937  6.0490617216346818 0.14029348070981582  6.0449390299088765 0.13913424449673922  6.0356639723862191 0.13637768687416849  6.0305853800744336 0.13475803999564426  6.0256341541662488 0.13305862741564772  6.020807349978428 0.13126542837959307  6.0161220291995576 0.12936503215286702  6.0116152471849365 0.12734510827807269  6.0021572629912727 0.12258372458867961  5.9972053768311673 0.11972376942326679  5.9926063867504018 0.11657484839672944  5.9885715510857871 0.11310584265045742  5.9853981709671267 0.10929394982696092  5.9834602501317438 0.10512253062039967  5.983084751647965 0.09632570313965437  5.9844629024183584 0.092348268923021934  5.9870319852609883 0.088656133116658972  5.9904905786080471 0.085251272832021413  5.9945716140570822 0.082134058089033929  5.9990279047401156 0.079303869082619702  6.0078831794306327 0.074413106436151261  6.0124184686363291 0.072221581721491887  6.0171644324781379 0.070171062720802604  6.0220706500752472 0.068246188102086089  6.0271136344131078 0.066429852758904243  6.0322973859884979 0.064703803013856614  6.041545553238735 0.061847624328952466  6.0455106907983929 0.06068901594634861  6.0495455054283367 0.059570554568686554  6.0536467811807047 0.058489709514350667  6.0578130909467438 0.057444151820492451  6.0620449362057744 0.056431681170411023  6.071669789817471 0.054234663663054038  6.077095818581725 0.053067383283409965  6.0826219945196858 0.051945506069360693  6.088248228315611 0.050866852110981089  6.0939753982591212 0.049829745705485519  6.0998054286191294 0.048832893861651724  6.1093450034796737 0.047293900036360866  6.1129872412780974 0.046727060710876268  6.1166684960619033 0.046174565123416  6.1203891880785779 0.045636280786256374  6.1241497431742085 0.045112124428325004  6.127950592793475 0.044602061995200872  6.1363955192586488 0.043511810524550006  6.1410572814533193 0.042937769632264852  6.145778256939459 0.042384012037207312  6.1505590794848457 0.041850650441446542  6.155400220249243 0.041337884184172356  6.1603019877843934 0.040845999241695206  6.1720088150533412 0.039735762202987579  6.178868894444463 0.039135073550645785  6.185841498993411 0.03857461361023954  6.1929234723224322 0.038055728847531278  6.2001117688899878 0.037579800854227262  6.2074034539907714 0.037148246347977545  6.2242114103306196 0.036271203587154702  6.2338000932805411 0.035853746826442538  6.2435279664411221 0.035514950241315749  6.2533621458709776 0.03525833089727641  6.2632705589694257 0.035086242779819497  6.2732218535942765 0.034999999999999969  6.2831853071795862 0.034999999999999969 
 0 8 0.070618603647046543 6 0.13847093501842928 6 0.1868815222422423 6 0.22692999356142721 6 0.28886194053546721 6 0.34247469309475148 6 0.41175980680734059 6 0.49589678679233784 6 0.57480755682891727 6 0.64752545253071536 6 0.7003321950004967 6 0.76572615226024576 6 0.8054260156773817 6 0.85299814027425414 6 0.91765052519413226 6 1 8
7 0 0  7 98 17  0 0.45100000000000001  0.029225271071660119 0.45099999994387419  0.058429629827688241 0.45098086392376752  0.087577761503161544 0.45094263859731193  0.11663309888863393 0.45088566445588812  0.14555630639963527 0.45081057381605671  0.17430376414617038 0.45071828881098969  0.23023106466363033 0.45050599108339845  0.25743473682261836 0.45038717982823229  0.28444762012254421 0.45025443784509817  0.31127805160877769 0.45010866061683263  0.33793215372869628 0.44995078688041218  0.3644138343316855 0.44978179862695317  0.40949685576875822 0.4494749547010552  0.42819175925949787 0.44934198505356504  0.44681715419887336 0.44920412654903108  0.46538178462611884 0.44906167833793359  0.48389548156218581 0.44891492433144448  0.50236916300974443 0.44876413320142661  0.53607432502950669 0.44848168376374098  0.55131456294203252 0.44835122074095057  0.56654225429879901 0.44821831215580815  0.58176455916215541 0.44808309559047776  0.59698909104876086 0.44794570336554257  0.61222391692958422 0.44780626254000427  0.65106616401370554 0.4474462805123488  0.67469651960991572 0.44722308932809357  0.69840404590631966 0.44699574516275015  0.72222428383928505 0.44676466837738493  0.74619484642249756 0.44653028412716894  0.77035737177569441 0.44629303059864711  0.81588369471664923 0.4458458973934577  0.8371775280343261 0.44563671912622294  0.85868500701231254 0.44542600530636822  0.88044750219806478 0.44521399789310889  0.90250589223167765 0.4450010194763182  0.92490273229695075 0.44478748480903302  0.97712577609293538 0.44429790724603729  1.0070832757978445 0.44402302974818608  1.0378210799248742 0.44374876492551196  1.0695686359327343 0.44347548671168407  1.1025259864677142 0.44320467537683911  1.1368690753302406 0.44293913500948434  1.2163335028412405 0.44237242745133815  1.2631325266994455 0.44206907717963456  1.3137108917056746 0.44178130609719718  1.3684663634273182 0.4415237725758781  1.4277557013043196 0.44131785382539918  1.4919852325161735 0.44119189887281568  1.6273264864198123 0.44116749245359149  1.6884761318020056 0.44125707576322998  1.7456573831569107 0.44142423330001074  1.7990452476075649 0.44164655059075569  1.8486811943691497 0.44190409124921626  1.8945202164405528 0.44217985169749496  1.9750891086253795 0.44271739224827306  2.0118585449858681 0.44298824856015628  2.0469497977363584 0.44326634516953511  2.0805794413685907 0.44354791045265723  2.1129990261873397 0.44383103085922321  2.1445046541391051 0.44411538152689711  2.1979155544122313 0.44460993260241688  2.219988639207795 0.44481820246535786  2.2417107691304019 0.44502616349596552  2.263123953025703 0.44523340068123413  2.2842690183949932 0.44543959958173207  2.3051877205994171 0.44564453505769969  2.3516049645890229 0.44610009790618294  2.3769906322521583 0.44634981537376062  2.4021391899268107 0.4465966672313737  2.4271003189800489 0.44684014568615371  2.4519186945100051 0.44707976871090505  2.4766366325831153 0.44731506843613872  2.5162675824383709 0.44768551998625039  2.5312153367063814 0.44782367860592159  2.5461482624212692 0.44795994222978935  2.5610741913969917 0.44809419315903681  2.5760005251155826 0.44822630916736234  2.59093423472715 0.44835616350098034  2.6237935181853334 0.44863636113553645  2.6417250696349686 0.44878565974672202  2.6596879012350483 0.44893129413935629  2.677692477031175 0.44907302429601409  2.6957483392782939 0.44921059675466629  2.7138641084406907 0.44934374460867893  2.756759403324323 0.44964674644780839  2.7816094067053894 0.44981270939369128  2.8066034497305106 0.44996926092794043  2.8317488577366139 0.45011560479725876  2.8570543250022351 0.45025096391157376  2.8825299147475154 0.45037458034403838  2.9408672513325307 0.45062727094143323  2.9738761142123984 0.45074872691533985  3.0071398167765899 0.4508480475022078  3.0405955937299383 0.45092367254837468  3.0741888383405529 0.45097452193233217  3.1078701953010524 0.45100000000000001  3.1415926535897931 0.45100000000000001 
 0 8 0.070618603647046543 6 0.13847093501842928 6 0.1868815222422423 6 0.22692999356142721 6 0.28886194053546721 6 0.34247469309475148 6 0.41175980680734059 6 0.49589678679233784 6 0.57480755682891727 6 0.64752545253071536 6 0.7003321950004967 6 0.76572615226024576 6 0.8054260156773817 6 0.85299814027425414 6 0.91765052519413226 6 1 8
7 0 0  7 86 15  0 0.034999999999999969  0.014463851554416185 0.034999999999999969  0.028859454143652645 0.035181735821993167  0.043116473879751101 0.035542133940427698  0.057163774877380294 0.0360756254914762  0.070927746968528799 0.036774007013947445  0.084330656757203332 0.03762553784923045  0.10367973570034984 0.039100398933354132  0.10997795743781724 0.039621842681671716  0.11618379496657949 0.040176706761086936  0.12229733992794357 0.040764208246168776  0.12831866786447868 0.041383679970192336  0.13424783822001624 0.042034570525138829  0.14452757882021419 0.043235430169149013  0.14891757023411262 0.043772448118253919  0.1532554105880275 0.044327371733389867  0.15754166843618272 0.044900149444151383  0.16177693888034411 0.045490804485348001  0.16596184356981944 0.046099434897004202  0.17481828535149121 0.047441823583769159  0.17947448544613903 0.048181058674781237  0.18406678207171259 0.048944222316150442  0.18859608610442827 0.049731728086081957  0.19306308193098951 0.050544127464839647  0.19746824116916845 0.051382137677354334  0.20689436613714987 0.053258275974209388  0.21189037846791062 0.054305745211609781  0.21680303845400026 0.055391042292034967  0.22163351003412984 0.056516284112750177  0.22638109637825229 0.057683852017054484  0.23104338025342372 0.058896504387051178  0.24036976731352053 0.061468223953911667  0.24501677322863941 0.062828425932949655  0.2495680925590569 0.064245521083542464  0.25402460900117158 0.065726527156672376  0.25837824168698326 0.067278265859501613  0.26261280734733156 0.068907574970580282  0.27241571460746838 0.073013474326894173  0.27775876479492989 0.075532537112023734  0.28284739536783032 0.078256866942178732  0.28763924515861983 0.081254222405379217  0.29195062819254847 0.084577089360498306  0.29547866683796287 0.088264458577219013  0.30070952254312089 0.097540066397321823  0.30123902936822344 0.10264525925086029  0.29954676376337608 0.10756463202510952  0.2959445853092435 0.11220344496076456  0.2908852062945092 0.11644993876986789  0.28507546280552803 0.12018882591968258  0.27536686233979585 0.12555133820153905  0.27090149819606318 0.12771340387342453  0.26623048915196329 0.12973829350481436  0.26140240590027908 0.1316407252811404  0.25644032010036066 0.13343707789814249  0.25134128673502831 0.13514483643598654  0.24203787594976589 0.13803713388733313  0.23791972042295598 0.1392454086774014  0.23372606647674085 0.14041008722876086  0.22946062637615655 0.14153402430221548  0.22512501846390437 0.14261983714591783  0.22071859693764642 0.14366999437041575  0.21130372650655163 0.14580691543389213  0.20628269843121441 0.14688587399065117  0.20117595322018375 0.14792596386558302  0.19598356844801804 0.14892891863024277  0.19070488747748668 0.14989610522826982  0.1853384634921163 0.15082860714752311  0.17612749375419642 0.15234569013815949  0.17233076241736858 0.15294800337722567  0.16849134532895119 0.1535344806272593  0.16460876645838321 0.15410529491158784  0.16068253793384438 0.15466055895902267  0.15671216004225572 0.15520032520385882  0.14770177288411587 0.15637684952547981  0.1426373932820594 0.15700511495910871  0.13750292481017801 0.15760936672131445  0.13229753867458821 0.15818946799579375  0.12702063490045512 0.15874516051538734  0.12167184233199228 0.15927606456208002  0.1011512789444596 0.16119007118190809  0.085358219532870552 0.16241484550337099  0.068995334515886686 0.16342597755270985  0.052175356737771302 0.16420312184629732  0.035003150401337627 0.16473157065870855  0.017578672064371793 0.16499999961326919  0 0.16500000000000001 
 0 8 0.10946874040711427 6 0.16345574908157459 6 0.2045461961621477 6 0.25146026756336692 6 0.30635538359011899 6 0.3634162867669013 6 0.44304953620263587 6 0.54446545497638432 6 0.62131170966501792 6 0.68021922999227225 6 0.74509912927310007 6 0.78974203285087508 6 0.84528492169911718 6 1 8
7 0 0  7 86 15  3.1415926535897931 0.45100000000000001  3.1905472280816629 0.45100000000000001  3.2392707351598911 0.45094630412656161  3.2877004022662648 0.45083982681102636  3.3357620621508408 0.45068306282984416  3.3833618334678901 0.45048009517364995  3.4303689942638096 0.45023657219806174  3.499385016482023 0.44982308555206735  3.522044659754529 0.4496780606470091  3.5445832129337496 0.44952512956543561  3.5670149773064037 0.44936483008052974  3.5893543206866587 0.4491976875142471  3.6116156774161383 0.44902421473731635  3.6507087322956764 0.44870844188007325  3.6675698470012601 0.44856857386228732  3.6844053149172971 0.44842551014023602  3.7012242166202438 0.44827944409567039  3.7180362908263831 0.44813056046773853  3.7348519343918207 0.44797903535298539  3.7708977730115256 0.44764921122604134  3.790131510341979 0.44747017040024728  3.8094009830342919 0.44728815678792966  3.8287241550176119 0.44710340827867195  3.8481199755634727 0.44691615988517824  3.8676089694294871 0.44672664603676815  3.9101538724743312 0.44631097429285255  3.9332424148304139 0.44608416577822918  3.9565278962422985 0.44585494329146325  3.9800564147097872 0.44562363000619454  4.0038745501208393 0.44539062086168751  4.0280321903109302 0.44515639711727722  4.0781072245583418 0.44467741887091089  4.1040029344906159 0.44443312478776426  4.1304123830031898 0.4441885610195121  4.1574537897984509 0.44394406657314633  4.185232375158364 0.44370045840389544  4.2138490369056125 0.44345907271860535  4.2846624594433651 0.44289068117407943  4.3271021152323668 0.44257280953899386  4.3720862760407773 0.44226348081018868  4.4206260275521512 0.4419659916619022  4.4734489801876176 0.44169281891227896  4.5311282250890104 0.44146638712920416  4.6748300975273773 0.44112874806256358  4.7530245533433275 0.44109248056703948  4.8283931986897848 0.44120362697762189  4.9002168989378667 0.44144025338330745  4.9672906793439324 0.44176394156926024  5.0277562415553643 0.44212411909853605  5.1160956139105496 0.44271346547772239  5.1523601999840212 0.44298020817432454  5.1869914568714304 0.44325406141702961  5.2201970885955893 0.44353139114497164  5.2522178777997466 0.44381032328937753  5.2833366576803531 0.44409049395202638  5.3373057115551514 0.44458908025975491  5.3602907111810074 0.4448057230366706  5.3828932059767558 0.44502205407148926  5.405160444058331 0.44523760189728562  5.427138248715897 0.44545201321352507  5.4488735867402056 0.44566503913354111  5.4941448942059621 0.44610944500693733  5.5176247369356508 0.44634034630370911  5.5409015380347668 0.44656879445022446  5.564014750522567 0.44679438681556444  5.587000228147887 0.44701674100248084  5.6098920461962365 0.44723548683988101  5.6484348753606133 0.44759803950712485  5.6641155750369743 0.44774392270112656  5.679776157484409 0.44788777904147026  5.6954258294118123 0.44802947438064716  5.7110732680785361 0.44816886933948741  5.7267266212943779 0.44830581930715979  5.7618856113131987 0.44860733364625471  5.7813985404228259 0.44877047396719677  5.8009471692311534 0.44892930588784047  5.8205450783600501 0.44908352107034349  5.8402045545705619 0.44923279235518004  5.8599365907629082 0.44937677376113988  5.9349437342243263 0.44990041047564222  5.9912671679790392 0.4502452880548336  6.0484318696238404 0.4505368231225147  6.1062773494877964 0.45076456993373909  6.1647133145195587 0.45092068637620775  6.2236882632694046 0.45099999988573863  6.2831853071795862 0.45100000000000001 
 0 8 0.10946874040711427 6 0.16345574908157459 6 0.2045461961621477 6 0.25146026756336692 6 0.30635538359011899 6 0.3634162867669013 6 0.44304953620263587 6 0.54446545497638432 6 0.62131170966501792 6 0.68021922999227225 6 0.74509912927310007 6 0.78974203285087508 6 0.84528492169911718 6 1 8
1 0 0.20000000000000001 1 0 
2 0 0 1 0 -0 1 0.22
7 0 0  6 162 33  3.1415926535897931 0.16500000000000001  3.1316014046163922 0.1649999997801925  3.1216967660253481 0.1649107990393501  3.1119614750639077 0.16473531716653758  3.1024828444040637 0.16448046777505862  3.0933559960597616 0.1641578283181265  3.0747314755755126 0.16335534998019588  3.0652585949277369 0.16285405773712294  3.0562394114247682 0.1622935988611707  3.0476392336644751 0.16168395169812913  3.0394177207786122 0.16103190705372417  3.0253009202368535 0.15979567505515327  3.0192787017699803 0.15922593699200308  3.0134493548919337 0.1586344412163404  3.007798785397064 0.15802293880319795  3.002311677014335 0.15739234469046801  2.9922643056962905 0.15617013195549453  2.9876744760004059 0.15558314328989928  2.983194222178049 0.15498225593274806  2.9788167110023802 0.15436781012146436  2.9745360561613423 0.15374000208026367  2.9639509151446841 0.15211986607971956  2.9577659977769719 0.15110941089118735  2.9517783558618089 0.1500682156216547  2.945975199535134 0.1489962732869656  2.9403445215564901 0.14789263182058721  2.9294046894926247 0.14561773519324447  2.9240999300559642 0.14444740072492246  2.9189496556075372 0.14324241420302133  2.9139476601633487 0.14200084918641109  2.9090911200490939 0.14072043286411506  2.8986141711416558 0.13778058848055341  2.893077396906373 0.13610369799124725  2.8877476896376191 0.13435738339179995  2.8826257940438378 0.13253253562574505  2.8777299644053396 0.13062073338856139  2.8664445943034731 0.1257380740163736  2.8603475624428825 0.12267632395038852  2.8547677457410874 0.11935511448297922  2.8498836545199087 0.11571812717553825  2.8460070474847536 0.11172301352324074  2.8413851372974523 0.10316870700135813  2.8405932795853728 0.098826495339585041  2.8415476633070793 0.09447949207010406  2.8441609718799303 0.090286345294038825  2.8480533466028657 0.08640801033921805  2.8565049199588692 0.079793434584512185  2.8614488068607717 0.07674680977261647  2.8669154146612992 0.073927227617594862  2.8727805988290323 0.071304030290138459  2.8790011899915307 0.068838881472804037  2.8899282325983058 0.064974015598747659  2.8943615979726691 0.063515481221312967  2.8989433745404143 0.062107090584422653  2.903669682276901 0.0607450949836058  2.9085428179673865 0.059425705876568424  2.9187571934720498 0.05682481290714958  2.9241089342314521 0.055545533726448632  2.9296316979893025 0.05430471339263971  2.9353293318875426 0.053101120064518774  2.9412065480497342 0.051934281916190761  2.9521501350107844 0.049894368284769314  2.9571550985512345 0.049007637539067596  2.9622940273089298 0.048142888983058157  2.9675761698220007 0.047299807232309858  2.9730108129231154 0.046478665597628095  2.9830997211722514 0.045039334304577683  2.9876957512899978 0.044413147974349088  2.9924044533175658 0.043801504420659186  2.9972341919719221 0.043204671023954089  3.002192897888754 0.042623325769894131  3.0132135518878775 0.041401753422013653  3.0193205279098998 0.040767677832706913  3.0256323621071304 0.040156714519266286  3.0321703795020589 0.039570505816810882  3.038953863721082 0.039011952357746196  3.0551160619520865 0.037803744687908696  3.0647148472577967 0.037172262083125983  3.0748234105356249 0.03660203154559187  3.0854642500082061 0.036106776227727386  3.0966559825664448 0.035703113920167902  3.1201220076294636 0.035120116295113871  3.1323716465043385 0.034940345926291375  3.1448531400926627 0.034898765510741156  3.1572895283673317 0.035001858506438874  3.1694001623758243 0.035238582874663048  3.1949928806294614 0.035992858598349921  3.2082404250472654 0.036565971799477084  3.2206570874597604 0.037259214765894916  3.2323080014775853 0.03804601976496929  3.2432728020855262 0.038907691884614216  3.2602738266991178 0.04042743929901247  3.2666670075630306 0.041047262786687432  3.2728433479930636 0.041691585081952122  3.2788195214824003 0.042358376308137657  3.2846136962200698 0.043046664691952584  3.2950671808457912 0.044364286673937714  3.299766038430088 0.044987380310622403  3.3043503658094537 0.045625354652759027  3.308827377403984 0.046277903871162228  3.3132032440882675 0.046944879128239247  3.3234693066121519 0.048579374141258187  3.3292696194543683 0.049560975184210716  3.3348958272376366 0.050570739357535643  3.3403583802170331 0.051608865180953624  3.3456668926724764 0.052676283980665616  3.356384803936511 0.054956453197461751  3.3617669891982467 0.056173130760889423  3.3669886203110142 0.057427008188213689  3.3720559091052582 0.058720376051184658  3.3769709951564462 0.060055855740668108  3.3875174415406595 0.063113693505209387  3.3930629361634392 0.06485371815482642  3.3983933239651143 0.066668789360010902  3.4035060499942755 0.068569447779438408  3.4083779713680733 0.07056528399008849  3.4196470546755635 0.075718322888243553  3.4257689400534015 0.07900794533122317  3.4312789088480069 0.082600569144604771  3.4359170508346573 0.08654485222093064  3.4392994264333483 0.090877543704529273  3.4426408905935237 0.1012917509004948  3.4415344238638204 0.10668563613432233  3.4380627603479823 0.11175346446318218  3.4327227801654252 0.11643053826706021  3.4261351155638402 0.12064040080814106  3.4146196126770501 0.12669526021171496  3.4096241782822436 0.12898631853921025  3.4043237635791428 0.13115088712349593  3.398761115700895 0.13320311596387127  3.3929447343370467 0.13515915188660801  3.3823636502226648 0.13841579861929229  3.3777442947014342 0.13974837733790935  3.3729838359365476 0.14103913746541474  3.368081991036965 0.14229079606439188  3.3630342767262138 0.14350588696979724  3.3523531256292749 0.14593021951141566  3.3467077001937366 0.14713466933210081  3.3408850085974016 0.14830292698502986  3.3348745149334502 0.14943647973480109  3.3286639629443791 0.15053589457525193  3.3181420418883061 0.15228018984697608  3.3139574200680273 0.15294550023482514  3.3096803017131911 0.1535970809034887  3.3053054401655633 0.15423486768045103  3.3008267161997007 0.15485866587411409  3.2909455333733657 0.15617086201744748  3.2855105686804449 0.15685401817045416  3.2799165327116131 0.15751778504320604  3.2741487697687361 0.15816151029349465  3.2681936796881224 0.15878372292651449  3.2535713618420541 0.16020536400651167  3.2447326943381714 0.16098292268244416  3.2354533878102836 0.16171266904063006  3.2256744629214649 0.16238708228571327  3.2153457760231086 0.16299363411884124  3.1949993722497454 0.16396524386128816  3.1850001733854927 0.16435831750287003  3.1745538672856042 0.16467145160496435  3.1637712869886947 0.16488870463355743  3.1527525811089396 0.16499999975448157  3.1415926535897931 0.16500000000000001 
 0 7 0.022605215075483191 5 0.048565706667021702 5 0.069060607580678765 5 0.087126141595689072 5 0.11471307605385636 5 0.14229853767296194 5 0.17605526315723524 5 0.22442120599496482 5 0.27042212674752808 5 0.3161487797261498 5 0.34555144295290774 5 0.37585703442332036 5 0.40025152974550859 5 0.41983144286227136 5 0.44260212041663638 5 0.47206165997487487 5 0.50139609152223297 5 0.53755822981002521 5 0.56064857810935131 5 0.58041716212030015 5 0.6080674273668214 5 0.63780811688266004 5 0.67393332247512094 5 0.72644025375814947 5 0.78910054346905589 5 0.83113273586567049 5 0.86194198168205283 5 0.89437636674609888 5 0.91505476651978757 5 0.93889615502525647 5 0.97169465629492002 5 1 7
7 0 0  6 162 33  6.2831853071795862 0.01100000000000001  6.2493687721926916 0.01100000006494313  6.2158453546062553 0.011026350720172809  6.1828316924200637 0.011078209887594176  6.1505649631747374 0.01115324494429124  6.1193283753285357 0.01124764123236259  6.0551940743240742 0.011480679934100624  6.0223180813054062 0.011625332587932339  5.9907279179467565 0.011785658325844569  5.960289726142463 0.011958222079817253  5.9308565523125489 0.012140563918217913  5.8796989586506205 0.012481698817222201  5.8576485688398146 0.012637403487340144  5.8360715344676981 0.012797356288680053  5.8149164403765843 0.012960836313841496  5.7941260997537434 0.013127358515499029  5.7555776220820647 0.013445919089602916  5.7377640988540257 0.013597227813691624  5.7201670823662099 0.013750312590899287  5.7027592623446557 0.013904920837877387  5.6855159203225218 0.014060834675697914  5.6423008989818086 0.01445767280049523  5.6165072410715409 0.01470018869071371  5.5909677534022366 0.014944617305083669  5.5656179236202474 0.015190329040177357  5.5403882576095711 0.015436850705572621  5.4900083024465332 0.01593083659708933  5.4648783196176671 0.016178101231354582  5.4397339484169693 0.016425236428686988  5.4145104484125541 0.016671771309836336  5.389145667700407 0.016917153450703253  5.3322808296369901 0.017458799227800931  5.300740244350024 0.017753568205703455  5.2687250822610361 0.018044897353749572  5.2360635604948227 0.018331707279887758  5.2026110933870013 0.018611971978152838  5.1189511069568487 0.019270621596061764  5.0679183273738335 0.019637714901953963  5.0138485019191696 0.019982313801925222  4.9559063417531997 0.020291466416153762  4.8934183380551595 0.020540431551007848  4.7609667353979743 0.020838934820621862  4.6943022315654455 0.020891372970955596  4.6277152466275577 0.020829116092142108  4.5629656900142352 0.020657238807202848  4.5020739205384217 0.020408430169115935  4.3966826623964668 0.019877991751401633  4.3472476166206926 0.019572193919397053  4.3004755663940397 0.019241014892996941  4.2559019117444548 0.018894528817807815  4.2129276162579794 0.018536781661362266  4.1435332811065892 0.017928208151966246  4.1168125440649268 0.017685964296911532  4.0904553515565087 0.017440781894468002  4.0643877148624989 0.017193493676916295  4.03852687809482 0.016944643803771215  3.9862274410945631 0.016436674713454787  3.9597917809622665 0.016177439941541121  3.933394823176672 0.015917463462849415  3.9069800480836996 0.015657479102136548  3.8804971159440527 0.015398278532736754  3.832479390558301 0.014933367460020294  3.8109693408433092 0.014726913694255571  3.7893109718319065 0.014521538555957003  3.7674584385944954 0.01431755288731853  3.7453695479355811 0.014115386398497813  3.7050500891657205 0.013755230736722144  3.686920493999537 0.013596418456269473  3.6685775447559177 0.013439300734433503  3.6499878484709405 0.013284129495246016  3.631120899325079 0.013131263576692411  3.5896529967211954 0.012806614261546492  3.5669551609857897 0.012635900878014103  3.5437692784656982 0.01246940151103821  3.5200173556656291 0.012307855216660562  3.4956296985662836 0.012152367176040992  3.4380914978323793 0.011812987570577799  3.4043168651045366 0.011633268174972138  3.3691268058050152 0.011469046101501184  3.3324322534993356 0.01132504474408455  3.2941338320150551 0.011206889122399007  3.2142489624383588 0.011035634703962941  3.1727445939376411 0.010982405704732259  3.1305738065496613 0.010969951570760564  3.0885315743812938 0.011000665938355081  3.0474318432726415 0.011070609455688352  2.9601027014906518 0.011291657844438894  2.9145565851222326 0.011458750695079008  2.8713899544212085 0.011658951722891218  2.830347093130364 0.011883022262851454  2.7911489949880703 0.012124521727776828  2.729372541157518 0.012542759771506186  2.7058782748472705 0.012711550236076232  2.6829099402391248 0.012884999695332423  2.6604064653343946 0.013062257288609616  2.6382994317307191 0.013242767839136133  2.5978608903755656 0.013583377086394217  2.5794579957423256 0.013742546487212438  2.5612721589635936 0.013903477636406127  2.5432739063334364 0.014065903924541044  2.5254365221987425 0.014229594552830994  2.4829784446821144 0.014624803874121123  2.4584807007548073 0.014857410599165954  2.4341856665151638 0.015091531620999686  2.4100377596334579 0.015326646704053502  2.3859778044796816 0.015562345561204201  2.3360804616606723 0.01605212417368963  2.3102671792413028 0.016306040194273935  2.2844155551714853 0.016559651403530481  2.2584542293086023 0.016812451119787464  2.2323155148450518 0.017063817069253213  2.1738757240211322 0.017615655492709006  2.141529500073335 0.017914394252118007  2.1086311489451464 0.018209137166221922  2.0749879924230084 0.018498667249365181  2.0404396810139382 0.018780621542033121  1.9530602434447704 0.019445194652658614  1.8987680654748755 0.019817569341478415  1.8408566071458041 0.020161564537493376  1.7786019685709673 0.02045839622999434  1.7113586957374849 0.020677188283511887  1.5507760613232904 0.0208938910436136  1.4682209272964177 0.020822946663652586  1.3899922889211034 0.020594555518782039  1.3164039927359037 0.020250441009956328  1.2483325903950455 0.019841135781019273  1.1479224239653993 0.019146736464493667  1.1091447036016002 0.018850917833288364  1.0716721475615967 0.018543838192486437  1.0352800885256472 0.018229294369251064  0.99968969827295695 0.017909078294474103  0.93872090788336837 0.017343889895800501  0.91321998261124604 0.017102275572892948  0.88794054987272764 0.016858884984911351  0.86281935873660764 0.016614334693958621  0.8377883844667916 0.016369089545308683  0.78642817946590959 0.015864911998007058  0.7601234774372515 0.015606169829605594  0.73376799435294282 0.015347702609306103  0.70728715381831131 0.015090046459351636  0.6806099622674896 0.014833845119887367  0.63647996824207997 0.014417952538143666  0.61918515658441109 0.014256911744218025  0.60175519432406377 0.01409692241161266  0.58416642168164412 0.013938184753629694  0.5663929879964692 0.013780926394626967  0.52766953804581151 0.013446089234900474  0.50666468004847687 0.013269223761164383  0.48533025405345559 0.013095020027548336  0.46360998267403403 0.012923915422160938  0.44145333481789067 0.012756570642480808  0.38767278367152852 0.012370042663654891  0.35564413490549285 0.01215519051425464  0.3224733603131803 0.011950602127883472  0.28795492356490354 0.011759090848875645  0.25190874075646358 0.011584985224748734  0.1815731558095732 0.011303921746782547  0.14726078816846053 0.011189194775595273  0.11164943157429448 0.011097082899437781  0.075066211197524657 0.011032876501665248  0.037772062372494454 0.01100000007253954  0 0.01100000000000001 
 0 7 0.022605215075483191 5 0.048565706667021702 5 0.069060607580678765 5 0.087126141595689072 5 0.11471307605385636 5 0.14229853767296194 5 0.17605526315723524 5 0.22442120599496482 5 0.27042212674752808 5 0.3161487797261498 5 0.34555144295290774 5 0.37585703442332036 5 0.40025152974550859 5 0.41983144286227136 5 0.44260212041663638 5 0.47206165997487487 5 0.50139609152223297 5 0.53755822981002521 5 0.56064857810935131 5 0.58041716212030015 5 0.6080674273668214 5 0.63780811688266004 5 0.67393332247512094 5 0.72644025375814947 5 0.78910054346905589 5 0.83113273586567049 5 0.86194198168205283 5 0.89437636674609888 5 0.91505476651978757 5 0.93889615502525647 5 0.97169465629492002 5 1 7
1 6.2831853071795862 -0 0 1 
1 0 -0 0 1 
1 0 0.46200000000000002 1 0 
2 0 0 1 0 -0 1 0.065000000000000002
1 0 0 1 0 
2 0 0 1 0 -0 1 0.065000000000000002
Curves 12
2 0 0 0 0 0 1 1 0 -0 -0 1 0 0.066000000000000003
1 0.066000000000000003 -1.6165337748745064e-17 0 0 0 1 
2 0 0 0.80000000000000004 0 0 1 1 0 -0 -0 1 0 0.066000000000000003
2 0 0 0.80000000000000004 0 0 1 1 0 -0 -0 1 0 0.22
1 0.22 -5.3884459162483539e-17 0.80000000000000004 0 0 1 
7 0 0  7 98 17  0.22 -2.7755575615628914e-17 0.96499999999999997  0.21999999994387423 -0.0018996426196579289 0.96499999981003592  0.21998086392376756 -0.0037979247084537911 0.96493522748521898  0.21994263859731186 -0.0056899053712288023 0.96480585753611514  0.21988566445588806 -0.0075705694224845119 0.96461265082441727  0.2198105738160567 -0.009434831707342644 0.96435701003820351  0.21971828881098956 -0.011277541422504903 0.96404103516719086  0.21950599108339836 -0.014838297245226031 0.96330875181639564  0.21938717982823222 -0.016558815996046007 0.96289679353081026  0.21925443784509815 -0.018253880347799224 0.96243343706302398  0.21910866061683262 -0.019922312732207591 0.96192042889164775  0.21895078688041211 -0.02156292035458842 0.96135952903211053  0.21878179862695313 -0.023174495193854429 0.96075251103666037  0.21847495470105519 -0.025884037168439379 0.95963644414329285  0.21834198505356509 -0.026997437864231085 0.95914892234745486  0.2182041265490311 -0.028095994156935433 0.95863905306855457  0.21806167833793363 -0.029179736255017397 0.95810719793220633  0.21791492433144444 -0.030248746508360309 0.95755362372793307  0.21776413320142665 -0.031303159408265911 0.95697850240916871  0.21748168376374094 -0.03320352085664792 0.95588837090763212  0.21735122074095051 -0.034054005000410378 0.95538013559264001  0.21721831215580817 -0.034894712485834353 0.95485724815487416  0.21708309559047784 -0.035725743471099289 0.95431969957221785  0.2169457033655425 -0.036547199805471338 0.9537674287938438  0.21680626254000429 -0.037359185029303389 0.95320032274021416  0.21644628051234879 -0.039402994788073409 0.95171803250554221  0.2162230893280935 -0.04062161307429546 0.95078210087130899  0.21599574516275014 -0.041818221454994108 0.94980965858184485  0.21576466837738498 -0.042993214161914206 0.94879971561871745  0.21553028412716885 -0.04414683000731888 0.94775096402791503  0.21529303059864713 -0.045279164955055747 0.94666168718415744  0.21484589739345752 -0.047351963371858104 0.94454971265459597  0.2146367191262229 -0.048297318035638033 0.94353818746600038  0.21442600530636827 -0.049226837729332569 0.94249306976296388  0.21421399789310888 -0.050140691178735479 0.94141225532691941  0.21400101947631814 -0.051038659124153396 0.94029348070981611  0.21378748480903306 -0.051920166655494558 0.9391342444967391  0.2132979072460372 -0.053901076977786531 0.93637768687416856  0.21302302974818607 -0.054984048587755553 0.93475803999564433  0.2127487649255119 -0.056038257369522435 0.93305862741564771  0.21247548671168401 -0.057064419424992088 0.93126542837959314  0.21220467537683912 -0.058059002179985712 0.92936503215286692  0.21193913500948439 -0.059014286598510157 0.92734510827807271  0.21137242745133819 -0.061016383062196949 0.92258372458867965  0.21106907717963419 -0.062062734341603337 0.91972376942326639  0.2107813060971977 -0.063032756404125811 0.91657484839673098  0.21052377257587784 -0.063882263135668596 0.91310584265045547  0.21031785382539911 -0.064549345652013951 0.90929394982696188  0.2101918988728157 -0.064956658361198974 0.90512253062039971  0.21016749245359162 -0.065035580371364449 0.89632570313965465  0.21025707576322997 -0.064745923352122994 0.89234826892302166  0.21042423330001053 -0.064206011446740527 0.88865613311665925  0.21064655059075571 -0.063478312237481793 0.88525127283202187  0.21090409124921641 -0.062618189264183527 0.88213405808903378  0.21117985169749492 -0.061677371516286418 0.87930386908261993  0.21171739224827296 -0.059804838679526191 0.87441310643615144  0.21198824856015661 -0.058844531295214483 0.872221581721492  0.21226634516953485 -0.057838110027242637 0.87017106272080247  0.21254791045265695 -0.056796080796500246 0.86824618810208598  0.21283103085922347 -0.055723323789056145 0.8664298527589045  0.21311538152689705 -0.054618892424720566 0.86470380301385652  0.21360993260241692 -0.052645316139866213 0.86184762432895268  0.21381820246535788 -0.051798204016170482 0.86068901594634883  0.21402616349596557 -0.05093523358634492 0.8595705545686867  0.21423340068123412 -0.050057055547331974 0.85848970951435066  0.214439599581732 -0.049163943727888813 0.85744415182049261  0.21464453505769968 -0.04825576095440464 0.85643168117041113  0.21510009790618292 -0.046187879828194278 0.85423466366305412  0.21534981537376069 -0.045020542313322587 0.85306738328340992  0.21559666723137369 -0.043830068560057507 0.85194550606936059  0.21584014568615376 -0.042616431537724438 0.85086685211098112  0.21607976871090501 -0.041379402314531404 0.84982974570548542  0.21631506843613871 -0.04011853137508091 0.84883289386165139  0.21668551998625032 -0.038052778608319411 0.84729390003636074  0.2168236786059215 -0.037263479827961667 0.84672706071087611  0.21695994222978929 -0.036465137531734686 0.84617456512341604  0.21709419315903664 -0.035657655455004898 0.84563628078625641  0.21722630916736221 -0.034840937133579095 0.84511212442832517  0.21735616350098025 -0.034014885903704377 0.84460206199520105  0.21763636113553647 -0.032178252684224765 0.84351181052454982  0.2177856597467219 -0.031163575771774147 0.84293776963226474  0.21793129413935614 -0.030135197396303492 0.84238401203720714  0.21807302429601408 -0.029092979533787453 0.84185065044144647  0.21821059675466628 -0.028036822904588261 0.84133788418417255  0.21834374460867897 -0.026966666973455736 0.84084599924169545  0.21864674644780838 -0.024409050811244015 0.83973576220298773  0.21881270939369121 -0.022908940804894827 0.83913507355064587  0.21896926092794036 -0.021382898194060817 0.83857461361023944  0.2191156047972587 -0.019831656100593297 0.8380557288475311  0.21925096391157378 -0.018255942504613699 0.83757980085422723  0.21937458034403839 -0.016656480244513567 0.83714824634797769  0.21962727094143311 -0.012967373924009304 0.83627120358715479  0.21974872691533989 -0.0108612403113663 0.83585374682644265  0.21984804750220785 -0.0087231969308668774 0.83551495024131583  0.21992367254837467 -0.0065607399672419891 0.83525833089727652  0.21997452193233213 -0.0043812448039089458 0.83508624277981958  0.22 -0.0021919597887681908 0.83499999999999996  0.22 -2.7755575615628914e-17 0.83499999999999996 
 0 8 0.070618603647046543 6 0.13847093501842928 6 0.1868815222422423 6 0.22692999356142721 6 0.28886194053546721 6 0.34247469309475148 6 0.41175980680734059 6 0.49589678679233784 6 0.57480755682891727 6 0.64752545253071536 6 0.7003321950004967 6 0.76572615226024576 6 0.8054260156773817 6 0.85299814027425414 6 0.91765052519413226 6 1 8
7 0 0  7 86 15  0.22 -3.0922331678470674e-17 0.83499999999999996  0.22 0.00318204734197153 0.83499999999999996  0.21994630412656155 0.0063490796863430567 0.83518173582199318  0.21983982681102643 0.0094845374817767083 0.83554213394042776  0.21968306282984423 0.012571727014579559 0.8360756254914764  0.21948009517364975 0.015593594197235421 0.83677400701394744  0.21923657219806164 0.018532476941371976 0.83762553784923044  0.21882308555206725 0.022769144573069444 0.83910039893335431  0.21867806064700904 0.024147182360704449 0.83962184268167184  0.2185251295654356 0.025503933814074425 0.84017670676108691  0.21836483008052979 0.026839389444252477 0.84076420824616882  0.21819768751424712 0.028153545937378475 0.84138367997019259  0.21802421473731634 0.029446406154659037 0.84203457052513875  0.21770844188007327 0.031685795342831703 0.84323543016914926  0.2175685738622874 0.032641425144856406 0.84377244811825414  0.21742551014023598 0.033584985970727503 0.84432737173339001  0.21727944409567038 0.034516602895501756 0.84490014944415148  0.21713056046773863 0.035436408637006832 0.84549080448534808  0.21697903535298538 0.036344543555841331 0.84609943489700423  0.21664921122604136 0.038264841865802923 0.84744182358376929  0.21647017040024732 0.039273454148894382 0.84818105867478144  0.21628815678792959 0.040267252876331629 0.84894422231615052  0.21610340827867194 0.041246448561575173 0.84973172808608211  0.21591615988517823 0.042211204938877346 0.85054412746483965  0.21572664603676814 0.043161642042296014 0.85138213767735438  0.21531097429285251 0.04519330285696245 0.85325827597420933  0.21508416577822911 0.046268789912755834 0.85430574521160985  0.21485494329146321 0.047325017784059016 0.85539104229203489  0.21462363000619447 0.048362272747437554 0.85651628411275027  0.21439062086168742 0.049380444455253317 0.85768385201705455  0.2141563971172773 0.050379060366865722 0.85889650438705112  0.21367741887091082 0.052374175457855006 0.86146822395391165  0.21343312478776424 0.053366916702059446 0.86282842593294973  0.21318856101951206 0.054337905177992814 0.86424552108354269  0.2129440665731463 0.055287388878121346 0.86572652715667242  0.21270045840389543 0.056213709387053896 0.86727826585950152  0.21245907271860537 0.057113508746764761 0.86890757497058047  0.21189068117407944 0.059193899432297706 0.87301347432689413  0.2115728095389933 0.060325606198424614 0.87553253711202483  0.21126348081018956 0.061401552739960112 0.87825686694217642  0.21096599166190164 0.062412954028221342 0.88125422240538154  0.21069281891227906 0.063321280935028312 0.8845770893604975  0.21046638712920412 0.0640636877897168 0.88826445857721903  0.21012874806256354 0.065163830266323455 0.89754006639732187  0.21009248056703944 0.065274552864158591 0.90264525925086048  0.21020362697762218 0.064919221707130284 0.90756463202510984  0.21044025338330702 0.064162916080486368 0.91220344496076378  0.2107639415692604 0.063097871982737336 0.91644993876986836  0.21112411909853607 0.061871503130081516 0.92018882591968265  0.21171346547772243 0.059818528235277522 0.92555133820153912  0.2119802081743245 0.058873044770274281 0.92771340387342482  0.21225406141702963 0.057882560202548748 0.92973829350481441  0.21253139114497174 0.05685719409406615 0.93164072528114017  0.21281032328937746 0.055801740426395977 0.93343707789814279  0.21309049395202626 0.05471548002621384 0.93514483643598645  0.21358908025975501 0.052730385876776739 0.93803713388733312  0.21380572303667073 0.051850664863558805 0.93924540867740169  0.2140220540714893 0.050953764607953596 0.94041008722876096  0.21423760189728563 0.050040437205264285 0.94153402430221533  0.21445201321352497 0.049110993712095215 0.94261983714591768  0.21466503913354101 0.048165262564412954 0.94366999437041577  0.21510944500693721 0.046142227956446201 0.94580691543389206  0.21534034630370916 0.04506198597105001 0.94688587399065105  0.21556879445022445 0.043961942028025135 0.94792596386558292  0.21579438681556434 0.042842076116445596 0.94892891863024287  0.21601674100248078 0.041702214873135468 0.94989610522826984  0.21623548683988109 0.040542018229951036 0.95082860714752315  0.21659803950712483 0.038548301450291089 0.95234569013815928  0.21674392270112647 0.037725850719177063 0.95294800337722563  0.21688777904147019 0.036893505737448942 0.95353448062725932  0.21702947438064715 0.036051157002185884 0.95410529491158791  0.2171688693394874 0.035198693637818149 0.95466055895902269  0.21730581930715981 0.034336003396127142 0.95520032520385889  0.21760733364625479 0.032376783240678698 0.95637684952547986  0.21777047396719687 0.03127460993891415 0.95700511495910889  0.2179293058878404 0.03015621744788774 0.95760936672131447  0.21808352107034348 0.02902142498670035 0.95818946799579396  0.21823279235517995 0.027870106296617757 0.9587451605153875  0.21837677376113981 0.026702189641070597 0.95927606456208003  0.21890041047564218 0.022218136670428323 0.96119007118190825  0.21924528805483365 0.018760327498339661 0.96241484550337064  0.21953682312251457 0.015171319118180858 0.9634259775527102  0.219764569933739 0.011476627940375156 0.96420312184629753  0.21992068637620782 0.0077006924920819996 0.96473157065870818  0.21999999988573865 0.0038673078541617725 0.96499999961326921  0.22 -1.8982025386783973e-17 0.96499999999999997 
 0 8 0.10946874040711427 6 0.16345574908157459 6 0.2045461961621477 6 0.25146026756336692 6 0.30635538359011899 6 0.3634162867669013 6 0.44304953620263587 6 0.54446545497638432 6 0.62131170966501792 6 0.68021922999227225 6 0.74509912927310007 6 0.78974203285087508 6 0.84528492169911718 6 1 8
2 0 0 1 0 0 1 1 0 -0 -0 1 0 0.22
7 0 0  6 162 33  -0.22 1.3877787807814457e-17 0.96499999999999997  -0.21999999993505692 0.0021980747741481752 0.96499999978019269  -0.21997364927982718 0.0043770959270869646 0.96491079903935029  -0.21992179011240587 0.0065184632643258342 0.9647353171665376  -0.2198467550557088 0.00860261230451137 0.96448046777505858  -0.21975235876763741 0.010608396124326543 0.96415782831812658  -0.21951932006589944 0.014699158242278959 0.9633553499801959  -0.21937466741206765 0.016778314291128065 0.96285405773712307  -0.21921434167415543 0.018756243811867673 0.96229359886117083  -0.21904177792018276 0.020640549477828372 0.96168395169812915  -0.21885943608178207 0.022440128173740952 0.96103190705372421  -0.21851830118277779 0.025527032021516783 0.95979567505515362  -0.21836259651265988 0.026842776415964161 0.95922593699200309  -0.21820264371131995 0.028115269664920811 0.95863444121634045  -0.2180391636861585 0.029347641598442276 0.95802293880319811  -0.217872641484501 0.030543286390797342 0.95739234469046819  -0.21755408091039707 0.032730632547242379 0.95617013195549483  -0.21740277218630835 0.033729010784103459 0.95558314328989935  -0.21724968740910069 0.034702728787591793 0.9549822559327481  -0.21709507916212265 0.035653309786074172 0.95436781012146443  -0.2169391653243021 0.036582068719743781 0.95374000208026377  -0.21654232719950484 0.038876738125842726 0.95211986607971977  -0.2162998113092863 0.040215677037014418 0.95110941089118706  -0.21605538269491634 0.041510135618925165 0.95006821562165467  -0.21580967095982265 0.042763006670782235 0.94899627328696601  -0.21556314929442735 0.043977003884816394 0.94789263182058703  -0.21506916340291071 0.046332526403775838 0.94561773519324444  -0.21482189876864546 0.047473105733995401 0.9444474007249225  -0.214574763571313 0.048578920390065804 0.94324241420302135  -0.21432822869016363 0.049651416774437712 0.94200084918641103  -0.21408284654929677 0.050691312777614621 0.94072043286411511  -0.2135412007721991 0.05293169587859331 0.93778058848055357  -0.2132464317942965 0.054113614405700373 0.93610369799124726  -0.21295510264625042 0.055249420802297479 0.93435738339179997  -0.21266829272011223 0.056339155998996783 0.9325325356257449  -0.21238802802184717 0.057379151983071801 0.93062073338856155  -0.21172937840393827 0.059772974088470543 0.92573807401637376  -0.21136228509804605 0.061063162725446846 0.92267632395038834  -0.21101768619807476 0.062241412860109813 0.91935511448297935  -0.21070853358384631 0.063270499188185697 0.91571812717553835  -0.21045956844899213 0.064086204814767178 0.9117230135232407  -0.21016106517937813 0.065058222922086406 0.9031687070013581  -0.21010862702904451 0.065224355234797804 0.89882649533958592  -0.21017088390785782 0.065023837531448164 0.89447949207010258  -0.21034276119279718 0.064475191130165865 0.89028634529403983  -0.21059156983088409 0.06365579458632592 0.88640801033921801  -0.21112200824859839 0.06187371626394475 0.8797934345845122  -0.21142780608060296 0.060829924101482413 0.87674680977261688  -0.21175898510700306 0.059673729534845343 0.87392722761759445  -0.21210547118219222 0.058430727656616097 0.8713040302901387  -0.21246321833863774 0.057109733198877924 0.86883888147280408  -0.21307179184803379 0.054784091164091199 0.86497401559874765  -0.21331403570308849 0.053839300001616103 0.86351548122131294  -0.21355921810553202 0.052861560471279045 0.8621070905844227  -0.21380650632308371 0.051851579654568249 0.86074509498360596  -0.21405535619622881 0.050808749496780797 0.85942570587656852  -0.21456332528654523 0.048619752648067706 0.85682481290714951  -0.21482256005845887 0.047471241229088586 0.85554553372644859  -0.21508253653715056 0.046284333989660476 0.85430471339263969  -0.21534252089786352 0.045058066160158172 0.85310112006451877  -0.21560172146726331 0.043791288393651394 0.85193428191619081  -0.21606663253997971 0.041429013405371785 0.84989436828476939  -0.21627308630574441 0.040347431210687935 0.84900763753906749  -0.21647846144404301 0.039235646147002978 0.84814288898305812  -0.2166824471126815 0.038091581771048925 0.84729980723231002  -0.21688461360150221 0.036913147337387993 0.84647866559762808  -0.21724476926327785 0.034723002668465446 0.84503933430457756  -0.21740358154373052 0.033724412439258701 0.84441314797434919  -0.21756069926556651 0.032700457564898817 0.84380150442065938  -0.21771587050475402 0.031649277968228529 0.84320467102395424  -0.21786873642330762 0.030569105152665144 0.84262332576989418  -0.21819338573845351 0.028166395047952944 0.84140175342201351  -0.21836409912198593 0.02683372161450592 0.84076767783270701  -0.21853059848896181 0.025455076261909293 0.84015671451926632  -0.21869214478333943 0.024025740318951702 0.83957050581681092  -0.218847632823959 0.022541442083160668 0.83901195235774617  -0.21918701242942221 0.019001991924780432 0.83780374468790864  -0.21936673182502786 0.016897805663201756 0.83717226208312578  -0.21953095389849883 0.014679771369312582 0.83660203154559198  -0.21967495525591549 0.012342919541749023 0.83610677622772756  -0.21979311087760101 0.0098833048345637834 0.83570311392016794  -0.21996436529603705 0.0047236205801288178 0.83512011629511385  -0.22001759429526782 0.0020289835704886405 0.83494034592629174  -0.22003004842923937 -0.00071741202487410338 0.83489876551074083  -0.21999933406164499 -0.003453729724188781 0.83500185850643904  -0.21992939054431165 -0.0061173757633442225 0.83523858287466302  -0.21970834215556112 -0.011743432946323913 0.83599285859834993  -0.21954124930492097 -0.014653576268038572 0.83656597179947734  -0.2193410482771089 -0.017378365715084547 0.83725921476589482  -0.2191169777371485 -0.019932084788737849 0.83804601976496929  -0.2188754782722232 -0.022332390052396296 0.83890769188461423  -0.2184572402284938 -0.026049157881265366 0.84042743929901242  -0.21828844976392381 -0.027445537937005538 0.84104726278668729  -0.21811500030466757 -0.028793278028234101 0.84169158508195219  -0.21793774271139041 -0.030096083239620462 0.84235837630813759  -0.21775723216086387 -0.03135798102427035 0.84304666469195266  -0.21741662291360578 -0.033632384646405049 0.84436428667393759  -0.21725745351278758 -0.034653823713120882 0.84498738031062237  -0.21709652236359386 -0.035649477735703601 0.8456253546527589  -0.21693409607545899 -0.036620956505614984 0.8462779038711622  -0.216770405447169 -0.037569640273948234 0.84694487912823924  -0.21637519612587888 -0.039793327373337455 0.84857937414125828  -0.21614258940083406 -0.04104805246306046 0.8495609751842107  -0.21590846837900032 -0.042263519119837022 0.85057073935753558  -0.21567335329594653 -0.043442094517340539 0.85160886518095358  -0.21543765443879581 -0.044585957514356823 0.85267628398066575  -0.21494787582631036 -0.046892470078587899 0.85495645319746183  -0.21469395980572603 -0.048049033917626778 0.8561731307608893  -0.21444034859646954 -0.049169484133076341 0.85742700818821371  -0.2141875488802126 -0.050255276168093811 0.85872037605118479  -0.21393618293074676 -0.051306989961879469 0.86005585574066801  -0.21338434450729102 -0.053560628546705395 0.86311369350520939  -0.21308560574788202 -0.054743529072368548 0.86485371815482637  -0.21279086283377813 -0.055878609239429881 0.8666687893600109  -0.21250133275063485 -0.056965537029528189 0.86856944777943845  -0.21221937845796687 -0.057999624905953735 0.87056528399008837  -0.21155480534734139 -0.060388090297883362 0.87571832288824347  -0.2111824306585216 -0.061682455694400735 0.87900794533122373  -0.21083843546250672 -0.062844869147926113 0.88260056914460405  -0.21054160377000561 -0.063821143792276297 0.88654485222093116  -0.21032281171648814 -0.064532373281468727 0.89087754370452932  -0.21010610895638643 -0.065234829285839957 0.90129175090049485  -0.21017705333634726 -0.065001965023299732 0.90668563613432285  -0.2104054444812182 -0.064273173959695576 0.91175346446318151  -0.21074955899004358 -0.063149827198901623 0.91643053826706045  -0.21115886421898075 -0.061759478620293691 0.92064040080814113  -0.21185326353550635 -0.059323092149469292 0.926695260211715  -0.21214908216671166 -0.05826464226524309 0.92898631853921021  -0.21245616180751359 -0.057139678012174989 0.93115088712349603  -0.21277070563074896 -0.055956963541084294 0.93320311596387151  -0.2130909217055259 -0.054718035448505342 0.93515915188660792  -0.21365611010419949 -0.052459851625135612 0.93841579861929236  -0.21389772442710706 -0.051472718680413865 0.9397483773379095  -0.21414111501508862 -0.050454067073138327 0.9410391374654149  -0.21438566530604139 -0.049403725753695782 0.9422907960643917  -0.21463091045469132 -0.048320623918909865 0.9435058869697972  -0.21513508800199299 -0.046025495326309764 0.94593021951141576  -0.2153938301703944 -0.04481072633797431 0.94713466933210066  -0.21565229739069389 -0.043556035727196872 0.94830292698502994  -0.21590995354064837 -0.042259018289355819 0.94943647973480128  -0.21616615488011268 -0.040916888064282196 0.95053589457525189  -0.21658204746185636 -0.038639732562427927 0.95228018984697604  -0.21674308825578195 -0.03773330005607272 0.95294550023482516  -0.21690307758838734 -0.036806016373919948 0.95359708090348871  -0.21706181524637033 -0.035856706030399997 0.95423486768045107  -0.21721907360537304 -0.034884001643318029 0.95485866587411417  -0.21755391076509956 -0.032736083502335075 0.95617086201744739  -0.21773077623883563 -0.031553523393366263 0.95685401817045423  -0.21790497997245165 -0.030335185423919237 0.95751778504320628  -0.21807608457783903 -0.029077817335939993 0.95816151029349494  -0.2182434293575192 -0.027778392796348823 0.95878372292651459  -0.21862995733634513 -0.02458478893950436 0.96020536400651169  -0.21884480948574536 -0.022652094587160627 0.96098292268244434  -0.21904939787211655 -0.02062075584000304 0.96171266904063024  -0.21924090915112437 -0.018477701362667687 0.96238708228571312  -0.21941501477525127 -0.016211852417304471 0.96299363411884142  -0.21969607825321746 -0.011744476362798106 0.96396524386128812  -0.21981080522440477 -0.009547522441537358 0.96435831750286993  -0.21990291710056223 -0.007250914801862695 0.96467145160496426  -0.21996712349833472 -0.0048793005079870652 0.96488870463355736  -0.21999999992746047 -0.0024551840542121096 0.96499999975448159  -0.22 1.3877787807814457e-17 0.96499999999999997 
 0 7 0.022605215075483191 5 0.048565706667021702 5 0.069060607580678765 5 0.087126141595689072 5 0.11471307605385636 5 0.14229853767296194 5 0.17605526315723524 5 0.22442120599496482 5 0.27042212674752808 5 0.3161487797261498 5 0.34555144295290774 5 0.37585703442332036 5 0.40025152974550859 5 0.41983144286227136 5 0.44260212041663638 5 0.47206165997487487 5 0.50139609152223297 5 0.53755822981002521 5 0.56064857810935131 5 0.58041716212030015 5 0.6080674273668214 5 0.63780811688266004 5 0.67393332247512094 5 0.72644025375814947 5 0.78910054346905589 5 0.83113273586567049 5 0.86194198168205283 5 0.89437636674609888 5 0.91505476651978757 5 0.93889615502525647 5 0.97169465629492002 5 1 7
1 -0.23100000000000001 1.592040838891563e-17 0.96500000000000008 1 0 0 
2 0.23100000000000001 0 0.90000000000000002 1 0 0 -0 0 1 0 -1 0 0.065000000000000002
2 -0.23100000000000001 0 0.90000000000000002 1 0 0 -0 0 1 0 -1 0 0.065000000000000002
Polygon3D 0
PolygonOnTriangulations 0
Surfaces 9
2 0 0 0 0 0 1 1 0 -0 -0 1 0 0.066000000000000003
1 0 0 0 0 0 1 1 0 -0 -0 1 0 
1 0 0 0.80000000000000004 0 0 1 1 0 -0 -0 1 0 
1 0 0 0.80000000000000004 0 0 1 1 0 -0 -0 1 0 
2 0 0 0.80000000000000004 0 0 1 1 0 -0 -0 1 0 0.22
2 -0.23100000000000001 0 0.90000000000000002 1 0 0 -0 0 1 0 -1 0 0.065000000000000002
1 0 0 1 0 0 1 1 0 -0 -0 1 0 
1 0.23100000000000001 0 0.90000000000000002 1 0 0 -0 0 1 0 -1 0 
1 -0.23100000000000001 0 0.90000000000000002 1 0 0 -0 0 1 0 -1 0 
Triangulations 0

TShapes 49
Ve
1e-07
0 0 0
0 0

0101101
*
Ve
1e-07
0.066 -1.61653377487451e-17 0
0 0

0101101
*
Ve
1e-07
0.066 -1.61653377487451e-17 0.8
0 0

0101101
*
Ve
1e-07
0.22 -5.38844591624835e-17 0.8
0 0

0101101
*
Ve
1.00000000034902e-07
0.22 -1.8982025386784e-17 0.965
0 0

0101101
*
Ve
1e-07
0.22 -5.38844591624835e-17 1
0 0

0101101
*
Ve
2.00001e-07
0.22 -5.38844591624835e-17 0.835000000000001
0 0

0101101
*
Ve
2.00001e-07
-0.22 1.59204083889156e-17 0.965
0 0

0101101
*
Ve
1e-07
0.231 1.59204083889156e-17 0.965
0 0

0101101
*
Ve
1e-07
-0.231 1.59204083889156e-17 0.965
0 0

0101101
*
Ve
1e-07
0.231 0 0.9
0 0

0101101
*
Ve
1e-07
-0.231 0 0.9
0 0

0101101
*
Ed
 1e-07 1 1 0
1  1 0 0 6.28318530717959
2  1 1 0 0 6.28318530717959
2  2 2 0 0 6.28318530717959
0

0101000
+48 0 -48 0 *
Ed
 1e-07 1 1 0
1  2 0 0 0.8
3  3 4CN 1 0 0 0.8
0

0101000
-47 0 +48 0 *
Ed
 1e-07 1 1 0
1  3 0 0 6.28318530717959
2  5 1 0 0 6.28318530717959
2  6 3 0 0 6.28318530717959
2  7 4 0 0 6.28318530717959
0

0101000
+47 0 -47 0 *
Ed
 1e-07 1 1 0
1  4 0 0 6.28318530717959
2  8 5 0 0 6.28318530717959
2  9 4 0 0 6.28318530717959
0

0101000
+46 0 -46 0 *
Ed
 1e-07 1 1 0
1  5 0 0.165 0.2
3  10 11CN 5 0 0.165 0.2
0

0101000
+45 0 -44 0 *
Ed
 1e-07 1 1 0
1  6 0 0 1
2  12 5 0 0 1
2  13 6 0 0 1
0

0101000
+45 0 -43 0 *
Ed
 1e-07 1 1 0
1  5 0 0 0.0350000000000007
3  10 11CN 5 0 0 0.0350000000000007
0

0101000
+46 0 -43 0 *
Ed
 1e-07 1 1 0
1  7 0 0 1
2  14 5 0 0 1
2  15 6 0 0 1
0

0101000
+43 0 -45 0 *
Ed
 1e-07 1 1 0
1  8 0 0 6.28318530717959
2  16 5 0 0 6.28318530717959
2  17 7 0 0 6.28318530717959
0

0101000
+44 0 -44 0 *
Ed
 1e-07 1 1 0
1  9 0 0 1
2  18 5 0 0 1
2  19 6 0 0 1
0

0101000
+42 0 -42 0 *
Ed
 1e-07 1 1 0
1  10 0 0.451 0.462
3  20 21CN 6 0 0.451 0.462
0

0101000
+45 0 -41 0 *
Ed
 1e-07 1 1 0
1  11 0 0 6.28318530717959
2  22 6 0 0 6.28318530717959
2  23 8 0 0 6.28318530717959
0

0101000
+41 0 -41 0 *
Ed
 1e-07 1 1 0
1  10 0 0 0.011
3  20 21CN 6 0 0 0.011
0

0101000
+40 0 -42 0 *
Ed
 1e-07 1 1 0
1  12 0 0 6.28318530717959
2  24 6 0 0 6.28318530717959
2  25 9 0 0 6.28318530717959
0

0101000
+40 0 -40 0 *
Wi

0101100
-37 0 *
Wi

0101100
+36 0 +37 0 -36 0 -35 0 *
Wi

0101100
+34 0 *
Wi

0101100
-35 0 *
Wi

0101100
+33 0 -32 0 +31 0 +34 0 -31 0 -30 0 -33 0 -29 0 *
Wi

0101100
-28 0 *
Wi

0101100
+27 0 +30 0 +32 0 -27 0 -26 0 *
Wi

0101100
+29 0 *
Wi

0101100
+28 0 +25 0 +24 0 -25 0 *
Wi

0101100
+26 0 *
Wi

0101100
-24 0 *
Fa
0  1e-07 2 0

0111000
-23 0 *
Fa
0  1e-07 1 0

0111000
+22 0 *
Fa
0  1e-07 4 0

0111000
+21 0 +20 0 *
Fa
0  1e-07 5 0

0111000
+19 0 +18 0 *
Fa
0  1e-07 6 0

0111000
+17 0 *
Fa
0  1e-07 7 0

0111000
+16 0 *
Fa
0  1e-07 6 0

0111000
+15 0 *
Fa
0  1e-07 8 0

0101000
+14 0 *
Fa
0  1e-07 9 0

0101000
-13 0 *
Sh

0101100
-12 0 +11 0 -10 0 +9 0 +8 0 +7 0 +6 0 +5 0 -4 0 *
So

0100000
+3 0 *
Co

1100000
+49 0 -48 0 -47 0 -46 0 +45 0 -44 0 +43 0 -42 0 -41 0 +40 0 
+39 0 +38 0 -37 0 +36 0 -35 0 -34 0 +33 0 -32 0 +31 0 -30 0 
-29 0 -28 0 +27 0 -26 0 +25 0 +24 0 +23 0 +22 0 -21 0 -20 0 
+19 0 +18 0 +17 0 +16 0 +15 0 +14 0 +13 0 -12 0 +11 0 -10 0 
+9 0 +8 0 +7 0 +6 0 +5 0 -4 0 +3 0 +2 0 *

+1 0 