DBRep_DrawableShape

CASCADE Topology V1, (c) Matra-Datavision
Locations 0
Curve2ds 24
1 0 0 1 0 
2 0 0 1 0 -0 1 0.013200000000000002
7 0 0  8 114 17  2.6179938779914949 0.013200000000000002  2.6179938803282887 0.012665737028843865  2.6190748540779589 0.012146296577312509  2.621131630072735 0.011643090457010457  2.6240551263402394 0.01115768992081031  2.6277271819705006 0.01069190427635794  2.6320153909829767 0.010247859499577749  2.6367679361935763 0.0098280768481778785  2.6497562947601261 0.0088166149786284148  2.6587791378568988 0.008237511687260262  2.6686209857869931 0.0076955543020738046  2.6790989439768209 0.0071873707944327637  2.6901008723227386 0.0067088714231205836  2.7015921718358453 0.0062552473765476457  2.7136316754730707 0.0058210010400869911  2.7453709021101895 0.0047742301133523145  2.7654275018076686 0.0041949243742108282  2.7866454484555363 0.0036509617271475833  2.8092229171397043 0.0031358492827145007  2.8334052042071805 0.0026470111603860156  2.8594367992794592 0.0021857100663444273  2.8875396915797031 0.0017571113822899584  2.9448845488851254 0.0010263976950719382  2.9776445194662853 0.00066448232483838079  3.0146073018352739 0.00034153587811235102  3.0547181784262825 9.4601275472947998e-05  3.097056320529227 -5.3956292149370888e-05  3.1408342169653087 -8.8994278685003834e-05  3.1853151677442413 -2.8061221140684281e-06  3.262670631838692 0.00036114089194660807  3.2930005938815627 0.00057129940015138744  3.3209285634303751 0.00082132997696855465  3.3466673829335596 0.0011000002419773829  3.3704809171781784 0.0013997802221689178  3.3926907285941996 0.0017169275914311938  3.4136760167336559 0.002052185935317937  3.4575428235672367 0.002834131327710483  3.4796576330080344 0.003281713910980213  3.5004380889468543 0.003753519512489735  3.5200667583716649 0.0042505479408161944  3.5386703694563555 0.004775551457895745  3.5563053278128236 0.005332433608120208  3.5729403160974424 0.0059256185101687732  3.5989137644632616 0.0069879318303247857  3.6087676912301001 0.0074308034295346723  3.6181301789002891 0.0078951652166824298  3.6270151879283543 0.0083871706805861059  3.6353417270324222 0.0089120098010472184  3.6429478616913822 0.009473986912354633  3.649595221702258 0.010076633620648881  3.6591618651800264 0.01122813908504154  3.6627594499319676 0.011781842171902489  3.6652914636346261 0.012366241721299413  3.6664889766451676 0.01296684781486448  3.6662447728448022 0.013570801160192176  3.664599482056258 0.014165414526513875  3.661748500130797 0.0147368593861471  3.6535964977054145 0.01591604534037638  3.6477958239074075 0.016519898819184569  3.6409930158756745 0.017083366116248094  3.633433877736858 0.017609806467048822  3.6252911644081602 0.01810327871963998  3.6166620131476548 0.01856866837701952  3.6075563194260862 0.019011793386683313  3.5835648186932207 0.020071790683801514  3.5681371756134865 0.020664171183139818  3.5517639514561941 0.021220212672167595  3.5345145335949613 0.021744046679009831  3.5163729017552252 0.022239722044628787  3.4972484967353088 0.022710624413697388  3.4769819292951341 0.023158946934839272  3.4402063857602854 0.023883472995638533  3.4245370501037971 0.024168162659197717  3.4081971557803743 0.024441430369036145  3.3910550178019303 0.024703883117730752  3.3729901224499375 0.024954839452425579  3.35389462148115 0.025192488881559612  3.3336738307441172 0.025413956918208892  3.2916179375816026 0.025809075695735248  3.2687317692182809 0.025994524372861504  3.2439951912174552 0.026158598214716902  3.2177770934619923 0.026290564136590727  3.1904072926166953 0.026381979545766421  3.1621765321283126 0.026426692341521622  3.1333364822255314 0.02642084091512812  3.0814891175315924 0.026318009315930941  3.0599276900825072 0.026244284769945496  3.0393905750602186 0.026146246653742291  3.0198479544164853 0.026027934689024611  3.0012650745663327 0.025892862177352271  2.9836022463880516 0.025744016000141645  2.9668148452231988 0.025583856618665673  2.9163712332025491 0.025048059972726876  2.8847298194174575 0.024627476208833463  2.8556859223509194 0.024166764467006999  2.828969857180581 0.023675265240597845  2.8042584085669962 0.023156871993781317  2.7811887080889095 0.022610029597782723  2.759413434423009 0.02202702485147235  2.7249500218905078 0.020969361373558485  2.7119836614494668 0.020533882757207515  2.6996076890011254 0.020079121532431417  2.687750431582566 0.019599829990896572  2.6764339173505496 0.019091324261243943  2.6657576840981045 0.018549557760761358  2.6558920405931272 0.017971172068519156  2.6410452141688241 0.016930447393077731  2.6353137681362151 0.016475601364206876  2.6300982624311211 0.015991644742530533  2.6255885882883319 0.015480792252812951  2.6219584948202934 0.014944859094810373  2.6193724934909368 0.014385316971209422  2.6179938806305225 0.013803362784102491  2.6179938779914949 0.013200000000000002 
 0 9 0.043969032993269312 7 0.1132996829509833 7 0.21635499328839078 7 0.30782328919133473 7 0.37554164229257431 7 0.45494906681502023 7 0.50864242820968897 7 0.5506253028291882 7 0.60167389961263473 7 0.67714382148469943 7 0.72995066408296094 7 0.78078526359887523 7 0.82009887528026659 7 0.90502899429065964 7 0.96139216484304679 7 1 9
7 0 0  8 114 17  6.2831853071795862 0.35713692934009084  6.2427108396677582 0.35713692930924512  6.2033586396902685 0.35712266081895411  6.1651368041659405 0.3570955111155622  6.1280849621693418 0.35705706964952921  6.0922834109481121 0.35700912517604677  6.05786225194029 0.35695366285565489  6.0250105267916396 0.35689286135485793  5.9450646632478108 0.35672853478615557  5.8984780119675992 0.35661605281751996  5.8539730421243243 0.356495681327546  5.81127959176382 0.35637039576604834  5.7700858872009908 0.35624209949739594  5.7300054292163294 0.35611165399443007  5.6905345726337879 0.35597894947485137  5.592236525697178 0.35564096005678891  5.5349457951415761 0.35543731745424495  5.4780264591716605 0.35523334433158305  5.4205909902093996 0.35502945569589894  5.3618766636448996 0.35482663330475561  5.3012384292842416 0.35462726159358932  5.2381361480143038 0.35443554249501635  5.1133524693712058 0.35409973998798744  5.0436014725039824 0.3539292915217046  4.96698270128402 0.35377190479592086  4.88570833804605 0.35364798562675059  4.8010945670054781 0.3535726404389099  4.714083111532994 0.3535551953757789  4.62530973437699 0.35359922285580841  4.4687527876879534 0.35377905064865867  4.4066818372046805 0.35388210577928264  4.3486077037384074 0.35400306868577491  4.2940460121014965 0.35413535311992761  4.2424766341894307 0.35427449863245958  4.1932606342776788 0.35441815835182822  4.1455574417556962 0.35456601070806193  4.0427598415381443 0.35489969016565526  3.9889071340401183 0.35508410428770465  3.9360901719031656 0.35527067614012969  3.88374730199553 0.35545817303300115  3.8313403199001339 0.35564568717339035  3.7783537954474378 0.35583205394408496  3.7243025788355446 0.35601529220171829  3.6311824910786377 0.3563115971218922  3.5932994158619489 0.35642699763940339  3.5544208544478559 0.35653913813733124  3.5140352833796218 0.3566477997850328  3.4717488659800706 0.35675162311864916  3.4272399341288984 0.35684808674390495  3.3802161488206335 0.35693351655379102  3.2914029959883466 0.35705755271160378  3.2490286269696953 0.35710465789152479  3.2046300467825279 0.35713818835014549  3.1592126458691845 0.35715415130556438  3.1135894222484151 0.35715086725537987  3.0685502564529656 0.35712898568009283  3.02501942993544 0.3570914630392597  2.9345691538682401 0.35698518667199125  2.8878028927811994 0.35691008751138875  2.8435934217330057 0.35682300270718592  2.8016529358294608 0.35672768211028166  2.7616740740491261 0.35662678797839187  2.7232880141591038 0.35652187936601482  2.6860215957279561 0.35641342121984415  2.5948957090707796 0.35613434655880594  2.5421577182542197 0.35596043745047345  2.490679585824715 0.35578263852524877  2.4400416097004718 0.35560315533873943  2.3897832005830244 0.35542324294114569  2.3394071299261641 0.35524364561156174  2.2883691239700155 0.3550650847169769  2.1994467015165435 0.35476544331095256  2.162554344205061 0.35464434915003396  2.1249833294650795 0.35452521955696809  2.0864147380493385 0.35440821849213378  2.0465836263240873 0.35429402354437994  2.0052622847455335 0.3541838662163786  1.9622462623927197 0.35407955548349102  1.8741171050408509 0.35389100184706174  1.8267843968244795 0.35380094644567878  1.7762349313869101 0.35372032683775639  1.7232068210967508 0.35365492991133929  1.668286392212011 0.35360932102675857  1.6119081848800987 0.35358684401663237  1.5543549531378253 0.35358962118586551  1.4504406749704259 0.35364092835480965  1.4070862694369617 0.35367768392194221  1.3655739228078734 0.35372631104012559  1.3257898631825544 0.35378457324649321  1.2876270722629348 0.35385050658823453  1.2509852853534766 0.3539224196225943  1.2157709913611763 0.35399889341687307  1.1087195883482461 0.35425136575603938  1.0396202289772447 0.35444495486156891  0.97394173732895917 0.35465030449519186  0.91108088448890778 0.35486096100864895  0.8502809759976917 0.35507324241781146  0.79059907856459377 0.355285939774582  0.73086455513465332 0.35549942518365329  0.6286846467744035 0.35585615571262769  0.5881150522718871 0.35599561346745989  0.5470610461234674 0.35613313266561664  0.50501747263074603 0.35626884993676955  0.46159502932154906 0.35640198817936175  0.41647812970531922 0.35653075834911396  0.36939492619332293 0.35665230667545333  0.28633294078827987 0.35683832990300335  0.250462703347681 0.3569111096382398  0.21273722892656977 0.35697821710490446  0.17332604544939967 0.35703692166307838  0.13233157893519451 0.35708459753869276  0.089796886171281898 0.35711873109912012  0.04570930182594625 0.35713692930525559  0 0.35713692934009084 
 0 9 0.043969032993269312 7 0.1132996829509833 7 0.21635499328839078 7 0.30782328919133473 7 0.37554164229257431 7 0.45494906681502023 7 0.50864242820968897 7 0.5506253028291882 7 0.60167389961263473 7 0.67714382148469943 7 0.72995066408296094 7 0.78078526359887523 7 0.82009887528026659 7 0.90502899429065964 7 0.96139216484304679 7 1 9
1 6.2831853071795862 -0 0 1 
1 0 -0 0 1 
1 0 0.026400000000000003 1 0 
2 0 0 1 0 -0 1 0.026400000000000003
1 0 0 1 0 
2 0 0 1 0 -0 1 0.026400000000000003
1 6.2831853071795862 -0 0 1 
1 0 -0 0 1 
2 0 0 1 0 -0 1 0.018957056733575495
7 0 0  10 74 9  1.5707963267948966 0.9625507478846872  1.4580021029920827 0.9625507478846872  1.3452086805482395 0.95270714572143333  1.2373616071781726 0.93302498217963148  1.1394345200824318 0.90425688418326899  1.0543481986387633 0.86805002704204526  0.98048440538696013 0.8259723148366902  0.91727071119385073 0.77915728406514972  0.86314042643061839 0.7286021290710778  0.81697081279716555 0.67504444396462648  0.70899134623395699 0.52115002622627082  0.66142670976569207 0.41585411348205525  0.62942906751050032 0.30638887415352656  0.60900302755180746 0.19446534601001986  0.5986600677279057 0.081163745981939428  0.59724316943902522 -0.032598518496342876  0.6049714298787876 -0.14603360891987904  0.62250355230844434 -0.2582349860711588  0.65195471077128941 -0.36804203900080945  0.71411242869044367 -0.5129319786251576  0.73328007203670875 -0.55182411803205222  0.75486545404327743 -0.58998546125512763  0.77910568264448243 -0.62729161731037186  0.80627359656086317 -0.66359612329213435  0.83667900093926906 -0.69872605924303277  0.87066517553732259 -0.73247547604691621  0.90859093292286219 -0.76459768043783816  0.95078392167244341 -0.79480144560677568  1.0382758567860777 -0.84722418561270785  1.0825269026472328 -0.86996934526518044  1.1303380122220903 -0.8907769674434155  1.1817648207869904 -0.90940783695473348  1.2367616542966668 -0.925607536327132  1.2950959910498567 -0.93911650577868699  1.3562795129384337 -0.94969392949849019  1.419566922338612 -0.95715243431939334  1.4840411058691194 -0.9613885454782114  1.6620473010998518 -0.96412000304278511  1.7761041029061744 -0.95592658452096657  1.8859345499949995 -0.93769919178157579  1.9862918452126905 -0.91009209171170369  2.0736404946655966 -0.8747300015820656  2.1495549888641108 -0.83327034045942128  2.214552164732595 -0.78687086358695524  2.2702121679612901 -0.73658144107594126  2.3176882956064686 -0.68316857890376403  2.4186382519777796 -0.54338937484285044  2.4632376681129795 -0.45389846284312696  2.4954970617434808 -0.36088149546354487  2.5181750320247374 -0.26559433375950903  2.5327561183148646 -0.16887014895451102  2.5401021022305939 -0.071357634625746874  2.5406217315655342 0.026376346365009341  2.5341514450756861 0.12378524563477163  2.5200472372941531 0.2202384066471704  2.4852893911766021 0.36217068003834302  2.4714367771895613 0.40902351860324959  2.4551388495259006 0.45530867700425393  2.4361709097380904 0.50090132330653137  2.4142528685911704 0.54565467272747514  2.3890458749035437 0.58939442213474347  2.360144284011974 0.63190957486767163  2.3270701736421939 0.67293909092885351  2.2892954526998111 0.71215815865888843  2.203373439759285 0.7861863314880706  2.1552254977895187 0.82099535757442044  2.1014111932056041 0.85320585832159845  2.0414649197744437 0.88235153350397011  1.9751334299326118 0.90790184575780586  1.9023468711486202 0.92925370755983749  1.8237049910655514 0.94577881779218842  1.7408132706681738 0.95695960780316436  1.6558050594314409 0.9625507478846872  1.5707963267948966 0.9625507478846872 
 0 11 0.78539816339744584 9 2.1598449493429763 9 2.6752624940725478 9 3.1262528457109249 9 3.915485961078085 9 5.0993356341288356 9 5.691260470654214 9 6.2831853071795862 11
8 0.34832000000000002 0.38000040000000002
1 -0.38 0 1 0 
8 0.34832000000000002 0.38000040000000002
1 1.5707963267948966 0 0 1 
2 0 0 1 0 -0 1 0.018957056733575495
7 0 0  10 74 9  4.7123889803846897 0.9625507478846872  4.8251832041875033 0.9625507478846872  4.9379766268830281 0.95270714572143333  5.0458236986596603 0.93302498217963148  5.1437507889932021 0.90425688418326899  5.2288371083559468 0.86805002704204526  5.302700903150253 0.8259723148366902  5.365914594673086 0.77915728406514972  5.4200448809569934 0.7286021290710778  5.4662144943824211 0.67504444396462648  5.574193960945629 0.52115002622627093  5.6217585977719864 0.41585411348020784  5.6537562365992926 0.30638887416102989  5.6741822819458321 0.19446534599501319  5.6845252350904047 0.081163745982848923  5.6859421423869208 -0.032598518511804286  5.6782138743437827 -0.14603360891965167  5.6606817553183646 -0.25823498607121564  5.6312305964082965 -0.36804203900080945  5.5690728784891421 -0.5129319786251576  5.5499052351383353 -0.55182411803205222  5.5283198531395774 -0.58998546125512763  5.5040796245313697 -0.62729161731037186  5.4769117106055401 -0.66359612329213435  5.4465063062317007 -0.69872605924303277  5.4125201316424549 -0.73247547604691621  5.3745943742543059 -0.76459768043783816  5.3324013855071435 -0.79480144560677568  5.244909450393509 -0.84722418561270785  5.2006584045298636 -0.86996934526518044  5.1528472949491473 -0.8907769674434155  5.101420486382449 -0.90940783695473348  5.0464236528738793 -0.925607536327132  4.9880893161217212 -0.93911650577868699  4.9269057942351893 -0.94969392949849019  4.8636183848394055 -0.95715243431939334  4.799144201310467 -0.9613885454782114  4.6211380060797342 -0.96412000304278511  4.5070812043231854 -0.95592658452096657  4.3972507567377761 -0.93769919178157579  4.2968934607924893 -0.91009209171170369  4.2095448119798675 -0.8747300015820656  4.1336303181014955 -0.83327034045942128  4.0686331421602517 -0.78687086358695524  4.0129731392371468 -0.73658144107594126  3.9654970115731176 -0.68316857890376403  3.8645470552018066 -0.54338937484285044  3.8199476390322102 -0.45389846284294511  3.7876882454796941 -0.36088149546538661  3.7650102750456425 -0.26559433375732622  3.7504291888253647 -0.16887014895451102  3.7430832050042229 -0.071357634627565864  3.7425635755505935 0.02637634636735129  3.7490338621167978 0.12378524563422592  3.7631380698854331 0.22023840664717037  3.7978959160029837 0.36217068003834302  3.8117485299853433 0.40902351860324959  3.8280464576526043 0.45530867700425393  3.8470143974380333 0.50090132330653137  3.868932438580992 0.54565467272747514  3.8941394322699123 0.58939442213474347  3.9230410231635604 0.63190957486767163  3.9561151335315778 0.67293909092885351  3.9938898544797743 0.71215815865888843  4.0798118674203003 0.7861863314880706  4.127959809362947 0.82099535757442044  4.1817741140712315 0.85320585832159845  4.2417203871766107 0.88235153350397011  4.3080518771457719 0.90790184575780586  4.3808384360716444 0.92925370755983749  4.459480315897963 0.94577881779218842  4.5423720365315861 0.95695960780316436  4.6273802477481443 0.9625507478846872  4.7123889803846888 0.9625507478846872 
 0 11 0.78539816339745294 9 2.1598449493429968 9 2.6752624940725735 9 3.1262528457109502 9 3.915485961078113 9 5.0993356341288596 9 5.6912604706542327 9 6.2831853071795853 11
8 0.34832000000000002 0.38000040000000002
1 -0.38 0 1 0 
8 0.34832000000000002 0.38000040000000002
1 4.7123889803846897 0 0 1 
1 6.2831853071795862 -6.2831853071795862 0 1 
1 0 -6.2831853071795862 0 1 
1 0 -1.5707963267948966 1 0 
1 0 1.5707963267948966 1 0 
Curves 11
2 -0.40040000000000003 4.9034857837860028e-17 0 0 0 1 1 0 -0 -0 1 0 0.013200000000000002
7 0 0  8 114 17  -0.38720000000000004 4.5102810375396984e-17 0.35713692934009084  -0.38720000005342636 -0.00053426297115608608 0.35713692930924512  -0.38722471422205906 -0.0010537034226874469 0.35712266081895411  -0.38727173856044816 -0.0015569095429894945 0.35709551111556226  -0.38733866538694189 -0.0020423100791896387 0.35705706964952921  -0.38742292349597113 -0.0025080957236420062 0.35700912517604683  -0.38752161837033355 -0.0029521405004222017 0.35695366285565494  -0.38763137239347767 -0.0033719231518220707 0.35689286135485798  -0.38793232448156278 -0.0043833850213715339 0.35672853478615563  -0.38814230465920152 -0.0049624883127396616 0.35661605281751996  -0.38837259287309195 -0.0055044456979261519 0.35649568132754605  -0.38861925479322496 -0.0060126292055672163 0.3563703957660484  -0.38887988571468668 -0.0064911285768793764 0.35624209949739599  -0.38915383268024545 -0.0069447526234522839 0.35611165399443007  -0.38944268749203476 -0.0073789989599129593 0.35597894947485142  -0.39020941148271232 -0.0084257698866476386 0.35564096005678891  -0.39069829997161065 -0.0090050756257890937 0.35543731745424489  -0.39122024805931865 -0.0095490382728524326 0.35523334433158316  -0.39178071437159723 -0.010064150717285435 0.35502945569589905  -0.39238655549780899 -0.010552988839613867 0.35482663330475561  -0.39304483711413496 -0.011014289933655582 0.35462726159358943  -0.39376209506430315 -0.011442888617709993 0.35443554249501635  -0.39523828702423047 -0.012173602304928014 0.35409973998798744  -0.39608647149105863 -0.012535517675161549 0.35392929152170521  -0.39705060710714424 -0.012858464121887667 0.35377190479591958  -0.39810451054466356 -0.013105398724526915 0.35364798562675226  -0.3992225933693998 -0.013253956292149382 0.35357264043890879  -0.40038083356828597 -0.01328899427868494 0.35355519537577934  -0.40155581781446792 -0.01320280612211402 0.35359922285580841  -0.40359006914712509 -0.012838859108053345 0.35377905064865867  -0.40438479137195193 -0.012628700599848561 0.35388210577928281  -0.40511283538035553 -0.012378670023031398 0.35400306868577497  -0.40577992511448979 -0.012099999758022568 0.35413535311992761  -0.40639342236360532 -0.011800219777831033 0.35427449863245974  -0.40696215979500294 -0.011483072408568757 0.35441815835182833  -0.40749621852925727 -0.011147814064682012 0.35456601070806193  -0.40860518916760968 -0.010365868672289467 0.35489969016565526  -0.40915938591528406 -0.0099182860890197205 0.35508410428770465  -0.40967559546145926 -0.0094464804875102198 0.35527067614012975  -0.41015895816555409 -0.008949452059183776 0.35545817303300115  -0.41061311186465738 -0.0084244485421042115 0.35564568717339035  -0.41103989966594112 -0.0078675663918797295 0.35583205394408496  -0.41143907345450975 -0.007274381489831179 0.35601529220171829  -0.41205744758351925 -0.0062120681696751683 0.35631159712189225  -0.41229061694804797 -0.00576919657046524 0.35642699763940344  -0.41251091412631241 -0.0053048347833175328 0.35653913813733129  -0.41271881926932452 -0.004812829319413894 0.35664779978503286  -0.41291259743580072 -0.0042879901989527416 0.35675162311864916  -0.41308872405265945 -0.0037260130876452771 0.356848086743905  -0.4132420181632841 -0.0031233663793510721 0.35693351655379102  -0.41346202106310043 -0.0019718609149584122 0.35705755271160378  -0.41354449500318174 -0.0014181578280974593 0.35710465789152479  -0.41360232272612124 -0.00083375827870053746 0.35713818835014555  -0.41362961140484644 -0.00023315218513547434 0.35715415130556444  -0.41362406336739382 0.0003708011601922254 0.35715086725537992  -0.41358654146710566 0.00096541452651392376 0.35712898568009288  -0.41352129439851593 0.0015368593861471455 0.3570914630392597  -0.41333415297978587 0.0027160453403764252 0.35698518667199125  -0.4132006933515438 0.0033198988191846229 0.35691008751138881  -0.41304361705929665 0.0038833661162481301 0.35682300270718598  -0.41286827710150159 0.0044098064670488471 0.35672768211028166  -0.4126784359316551 0.0049032787196400286 0.35662678797839187  -0.4124761951672577 0.0053686683770195892 0.35652187936601498  -0.41226164456606196 0.0058117933866833555 0.35641342121984432  -0.41169306562805047 0.0068717906838015631 0.35613434655880621  -0.41132472137690984 0.0074641711831398613 0.35596043745047351  -0.41093060319408031 0.0080202126721676415 0.35578263852524894  -0.41051189982065062 0.0085440466790098774 0.35560315533873949  -0.41006781757146782 0.0090397220446288302 0.35542324294114569  -0.4095957182507885 0.0095106244136974345 0.35524364561156174  -0.40909116047301253 0.0099589469348393238 0.3550650847169769  -0.40816768224914179 0.010683472995638583 0.35476544331095256  -0.40777207233987323 0.010968162659197759 0.35464434915003396  -0.40735736007806683 0.011241430369036199 0.35452521955696809  -0.40692002812488864 0.011503883117730807 0.35440821849213378  -0.40645677916409717 0.011754839452425635 0.35429402354437994  -0.40596461189723132 0.011992488881559659 0.3541838662163786  -0.40544089025518459 0.012213956918208937 0.35407955548349102  -0.4043467424641608 0.012609075695735297 0.35389100184706174  -0.40374904838173059 0.012794524372861544 0.35380094644567894  -0.40310061204397096 0.012958598214716942 0.35372032683775667  -0.40241105086110596 0.013090564136590765 0.35365492991133951  -0.40168931118848694 0.013181979545766467 0.35360932102675863  -0.40094366832659245 0.013226692341521672 0.35358684401663243  -0.40018172652102812 0.013220840915128174 0.35358962118586551  -0.39881391803342353 0.013118009315930988 0.35364092835480965  -0.39824571495485778 0.013044284769945543 0.35367768392194221  -0.39770544263284752 0.012946246653742345 0.35372631104012559  -0.39719251633142028 0.012827934689024654 0.35378457324649321  -0.39670613367261337 0.012692862177352313 0.35385050658823453  -0.39624527463647446 0.012544016000141692 0.3539224196225943  -0.3958087015610609 0.012383856618665725 0.35399889341687313  -0.39450114167438716 0.011848059972726923 0.35425136575603949  -0.39368775882931684 0.011427476208833554 0.35444495486156885  -0.39294816679966527 0.01096676446700709 0.35465030449519191  -0.39227438906277201 0.010475265240597781 0.354860961008649  -0.39165703176866112 0.009956871993781282 0.35507324241781146  -0.39108602463835263 0.0094100295977829051 0.35528593977458206  -0.39055211059804196 0.0088270248514723971 0.35549942518365329  -0.38971512708411521 0.0077693613735585381 0.35585615571262769  -0.38940246004842072 0.0073338827572075535 0.35599561346745989  -0.3891060186391595 0.0068791215324314784 0.35613313266561669  -0.38882387420096043 0.0063998299908966418 0.35626884993676955  -0.38855637099384616 0.0058913242612439925 0.35640198817936175  -0.38830561755660137 0.0053495577607613866 0.35653075834911402  -0.3880752554909796 0.0047711720685192091 0.35665230667545333  -0.38773025543977907 0.0037304473930777787 0.3568383299030034  -0.38759759370301328 0.0032756013642069237 0.3569111096382398  -0.38747735881642281 0.0027916447425305807 0.35697821710490452  -0.38737377860795569 0.0022807922528130021 0.35703692166307843  -0.3872906434925758 0.00174485909481042 0.35708459753869282  -0.38723151933560118 0.0011853169712094677 0.35711873109912012  -0.38720000006033639 0.00060336278410253483 0.35713692930525565  -0.38720000000000004 4.8572257327350599e-17 0.35713692934009084 
 0 9 0.043969032993269312 7 0.1132996829509833 7 0.21635499328839078 7 0.30782328919133473 7 0.37554164229257431 7 0.45494906681502023 7 0.50864242820968897 7 0.5506253028291882 7 0.60167389961263473 7 0.67714382148469943 7 0.72995066408296094 7 0.78078526359887523 7 0.82009887528026659 7 0.90502899429065964 7 0.96139216484304679 7 1 9
1 -0.38720000000000004 4.5801790288111007e-17 0 0 0 1 
2 -0.40040000000000003 0.01320000000000005 0.38 0 1 0 0 -0 1 1 0 -0 0.026400000000000003
2 -0.40040000000000003 -0.013199999999999953 0.38 0 1 0 0 -0 1 1 0 -0 0.026400000000000003
1 -0.40040000000000003 -0.013199999999999953 0.40639999999999998 0 1 0 
2 -0.40040000000000003 0.01320000000000005 0.38 0 1 0 0 -0 1 1 0 -0 0.018957056733575495
1 -0.40040000000000003 0.01320000000000005 0 0 0 1 
2 -0.40040000000000003 -0.013199999999999953 0.38 0 1 0 0 -0 1 1 0 -0 0.018957056733575495
1 -0.40040000000000003 -0.013199999999999953 0 0 0 1 
2 -0.40040000000000003 4.9034857837860022e-17 0.38 -2.4492935982947064e-16 -1 0 1 -2.4492935982947064e-16 0 0 0 1 0.023100000000000002
Polygon3D 0
PolygonOnTriangulations 0
Surfaces 6
2 -0.40040000000000003 4.9034857837860028e-17 0 0 0 1 1 0 -0 -0 1 0 0.013200000000000002
1 -0.40040000000000003 4.9034857837860028e-17 0 0 0 1 1 0 -0 -0 1 0 
2 -0.40040000000000003 -0.013199999999999953 0.38 0 1 0 0 -0 1 1 0 -0 0.026400000000000003
1 -0.40040000000000003 0.01320000000000005 0.38 0 1 0 0 -0 1 1 0 -0 
1 -0.40040000000000003 -0.013199999999999953 0.38 0 1 0 0 -0 1 1 0 -0 
4 -0.40040000000000003 4.9034857837860028e-17 0.38 0 0 1 1 0 -0 -0 1 0 0.023100000000000002
Triangulations 0

TShapes 54
Ve
1e-07
-0.3872 4.5801790288111e-17 0
0 0

0101101
*
Ve
3.58133777860194e-07
-0.4004 0.0132000000000001 0.3536
0 0

0101101
*
Ve
3.58133777860194e-07
-0.3872 4.5801790288111e-17 0.35713692934009
0 0

0101101
*
Ve
3.58133777860194e-07
-0.4004 -0.0132 0.3536
0 0

0101101
*
Ve
1e-07
-0.4004 0.0132000000000001 0.4064
0 0

0101101
*
Ve
1e-07
-0.4004 -0.0132 0.4064
0 0

0101101
*
Ve
2.00001e-07
-0.4004 0.0132000000000001 0.361042943266423
0 0

0101101
*
Ve
1e-07
-0.4004 0.0132000000000001 0.398957056733576
0 0

0101101
*
Ve
2.00001e-07
-0.4004 -0.0132 0.361042943266423
0 0

0101101
*
Ve
1e-07
-0.4004 -0.0132 0.398957056733576
0 0

0101101
*
Ve
1e-07
-0.4004 4.903485783786e-17 0.4031
0 0

0101101
*
Ve
1e-07
-0.4004 4.903485783786e-17 0.3569
0 0

0101101
*
Ed
 1e-07 1 1 0
1  1 0 0 6.28318530717959
2  1 1 0 0 6.28318530717959
2  2 2 0 0 6.28318530717959
0

0101000
+54 0 -54 0 *
Ed
 3.58133777860194e-07 1 1 0
1  2 0 0.772562387057995 1
2  3 3 0 0.772562387057995 1
2  4 1 0 0.772562387057995 1
0

0101000
+53 0 -52 0 *
Ed
 3.58133777860194e-07 1 1 0
1  2 0 0.284991937165116 0.772562387057995
2  3 3 0 0.284991937165116 0.772562387057995
2  4 1 0 0.284991937165116 0.772562387057995
0

0101000
+51 0 -53 0 *
Ed
 3.58133777860194e-07 1 1 0
1  2 0 0 0.284991937165116
2  3 3 0 0 0.284991937165116
2  4 1 0 0 0.284991937165116
0

0101000
+52 0 -51 0 *
Ed
 1e-07 1 1 0
1  3 0 0 0.35713692934009
3  5 6CN 1 0 0 0.35713692934009
0

0101000
+54 0 -52 0 *
Ed
 1e-07 1 1 0
1  4 0 0 3.14159265358979
2  7 3 0 0 3.14159265358979
2  8 4 0 0 3.14159265358979
0

0101000
+50 0 -53 0 *
Ed
 1e-07 1 1 0
1  5 0 0 3.14159265358979
2  9 3 0 0 3.14159265358979
2  10 5 0 0 3.14159265358979
0

0101000
+49 0 -51 0 *
Ed
 1e-07 1 1 0
1  6 0 0 0.0264
3  11 12CN 3 0 0 0.0264
0

0101000
-50 0 +49 0 *
Ed
 1e-07 1 1 0
1  5 0 3.14159265358979 6.28318530717959
2  9 3 0 3.14159265358979 6.28318530717959
2  10 5 0 3.14159265358979 6.28318530717959
0

0101000
+51 0 -49 0 *
Ed
 1e-07 1 1 0
1  4 0 3.14159265358979 6.28318530717959
2  7 3 0 3.14159265358979 6.28318530717959
2  8 4 0 3.14159265358979 6.28318530717959
0

0101000
+53 0 -50 0 *
Ed
 1e-07 1 1 0
1  7 0 3.14159265358979 6.28318530717959
2  13 4 0 3.14159265358979 6.28318530717959
2  14 6 0 3.14159265358979 6.28318530717959
0

0101000
+48 0 -47 0 *
Ed
 1e-07 1 1 0
1  7 0 0 3.14159265358979
2  13 4 0 0 3.14159265358979
2  14 6 0 0 3.14159265358979
0

0101000
+47 0 -48 0 *
Ed
 1e-07 1 1 0
1  8 0 0.3536 0.361042943266423
2  15 4 0 0.3536 0.361042943266423
2  16 1 0 0.3536 0.361042943266423
0

0101000
+53 0 -48 0 *
Ed
 1e-07 1 1 0
1  9 0 3.14159265358979 6.28318530717959
2  17 5 0 3.14159265358979 6.28318530717959
2  18 6 0 3.14159265358979 6.28318530717959
0

0101000
+46 0 -45 0 *
Ed
 1e-07 1 1 0
1  9 0 0 3.14159265358979
2  17 5 0 0 3.14159265358979
2  18 6 0 0 3.14159265358979
0

0101000
+45 0 -46 0 *
Ed
 1e-07 1 1 0
1  10 0 0.3536 0.361042943266423
2  19 5 0 0.3536 0.361042943266423
2  20 1 0 0.3536 0.361042943266423
0

0101000
+51 0 -46 0 *
Ed
 1e-07 1 1 0
1  11 0 4.71238898038469 7.85398163397448
3  21 22CN 6 0 4.71238898038469 7.85398163397448
0

0101000
-44 0 +43 0 *
Ed
 1e-07 1 1 1
2  23 6 0 0 6.28318530717959
0

0101000
+43 0 -43 0 *
Ed
 1e-07 1 1 1
2  24 6 0 0 6.28318530717959
0

0101000
+44 0 -44 0 *
Wi

0101100
-42 0 *
Wi

0101100
+41 0 +40 0 +39 0 +38 0 +42 0 -38 0 *
Wi

0101100
-37 0 -41 0 -39 0 +36 0 -35 0 *
Wi

0101100
+35 0 +34 0 -40 0 -33 0 *
Wi

0101100
+33 0 +37 0 *
Wi

0101100
-32 0 -31 0 *
Wi

0101000
i30 0 *
Wi

0101100
+34 0 +36 0 *
Wi

0101100
-29 0 -28 0 *
Wi

0101000
i27 0 *
Wi

0101100
+26 0 +25 0 -26 0 -24 0 *
Wi

0101100
+29 0 +28 0 *
Wi

0101100
-31 0 -32 0 *
Fa
0  1e-07 2 0

0111000
-23 0 *
Fa
0  1e-07 1 0

0111000
+22 0 *
Fa
0  1e-07 3 0

0111000
+21 0 *
Fa
0  1e-07 3 0

0111000
+20 0 *
Fa
0  1e-07 4 0

0101000
+19 0 +18 0 +17 0 *
Fa
0  1e-07 5 0

0101000
+16 0 +15 0 +14 0 *
Fa
0  1e-07 6 0

0111000
+13 0 +12 0 +11 0 *
Sh

0101100
-10 0 +9 0 +8 0 +7 0 +6 0 -5 0 -4 0 *
So

0100000
+3 0 *
Co

1100000
-54 0 +53 0 -52 0 +51 0 -50 0 +49 0 -48 0 +47 0 +46 0 -45 0 
+44 0 -43 0 -42 0 +41 0 +40 0 +39 0 +38 0 -37 0 +36 0 -35 0 
+34 0 -33 0 -32 0 -31 0 i30 0 +29 0 +28 0 i27 0 -26 0 -25 0 
+24 0 +23 0 +22 0 +21 0 +20 0 +19 0 +18 0 +17 0 -16 0 -15 0 
-14 0 -13 0 -12 0 -11 0 -10 0 +9 0 +8 0 +7 0 +6 0 -5 0 
-4 0 +3 0 +2 0 *

+1 0 