DBRep_DrawableShape

CASCADE Topology V1, (c) Matra-Datavision
Locations 0
Curve2ds 25
1 0 0 1 0 
2 0 0 1 0 -0 1 0.013200000000000002
7 0 0  6 157 32  3.1415926535897931 0.026400000000000003  3.1766911587074889 0.02639999990733995  3.2099741565553881 0.026321946907389076  3.2413047346858757 0.026180976784895373  3.2705328439725498 0.025990674025075093  3.2974608245327932 0.025765544196247072  3.3368132199810088 0.025373000985530098  3.3511312552611447 0.025213753572373546  3.3648393074270011 0.025046221524772632  3.3779932255318914 0.024871459812596728  3.3906554804518945 0.02468995334252173  3.4130933518201565 0.024344611853629388  3.4229871987480363 0.024183053135930777  3.4325978931874466 0.024017143944881889  3.4419442006683414 0.023847033924596042  3.4510455542948875 0.023672726958324616  3.4678195154148348 0.02333513924003779  3.475535066223745 0.023172840192123317  3.4830785708743517 0.023007171538885554  3.4904584035281427 0.022838087757013056  3.4976814488059311 0.022665510285711  3.5162336183706557 0.02220330259143  3.5273064200094542 0.021908000949037332  3.5380075082208258 0.021602666472372342  3.5483532760702334 0.021286517910300631  3.5583450838525708 0.02095866227991508  3.5770997988808335 0.020295142250865005  3.5858808961424073 0.01996144480423262  3.5943490234035438 0.019614694689841266  3.6024973827563529 0.019253002890918174  3.6102880446192782 0.018874699950473892  3.6279612418928417 0.017924141467711607  3.6374558351765494 0.017333921706673899  3.646105361338722 0.016695816677202845  3.6535875502008563 0.016001255284947769  3.6593901896337204 0.015243602335047311  3.6655500363001181 0.013720917036725011  3.6665155900804542 0.013001343606764392  3.6653249002830472 0.012281151802371715  3.6620632540505693 0.01158134266026924  3.657153049740014 0.010924026021528066  3.6451237524820503 0.0096745629065095769  3.6373361776881001 0.0090586236469889243  3.6285980850587398 0.008488755931243824  3.6191672648803288 0.0079588287133708548  3.6091488168930277 0.0074609029430048567  3.5901440730295455 0.0066171933331281166  3.5814851713753977 0.006264548882159055  3.5724897130699005 0.0059258461243020186  3.5631769275561482 0.0055998136316396455  3.5535430640166124 0.0052851009549894678  3.5349420467267536 0.0047172465795811188  3.5260785402423456 0.0044619899595376876  3.51696029643665 0.004213899776088134  3.5075794008385266 0.0039725906714711086  3.4979231122326215 0.003737779535812029  3.4802688913971611 0.0033323263038653544  3.4723894696649507 0.0031591843573817425  3.4643262943610917 0.0029897370132897158  3.4560694290158565 0.0028239398934685727  3.4476068794795522 0.0026617901431083765  3.4290133559299867 0.0023224326376589822  3.4188247259370126 0.0021465081222109841  3.4083264266297952 0.0019753862814895829  3.3974890251440875 0.001809175000507075  3.3862849487776181 0.0016482160347496674  3.3596210948900151 0.0012914587582664486  3.3439186025503531 0.0011000062373890263  3.32743765236108 0.0009186573654529868  3.3100598924015454 0.00074883574458391047  3.291684126592314 0.00059325992524561185  3.2504495929977923 0.00030202966201937567  3.2264310385366048 0.00016465613963196338  3.2008512221977345 5.9854273762541438e-05  3.174242732895975 -2.9265235767272759e-06  3.1470725083625686 -1.8848102944809971e-05  3.0941775971675498 4.2032580684038872e-05  3.069645489132967 0.0001119659664927259  3.0462760652374103 0.00021585432893107446  3.0241428597658619 0.00034748483008455682  3.0033348440555998 0.00050040576610334124  2.9681107030057969 0.00080409385614866864  2.9529984564939884 0.00095211421128945002  2.9385678759349134 0.0011095206728608191  2.9247556620696806 0.0012749275469737451  2.9114900391476586 0.0014476174443315579  2.8879952264737434 0.0017779682501577333  2.877636828350159 0.0019332662479527179  2.8675911166580383 0.0020931228303687414  2.8578359906793978 0.0022573072019982463  2.8483481156941508 0.0024257620977393055  2.8308551768676957 0.0027527979007637596  2.8228056199515064 0.0029103901080930442  2.81494237980545 0.0030713578640802278  2.8072552886606363 0.0032357135563436702  2.7997358834053863 0.0034035045008233341  2.7819786714664265 0.0038168998208010468  2.7719031292274448 0.0040659631183227662  2.7621284061433804 0.0043222963401582217  2.7526404467141696 0.0045862610439883324  2.7434315988714055 0.0048583334685505563  2.7250174394231395 0.0054372073570742733  2.7158622722896184 0.0057446345546844982  2.7070050869208209 0.0060628831665703155  2.6984440862048515 0.0063932421356293276  2.6901984900984779 0.0067369127848634948  2.6714335448439583 0.0075881887251834064  2.6613153927599522 0.008104815344011234  2.6518242306340412 0.0086562312418673858  2.6430884606201883 0.0092513273699020987  2.6354111759025289 0.0098968953650012039  2.6248800482679773 0.011102205335580156  2.621107293691709 0.011654373077555912  2.6184763555939199 0.012236617845385142  2.6172480435565886 0.012835064816095127  2.6175038111753577 0.013437229282731432  2.6212384087574163 0.014793560410672278  2.6255225991247375 0.015503951477674671  2.6314126511509324 0.016163787247042406  2.6384879217213468 0.016776052186977027  2.6464189316387965 0.017344215041595532  2.6625769254935534 0.018340313875834461  2.6707475288663436 0.018782195203119405  2.6793954921582208 0.019201075624071352  2.6884477189398006 0.019599524525909826  2.6978863621685978 0.019980557766433722  2.7173769588327938 0.020705405589801312  2.7273762337054888 0.021048829627120142  2.7377444387855285 0.021379376474607695  2.7484781350228715 0.021698101433195543  2.7595926086542204 0.022005979028039118  2.7782054331220594 0.022486868538422754  2.7854369860926078 0.022665901889588193  2.7928272170813444 0.022841237025387262  2.8003826919925365 0.023012974831936966  2.8081115032617046 0.023181180391745281  2.8242857564717094 0.023517886662737714  2.832744322334749 0.023685999406866314  2.8414142036361203 0.023850344425209936  2.850310331392897 0.024010937805055307  2.8594473314478424 0.024167688511862944  2.8796114003532338 0.024495540855126955  2.8907105813102629 0.024665236234597491  2.902182691293774 0.024829608917090195  2.9140682895231831 0.024988398596740301  2.926404448686899 0.025141013492624209  2.956563215229004 0.025483413547977233  2.974802445410583 0.025667529742521702  2.9941065025627136 0.025837522111427886  3.0146138816171959 0.025990205924293019  3.0364396260401225 0.026120622974942113  3.0724936423180096 0.026277988914567965  3.0857937080505589 0.026325341146396636  3.0994587223010295 0.026362216979632754  3.1133805514532384 0.026387340857689276  3.1274576844208859 0.026399999962683687  3.1415926535897931 0.026400000000000003 
 0 7 0.047193209341247565 5 0.076200609081681622 5 0.10035634902736086 5 0.1218478148615512 5 0.15673826134255908 5 0.18980682495410134 5 0.23602062289048661 5 0.27497705197610317 5 0.31955512868110642 5 0.35401715678748819 5 0.38373671848353069 5 0.40674481235854448 5 0.43300963544598714 5 0.46713063177765624 5 0.50529254468705398 5 0.54116640724923193 5 0.57052262794944986 5 0.59503865380851995 5 0.61690969135476748 5 0.64781704881428825 5 0.68062171008171424 5 0.72578513149554347 5 0.75824275807769836 5 0.80006781789933967 5 0.83701949690599342 5 0.87298744276843554 5 0.8950576657809961 5 0.91810623781490019 5 0.94454057074204989 5 0.98028328191807801 5 1 7
7 0 0  6 157 32  0 0.35360000000000003  0.070197010235392238 0.35360000004633008  0.13676336071321346 0.35363902846440054  0.19988974173017926 0.35370950316695249  0.25951024590863964 0.35380339036249825  0.31532501276022229 0.35391231897829456  0.39826917281179147 0.35409855892151709  0.42880366856302143 0.35417331438326888  0.45841311491625009 0.35425099095369722  0.48721517702446288 0.35433091597544752  0.51534558917370343 0.35441268879966126  0.56598046221019926 0.35456572024698613  0.58861606218210027 0.354636378629688  0.61092268904322022 0.35470792335375023  0.6329474115691508 0.35478017276103252  0.65474196916381378 0.35485300266588204  0.69559889310791279 0.35499160055124568  0.71468833153135058 0.35505722706529408  0.73366056410270974 0.35512314171258935  0.75254398556546998 0.35518926476765489  0.7713659084336536 0.35525552096422547  0.82065186771473719 0.35542950470408768  0.85103499154458406 0.35553724827681349  0.88144788836726118 0.35564486842154802  0.91200966276117656 0.35575208131811847  0.94283063535250322 0.35585850361302818  1.0036010149168049 0.35606327654927772  1.0334510378456065 0.35616155313011788  1.0638037900222372 0.35625846637998709  1.094826512959763 0.35635365153695225  1.1266563522926949 0.35644638074733237  1.2052228580718112 0.35666020478620647  1.2529088692249393 0.35677806832346254  1.3034546165404002 0.3568877814623907  1.3574954532707459 0.35698464535619084  1.4155788198399271 0.35706061015883889  1.5314275040384406 0.35714157359855109  1.5858617985272214 0.35715448460078958  1.6402676308310857 0.35713872464820445  1.6934119931772944 0.35709534341538685  1.7438751310637464 0.35703120034495667  1.8408324059834611 0.35687618192848541  1.8893416376272494 0.35677696438852674  1.9350694918709761 0.35666755736851419  1.9784767709949658 0.35655202481219828  2.0201651472417534 0.3564320899192675  2.0926154105731363 0.35621077277984559  2.1235362037259056 0.35611188744795025  2.1539057117712099 0.35601138139602706  2.1838409358166841 0.35590977972804477  2.2134796716662453 0.35580737095790727  2.268459841836588 0.35561525316303016  2.2937929290277088 0.35552587041530259  2.3190696951010525 0.35543626831620695  2.344353659255725 0.35534663179861864  2.3697089991453364 0.35525713549975402  2.4149470272913107 0.35509890665582344  2.4347710824235751 0.3550300562624889  2.4547097660627801 0.35496148251237009  2.4747958401285177 0.35489327764202416  2.4950643143079039 0.35482554338849681  2.5389406136573034 0.35468173336206205  2.5625940138951129 0.35460590557938065  2.5865962422546107 0.35453098455211696  2.6110176605647841 0.35445714917127602  2.6359209620583424 0.35438467965751225  2.6944236952080849 0.35422208000820793  2.7283352706389259 0.35413331979694923  2.7634207539859701 0.35404795891985374  2.7999265072717865 0.35396693937603207  2.8380628511361592 0.35389185038702647  2.922753622129791 0.35375005519574587  2.9715910745976042 0.35368234454280834  3.023098703272117 0.35362999934296452  3.0763421659810253 0.35359850587180419  3.130604419292689 0.35359058489404804  3.2364696553247652 0.35362100355152942  3.2856727456008912 0.35365591756943154  3.3328166219030266 0.35370760678490126  3.3778549486288783 0.3537725306393964  3.4206477950656642 0.35384702226505288  3.493927875928021 0.35399299852480887  3.5256990923492633 0.35406348863567133  3.5563920972592094 0.35413761215276018  3.5861390405828111 0.35421452789045399  3.6150922629509732 0.35429372257381542  3.6671174145349767 0.35444291061197103  3.6903485400172804 0.3545121990003155  3.7131820151312405 0.35458259381807361  3.73567020392816 0.35465387857915737  3.7578711551312636 0.35472591021021932  3.7994549433660354 0.35486348346987689  3.8188718480709976 0.35492884491511445  3.8381316148729674 0.35499460804688382  3.8572647933359971 0.35506068485117598  3.8763001839658169 0.35512699463945291  3.9220650001397956 0.35528739620828059  3.9487192082688107 0.35538162746105612  3.9753127348427015 0.35547596853457053  4.0019207821371197 0.35557021878748696  4.0286170194661217 0.35566415687208774  4.0839963835127149 0.35585663788495642  4.1126549717926499 0.35595494962600854  4.1416229740483477 0.35605241315812103  4.1710282615747278 0.35614875768109577  4.2009793418816459 0.35624349039290615  4.2737167222665953 0.35646310438411744  4.3167490414512226 0.35658487666278815  4.3616864874319301 0.35670176865009878  4.4091973925058303 0.35681175184236719  4.4597915139348112 0.3569100679662755  4.5529300527222558 0.35704635175711674  4.5952321262238698 0.35709570944395497  4.6394798858229818 0.35713054407710837  4.6847574500889255 0.35714681373994933  4.7303133918159537 0.35714337051635597  4.8332694207572109 0.3570941713484882  4.8874479338211927 0.35703785138888611  4.9383293705003641 0.35696098198654058  4.9862264681133812 0.35687011943191432  5.0314163256273243 0.35677014762867021  5.1121038845124387 0.35657067500780087  5.1485480817867915 0.35647141210429584  5.1837884552880729 0.35636836066488092  5.2180264013973128 0.35626277298938963  5.251516071120844 0.35615522997062116  5.3168341290242624 0.35593893884039396  5.3485830804352235 0.35583063022068767  5.3799913419955159 0.35572130683765907  5.4111791490994392 0.35561141384750466  5.4422795010572429 0.3555012529825235  5.4925917770342307 0.35532334983917746  5.5117414104508038 0.35525571054915578  5.5309361875310019 0.35518815821625221  5.5502047372211818 0.35512077124256064  5.5695765159075536 0.35505363156222086  5.6094517473177197 0.35491705624235853  5.6299591846386363 0.35484768203264511  5.6506490272920971 0.35477876208364717  5.6715628275816909 0.35471039666412801  5.6927387822014524 0.35464272624024457  5.7388389893736376 0.3544993247753514  5.7638382065543796 0.35442393017470342  5.7893189443493149 0.35434984372799611  5.815371909108098 0.35427731813071334  5.8420770435589917 0.35420675977695676  5.9066067864856278 0.35404673491299388  5.9450660002797528 0.35395928508562219  5.9852400935326164 0.3538773784640421  6.0274147216850968 0.3538029186893934  6.0718458890741296 0.35373872182135363  6.1446942341423201 0.35366083845772267  6.1714666418341144 0.35363729454225429  6.1988869616051625 0.35361889254375223  6.2267610958791613 0.35360632909031953  6.2549153688417718 0.35360000001865816  6.2831853071795862 0.35360000000000008 
 0 7 0.047193209341247565 5 0.076200609081681622 5 0.10035634902736086 5 0.1218478148615512 5 0.15673826134255908 5 0.18980682495410134 5 0.23602062289048661 5 0.27497705197610317 5 0.31955512868110642 5 0.35401715678748819 5 0.38373671848353069 5 0.40674481235854448 5 0.43300963544598714 5 0.46713063177765624 5 0.50529254468705398 5 0.54116640724923193 5 0.57052262794944986 5 0.59503865380851995 5 0.61690969135476748 5 0.64781704881428825 5 0.68062171008171424 5 0.72578513149554347 5 0.75824275807769836 5 0.80006781789933967 5 0.83701949690599342 5 0.87298744276843554 5 0.8950576657809961 5 0.91810623781490019 5 0.94454057074204989 5 0.98028328191807801 5 1 7
1 6.2831853071795862 -0 0 1 
1 0 -0 0 1 
1 6.2831853071795862 -0 0 1 
1 0 -0 0 1 
1 0 0 1 0 
2 0 0 1 0 -0 1 0.026400000000000003
1 0 0.026400000000000003 1 0 
2 0 0 1 0 -0 1 0.026400000000000003
2 0 0 1 0 -0 1 0.018957056733575495
7 0 0  10 74 9  3.1415926535897931 0.9625507478846872  3.2543868773926068 0.9625507478846872  3.3671802996796032 0.95270714572143333  3.4750273736426607 0.93302498217963148  3.5729544569621794 0.90425688418326899  3.6580407839501277 0.86805002704204526  3.7319045717013068 0.8259723148366902  3.7951182698598132 0.77915728406514972  3.8492485538372421 0.7286021290710778  3.8954181675875241 0.67504444396462648  4.0033976341507325 0.52115002622627082  4.0509622706122173 0.41585411348205525  4.0829599127173424 0.30638887415352656  4.1033859511953779 0.19446534601001986  4.1137289141770452 0.081163745981939428  4.1151458097738214 -0.032598518496342876  4.1074175502872095 -0.14603360891987904  4.0898854280967498 -0.2582349860711588  4.0604342696133999 -0.36804203900080945  3.9982765516942442 -0.5129319786251576  3.9791089083464497 -0.55182411803205222  3.9575235263354016 -0.58998546125512763  3.9332832977332743 -0.62729161731037186  3.9061153838160356 -0.66359612329213435  3.8757099794353662 -0.69872605924303277  3.8417238048393414 -0.73247547604691621  3.8037980474615702 -0.76459768043783816  3.761605058712246 -0.79480144560677568  3.6741131235986115 -0.84722418561270785  3.6298620777382609 -0.86996934526518044  3.5820509681545203 -0.8907769674434155  3.5306241595890233 -0.90940783695473348  3.4756273260827593 -0.925607536327132  3.4172929893286592 -0.93911650577868699  3.3561094674392913 -0.94969392949849019  3.2928220580449712 -0.95715243431939334  3.2283478745155705 -0.9613885454782114  3.0503416792848381 -0.96412000304278511  2.9362848776363535 -0.95592658452096657  2.8264544300182024 -0.93769919178157579  2.7260971356881782 -0.91009209171170369  2.6387484863516875 -0.8747300015820656  2.562833993230015 -0.83327034045942128  2.4978368152223993 -0.78687086358695524  2.4421768125139351 -0.73658144107594126  2.3947006847782211 -0.68316857890376403  2.2937507284069105 -0.54338937484285044  2.2491513122313611 -0.45389846284294511  2.2168919187098255 -0.36088149546538661  2.1942139481587217 -0.26559433375732622  2.1796328619129781 -0.16887014895451102  2.1722868781522267 -0.071357634627565864  2.1717672487206983 0.02637634636735129  2.1782375353392318 0.12378524563422592  2.192341743090537 0.22023840664717037  2.2270995892080871 0.36217068003834302  2.2409522031931735 0.40902351860324959  2.2572501308558559 0.45530867700425393  2.276218070644366 0.50090132330653137  2.2981361117910835 0.54565467272747514  2.3233431054766092 0.58939442213474347  2.3522446963668115 0.63190957486767163  2.3853188067388427 0.67293909092885351  2.4230935276848782 0.71215815865888843  2.5090155406254051 0.7861863314880706  2.5571634825919296 0.82099535757442044  2.6109777871597544 0.85320585832159845  2.6709240605734523 0.88235153350397011  2.7372555503825424 0.90790184575780586  2.8100421091832688 0.92925370755983749  2.8886839893260912 0.94577881779218842  2.9715757097154571 0.95695960780316436  3.0565839209532486 0.9625507478846872  3.1415926535897931 0.9625507478846872 
 0 11 0.78539816339745583 9 2.1598449493430003 9 2.6752624940725784 9 3.126252845710956 9 3.915485961078117 9 5.0993356341288516 9 5.6912604706542194 9 6.2831853071795871 11
8 0.34832000000000002 0.38000040000000002
1 -0.38 0 1 0 
8 0.34832000000000002 0.38000040000000002
1 3.1415926535897931 0 0 1 
2 0 0 1 0 -0 1 0.018957056733575495
7 0 0  10 38 5  0 -0.9625507478846872  0.11279422380281383 -0.9625507478846872  0.22558764618634086 -0.95270714572234283  0.33343471985062934 -0.93302498217235552  0.43136180583678652 -0.90425688419782091  0.51644812981248833 -0.86805002701294143  0.59031192059046589 -0.82597231486579403  0.65352561588224489 -0.77915728405787377  0.70765590032260661 -0.72860212907289679  0.75382551399773112 -0.67504444396462648  0.85198866541882978 -0.53514042783884852  0.895347442541085 -0.44578833006029328  0.92668833993948285 -0.35303831842861938  0.94864810575090819 -0.25809922794619522  0.9626539868531836 -0.16178049582583753  0.96952676016953776 -0.064715348120898852  0.96964121202927345 0.032540163714378421  0.96281848446007845 0.12944532039033724  0.94839851729256763 0.22537442506578756  0.91321586753595962 0.36649634526937253  0.8992297706154776 0.41307502482197733  0.88280590134887649 0.45908251838413461  0.86371949138776161 0.50439450572558442  0.84169113150316366 0.54886477428135561  0.8163834356980868 0.59231971399858596  0.78739332169626286 0.6345492552313079  0.75424716174318507 0.6752937341316233  0.71642345720461453 0.71423050381262754  0.63046672278911253 0.78770638295809792  0.5823330723542185 0.82224541540528828  0.52857296961785782 0.85419546331777385  0.46873226541683832 0.88309492397165745  0.40256727043197316 0.90841944697967847  0.33002163047422073 0.92957416913632185  0.25170005932684492 0.9459413882470471  0.16919084545721522 0.95701381550892606  0.08459566785211034 0.9625507478846872  0 0.9625507478846872 
 3.1415926535897931 11 3.9269908169872414 9 5.1050880620834151 9 5.6941366846315002 9 6.2831853071795853 11
2 0 0 1 0 -0 1 0.018957056733575495
7 0 0  10 38 5  6.2831853071795862 0.9625507478846872  6.1703910833767726 0.9625507478846872  6.0575976609859694 0.95270714572143333  5.9497505873871646 0.93302498217963148  5.8518235012845921 0.90425688418326899  5.7667371770760596 0.86805002704204526  5.692873386472705 0.8259723148366902  5.6296596913846528 0.77915728406514972  5.5755294068642556 0.7286021290710778  5.5293597931818548 0.67504444396462648  5.4311966417607564 0.53514042783884874  5.3878378646399563 0.44578833006065705  5.3564969672304628 0.35303831842915373  5.3345372014141264 0.25809922794642259  5.3205313203118507 0.16178049582561016  5.3136585470013173 0.064715348119079863  5.3135440951497674 -0.032540163716964797  5.3203668227180527 -0.12944532039001891  5.3347867898870183 -0.22537442506578759  5.3699694396436266 -0.36649634526937253  5.3839555365641791 -0.41307502482165903  5.4003794058305505 -0.45908251838357755  5.4194658157905362 -0.50439450572560718  5.4414941756744524 -0.54886477428155778  5.4668018714802109 -0.59231971399810091  5.4957919854831641 -0.63454925523056516  5.5289381454364719 -0.67529373413176474  5.5667618499749718 -0.71423050381262754  5.6527185843904739 -0.78770638295809792  5.7008522348249127 -0.82224541540747109  5.7546123375586928 -0.85419546331604579  5.814453041756745 -0.88309492397456779  5.8806180367439751 -0.90841944697240251  5.9531636767082761 -0.92957416913341151  6.031485247857562 -0.94594138826350904  6.1139944617216431 -0.95701381550528808  6.1985896393274755 -0.9625507478846872  6.2831853071795862 -0.9625507478846872 
 0 11 0.78539816339744972 9 1.9634954084936234 9 2.5525440310417089 9 3.1415926535897931 11
1 -0.38 0 1 0 
1 6.2831853071795862 -6.2831853071795862 0 1 
1 0 -6.2831853071795862 0 1 
1 0 -1.5707963267948966 1 0 
1 0 1.5707963267948966 1 0 
Curves 11
2 -7.3552286756790033e-17 -0.40040000000000003 0 0 0 1 1 0 -0 -0 1 0 0.013200000000000002
7 0 0  6 157 32  0.013199999999999929 -0.40040000000000003 0.35360000000000003  0.013199999907339876 -0.39947339946489285 0.35360000004633008  0.013121946907389112 -0.39859472847644023 0.35363902846440026  0.012980976784895059 -0.39776965532314668 0.35370950316695288  0.012790674025075171 -0.3970031348419234 0.35380339036249797  0.012565544196246994 -0.39630037912937666 0.35391231897829456  0.012173000985530022 -0.39527830544060288 0.35409855892151709  0.012013753572373484 -0.39490770718947621 0.35417331438326866  0.011846221524772554 -0.39455417142893051 0.35425099095369711  0.011671459812596636 -0.39421616981616753 0.35433091597544752  0.011489953342521654 -0.39389200724142731 0.35441268879966109  0.011144611853629317 -0.39331975597347818 0.35456572024698613  0.010983053135930702 -0.39306827655414339 0.354636378629688  0.010817143944881811 -0.39282482216321557 0.35470792335375018  0.010647033924595968 -0.39258887033918799 0.35478017276103252  0.010472726958324538 -0.39235988556477164 0.35485300266588204  0.010135139240037712 -0.39193930107339758 0.35499160055124568  0.0099728401921232376 -0.39174646228945464 0.35505722706529391  0.0098071715388854761 -0.39155852483517056 0.35512314171258935  0.0096380877570129801 -0.39137524928638551 0.35518926476765483  0.009465510285710927 -0.39119643487467587 0.35525552096422541  0.0090033025914299271 -0.39073860145644623 0.35542950470408763  0.0087080009490372538 -0.39046682810217109 0.35553724827681349  0.0084026664723722642 -0.39020558179390813 0.35564486842154802  0.0080865179103005551 -0.38995434376976473 0.35575208131811836  0.0077586622799150004 -0.38971296255542365 0.35585850361302818  0.0070951422508649248 -0.38926216737792857 0.35606327654927766  0.0067614448042325392 -0.38905219228202065 0.35616155313011783  0.0064146946898411888 -0.38885071163166735 0.35625846637998704  0.006053002890918111 -0.38865778390178768 0.35635365153695225  0.0056746999504738186 -0.38847419219209794 0.35644638074733231  0.0047241414677115321 -0.38805950062921402 0.35666020478620641  0.0041339217066738727 -0.38783825812563572 0.35677806832346254  0.0034958166772026834 -0.3876379681504174 0.35688778146239059  0.0028012552849477363 -0.38746581015224746 0.35698464535619084  0.0020436023350472367 -0.38733278224974316 0.35706061015883894  0.00052091703672493654 -0.38719174973499515 0.35714157359855109  -0.00019865639323568725 -0.3871697697964715 0.35715448460078941  -0.00091884819762835974 -0.38719696700057504 0.35713872464820462  -0.0016186573397308345 -0.38727135039716104 0.35709534341538673  -0.0022759739784720089 -0.38738400306335691 0.35703120034495661  -0.0035254370934904977 -0.38766117121661736 0.35687618192848541  -0.0041413763530111676 -0.38784124204772563 0.35677696438852663  -0.0047112440687562367 -0.3880443536044334 0.35666755736851424  -0.0052411712866292197 -0.38826492693357351 0.35655202481219822  -0.0057390970569952179 -0.38850068547285055 0.35643208991926745  -0.006582806666871957 -0.3889509597650771 0.35621077277984559  -0.0069354511178410265 -0.38915707184706155 0.35611188744795025  -0.0072741538756980577 -0.38937225669005687 0.35601138139602706  -0.0076001863683604273 -0.38959616494301041 0.35590977972804477  -0.0079148990450106042 -0.38982899128808474 0.35580737095790721  -0.0084827534204189575 -0.39028091762101685 0.35561525316303016  -0.0087380100404623861 -0.39049718291542918 0.35552587041530265  -0.0089861002239119414 -0.39072062918450379 0.35543626831620689  -0.0092274093285289686 -0.39095152015691026 0.35534663179861847  -0.0094622204641880443 -0.39119024069523872 0.35525713549975407  -0.009867673696134718 -0.39162863117285313 0.3550989066558235  -0.010040815642618333 -0.39182493182865835 0.3550300562624889  -0.010210262986710359 -0.39202646750451203 0.35496148251236997  -0.010376060106531504 -0.39223352130051903 0.35489327764202411  -0.010538209856891698 -0.39244643019696451 0.35482554338849676  -0.010877567362341092 -0.3929157606485334 0.35468173336206205  -0.011053491877789092 -0.39317384980586545 0.3546059055793806  -0.01122461371851049 -0.39344071863707225 0.3545309845521169  -0.011390824999492998 -0.3937171732540023 0.35445714917127602  -0.011551783965250405 -0.39400397737413373 0.35438467965751214  -0.011908541241733626 -0.39468886627401972 0.35422208000820793  -0.012099993762611047 -0.39509386280851261 0.35413331979694923  -0.012281342634547087 -0.39552061886329176 0.35404795891985369  -0.012451164255416163 -0.39597233888053435 0.35396693937603207  -0.012606740074754463 -0.39645176197217724 0.35389185038702636  -0.012897970337980699 -0.39753107934186394 0.35375005519574582  -0.013035343860368108 -0.39816172154682933 0.35368234454280839  -0.01314014572623754 -0.39883546388309027 0.35362999934296446  -0.013202926523576798 -0.39953782107097741 0.35359850587180414  -0.013218848102944885 -0.40025545713828109 0.35359058489404804  -0.013157967419316035 -0.40165155144625281 0.35362100355152942  -0.013088034033507348 -0.40229859259639783 0.35365591756943143  -0.012984145671069 -0.4029137639722869 0.35370760678490121  -0.012852515169915516 -0.40349474801582935 0.35377253063939645  -0.012699594233896732 -0.40403913481513315 0.35384702226505277  -0.012395906143851406 -0.4049575231646525 0.3539929985248087  -0.012247885788710625 -0.40535029027536101 0.35406348863567133  -0.012090479327139256 -0.40572406743993183 0.35413761215276018  -0.011925072453026328 -0.40608057523389568 0.35421452789045399  -0.011752382555668517 -0.4064217557135601 0.35429372257381536  -0.01142203174984234 -0.40702380985245651 0.35444291061197086  -0.011266733752047356 -0.40728837150330249 0.3545121990003155  -0.011106877169631333 -0.40754409714371187 0.35458259381807361  -0.010942692798001826 -0.40779159753180005 0.35465387857915737  -0.01077423790226077 -0.40803151079211847 0.35472591021021932  -0.010447202099236316 -0.40847235700740758 0.35486348346987689  -0.010289609891907031 -0.40867457512051802 0.35492884491511428  -0.010128642135919847 -0.40887148793819672 0.35499460804688382  -0.0099642864436564026 -0.40906338207504916 0.35506068485117598  -0.0097964954991767387 -0.40925049957707488 0.35512699463945291  -0.0093831001791990273 -0.40969099449343438 0.35528739620828059  -0.0091340368816773074 -0.40993976172647223 0.35538162746105595  -0.008877703659841852 -0.41017998070212708 0.35547596853457053  -0.0086137389560117412 -0.41041207919005723 0.35557021878748696  -0.0083416665314495174 -0.41063632523647997 0.35566415687208769  -0.0077627926429258004 -0.41108272991875844 0.35585663788495642  -0.0074553654453155781 -0.41130354655253343 0.35595494962600843  -0.0071371168334297616 -0.41151611865198845 0.35605241315812103  -0.0068067578643707478 -0.41172058380537085 0.35614875768109572  -0.0064630872151365815 -0.41191658353394134 0.35624349039290609  -0.0056118112748166681 -0.41236063922831961 0.35646310438411738  -0.0050951846559888405 -0.41259841636374739 0.35658487666278815  -0.004543768758132713 -0.41282007571251184 0.35670176865009856  -0.0039486726300979515 -0.41302280577571232 0.3568117518423673  -0.0033031046349988706 -0.41320004713987035 0.35691006796627545  -0.0020977946644199202 -0.41344237508439774 0.35704635175711669  -0.0015456269224441623 -0.41352888834539719 0.35709570944395508  -0.00096338215461493244 -0.41358897901908959 0.3571305440771082  -0.00036493518390494709 -0.41361702922804178 0.35714681373994939  0.00023722928273135768 -0.41361122040328174 0.35714337051635592  0.0015935604106722037 -0.41352577980575922 0.35709417134848814  0.0023039514776745391 -0.41342769683037245 0.35703785138888616  0.002963787247042415 -0.41329252596778132 0.35696098198654053  0.0035760521869769111 -0.41312931273846393 0.35687011943191432  0.0041442150415954577 -0.41294532789591248 0.35677014762867015  0.0051403138758343838 -0.41256826885042508 0.35657067500780082  0.0055821952031193242 -0.41237675239968441 0.35647141210429584  0.0060010756240712762 -0.41217300812770424 0.35636836066488087  0.0063995245259097534 -0.41195859506624705 0.35626277298938963  0.0067805577664336479 -0.41173379596979237 0.35615522997062105  0.0075054055898012327 -0.41126691091712492 0.3559389388403939  0.0078488296271200363 -0.41102615410026172 0.35583063022068767  0.0081793764746076244 -0.41077518087114012 0.35572130683765907  0.0084981014331954961 -0.41051394783349671 0.35561141384750466  0.0088059790280390401 -0.41024195752863518 0.35550125298252344  0.0092868685384226799 -0.40978391455394436 0.35532334983917746  0.0094659018895881224 -0.4096053785007559 0.35525571054915578  0.0096412370253871928 -0.40942233224390212 0.35518815821625221  0.0098129748319368895 -0.40923458181544631 0.35512077124256064  0.0099811803917451997 -0.40904189381501688 0.35505363156222075  0.010317886662737639 -0.4086373243831809 0.35491705624235853  0.010485999406866243 -0.40842505744182539 0.35484768203264511  0.010650344425209865 -0.40820677613473477 0.35477876208364717  0.010810937805055236 -0.40798206674603871 0.3547103966641279  0.010967688511862868 -0.40775052029500247 0.35464272624024451  0.011295540855126881 -0.40723786762542008 0.35449932477535123  0.011465236234597416 -0.40695469101592824 0.35442393017470347  0.011629608917090117 -0.40666098728665195 0.35434984372799611  0.011788398596740227 -0.40635565341962215 0.35427731813071328  0.011941013492624135 -0.40603767146284131 0.35420675977695676  0.012283413547977158 -0.40525772733227389 0.35404673491299388  0.012467529742521639 -0.40478412218912901 0.35395928508562219  0.012637522111427808 -0.40428094062043946 0.35387737846404216  0.012790205924292921 -0.40374443114691944 0.35380291868939334  0.012920622974942038 -0.40317156505735285 0.35373872182135352  0.013077988914567887 -0.40222293079033894 0.35366083845772267  0.013125341146396505 -0.40187256080084016 0.35363729454225412  0.013162216979632669 -0.40151220139038196 0.35361889254375217  0.013187340857689245 -0.40114479960939525 0.35360632909031947  0.01319999996268361 -0.40077316318605916 0.35360000001865816  0.013199999999999929 -0.40040000000000003 0.35360000000000008 
 0 7 0.047193209341247565 5 0.076200609081681622 5 0.10035634902736086 5 0.1218478148615512 5 0.15673826134255908 5 0.18980682495410134 5 0.23602062289048661 5 0.27497705197610317 5 0.31955512868110642 5 0.35401715678748819 5 0.38373671848353069 5 0.40674481235854448 5 0.43300963544598714 5 0.46713063177765624 5 0.50529254468705398 5 0.54116640724923193 5 0.57052262794944986 5 0.59503865380851995 5 0.61690969135476748 5 0.64781704881428825 5 0.68062171008171424 5 0.72578513149554347 5 0.75824275807769836 5 0.80006781789933967 5 0.83701949690599342 5 0.87298744276843554 5 0.8950576657809961 5 0.91810623781490019 5 0.94454057074204989 5 0.98028328191807801 5 1 7
1 0.013199999999999929 -0.40040000000000003 0 0 0 1 
1 -0.013200000000000075 -0.40040000000000003 0.40639999999999998 1 0 0 
2 -0.013200000000000075 -0.40040000000000003 0.38 1 0 0 -0 0 1 0 -1 0 0.026400000000000003
2 0.013199999999999929 -0.40040000000000003 0.38 1 0 0 -0 0 1 0 -1 0 0.026400000000000003
2 -0.013200000000000075 -0.40040000000000003 0.38 1 0 0 -0 0 1 0 -1 0 0.018957056733575495
1 -0.013200000000000075 -0.40040000000000003 0 0 0 1 
2 0.013199999999999929 -0.40040000000000003 0.38 1 0 0 -0 0 1 0 -1 0 0.018957056733575495
2 0.013199999999999929 -0.40040000000000003 0.38 1 0 0 -0 0 1 0 -1 0 0.018957056733575495
2 -7.3552286756790033e-17 -0.40040000000000003 0.38 -2.4492935982947064e-16 -1 0 1 -2.4492935982947064e-16 0 0 0 1 0.023100000000000002
Polygon3D 0
PolygonOnTriangulations 0
Surfaces 6
2 -7.3552286756790033e-17 -0.40040000000000003 0 0 0 1 1 0 -0 -0 1 0 0.013200000000000002
1 -7.3552286756790033e-17 -0.40040000000000003 0 0 0 1 1 0 -0 -0 1 0 
2 -0.013200000000000075 -0.40040000000000003 0.38 1 0 0 -0 0 1 0 -1 0 0.026400000000000003
1 -0.013200000000000075 -0.40040000000000003 0.38 1 0 0 -0 0 1 0 -1 0 
1 0.013199999999999929 -0.40040000000000003 0.38 1 0 0 -0 0 1 0 -1 0 
4 -7.3552286756790033e-17 -0.40040000000000003 0.38 0 0 1 1 0 -0 -0 1 0 0.023100000000000002
Triangulations 0

TShapes 52
Ve
1e-07
0.0131999999999999 -0.4004 0
0 0

0101101
*
Ve
1.00001000391633e-07
0.0131999999999999 -0.4004 0.3536
0 0

0101101
*
Ve
2.00001e-07
-0.0132000000000001 -0.4004 0.3536
0 0

0101101
*
Ve
1e-07
0.0131999999999999 -0.4004 0.4064
0 0

0101101
*
Ve
1e-07
-0.0132000000000001 -0.4004 0.4064
0 0

0101101
*
Ve
2.00001e-07
-0.0132000000000001 -0.4004 0.361042943266423
0 0

0101101
*
Ve
1e-07
-0.0132000000000001 -0.4004 0.398957056733576
0 0

0101101
*
Ve
1.00000000202963e-07
0.0131999999999997 -0.4004 0.361042943266424
0 0

0101101
*
Ve
2.00001e-07
0.0131999999999999 -0.4004 0.398957056733576
0 0

0101101
*
Ve
1e-07
-7.21378197037749e-17 -0.4004 0.4031
0 0

0101101
*
Ve
1e-07
-7.21378197037749e-17 -0.4004 0.3569
0 0

0101101
*
Ed
 1e-07 1 1 0
1  1 0 0 6.28318530717959
2  1 1 0 0 6.28318530717959
2  2 2 0 0 6.28318530717959
0

0101000
+52 0 -52 0 *
Ed
 1e-07 1 1 0
1  2 0 0 0.50019948362136
2  3 3 0 0 0.50019948362136
2  4 1 0 0 0.50019948362136
0

0101000
+51 0 -50 0 *
Ed
 1e-07 1 1 0
1  2 0 0.50019948362136 1
2  3 3 0 0.50019948362136 1
2  4 1 0 0.50019948362136 1
0

0101000
+50 0 -51 0 *
Ed
 1e-07 1 1 0
1  3 0 0 0.3536
3  5 6CN 1 0 0 0.3536
0

0101000
+52 0 -51 0 *
Ed
 1e-07 1 1 0
1  4 0 0 0.0264
3  7 8CN 3 0 0 0.0264
0

0101000
-49 0 +48 0 *
Ed
 1e-07 1 1 0
1  5 0 3.14159265358979 6.28318530717959
2  9 3 0 3.14159265358979 6.28318530717959
2  10 4 0 3.14159265358979 6.28318530717959
0

0101000
+50 0 -48 0 *
Ed
 1e-07 1 1 0
1  6 0 3.14159265358979 6.28318530717959
2  11 3 0 3.14159265358979 6.28318530717959
2  12 5 0 3.14159265358979 6.28318530717959
0

0101000
+51 0 -49 0 *
Ed
 1e-07 1 1 0
1  6 0 0 3.14159265358979
2  11 3 0 0 3.14159265358979
2  12 5 0 0 3.14159265358979
0

0101000
+49 0 -51 0 *
Ed
 1e-07 1 1 0
1  5 0 0 3.14159265358979
2  9 3 0 0 3.14159265358979
2  10 4 0 0 3.14159265358979
0

0101000
+48 0 -50 0 *
Ed
 1e-07 1 1 0
1  7 0 3.14159265358979 6.28318530717959
2  13 4 0 3.14159265358979 6.28318530717959
2  14 6 0 3.14159265358979 6.28318530717959
0

0101000
+47 0 -46 0 *
Ed
 1e-07 1 1 0
1  7 0 0 3.14159265358979
2  13 4 0 0 3.14159265358979
2  14 6 0 0 3.14159265358979
0

0101000
+46 0 -47 0 *
Ed
 1e-07 1 1 0
1  8 0 0.3536 0.361042943266423
2  15 4 0 0.3536 0.361042943266423
2  16 1 0 0.3536 0.361042943266423
0

0101000
+50 0 -47 0 *
Ed
 1e-07 1 1 0
1  9 0 3.14159265358979 6.28318530717959
2  17 5 0 3.14159265358979 6.28318530717959
2  18 6 0 3.14159265358979 6.28318530717959
0

0101000
+45 0 -44 0 *
Ed
 1e-07 1 1 0
1  10 0 0 3.14159265358979
2  19 5 0 0 3.14159265358979
2  20 6 0 0 3.14159265358979
0

0101000
+44 0 -45 0 *
Ed
 1e-07 1 1 0
1  3 0 0.3536 0.361042943266424
3  5 6CN 1 0 0.3536 0.361042943266424
2  21 5 0 0.3536 0.361042943266424
0

0101000
+51 0 -45 0 *
Ed
 1e-07 1 1 0
1  11 0 7.24573605506427 7.85398163397448
3  22 23CN 6 0 7.24573605506427 7.85398163397448
0

0101000
+44 0 -43 0 *
Ed
 1e-07 1 1 0
1  11 0 4.71238898038469 5.32063455929489
3  22 23CN 6 0 4.71238898038469 5.32063455929489
0

0101000
+42 0 -45 0 *
Ed
 1e-07 1 1 1
2  24 6 0 0 6.28318530717959
0

0101000
+42 0 -42 0 *
Ed
 1e-07 1 1 1
2  25 6 0 0 6.28318530717959
0

0101000
+43 0 -43 0 *
Wi

0101100
-41 0 *
Wi

0101100
-40 0 -39 0 +38 0 +41 0 -38 0 *
Wi

0101100
+37 0 +36 0 +40 0 -35 0 *
Wi

0101100
-34 0 +39 0 +33 0 -37 0 *
Wi

0101100
+36 0 +33 0 *
Wi

0101100
-32 0 -31 0 *
Wi

0101000
i30 0 *
Wi

0101100
+35 0 +34 0 *
Wi

0101100
-29 0 -28 0 *
Wi

0101000
i27 0 *
Wi

0101100
+26 0 -28 0 +25 0 +24 0 -25 0 -29 0 -26 0 -23 0 *
Wi

0101100
+32 0 +31 0 *
Fa
0  1e-07 2 0

0111000
-22 0 *
Fa
0  1e-07 1 0

0111000
+21 0 *
Fa
0  1e-07 3 0

0111000
+20 0 *
Fa
0  1e-07 3 0

0111000
+19 0 *
Fa
0  1e-07 4 0

0101000
+18 0 +17 0 +16 0 *
Fa
0  1e-07 5 0

0101000
+15 0 +14 0 +13 0 *
Fa
0  1e-07 6 0

0111000
+12 0 +11 0 *
Sh

0101100
-10 0 +9 0 +8 0 +7 0 -6 0 +5 0 -4 0 *
So

0100000
+3 0 *
Co

1100000
-52 0 -51 0 +50 0 -49 0 +48 0 +47 0 -46 0 -45 0 +44 0 +43 0 
-42 0 -41 0 -40 0 -39 0 +38 0 +37 0 +36 0 -35 0 -34 0 +33 0 
+32 0 +31 0 i30 0 -29 0 -28 0 i27 0 -26 0 -25 0 -24 0 +23 0 
+22 0 +21 0 +20 0 +19 0 -18 0 -17 0 -16 0 +15 0 +14 0 +13 0 
-12 0 -11 0 -10 0 +9 0 +8 0 +7 0 -6 0 +5 0 -4 0 +3 0 
+2 0 *

+1 0 