DBRep_DrawableShape

CASCADE Topology V1, (c) Matra-Datavision
Locations 0
Curve2ds 25
1 0 0 1 0 
2 0 0 1 0 -0 1 0.013200000000000002
7 0 0  6 157 32  3.1415926535897931 0.026400000000000003  3.1766911587074915 0.02639999990733995  3.2099741565553597 0.026321946907389336  3.2413047346859223 0.026180976784894797  3.2705328439725201 0.025990674025075485  3.297460824532799 0.025765544196247013  3.3368132199810163 0.025373000985530015  3.3511312552611368 0.025213753572373699  3.3648393074269976 0.025046221524772667  3.3779932255318985 0.024871459812596596  3.3906554804518936 0.024689953342521737  3.4130933518201743 0.024344611853629114  3.4229871987480425 0.024183053135930693  3.4325978931874399 0.024017143944881993  3.4419442006683347 0.023847033924596125  3.451045554294891 0.02367272695832455  3.4678195154148348 0.023335139240037796  3.475535066223745 0.023172840192123303  3.4830785708743517 0.02300717153888553  3.4904584035281427 0.022838087757013046  3.4976814488059307 0.02266551028571101  3.5162336183706606 0.022203302591429875  3.5273064200094679 0.021908000949036877  3.5380075082208324 0.02160266647237212  3.548353276070225 0.02128651791030094  3.5583450838525565 0.020958662279915597  3.5770997988808317 0.020295142250865084  3.5858808961424007 0.019961444804232977  3.5943490234035402 0.019614694689841391  3.6024973827563556 0.01925300289091798  3.61028804461928 0.018874699950473767  3.6279612418928497 0.01792414146771118  3.6374558351765529 0.017333921706674145  3.6461053613387042 0.016695816677203018  3.6535875502008661 0.016001255284947773  3.6593901896337209 0.0152436023350472  3.6655500363001146 0.013720917036725806  3.666515590080472 0.01300134360676327  3.6653249002830175 0.012281151802371859  3.6620632540505875 0.011581342660269656  3.6571530497400122 0.010924026021527892  3.645123752482049 0.0096745629065094364  3.6373361776880957 0.0090586236469898506  3.6285980850587531 0.0084887559312428456  3.6191672648803213 0.0079588287133712417  3.609148816893029 0.007460902943004907  3.5901440730295513 0.0066171933331283768  3.581485171375387 0.006264548882158702  3.5724897130698952 0.0059258461243017974  3.5631769275561509 0.0055998136316397218  3.5535430640166052 0.0052851009549892579  3.5349420467267905 0.0047172465795822594  3.5260785402423824 0.0044619899595385974  3.5169602964366349 0.0042138997760876934  3.5075794008384822 0.0039725906714700209  3.4979231122326166 0.0037377795358119145  3.4802688913971611 0.0033323263038653544  3.4723894696649489 0.0031591843573817377  3.4643262943610913 0.0029897370132897084  3.4560694290158565 0.0028239398934685705  3.4476068794795527 0.0026617901431083804  3.4290133559299818 0.0023224326376588846  3.4188247259370272 0.0021465081222112234  3.4083264266297966 0.001975386281489622  3.3974890251440768 0.0018091750005068885  3.3862849487776252 0.0016482160347497689  3.3596210948900129 0.0012914587582664304  3.3439186025503549 0.0011000062373890454  3.3274376523610791 0.0009186573654529829  3.3100598924015423 0.00074883574458388478  3.2916841265923158 0.00059325992524562681  3.2504495929977968 0.00030202966201940879  3.2264310385365884 0.00016465613963190229  3.2008512221977532 5.9854273762576519e-05  3.1742427328959639 -2.9265235767368588e-06  3.1470725083625695 -1.8848102944810543e-05  3.0941775971675543 4.2032580684035023e-05  3.0696454891329581 0.00011196596649274847  3.0462760652374077 0.00021585432893108029  3.0241428597658673 0.00034748483008454533  3.0033348440555989 0.00050040576610335338  2.9681107030057929 0.00080409385614869683  2.9529984564939897 0.00095211421128944004  2.9385678759349125 0.0011095206728608316  2.9247556620696789 0.0012749275469737652  2.9114900391476617 0.0014476174443315141  2.8879952264737465 0.0017779682501576979  2.8776368283501577 0.0019332662479527496  2.8675911166580348 0.0020931228303688091  2.8578359906793964 0.0022573072019982741  2.848348115694153 0.0024257620977392647  2.8308551768676957 0.0027527979007637535  2.8228056199515064 0.0029103901080930485  2.81494237980545 0.003071357864080236  2.8072552886606363 0.0032357135563436707  2.7997358834053863 0.0034035045008233241  2.7819786714664292 0.0038168998208009826  2.771903129227431 0.0040659631183231062  2.7621284061433755 0.0043222963401583266  2.7526404467141785 0.0045862610439880982  2.7434315988714064 0.0048583334685505363  2.7250174394231372 0.0054372073570743452  2.7158622722896104 0.0057446345546848373  2.7070050869208195 0.0060628831665703606  2.6984440862048582 0.00639324213562905  2.6901984900984792 0.0067369127848634254  2.6714335448439557 0.0075881887251835443  2.6613153927599575 0.0081048153440108194  2.6518242306340398 0.0086562312418677692  2.6430884606201923 0.0092513273699014655  2.6354111759025245 0.0098968953650017122  2.6248800482679786 0.011102205335580005  2.6211072936917037 0.011654373077557239  2.6184763555939261 0.01223661784538293  2.6172480435565868 0.01283506481609638  2.6175038111753572 0.013437229282731255  2.621238408757415 0.014793560410671687  2.6255225991247442 0.015503951477676295  2.6314126511509222 0.016163787247040689  2.6384879217213575 0.016776052186978096  2.6464189316387903 0.017344215041595144  2.662576925493549 0.018340313875834204  2.6707475288663463 0.01878219520311954  2.6793954921582199 0.019201075624071331  2.6884477189397962 0.019599524525909601  2.6978863621686 0.019980557766433819  2.7173769588327765 0.020705405589800677  2.7273762337055101 0.021048829627120822  2.7377444387855383 0.021379376474608042  2.7484781350228573 0.021698101433195099  2.7595926086542235 0.022005979028039191  2.7782054331220594 0.022486868538422744  2.7854369860926087 0.022665901889588197  2.7928272170813453 0.022841237025387279  2.800382691992537 0.023012974831936969  2.8081115032617041 0.023181180391745271  2.8242857564716957 0.023517886662737426  2.8327443223347331 0.023685999406865995  2.841414203636111 0.023850344425209762  2.8503103313928988 0.024010937805055352  2.859447331447853 0.024167688511863118  2.8796114003532209 0.024495540855126726  2.8907105813102638 0.024665236234597432  2.9021826912937772 0.024829608917090251  2.9140682895231862 0.024988398596740399  2.9264044486869092 0.025141013492624324  2.9565632152290067 0.025483413547977257  2.9748024454105848 0.025667529742521719  2.9941065025627132 0.025837522111427872  3.0146138816171946 0.025990205924292992  3.036439626040123 0.026120622974942113  3.072493642318006 0.026277988914567948  3.0857937080505682 0.026325341146396619  3.0994587223010286 0.026362216979632761  3.1133805514532291 0.02638734085768929  3.127457684420893 0.026399999962683687  3.1415926535897931 0.026400000000000003 
 0 7 0.047193209341343897 5 0.07620060908187927 5 0.1003563490276814 5 0.12184781486198117 5 0.15673826134317886 5 0.18980682495484136 5 0.23602062289144493 5 0.27497705197720618 5 0.31955512868239805 5 0.35401715678890189 5 0.38373671848494334 5 0.40674481235996746 5 0.43300963544742876 5 0.46713063177907993 5 0.50529254468844598 5 0.54116640725059395 5 0.57052262795079889 5 0.59503865380983922 5 0.61690969135605478 5 0.64781704881552127 5 0.68062171008289574 5 0.72578513149665902 5 0.75824275807878039 5 0.80006781790033366 5 0.83701949690686106 5 0.87298744276912754 5 0.89505766578158963 5 0.91810623781535883 5 0.94454057074234898 5 0.98028328191818748 5 1 7
7 0 0  6 157 32  0 0.35360000000000003  0.070197010235397497 0.35360000004633008  0.13676336071316625 0.35363902846440048  0.19988974173025514 0.3537095031669526  0.25951024590858868 0.35380339036249814  0.31532501276023478 0.35391231897829462  0.39826917281180885 0.35409855892151709  0.42880366856300345 0.35417331438326877  0.45841311491624276 0.35425099095369711  0.48721517702447753 0.35433091597544758  0.51534558917370188 0.35441268879966126  0.56598046221023957 0.35456572024698629  0.58861606218211315 0.354636378629688  0.61092268904320546 0.35470792335375018  0.63294741156913792 0.35478017276103263  0.65474196916382199 0.3548530026658821  0.6955988931079119 0.35499160055124568  0.71468833153135058 0.35505722706529408  0.73366056410271063 0.35512314171258935  0.75254398556547031 0.35518926476765483  0.77136590843365294 0.35525552096422541  0.82065186771475107 0.35542950470408768  0.85103499154462348 0.3555372482768136  0.88144788836728194 0.35564486842154808  0.91200966276115158 0.35575208131811831  0.9428306353524557 0.35585850361302801  1.0036010149167971 0.35606327654927766  1.0334510378455768 0.35616155313011771  1.0638037900222252 0.35625846637998704  1.0948265129597776 0.35635365153695231  1.1266563522927049 0.35644638074733243  1.2052228580718463 0.35666020478620658  1.2529088692249331 0.35677806832346248  1.3034546165403604 0.3568877814623907  1.3574954532707613 0.3569846453561909  1.4155788198399357 0.35706061015883894  1.5314275040383802 0.35714157359855109  1.5858617985273149 0.35715448460078963  1.6402676308310573 0.3571387246482044  1.693411993177272 0.3570953434153869  1.7438751310637599 0.35703120034495661  1.8408324059834722 0.35687618192848541  1.8893416376271817 0.35677696438852691  1.9350694918710423 0.35666755736851397  1.978476770994942 0.35655202481219833  2.020165147241749 0.3564320899192675  2.0926154105731136 0.35621077277984564  2.1235362037259402 0.35611188744795025  2.1539057117712286 0.356011381396027  2.1838409358166735 0.35590977972804477  2.2134796716662657 0.35580737095790721  2.2684598418364779 0.35561525316303055  2.2937929290276124 0.35552587041530287  2.319069695101097 0.35543626831620684  2.3443536592558414 0.3553466317986182  2.3697089991453493 0.35525713549975402  2.4149470272913107 0.35509890665582344  2.4347710824235751 0.3550300562624889  2.454709766062781 0.35496148251237009  2.4747958401285182 0.35489327764202416  2.4950643143079034 0.35482554338849681  2.5389406136573167 0.35468173336206205  2.5625940138950707 0.35460590557938071  2.5865962422546063 0.35453098455211701  2.6110176605648183 0.35445714917127596  2.6359209620583255 0.3543846796575123  2.6944236952080876 0.35422208000820793  2.7283352706389223 0.35413331979694923  2.7634207539859728 0.35404795891985374  2.7999265072717936 0.35396693937603207  2.8380628511361548 0.35389185038702647  2.9227536221297816 0.35375005519574587  2.9715910745975949 0.35368234454280834  3.0230987032721499 0.35362999934296452  3.076342165981012 0.35359850587180419  3.1306044192926876 0.35359058489404804  3.2364696553247576 0.35362100355152942  3.2856727456009085 0.35365591756943154  3.3328166219030333 0.35370760678490126  3.3778549486288676 0.3537725306393964  3.4206477950656669 0.35384702226505288  3.4939278759280281 0.35399299852480887  3.5256990923492659 0.35406348863567128  3.5563920972592129 0.35413761215276018  3.5861390405828129 0.35421452789045399  3.6150922629509661 0.35429372257381542  3.6671174145349714 0.35444291061197103  3.690348540017284 0.35451219900031566  3.7131820151312485 0.35458259381807372  3.7356702039281635 0.35465387857915748  3.7578711551312574 0.35472591021021932  3.7994549433660345 0.35486348346987689  3.818871848070998 0.35492884491511445  3.8381316148729678 0.35499460804688393  3.8572647933359985 0.35506068485117609  3.8763001839658155 0.35512699463945291  3.922065000139789 0.35528739620828059  3.9487192082688445 0.35538162746105612  3.975312734842714 0.35547596853457059  4.0019207821370992 0.35557021878748679  4.0286170194661191 0.35566415687208769  4.0839963835127229 0.35585663788495642  4.112654971792681 0.3559549496260086  4.141622974048353 0.35605241315812108  4.1710282615747021 0.35614875768109572  4.2009793418816406 0.35624349039290615  4.2737167222666068 0.35646310438411749  4.3167490414512217 0.3565848766627881  4.3616864874318955 0.35670176865009873  4.409197392505817 0.35681175184236713  4.4597915139348512 0.35691006796627556  4.5529300527222443 0.35704635175711669  4.5952321262239275 0.35709570944395502  4.6394798858228956 0.35713054407710831  4.6847574500889761 0.35714681373994933  4.7303133918159403 0.35714337051635597  4.8332694207571656 0.3570941713484882  4.887447933821286 0.357037851388886  4.9383293705002922 0.35696098198654075  4.9862264681134318 0.35687011943191416  5.0314163256272924 0.35677014762867026  5.1121038845124174 0.35657067500780087  5.1485480817867941 0.35647141210429584  5.1837884552880666 0.35636836066488092  5.2180264013972977 0.35626277298938969  5.2515160711208528 0.35615522997062116  5.3168341290242038 0.35593893884039413  5.3485830804352936 0.35583063022068745  5.3799913419955461 0.35572130683765896  5.4111791490993921 0.35561141384750489  5.44227950105725 0.35550125298252344  5.4925917770342307 0.35532334983917746  5.5117414104508038 0.35525571054915578  5.5309361875310019 0.35518815821625221  5.5502047372211791 0.35512077124256064  5.5695765159075519 0.35505363156222086  5.609451747317685 0.35491705624235853  5.6299591846385963 0.35484768203264522  5.6506490272920722 0.35477876208364734  5.6715628275816954 0.35471039666412801  5.6927387822014772 0.35464272624024451  5.7388389893736047 0.35449932477535145  5.7638382065543858 0.35442393017470347  5.7893189443493229 0.35434984372799611  5.8153719091080971 0.35427731813071334  5.8420770435590121 0.35420675977695676  5.9066067864856313 0.35404673491299388  5.9450660002797617 0.35395928508562219  5.9852400935326173 0.35387737846404216  6.0274147216850906 0.3538029186893934  6.0718458890741305 0.35373872182135363  6.144694234142313 0.35366083845772273  6.1714666418341251 0.35363729454225418  6.1988869616051581 0.35361889254375223  6.2267610958791471 0.35360632909031953  6.254915368841786 0.35360000001865816  6.2831853071795862 0.35360000000000008 
 0 7 0.047193209341343897 5 0.07620060908187927 5 0.1003563490276814 5 0.12184781486198117 5 0.15673826134317886 5 0.18980682495484136 5 0.23602062289144493 5 0.27497705197720618 5 0.31955512868239805 5 0.35401715678890189 5 0.38373671848494334 5 0.40674481235996746 5 0.43300963544742876 5 0.46713063177907993 5 0.50529254468844598 5 0.54116640725059395 5 0.57052262795079889 5 0.59503865380983922 5 0.61690969135605478 5 0.64781704881552127 5 0.68062171008289574 5 0.72578513149665902 5 0.75824275807878039 5 0.80006781790033366 5 0.83701949690686106 5 0.87298744276912754 5 0.89505766578158963 5 0.91810623781535883 5 0.94454057074234898 5 0.98028328191818748 5 1 7
1 6.2831853071795862 -0 0 1 
1 0 -0 0 1 
1 6.2831853071795862 -0 0 1 
1 0 -0 0 1 
1 0 0 1 0 
2 0 0 1 0 -0 1 0.026400000000000003
1 0 0.026400000000000003 1 0 
2 0 0 1 0 -0 1 0.026400000000000003
2 0 0 1 0 -0 1 0.018957056733575495
7 0 0  10 74 9  3.1415926535897931 0.9625507478846872  3.2543868773926068 0.9625507478846872  3.3671802996796032 0.95270714572143333  3.4750273736426607 0.93302498217963148  3.5729544569621794 0.90425688418326899  3.6580407839501277 0.86805002704204526  3.7319045717013068 0.8259723148366902  3.7951182698598132 0.77915728406514972  3.8492485538372421 0.7286021290710778  3.8954181675875241 0.67504444396462648  4.0033976341507325 0.52115002622627082  4.0509622706122173 0.41585411348205525  4.0829599127173424 0.30638887415352656  4.1033859511953779 0.19446534601001986  4.1137289141770452 0.081163745981939428  4.1151458097738214 -0.032598518496342876  4.1074175502872095 -0.14603360891987904  4.0898854280967498 -0.2582349860711588  4.0604342696133999 -0.36804203900080945  3.9982765516942442 -0.5129319786251576  3.9791089083464497 -0.55182411803205222  3.9575235263354016 -0.58998546125512763  3.9332832977332743 -0.62729161731037186  3.9061153838160356 -0.66359612329213435  3.8757099794353662 -0.69872605924303277  3.8417238048393414 -0.73247547604691621  3.8037980474615702 -0.76459768043783816  3.761605058712246 -0.79480144560677568  3.6741131235986115 -0.84722418561270785  3.6298620777382609 -0.86996934526518044  3.5820509681545203 -0.8907769674434155  3.5306241595890233 -0.90940783695473348  3.4756273260827593 -0.925607536327132  3.4172929893286592 -0.93911650577868699  3.3561094674392913 -0.94969392949849019  3.2928220580449712 -0.95715243431939334  3.2283478745155705 -0.9613885454782114  3.0503416792848381 -0.96412000304278511  2.9362848776363535 -0.95592658452096657  2.8264544300182024 -0.93769919178157579  2.7260971356881782 -0.91009209171170369  2.6387484863516875 -0.8747300015820656  2.562833993230015 -0.83327034045942128  2.4978368152223993 -0.78687086358695524  2.4421768125139351 -0.73658144107594126  2.3947006847782211 -0.68316857890376403  2.2937507284069105 -0.54338937484285044  2.2491513122313611 -0.45389846284294511  2.2168919187098255 -0.36088149546538661  2.1942139481587217 -0.26559433375732622  2.1796328619129781 -0.16887014895451102  2.1722868781522267 -0.071357634627565864  2.1717672487206983 0.02637634636735129  2.1782375353392318 0.12378524563422592  2.192341743090537 0.22023840664717037  2.2270995892080871 0.36217068003834302  2.2409522031931735 0.40902351860324959  2.2572501308558559 0.45530867700425393  2.276218070644366 0.50090132330653137  2.2981361117910835 0.54565467272747514  2.3233431054766092 0.58939442213474347  2.3522446963668115 0.63190957486767163  2.3853188067388427 0.67293909092885351  2.4230935276848782 0.71215815865888843  2.5090155406254051 0.7861863314880706  2.5571634825919296 0.82099535757442044  2.6109777871597544 0.85320585832159845  2.6709240605734523 0.88235153350397011  2.7372555503825424 0.90790184575780586  2.8100421091832688 0.92925370755983749  2.8886839893260912 0.94577881779218842  2.9715757097154571 0.95695960780316436  3.0565839209532486 0.9625507478846872  3.1415926535897931 0.9625507478846872 
 0 11 0.78539816339745583 9 2.1598449493430003 9 2.6752624940725784 9 3.126252845710956 9 3.915485961078117 9 5.0993356341288516 9 5.6912604706542194 9 6.2831853071795871 11
8 0.34832000000000002 0.38000040000000002
1 -0.38 0 1 0 
8 0.34832000000000002 0.38000040000000002
1 3.1415926535897931 0 0 1 
2 0 0 1 0 -0 1 0.018957056733575495
7 0 0  10 38 5  0 -0.9625507478846872  0.11279422380281383 -0.9625507478846872  0.22558764618634086 -0.95270714572234283  0.33343471985062934 -0.93302498217235552  0.43136180583678652 -0.90425688419782091  0.51644812981248833 -0.86805002701294143  0.59031192059046589 -0.82597231486579403  0.65352561588224489 -0.77915728405787377  0.70765590032260661 -0.72860212907289679  0.75382551399773112 -0.67504444396462648  0.85198866541882978 -0.53514042783884852  0.895347442541085 -0.44578833006029328  0.92668833993948285 -0.35303831842861938  0.94864810575090819 -0.25809922794619522  0.9626539868531836 -0.16178049582583753  0.96952676016953776 -0.064715348120898852  0.96964121202927345 0.032540163714378421  0.96281848446007845 0.12944532039033724  0.94839851729256763 0.22537442506578756  0.91321586753595962 0.36649634526937253  0.8992297706154776 0.41307502482197733  0.88280590134887649 0.45908251838413461  0.86371949138776161 0.50439450572558442  0.84169113150316366 0.54886477428135561  0.8163834356980868 0.59231971399858596  0.78739332169626286 0.6345492552313079  0.75424716174318507 0.6752937341316233  0.71642345720461453 0.71423050381262754  0.63046672278911253 0.78770638295809792  0.5823330723542185 0.82224541540528828  0.52857296961785782 0.85419546331777385  0.46873226541683832 0.88309492397165745  0.40256727043197316 0.90841944697967847  0.33002163047422073 0.92957416913632185  0.25170005932684492 0.9459413882470471  0.16919084545721522 0.95701381550892606  0.08459566785211034 0.9625507478846872  0 0.9625507478846872 
 3.1415926535897931 11 3.9269908169872414 9 5.1050880620834151 9 5.6941366846315002 9 6.2831853071795853 11
2 0 0 1 0 -0 1 0.018957056733575495
7 0 0  10 38 5  6.2831853071795862 0.9625507478846872  6.1703910833767726 0.9625507478846872  6.0575976609859694 0.95270714572143333  5.9497505873871646 0.93302498217963148  5.8518235012845921 0.90425688418326899  5.7667371770760596 0.86805002704204526  5.692873386472705 0.8259723148366902  5.6296596913846528 0.77915728406514972  5.5755294068642556 0.7286021290710778  5.5293597931818548 0.67504444396462648  5.4311966417607564 0.53514042783884874  5.3878378646399563 0.44578833006065705  5.3564969672304628 0.35303831842915373  5.3345372014141264 0.25809922794642259  5.3205313203118507 0.16178049582561016  5.3136585470013173 0.064715348119079863  5.3135440951497674 -0.032540163716964797  5.3203668227180527 -0.12944532039001891  5.3347867898870183 -0.22537442506578759  5.3699694396436266 -0.36649634526937253  5.3839555365641791 -0.41307502482165903  5.4003794058305505 -0.45908251838357755  5.4194658157905362 -0.50439450572560718  5.4414941756744524 -0.54886477428155778  5.4668018714802109 -0.59231971399810091  5.4957919854831641 -0.63454925523056516  5.5289381454364719 -0.67529373413176474  5.5667618499749718 -0.71423050381262754  5.6527185843904739 -0.78770638295809792  5.7008522348249127 -0.82224541540747109  5.7546123375586928 -0.85419546331604579  5.814453041756745 -0.88309492397456779  5.8806180367439751 -0.90841944697240251  5.9531636767082761 -0.92957416913341151  6.031485247857562 -0.94594138826350904  6.1139944617216431 -0.95701381550528808  6.1985896393274755 -0.9625507478846872  6.2831853071795862 -0.9625507478846872 
 0 11 0.78539816339744972 9 1.9634954084936234 9 2.5525440310417089 9 3.1415926535897931 11
1 -0.38 0 1 0 
1 6.2831853071795862 -6.2831853071795862 0 1 
1 0 -6.2831853071795862 0 1 
1 0 -1.5707963267948966 1 0 
1 0 1.5707963267948966 1 0 
Curves 11
2 2.4517428918930014e-17 0.40040000000000003 0 0 0 1 1 0 -0 -0 1 0 0.013200000000000002
7 0 0  6 157 32  0.013200000000000026 0.40040000000000003 0.35360000000000003  0.013199999907339973 0.40132660053510727 0.35360000004633008  0.01312194690738914 0.40220527152355956 0.35363902846440021  0.012980976784895243 0.40303034467685389 0.35370950316695299  0.012790674025075275 0.40379686515807639 0.35380339036249786  0.012565544196247032 0.40449962087062358 0.35391231897829462  0.012173000985530036 0.40552169455939752 0.35409855892151709  0.012013753572373725 0.40589229281052375 0.35417331438326866  0.011846221524772693 0.40624582857106945 0.35425099095369711  0.011671459812596615 0.40658383018383276 0.35433091597544758  0.01148995334252176 0.40690799275857281 0.35441268879966109  0.011144611853629138 0.40748024402652233 0.35456572024698629  0.010983053135930716 0.40773172344585684 0.354636378629688  0.010817143944882012 0.40797517783678433 0.35470792335375018  0.010647033924596148 0.40821112966081197 0.35478017276103263  0.010472726958324569 0.40844011443522854 0.3548530026658821  0.010135139240037816 0.40886069892660243 0.35499160055124568  0.0099728401921233278 0.40905353771054537 0.35505722706529391  0.0098071715388855576 0.4092414751648295 0.35512314171258935  0.0096380877570130686 0.40942475071361456 0.35518926476765483  0.0094655102857110311 0.40960356512532425 0.35525552096422541  0.0090033025914298976 0.41006139854355411 0.35542950470408768  0.0087080009490369346 0.4103331718978292 0.3555372482768136  0.0084026664723721427 0.41059441820609216 0.35564486842154808  0.0080865179103009315 0.41084565623023522 0.35575208131811831  0.0077586622799156145 0.41108703744457603 0.35585850361302801  0.0070951422508651043 0.41153783262207155 0.35606327654927766  0.0067614448042329946 0.41174780771797925 0.35616155313011771  0.0064146946898414161 0.41194928836833267 0.35625846637998704  0.0060530028909180043 0.41214221609821261 0.35635365153695231  0.0056746999504737961 0.41232580780790218 0.35644638074733237  0.004724141467711206 0.41274049937078622 0.35666020478620653  0.0041339217066741676 0.4129617418743643 0.35677806832346243  0.0034958166772030407 0.41316203184958267 0.35688778146239064  0.0028012552849477953 0.41333418984775261 0.35698464535619079  0.0020436023350472229 0.41346721775025697 0.35706061015883894  0.00052091703672582819 0.41360825026500486 0.35714157359855109  -0.0001986563932365789 0.41363023020352913 0.35715448460078952  -0.00091884819762835974 0.41360303299942403 0.35713872464820451  -0.0016186573397301909 0.41352864960283969 0.35709534341538679  -0.0022759739784720835 0.4134159969366431 0.35703120034495661  -0.003525437093490541 0.41313882878338265 0.35687618192848541  -0.0041413763530101511 0.41295875795227477 0.35677696438852674  -0.0047112440687570901 0.41275564639556639 0.35666755736851408  -0.0052411712866287548 0.41253507306642656 0.35655202481219828  -0.0057390970569950704 0.41229931452714963 0.35643208991926745  -0.0065828066668715997 0.41184904023492314 0.35621077277984564  -0.0069354511178412745 0.4116429281529384 0.35611188744795008  -0.00727415387569818 0.41142774330994308 0.356011381396027  -0.0076001863683602547 0.4112038350569896 0.35590977972804477  -0.0079148990450107187 0.41097100871191533 0.3558073709579071  -0.0084827534204177189 0.41051908237898416 0.35561525316303055  -0.0087380100404613834 0.41030281708457172 0.35552587041530304  -0.0089861002239122831 0.41007937081549589 0.35543626831620673  -0.0092274093285299574 0.40984847984308898 0.35534663179861803  -0.0094622204641880616 0.40960975930476123 0.35525713549975402  -0.0098676736961346209 0.40917136882714694 0.3550989066558235  -0.01004081564261824 0.40897506817134177 0.3550300562624889  -0.010210262986710267 0.40877353249548815 0.35496148251236997  -0.010376060106531406 0.40856647869948115 0.35489327764202411  -0.010538209856891597 0.40835356980303567 0.35482554338849676  -0.010877567362341092 0.4078842393514665 0.35468173336206205  -0.011053491877788752 0.40762615019413512 0.35460590557938065  -0.011224613718510355 0.40735928136292787 0.35453098455211701  -0.011390824999493088 0.40708282674599744 0.35445714917127596  -0.011551783965250209 0.40679602262586662 0.35438467965751225  -0.011908541241733546 0.4061111337259804 0.35422208000820793  -0.012099993762610931 0.40570613719148746 0.35413331979694923  -0.012281342634546994 0.40527938113670831 0.35404795891985369  -0.012451164255416092 0.40482766111946566 0.35396693937603207  -0.012606740074754349 0.40434823802782294 0.35389185038702636  -0.012897970337980567 0.4032689206581363 0.35375005519574582  -0.013035343860368075 0.40263827845317063 0.35368234454280834  -0.013140145726237399 0.40196453611690963 0.35362999934296452  -0.013202926523576717 0.40126217892902283 0.35359850587180414  -0.013218848102944786 0.40054454286171898 0.35359058489404804  -0.013157967419315943 0.39914844855374737 0.35362100355152931  -0.013088034033507228 0.39850140740360213 0.35365591756943143  -0.012984145671068897 0.39788623602771311 0.35370760678490121  -0.012852515169915429 0.39730525198417088 0.35377253063939645  -0.012699594233896624 0.39676086518486681 0.35384702226505277  -0.012395906143851282 0.39584247683534751 0.35399299852480887  -0.012247885788710534 0.39544970972463905 0.35406348863567128  -0.012090479327139145 0.39507593256006829 0.35413761215276018  -0.011925072453026214 0.39471942476610439 0.35421452789045399  -0.011752382555668461 0.39437824428644008 0.35429372257381536  -0.011422031749842279 0.39377619014754361 0.35444291061197086  -0.011266733752047226 0.39351162849669746 0.35451219900031555  -0.011106877169631166 0.39325590285628814 0.35458259381807372  -0.010942692798001703 0.39300840246820007 0.35465387857915748  -0.010774237902260711 0.3927684892078816 0.35472591021021932  -0.010447202099236224 0.39232764299259254 0.35486348346987689  -0.01028960989190693 0.3921254248794821 0.35492884491511439  -0.010128642135919741 0.39192851206180329 0.35499460804688382  -0.0099642864436563072 0.3917366179249509 0.35506068485117598  -0.009796495499176652 0.39154950042292525 0.35512699463945291  -0.009383100179198996 0.3911090055065658 0.35528739620828054  -0.0091340368816768668 0.39086023827352756 0.35538162746105612  -0.008877703659841649 0.39062001929787304 0.35547596853457053  -0.0086137389560118818 0.39038792080994306 0.35557021878748679  -0.0083416665314494393 0.39016367476352015 0.35566415687208769  -0.007762792642925633 0.38971727008124163 0.35585663788495642  -0.0074553654453151348 0.38949645344746653 0.35595494962600854  -0.0071371168334296159 0.38928388134801151 0.35605241315812108  -0.0068067578643709326 0.38907941619462932 0.35614875768109561  -0.0064630872151365537 0.38888341646605884 0.35624349039290609  -0.005611811274816433 0.3884393607716804 0.35646310438411744  -0.0050951846559891163 0.38820158363625273 0.35658487666278815  -0.004543768758132288 0.38797992428748812 0.35670176865009851  -0.0039486726300984685 0.38777719422428802 0.35681175184236724  -0.0033031046349982652 0.3875999528601296 0.3569100679662755  -0.0020977946644199722 0.38735762491560233 0.35704635175711663  -0.0015456269224427381 0.38727111165460293 0.35709570944395519  -0.00096338215461704707 0.38721102098091037 0.35713054407710798  -0.00036493518390359747 0.38718297077195846 0.35714681373994944  0.00023722928273127789 0.38718877959671832 0.35714337051635592  0.0015935604106717093 0.38727422019424079 0.3570941713484882  0.0023039514776763449 0.3873723031696279 0.35703785138888605  0.0029637872470406491 0.38750747403221836 0.35696098198654069  0.0035760521869781636 0.38767068726153658 0.35687011943191416  0.0041442150415951663 0.38785467210408742 0.35677014762867026  0.005140313875834226 0.38823173114957488 0.35657067500780087  0.0055821952031195636 0.38842324760031571 0.35647141210429573  0.0060010756240713543 0.38862699187229582 0.35636836066488092  0.0063995245259096216 0.38884140493375291 0.35626277298938969  0.006780557766433843 0.38906620403020781 0.35615522997062105  0.0075054055898006984 0.38953308908287471 0.35593893884039401  0.0078488296271208482 0.3897738458997389 0.35583063022068745  0.0081793764746080685 0.39002481912886028 0.35572130683765896  0.0084981014331951179 0.39028605216650303 0.35561141384750483  0.0088059790280392135 0.390558042471365 0.35550125298252344  0.0092868685384227684 0.39101608544605576 0.35532334983917746  0.0094659018895882265 0.39119462149924411 0.35525571054915578  0.0096412370253873021 0.391377667756098 0.35518815821625221  0.0098129748319369936 0.39156541818455382 0.35512077124256064  0.0099811803917452899 0.3917581061849833 0.35505363156222075  0.010317886662737452 0.39216267561681889 0.35491705624235853  0.010485999406866018 0.39237494255817434 0.35484768203264522  0.010650344425209785 0.39259322386526513 0.35477876208364734  0.010810937805055376 0.39281793325396158 0.3547103966641279  0.010967688511863138 0.39304947970499787 0.35464272624024445  0.011295540855126752 0.39356213237457965 0.35449932477535145  0.011465236234597454 0.39384530898407188 0.35442393017470342  0.011629608917090273 0.39413901271334822 0.35434984372799611  0.01178839859674042 0.39444434658037797 0.35427731813071328  0.011941013492624346 0.39476232853715904 0.3542067597769567  0.01228341354797728 0.39554227266772624 0.35404673491299382  0.012467529742521728 0.39601587781087116 0.35395928508562219  0.0126375221114279 0.39651905937956061 0.35387737846404216  0.012790205924293032 0.39705556885308058 0.35380291868939334  0.012920622974942135 0.39762843494264732 0.35373872182135352  0.013077988914567969 0.39857706920966107 0.35366083845772267  0.013125341146396645 0.39892743919916018 0.35363729454225412  0.013162216979632784 0.39928779860961816 0.35361889254375217  0.013187340857689316 0.39965520039060465 0.35360632909031947  0.013199999962683708 0.40002683681394102 0.35360000001865816  0.013200000000000026 0.40040000000000003 0.35360000000000008 
 0 7 0.047193209341343897 5 0.07620060908187927 5 0.1003563490276814 5 0.12184781486198117 5 0.15673826134317886 5 0.18980682495484136 5 0.23602062289144493 5 0.27497705197720618 5 0.31955512868239805 5 0.35401715678890189 5 0.38373671848494334 5 0.40674481235996746 5 0.43300963544742876 5 0.46713063177907993 5 0.50529254468844598 5 0.54116640725059395 5 0.57052262795079889 5 0.59503865380983922 5 0.61690969135605478 5 0.64781704881552127 5 0.68062171008289574 5 0.72578513149665902 5 0.75824275807878039 5 0.80006781790033366 5 0.83701949690686106 5 0.87298744276912754 5 0.89505766578158963 5 0.91810623781535883 5 0.94454057074234898 5 0.98028328191818748 5 1 7
1 0.013200000000000026 0.40040000000000003 0 0 0 1 
1 -0.013199999999999977 0.40040000000000003 0.40639999999999998 1 0 0 
2 -0.013199999999999977 0.40040000000000003 0.38 1 0 0 -0 0 1 0 -1 0 0.026400000000000003
2 0.013200000000000026 0.40040000000000003 0.38 1 0 0 -0 0 1 0 -1 0 0.026400000000000003
2 -0.013199999999999977 0.40040000000000003 0.38 1 0 0 -0 0 1 0 -1 0 0.018957056733575495
1 -0.013199999999999977 0.40040000000000003 0 0 0 1 
2 0.013200000000000026 0.40040000000000003 0.38 1 0 0 -0 0 1 0 -1 0 0.018957056733575495
2 0.013200000000000026 0.40040000000000003 0.38 1 0 0 -0 0 1 0 -1 0 0.018957056733575495
2 2.4517428918930011e-17 0.40040000000000003 0.38 -2.4492935982947064e-16 -1 0 1 -2.4492935982947064e-16 0 0 0 1 0.023100000000000002
Polygon3D 0
PolygonOnTriangulations 0
Surfaces 6
2 2.4517428918930014e-17 0.40040000000000003 0 0 0 1 1 0 -0 -0 1 0 0.013200000000000002
1 2.4517428918930014e-17 0.40040000000000003 0 0 0 1 1 0 -0 -0 1 0 
2 -0.013199999999999977 0.40040000000000003 0.38 1 0 0 -0 0 1 0 -1 0 0.026400000000000003
1 -0.013199999999999977 0.40040000000000003 0.38 1 0 0 -0 0 1 0 -1 0 
1 0.013200000000000026 0.40040000000000003 0.38 1 0 0 -0 0 1 0 -1 0 
4 2.4517428918930014e-17 0.40040000000000003 0.38 0 0 1 1 0 -0 -0 1 0 0.023100000000000002
Triangulations 0

TShapes 54
Ve
1e-07
2.451742891893e-17 0.4004 0
0 0

0101101
*
Ve
1e-07
2.451742891893e-17 0.4004 0.38
0 0

0101101
*
Ve
1e-07
0.0132 0.4004 0
0 0

0101101
*
Ve
1.00001000391633e-07
0.0132 0.4004 0.3536
0 0

0101101
*
Ve
2.00001e-07
-0.0132 0.4004 0.3536
0 0

0101101
*
Ve
1e-07
0.0132 0.4004 0.4064
0 0

0101101
*
Ve
1e-07
-0.0132 0.4004 0.4064
0 0

0101101
*
Ve
2.00001e-07
-0.0132 0.4004 0.361042943266423
0 0

0101101
*
Ve
1e-07
-0.0132 0.4004 0.398957056733576
0 0

0101101
*
Ve
1.00000000202963e-07
0.0131999999999998 0.4004 0.361042943266424
0 0

0101101
*
Ve
2.00001e-07
0.0132 0.4004 0.398957056733576
0 0

0101101
*
Ve
1e-07
2.59318959719452e-17 0.4004 0.4031
0 0

0101101
*
Ve
1e-07
2.59318959719452e-17 0.4004 0.3569
0 0

0101101
*
Ed
 1e-07 1 1 0
1  1 0 0 6.28318530717959
2  1 1 0 0 6.28318530717959
2  2 2 0 0 6.28318530717959
0

0101000
+52 0 -52 0 *
Ed
 1e-07 1 1 0
1  2 0 0 0.500199483622757
2  3 3 0 0 0.500199483622757
2  4 1 0 0 0.500199483622757
0

0101000
+51 0 -50 0 *
Ed
 1e-07 1 1 0
1  2 0 0.500199483622757 1
2  3 3 0 0.500199483622757 1
2  4 1 0 0.500199483622757 1
0

0101000
+50 0 -51 0 *
Ed
 1e-07 1 1 0
1  3 0 0 0.3536
3  5 6CN 1 0 0 0.3536
0

0101000
+52 0 -51 0 *
Ed
 1e-07 1 1 0
1  4 0 0 0.0264
3  7 8CN 3 0 0 0.0264
0

0101000
-49 0 +48 0 *
Ed
 1e-07 1 1 0
1  5 0 3.14159265358979 6.28318530717959
2  9 3 0 3.14159265358979 6.28318530717959
2  10 4 0 3.14159265358979 6.28318530717959
0

0101000
+50 0 -48 0 *
Ed
 1e-07 1 1 0
1  6 0 3.14159265358979 6.28318530717959
2  11 3 0 3.14159265358979 6.28318530717959
2  12 5 0 3.14159265358979 6.28318530717959
0

0101000
+51 0 -49 0 *
Ed
 1e-07 1 1 0
1  6 0 0 3.14159265358979
2  11 3 0 0 3.14159265358979
2  12 5 0 0 3.14159265358979
0

0101000
+49 0 -51 0 *
Ed
 1e-07 1 1 0
1  5 0 0 3.14159265358979
2  9 3 0 0 3.14159265358979
2  10 4 0 0 3.14159265358979
0

0101000
+48 0 -50 0 *
Ed
 1e-07 1 1 0
1  7 0 3.14159265358979 6.28318530717959
2  13 4 0 3.14159265358979 6.28318530717959
2  14 6 0 3.14159265358979 6.28318530717959
0

0101000
+47 0 -46 0 *
Ed
 1e-07 1 1 0
1  7 0 0 3.14159265358979
2  13 4 0 0 3.14159265358979
2  14 6 0 0 3.14159265358979
0

0101000
+46 0 -47 0 *
Ed
 1e-07 1 1 0
1  8 0 0.3536 0.361042943266423
2  15 4 0 0.3536 0.361042943266423
2  16 1 0 0.3536 0.361042943266423
0

0101000
+50 0 -47 0 *
Ed
 1e-07 1 1 0
1  9 0 3.14159265358979 6.28318530717959
2  17 5 0 3.14159265358979 6.28318530717959
2  18 6 0 3.14159265358979 6.28318530717959
0

0101000
+45 0 -44 0 *
Ed
 1e-07 1 1 0
1  10 0 0 3.14159265358979
2  19 5 0 0 3.14159265358979
2  20 6 0 0 3.14159265358979
0

0101000
+44 0 -45 0 *
Ed
 1e-07 1 1 0
1  3 0 0.3536 0.361042943266424
3  5 6CN 1 0 0.3536 0.361042943266424
2  21 5 0 0.3536 0.361042943266424
0

0101000
+51 0 -45 0 *
Ed
 1e-07 1 1 0
1  11 0 7.24573605506427 7.85398163397448
3  22 23CN 6 0 7.24573605506427 7.85398163397448
0

0101000
+44 0 -43 0 *
Ed
 1e-07 1 1 0
1  11 0 4.71238898038469 5.32063455929489
3  22 23CN 6 0 4.71238898038469 5.32063455929489
0

0101000
+42 0 -45 0 *
Ed
 1e-07 1 1 1
2  24 6 0 0 6.28318530717959
0

0101000
+42 0 -42 0 *
Ed
 1e-07 1 1 1
2  25 6 0 0 6.28318530717959
0

0101000
+43 0 -43 0 *
Wi

0101100
-41 0 *
Wi

0101100
-40 0 -39 0 +38 0 +41 0 -38 0 *
Wi

0101100
+37 0 +36 0 +40 0 -35 0 *
Wi

0101100
-34 0 +39 0 +33 0 -37 0 *
Wi

0101100
+36 0 +33 0 *
Wi

0101100
-32 0 -31 0 *
Wi

0101000
i30 0 *
Wi

0101100
+35 0 +34 0 *
Wi

0101100
-29 0 -28 0 *
Wi

0101000
i27 0 *
Wi

0101100
+26 0 -28 0 +25 0 +24 0 -25 0 -29 0 -26 0 -23 0 *
Wi

0101100
+32 0 +31 0 *
Fa
0  1e-07 2 0

0111000
-22 0 *
Fa
0  1e-07 1 0

0111000
+21 0 *
Fa
0  1e-07 3 0

0111000
+20 0 *
Fa
0  1e-07 3 0

0111000
+19 0 *
Fa
0  1e-07 4 0

0101000
+18 0 +17 0 +16 0 *
Fa
0  1e-07 5 0

0101000
+15 0 +14 0 +13 0 *
Fa
0  1e-07 6 0

0111000
+12 0 +11 0 *
Sh

0101100
-10 0 +9 0 +8 0 +7 0 -6 0 +5 0 -4 0 *
So

0100000
+3 0 *
Co

1100000
+54 0 +53 0 -52 0 -51 0 +50 0 -49 0 +48 0 +47 0 -46 0 -45 0 
+44 0 +43 0 -42 0 -41 0 -40 0 -39 0 +38 0 +37 0 +36 0 -35 0 
-34 0 +33 0 +32 0 +31 0 i30 0 -29 0 -28 0 i27 0 -26 0 -25 0 
-24 0 +23 0 +22 0 +21 0 +20 0 +19 0 -18 0 -17 0 -16 0 +15 0 
+14 0 +13 0 -12 0 -11 0 -10 0 +9 0 +8 0 +7 0 -6 0 +5 0 
-4 0 +3 0 +2 0 *

+1 0 