DBRep_DrawableShape

CASCADE Topology V1, (c) Matra-Datavision
Locations 0
Curve2ds 12
1 0 0.78539816339744828 1 0 
2 0 0 1 0 -0 1 0.14142135623730953
1 6.2831853071795862 -6.2831853071795862 0 1 
1 0 -6.2831853071795862 0 1 
1 0 -0.78539816339744828 1 0 
2 0 0 1 0 -0 1 0.14142135623730953
2 0 0 1 0 -0 1 0.066000000000000003
1 0 0.54142135623730958 1 0 
2 0 0 1 0 -0 1 0.066000000000000003
1 0 0.25857864376269052 1 0 
1 6.2831853071795862 -0 0 1 
1 0 -0 0 1 
Curves 6
2 0 0 0.54142135623730958 0 0 1 1 0 -0 -0 1 0 0.14142135623730953
2 0 0 0.40000000000000002 -2.4492935982947064e-16 -1 0 1 -2.4492935982947064e-16 0 0 0 1 0.20000000000000001
2 0 0 0.25857864376269052 0 0 1 1 0 -0 -0 1 0 0.14142135623730953
2 0 0 0.54142135623730958 0 0 1 1 0 -0 -0 1 0 0.066000000000000003
2 0 0 0.25857864376269052 0 0 1 1 0 -0 -0 1 0 0.066000000000000003
1 0.066000000000000003 -1.6165337748745064e-17 0 0 0 1 
Polygon3D 0
PolygonOnTriangulations 0
Surfaces 4
4 0 0 0.40000000000000002 0 0 1 1 0 -0 -0 1 0 0.20000000000000001
1 0 0 0.54142135623730958 0 0 1 1 0 -0 -0 1 0 
1 0 0 0.25857864376269052 0 0 1 1 0 -0 -0 1 0 
2 0 0 0 0 0 1 1 0 -0 -0 1 0 0.066000000000000003
Triangulations 0

TShapes 23
Ve
1e-07
0.14142135623731 -3.46382422494197e-17 0.54142135623731
0 0

0101101
*
Ve
1e-07
0.14142135623731 -3.46382422494197e-17 0.258578643762691
0 0

0101101
*
Ve
2.00001e-07
0.066 -1.61653377487451e-17 0.54142135623731
0 0

0101101
*
Ve
2.00001e-07
0.066 -1.61653377487451e-17 0.258578643762691
0 0

0101101
*
Ed
 1e-07 1 1 0
1  1 0 0 6.28318530717959
2  1 1 0 0 6.28318530717959
2  2 2 0 0 6.28318530717959
0

0101000
+23 0 -23 0 *
Ed
 1e-07 1 1 0
1  2 0 5.49778714378214 7.06858347057703
3  3 4CN 1 0 5.49778714378214 7.06858347057703
0

0101000
-23 0 +22 0 *
Ed
 1e-07 1 1 0
1  3 0 0 6.28318530717959
2  5 1 0 0 6.28318530717959
2  6 3 0 0 6.28318530717959
0

0101000
+22 0 -22 0 *
Ed
 1e-07 1 1 0
1  4 0 0 6.28318530717959
2  7 2 0 0 6.28318530717959
2  8 4 0 0 6.28318530717959
0

0101000
+21 0 -21 0 *
Ed
 1e-07 1 1 0
1  5 0 0 6.28318530717959
2  9 3 0 0 6.28318530717959
2  10 4 0 0 6.28318530717959
0

0101000
+20 0 -20 0 *
Ed
 1e-07 1 1 0
1  6 0 0.258578643762691 0.54142135623731
3  11 12CN 4 0 0.258578643762691 0.54142135623731
0

0101000
+20 0 -21 0 *
Wi

0101100
-19 0 +18 0 +17 0 -18 0 *
Wi

0101100
+19 0 *
Wi

0101100
-16 0 *
Wi

0101100
+17 0 *
Wi

0101100
-15 0 *
Wi

0101100
-16 0 +14 0 +15 0 -14 0 *
Fa
0  1e-07 1 0

0111000
+13 0 *
Fa
0  1e-07 2 0

0111000
+12 0 +11 0 *
Fa
0  1e-07 3 0

0111000
+10 0 +9 0 *
Fa
0  1e-07 4 0

0111000
+8 0 *
Sh

0101100
+7 0 +6 0 -5 0 -4 0 *
So

0100000
+3 0 *
Co

1100000
-23 0 +22 0 -21 0 +20 0 -19 0 +18 0 +17 0 -16 0 +15 0 -14 0 
+13 0 +12 0 +11 0 -10 0 -9 0 -8 0 +7 0 +6 0 -5 0 -4 0 
+3 0 +2 0 *

+1 0 