DBRep_DrawableShape

CASCADE Topology V1, (c) Matra-Datavision
Locations 1
1
-2.22044604925031e-16               1               0               0 
             -1 -2.22044604925031e-16               0               0 
              0               0               1               0 
Curve2ds 46
1 0 0 1 0 
1 0 0 1 0 
8 -4.0000000001150227e-07 0.072599999999999998
1 5.5534576509526197 0 0 1 
8 -4.0000000001150227e-07 0.072599999999999998
1 0.010083902697002767 -0.066000000000000003 0 1 
8 -4.0000000001150227e-07 0.072599999999999998
1 3.8713203098167592 0 0 1 
8 -4.0000000001150227e-07 0.072599999999999998
1 0.06911609730299717 -0.066000000000000003 0 1 
1 0 -0.066000000000000003 1 0 
1 0 0 1 0 
1 0.039599999999999969 -0.026399999999999979 -1 0 
1 0 0 1 0 
2 0 0 1 0 -0 1 0.0066000000000000008
2 0.039599999999999969 -0.039599999999999996 1 0 -0 1 0.0066000000000000503
1 0 0.066000000000000003 1 0 
2 0.039599999999999969 0.026399999999999979 -1 0 0 1 0.039600000000000003
1 0 0 1 0 
1 0 0.052800000000000014 1 0 
1 0 0.066000000000000003 1 0 
2 0.039599999999999969 0.026399999999999979 -1 0 0 1 0.039600000000000003
1 0 0.066000000000000003 1 0 
2 0.039599999999999969 0.026399999999999979 -1 0 0 1 0.039600000000000003
1 0 0 1 0 
2 0 0 1 0 -0 1 0.039600000000000003
8 -4.0000000001150227e-07 0.072599999999999998
1 2.4118649973628257 0 0 1 
8 -4.0000000001150227e-07 0.072599999999999998
1 0.06911609730299717 -0.066000000000000003 0 1 
8 -4.0000000001150227e-07 0.072599999999999998
1 0.72972765622696734 0 0 1 
8 -4.0000000001150227e-07 0.072599999999999998
1 0.010083902697002767 -0.066000000000000003 0 1 
1 6.2831853071795862 -0 0 1 
1 0 -0 0 1 
7 0 0  8 9 2  0 0.18699999999999997  0.39269908169872414 0.17144911636473048  0.78539816339548452 0.15589810873437671  1.1780972451042544 0.14400274265466351  1.5707963267777814 0.13940877756624559  1.963495408504059 0.14400274265494772  2.3561944901903189 0.15589810873430565  2.748893571891069 0.17144911636473048  3.1415926535897931 0.18699999999999997 
 1.5707963267948966 9 4.7123889803846897 9
7 0 0  8 9 2  3.1415926535897931 0.047167359695561711  3.5342917352885173 0.062718243330831189  3.9269908169849259 0.07826925096124171  4.3196898986770975 0.090164617040386474  4.7123889803733618 0.094758582128804392  5.1050880620787211 0.090164617040670691  5.4977871437804424 0.078269250961227499  5.8904862254808616 0.062718243330831189  6.2831853071795862 0.047167359695561711 
 1.5707963267948966 9 4.7123889803846897 9
7 0 0  8 9 2  3.1415926535897931 0.18699999999999997  3.5342917352885741 0.17144911636472823  3.9269908169901768 0.15589810873427723  4.3196898986809842 0.14400274265443613  4.7123889803945289 0.13940877756681402  5.1050880620789698 0.14400274265460666  5.4977871437856933 0.15589810873427723  5.8904862254812596 0.17144911636474625  6.2831853071800401 0.18700000000001799 
 1.5707963267948966 9 4.7123889803851444 9
7 0 0  8 9 2  6.2831853071795862 0.047167359695561711  5.8904862254808057 0.031616476060289986  5.4977871437845565 0.016065468429819596  5.1050880620798793 0.0041701023505531509  4.7123889803927099 -0.00042386273799621677  4.3196898986791652 0.0041701023505567036  3.9269908169888126 0.016065468429836471  3.5342917352881198 0.031616476060307971  3.1415926535893388 0.047167359695579697 
 1.5707963267948966 9 4.7123889803851444 9
1 6.2831853071795862 -0 0 1 
1 0 -0 0 1 
1 0 0.052800000000000007 1 0 
2 0 0 1 0 -0 1 0.0066000000000000008
2 0.039599999999999969 -0.039599999999999996 1 0 -0 1 0.0066000000000000503
1 0 -0.066000000000000003 1 0 
1 0 0.052800000000000014 1 0 
1 0.039599999999999969 0.026400000000000035 -1 0 
1 6.2831853071795862 -0 0 1 
1 0 -0 0 1 
1 0 0 1 0 
2 0 0 1 0 -0 1 0.039600000000000003
1 0 0.187 1 0 
2 0 0 1 0 -0 1 0.039600000000000003
Curves 21
1 0.25176735969556174 0.12099999999999997 0.86040000000000005 0 0 1 
1 0.25176735969556174 0.18699999999999997 0.87048390269700282 0 -1 0 
1 0.25176735969556174 0.18699999999999997 0.92951609730299722 0 -1 0 
1 0.25176735969556174 0.18699999999999997 0.86040000000000005 0 0 1 
2 0.25176735969556174 0.16059999999999997 0.90000000000000002 1 0 0 -0 0 1 0 -1 0 0.0066000000000000008
2 0.27816735969556172 0.12099999999999997 0.90000000000000002 0 -1 0 0 -0 -1 1 0 0 0.039600000000000003
1 0.30456735969556176 0.12099999999999997 0.86040000000000005 0 0 1 
2 0.27816735969556172 0.12099999999999997 0.90000000000000002 0 -1 0 0 -0 -1 1 0 0 0.039600000000000003
2 0.27816735969556172 0.12099999999999997 0.90000000000000002 0 -1 0 0 -0 -1 1 0 0 0.039600000000000003
2 0.27816735969556172 0.18699999999999997 0.90000000000000002 0 -1 0 0 -0 -1 1 0 0 0.039600000000000003
1 0.30456735969556176 0.18699999999999997 0.92951609730299722 0 -1 0 
1 0.30456735969556176 0.18699999999999997 0.87048390269700282 0 -1 0 
1 0.27816735969556172 0.18699999999999997 0.86040000000000005 0 -1 0 
3 0.27816735969556172 0 0.90000000000000002 0.70710678118654746 -0.70710678118654746 0 -0.70710678118654746 -0.70710678118654746 0 0 -0 -1 0.056002857069974571 0.039600000000000003
3 0.27816735969556172 0 0.90000000000000002 -0.70710678118654746 -0.70710678118654746 0 0.70710678118654746 -0.70710678118654746 0 0 0 1 0.056002857069974571 0.039600000000000003
1 0.25176735969556174 0.16059999999999997 0.90660000000000007 1 0 0 
2 0.30456735969556176 0.16059999999999997 0.90000000000000002 1 0 0 -0 0 1 0 -1 0 0.0066000000000000008
1 0.30456735969556176 0.18699999999999997 0.86040000000000005 0 0 1 
1 0.23100000000000001 9.6992026492470455e-18 0.93959999999999999 1 0 0 
2 0.23100000000000001 0 0.90000000000000002 1 0 0 -0 0 1 0 -1 0 0.039600000000000003
2 0.41800000000000004 0 0.90000000000000002 1 0 0 -0 0 1 0 -1 0 0.039600000000000003
Polygon3D 0
PolygonOnTriangulations 0
Surfaces 12
1 0.25176735969556174 0.12099999999999997 0.86040000000000005 1 0 -0 0 0 1 0 -1 0 
1 0.25176735969556174 0.12099999999999997 0.86040000000000005 -0 1 0 0 0 1 1 0 -0 
2 0.27816735969556172 0.18699999999999997 0.90000000000000002 0 -1 0 0 -0 -1 1 0 0 0.039600000000000003
1 0.25176735969556174 0.18699999999999997 0.86040000000000005 -0 1 0 0 0 1 1 0 -0 
1 0.27816735969556172 0.18699999999999997 0.90000000000000002 0 -1 0 0 -0 -1 1 0 0 
2 0.25176735969556174 0.16059999999999997 0.90000000000000002 1 0 0 -0 0 1 0 -1 0 0.0066000000000000008
1 0.25176735969556174 0.16059999999999997 0.90000000000000002 1 0 0 -0 0 1 0 -1 0 
1 0.30456735969556176 0.12099999999999997 0.86040000000000005 1 0 -0 0 0 1 0 -1 0 
2 0.23100000000000001 0 0.90000000000000002 1 0 0 -0 0 1 0 -1 0 0.039600000000000003
1 0.30456735969556176 0.16059999999999997 0.90000000000000002 1 0 0 -0 0 1 0 -1 0 
1 0.23100000000000001 0 0.90000000000000002 1 0 0 -0 0 1 0 -1 0 
1 0.41800000000000004 0 0.90000000000000002 1 0 0 -0 0 1 0 -1 0 
Triangulations 0

TShapes 66
Ve
2.00001e-07
0.251767359695562 0.121 0.870483902696999
0 0

0101101
*
Ve
2.00001e-07
0.251767359695562 0.121 0.929516097303001
0 0

0101101
*
Ve
1.00000000027756e-07
0.251767359695562 0.187 0.870483902697003
0 0

0101101
*
Ve
1.00000000305311e-07
0.251767359695562 0.187 0.929516097302998
0 0

0101101
*
Ve
1e-07
0.251767359695562 0.1606 0.9066
0 0

0101101
*
Ve
1.00001000002876e-07
0.278167359695562 0.121 0.8604
0 0

0101101
*
Ve
2.00001e-07
0.304567359695562 0.121 0.870483902697002
0 0

0101101
*
Ve
2.00001e-07
0.304567359695562 0.121 0.929516097302998
0 0

0101101
*
Ve
2.00001e-07
0.278167359695562 0.121 0.9396
0 0

0101101
*
Ve
1.00000000305311e-07
0.304567359695561 0.187 0.929516097302998
0 0

0101101
*
Ve
1.00000000027756e-07
0.304567359695562 0.187 0.870483902697003
0 0

0101101
*
Ve
5.65686399473682e-07
0.278167359695562 0 0.8604
0 0

0101101
*
Ve
1.0000000000485e-07
0.278167359695562 4.84960132462352e-18 0.9396
0 0

0101101
*
Ve
1e-07
0.304567359695562 0.1606 0.9066
0 0

0101101
*
Ve
1e-07
0.418 9.69920264924705e-18 0.9396
0 0

0101101
*
Ve
1e-07
0.231 9.69920264924705e-18 0.9396
0 0

0101101
*
Ed
 1e-07 1 1 0
1  1 0 0.0100839026969985 0.0691160973030014
2  1 1 0 0.0100839026969985 0.0691160973030014
2  2 2 0 0.0100839026969985 0.0691160973030014
0

0101000
+66 0 -65 0 *
Ed
 1e-07 1 1 0
1  2 0 0 0.066
2  3 3 0 0 0.066
2  4 1 0 0 0.066
0

0101000
+64 0 -66 0 *
Ed
 1e-07 1 1 0
1  3 0 0 0.066
2  5 3 0 0 0.066
2  6 1 0 0 0.066
0

0101000
+63 0 -65 0 *
Ed
 1e-07 1 1 0
1  4 0 0.0100839026970027 0.0691160973029978
2  7 1 0 0.0100839026970027 0.0691160973029978
2  8 4 0 0.0100839026970027 0.0691160973029978
2  9 5 0 0.0100839026970027 0.0691160973029978
0

0101000
+64 0 -63 0 *
Ed
 1e-07 1 1 0
1  5 0 0 6.28318530717959
2  10 6 0 0 6.28318530717959
2  11 7 0 0 6.28318530717959
2  12 1 0 0 6.28318530717959
0

0101000
+62 0 -62 0 *
Ed
 1e-07 1 1 0
1  6 0 0 0.729727656226958
2  13 3 0 0 0.729727656226958
2  14 2 0 0 0.729727656226958
0

0101000
+61 0 -60 0 *
Ed
 1e-07 1 1 0
1  7 0 0.0100839026970022 0.0691160973029977
2  15 8 0 0.0100839026970022 0.0691160973029977
2  16 2 0 0.0100839026970022 0.0691160973029977
0

0101000
+60 0 -59 0 *
Ed
 1e-07 1 1 0
1  8 0 2.41186499736283 3.14159265358979
2  17 3 0 2.41186499736283 3.14159265358979
2  18 2 0 2.41186499736283 3.14159265358979
0

0101000
+59 0 -58 0 *
Ed
 1e-07 1 1 0
1  8 0 3.14159265358979 3.87132030981669
2  17 3 0 3.14159265358979 3.87132030981669
2  18 2 0 3.14159265358979 3.87132030981669
0

0101000
+58 0 -65 0 *
Ed
 1e-07 1 1 0
1  9 0 5.55345765095269 6.28318530717959
2  19 3 0 5.55345765095269 6.28318530717959
2  20 2 0 5.55345765095269 6.28318530717959
0

0101000
+66 0 -61 0 *
Ed
 1e-07 1 1 0
1  10 0 3.87132030981674 5.55345765095262
2  21 3 0 3.87132030981674 5.55345765095262
2  22 5 0 3.87132030981674 5.55345765095262
0

0101000
+63 0 -64 0 *
Ed
 1e-07 1 1 0
1  11 0 0 0.066
2  23 3 0 0 0.066
2  24 8 0 0 0.066
0

0101000
+57 0 -59 0 *
Ed
 1e-07 1 1 0
1  10 0 0.729727656226965 2.41186499736284
2  21 3 0 0.729727656226965 2.41186499736284
2  22 5 0 0.729727656226965 2.41186499736284
0

0101000
+56 0 -57 0 *
Ed
 1e-07 1 1 0
1  12 0 -0 0.066
2  25 3 0 -0 0.066
2  26 8 0 -0 0.066
0

0101000
+56 0 -60 0 *
Ed
 1e-07 1 1 0
1  13 0 0.066 0.187
3  27 28CN 3 0 0.066 0.187
0

0101000
+61 0 -55 0 *
Ed
 1e-07 1 1 0
1  14 0 1.5707963267949 4.71238898038469
2  29 3 0 1.5707963267949 4.71238898038469
2  30 9 0 1.5707963267949 4.71238898038469
0

0101000
+55 0 -54 0 *
Ed
 1e-07 1 1 0
1  15 0 1.5707963267949 4.71238898038514
2  31 3 0 1.5707963267949 4.71238898038514
2  32 9 0 1.5707963267949 4.71238898038514
0

0101000
+54 0 -55 0 *
Ed
 1e-07 1 1 0
1  16 0 0 0.0528
3  33 34CN 6 0 0 0.0528
0

0101000
-53 0 +62 0 *
Ed
 1e-07 1 1 0
1  17 0 0 6.28318530717959
2  35 6 0 0 6.28318530717959
2  36 10 0 0 6.28318530717959
2  37 8 0 0 6.28318530717959
0

0101000
+53 0 -53 0 *
Ed
 1e-07 1 1 0
1  18 0 0.0100839026970027 0.0691160973029977
2  38 8 0 0.0100839026970027 0.0691160973029977
2  39 4 0 0.0100839026970027 0.0691160973029977
2  40 5 0 0.0100839026970027 0.0691160973029977
0

0101000
+56 0 -57 0 *
Ed
 1e-07 1 1 0
1  19 0 0.0471673596955617 0.187
3  41 42CN 9 0 0.0471673596955617 0.187
0

0101000
+54 0 -52 0 *
Ed
 1e-07 1 1 0
1  19 0 0 0.0471673596955617
3  41 42CN 9 0 0 0.0471673596955617
0

0101000
+51 0 -54 0 *
Ed
 1e-07 1 1 0
1  20 0 0 6.28318530717959
2  43 9 0 0 6.28318530717959
2  44 11 0 0 6.28318530717959
0

0101000
+51 0 -51 0 *
Ed
 1e-07 1 1 0
1  21 0 0 6.28318530717959
2  45 9 0 0 6.28318530717959
2  46 12 0 0 6.28318530717959
0

0101000
+52 0 -52 0 *
Wi

0101100
-50 0 -49 0 +48 0 +47 0 *
Wi

0101100
-46 0 *
Wi

0101100
-45 0 -44 0 -43 0 -42 0 +50 0 -41 0 *
Wi

0101100
+49 0 +40 0 -48 0 +42 0 +43 0 +39 0 +38 0 -37 0 +45 0 -36 0 
-35 0 -34 0 +36 0 +41 0 *
Wi

0101100
+40 0 +47 0 *
Wi

0101100
+33 0 +46 0 -33 0 -32 0 *
Wi

0101100
-44 0 -37 0 +39 0 +31 0 *
Wi

0101100
-32 0 *
Wi

0101100
-31 0 +38 0 *
Wi

0101100
+30 0 +29 0 +28 0 -29 0 -30 0 -27 0 *
Wi

0101100
+35 0 +34 0 *
Wi

0101100
-28 0 *
Wi

0101100
+27 0 *
Fa
0  1e-07 1 0

0111000
+26 0 +25 0 *
Fa
0  1e-07 2 0

0111000
+24 0 *
Fa
0  1e-07 3 0

0111000
+23 0 *
Fa
0  1e-07 5 0

0101000
+22 0 *
Fa
0  1e-07 6 0

0101000
+21 0 *
Fa
0  1e-07 8 0

0111000
+20 0 +19 0 *
Fa
0  1e-07 5 0

0101000
+18 0 *
Fa
0  1e-07 9 0

0111000
+17 0 +16 0 *
Fa
0  1e-07 11 0

0101000
-15 0 *
Fa
0  1e-07 12 0

0101000
+14 0 *
Sh

0101100
+13 0 +12 0 +11 0 -10 0 +9 0 -8 0 -7 0 +6 0 -5 0 +4 0 
*
So

0100000
+3 0 *
Co

1100000
-66 1 +65 1 -64 1 +63 1 -62 1 -61 1 +60 1 +59 1 +58 1 +57 1 
+56 1 +55 1 +54 1 -53 1 -52 1 +51 1 -50 1 -49 1 +48 1 +47 1 
-46 1 -45 1 -44 1 -43 1 -42 1 -41 1 +40 1 +39 1 +38 1 -37 1 
-36 1 -35 1 -34 1 +33 1 -32 1 -31 1 +30 1 +29 1 +28 1 -27 1 
+26 1 +25 1 +24 1 +23 1 -22 1 +21 1 -20 1 -19 1 -18 1 +17 1 
+16 1 +15 1 +14 1 +13 1 +12 1 +11 1 -10 1 +9 1 -8 1 -7 1 
+6 1 -5 1 +4 1 +3 1 +2 1 *

+1 0 