DBRep_DrawableShape

CASCADE Topology V1, (c) Matra-Datavision
Locations 0
Curve2ds 46
1 0 0 1 0 
1 0 0 1 0 
8 -4.0000000001150227e-07 0.072599999999999998
1 5.5534576509526197 0 0 1 
8 -4.0000000001150227e-07 0.072599999999999998
1 0.010083902697002767 -0.066000000000000003 0 1 
8 -4.0000000001150227e-07 0.072599999999999998
1 3.8713203098167592 0 0 1 
8 -4.0000000001150227e-07 0.072599999999999998
1 0.06911609730299717 -0.066000000000000003 0 1 
1 0 -0.066000000000000003 1 0 
1 0 0 1 0 
1 0.039599999999999969 -0.026399999999999979 -1 0 
1 0 0 1 0 
2 0 0 1 0 -0 1 0.0066000000000000008
2 0.039599999999999969 -0.039599999999999996 1 0 -0 1 0.0066000000000000503
1 0 0.066000000000000003 1 0 
2 0.039599999999999969 0.026399999999999979 -1 0 0 1 0.039600000000000003
1 0 0 1 0 
1 0 0.052800000000000014 1 0 
1 0 0.066000000000000003 1 0 
2 0.039599999999999969 0.026399999999999979 -1 0 0 1 0.039600000000000003
1 0 0.066000000000000003 1 0 
2 0.039599999999999969 0.026399999999999979 -1 0 0 1 0.039600000000000003
1 0 0 1 0 
2 0 0 1 0 -0 1 0.039600000000000003
8 -4.0000000001150227e-07 0.072599999999999998
1 2.4118649973628257 0 0 1 
8 -4.0000000001150227e-07 0.072599999999999998
1 0.06911609730299717 -0.066000000000000003 0 1 
8 -4.0000000001150227e-07 0.072599999999999998
1 0.72972765622696734 0 0 1 
8 -4.0000000001150227e-07 0.072599999999999998
1 0.010083902697002767 -0.066000000000000003 0 1 
1 6.2831853071795862 -0 0 1 
1 0 -0 0 1 
7 0 0  8 9 2  0 0.18699999999999997  0.39269908169872414 0.17144911636473048  0.78539816339548452 0.15589810873437671  1.1780972451042544 0.14400274265466351  1.5707963267777814 0.13940877756624559  1.963495408504059 0.14400274265494772  2.3561944901903189 0.15589810873430565  2.748893571891069 0.17144911636473048  3.1415926535897931 0.18699999999999997 
 1.5707963267948966 9 4.7123889803846897 9
7 0 0  8 9 2  3.1415926535897931 0.047167359695561711  3.5342917352885173 0.062718243330831189  3.9269908169849259 0.07826925096124171  4.3196898986770975 0.090164617040386474  4.7123889803733618 0.094758582128804392  5.1050880620787211 0.090164617040670691  5.4977871437804424 0.078269250961227499  5.8904862254808616 0.062718243330831189  6.2831853071795862 0.047167359695561711 
 1.5707963267948966 9 4.7123889803846897 9
7 0 0  8 9 2  3.1415926535897931 0.18699999999999997  3.5342917352885741 0.17144911636472823  3.9269908169901768 0.15589810873427723  4.3196898986809842 0.14400274265443613  4.7123889803945289 0.13940877756681402  5.1050880620789698 0.14400274265460666  5.4977871437856933 0.15589810873427723  5.8904862254812596 0.17144911636474625  6.2831853071800401 0.18700000000001799 
 1.5707963267948966 9 4.7123889803851444 9
7 0 0  8 9 2  6.2831853071795862 0.047167359695561711  5.8904862254808057 0.031616476060289986  5.4977871437845565 0.016065468429819596  5.1050880620798793 0.0041701023505531509  4.7123889803927099 -0.00042386273799621677  4.3196898986791652 0.0041701023505567036  3.9269908169888126 0.016065468429836471  3.5342917352881198 0.031616476060307971  3.1415926535893388 0.047167359695579697 
 1.5707963267948966 9 4.7123889803851444 9
1 6.2831853071795862 -0 0 1 
1 0 -0 0 1 
1 0 0.052800000000000007 1 0 
2 0 0 1 0 -0 1 0.0066000000000000008
2 0.039599999999999969 -0.039599999999999996 1 0 -0 1 0.0066000000000000503
1 0 -0.066000000000000003 1 0 
1 0 0.052800000000000014 1 0 
1 0.039599999999999969 0.026400000000000035 -1 0 
1 6.2831853071795862 -0 0 1 
1 0 -0 0 1 
1 0 0 1 0 
2 0 0 1 0 -0 1 0.039600000000000003
1 0 0.187 1 0 
2 0 0 1 0 -0 1 0.039600000000000003
Curves 21
1 0.25176735969556174 0.12099999999999997 0.86040000000000005 0 0 1 
1 0.25176735969556174 0.18699999999999997 0.87048390269700282 0 -1 0 
1 0.25176735969556174 0.18699999999999997 0.92951609730299722 0 -1 0 
1 0.25176735969556174 0.18699999999999997 0.86040000000000005 0 0 1 
2 0.25176735969556174 0.16059999999999997 0.90000000000000002 1 0 0 -0 0 1 0 -1 0 0.0066000000000000008
2 0.27816735969556172 0.12099999999999997 0.90000000000000002 0 -1 0 0 -0 -1 1 0 0 0.039600000000000003
1 0.30456735969556176 0.12099999999999997 0.86040000000000005 0 0 1 
2 0.27816735969556172 0.12099999999999997 0.90000000000000002 0 -1 0 0 -0 -1 1 0 0 0.039600000000000003
2 0.27816735969556172 0.12099999999999997 0.90000000000000002 0 -1 0 0 -0 -1 1 0 0 0.039600000000000003
2 0.27816735969556172 0.18699999999999997 0.90000000000000002 0 -1 0 0 -0 -1 1 0 0 0.039600000000000003
1 0.30456735969556176 0.18699999999999997 0.92951609730299722 0 -1 0 
1 0.30456735969556176 0.18699999999999997 0.87048390269700282 0 -1 0 
1 0.27816735969556172 0.18699999999999997 0.86040000000000005 0 -1 0 
3 0.27816735969556172 0 0.90000000000000002 0.70710678118654746 -0.70710678118654746 0 -0.70710678118654746 -0.70710678118654746 0 0 -0 -1 0.056002857069974571 0.039600000000000003
3 0.27816735969556172 0 0.90000000000000002 -0.70710678118654746 -0.70710678118654746 0 0.70710678118654746 -0.70710678118654746 0 0 0 1 0.056002857069974571 0.039600000000000003
1 0.25176735969556174 0.16059999999999997 0.90660000000000007 1 0 0 
2 0.30456735969556176 0.16059999999999997 0.90000000000000002 1 0 0 -0 0 1 0 -1 0 0.0066000000000000008
1 0.30456735969556176 0.18699999999999997 0.86040000000000005 0 0 1 
1 0.23100000000000001 9.6992026492470455e-18 0.93959999999999999 1 0 0 
2 0.23100000000000001 0 0.90000000000000002 1 0 0 -0 0 1 0 -1 0 0.039600000000000003
2 0.41800000000000004 0 0.90000000000000002 1 0 0 -0 0 1 0 -1 0 0.039600000000000003
Polygon3D 0
PolygonOnTriangulations 0
Surfaces 12
1 0.25176735969556174 0.12099999999999997 0.86040000000000005 1 0 -0 0 0 1 0 -1 0 
1 0.25176735969556174 0.12099999999999997 0.86040000000000005 -0 1 0 0 0 1 1 0 -0 
2 0.27816735969556172 0.18699999999999997 0.90000000000000002 0 -1 0 0 -0 -1 1 0 0 0.039600000000000003
1 0.25176735969556174 0.18699999999999997 0.86040000000000005 -0 1 0 0 0 1 1 0 -0 
1 0.27816735969556172 0.18699999999999997 0.90000000000000002 0 -1 0 0 -0 -1 1 0 0 
2 0.25176735969556174 0.16059999999999997 0.90000000000000002 1 0 0 -0 0 1 0 -1 0 0.0066000000000000008
1 0.25176735969556174 0.16059999999999997 0.90000000000000002 1 0 0 -0 0 1 0 -1 0 
1 0.30456735969556176 0.12099999999999997 0.86040000000000005 1 0 -0 0 0 1 0 -1 0 
2 0.23100000000000001 0 0.90000000000000002 1 0 0 -0 0 1 0 -1 0 0.039600000000000003
1 0.30456735969556176 0.16059999999999997 0.90000000000000002 1 0 0 -0 0 1 0 -1 0 
1 0.23100000000000001 0 0.90000000000000002 1 0 0 -0 0 1 0 -1 0 
1 0.41800000000000004 0 0.90000000000000002 1 0 0 -0 0 1 0 -1 0 
Triangulations 10
21 21 1 2.94474100297521e-16
0.251767359695562 0.121 0.870483902696999 0.251767359695562 0.121 0.929516097303001 0.251767359695562 0.187 0.870483902697003 0.251767359695562 0.187 0.929516097302998 0.251767359695562 0.1606 0.9066 0.251767359695562 0.158215805003165 0.906154316714069 0.251767359695562 0.156153608751933 0.904877458853656 0.251767359695562 0.154691922277057 0.902941873148125 0.251767359695562 0.154028154436453 0.900608971172458 0.251767359695562 0.154251950755059 0.898193824265524 0.251767359695562 0.15533308629995 0.896022611399897 0.251767359695562 0.157125547725009 0.894388566904185 0.251767359695562 0.159387253182411 0.893512377542086 0.251767359695562 0.161812746817589 0.893512377542086 0.251767359695562 0.164074452274991 0.894388566904185 0.251767359695562 0.16586691370005 0.896022611399897 0.251767359695562 0.166948049244941 0.898193824265524 0.251767359695562 0.167171845563547 0.900608971172458 0.251767359695562 0.166508077722943 0.902941873148125 0.251767359695562 0.165046391248067 0.904877458853656 0.251767359695562 0.162984194996835 0.906154316714069 0.0100839026969985 0 0.0691160973030014 0 0.0100839026970028 -0.066 0.0691160973029972 -0.066 0.0462 -0.0396 0.0457543167140688 -0.0372158050031648 0.0444774588536564 -0.0351536087519327 0.0425418731481251 -0.0336919222770565 0.0402089711724578 -0.0330281544364527 0.0377938242655242 -0.0332519507550593 0.0356226113998969 -0.0343330862999504 0.0339885669041845 -0.0361255477250094 0.0331123775420862 -0.0383872531824106 0.0331123775420862 -0.0408127468175894 0.0339885669041845 -0.0430744522749906 0.0356226113998968 -0.0448669137000496 0.0377938242655242 -0.0459480492449406 0.0402089711724578 -0.0461718455635473 0.0425418731481251 -0.0455080777229435 0.0444774588536564 -0.0440463912480673 0.0457543167140688 -0.0419841949968352 15 3 16 17 16 3 14 3 15 18 17 3 13 3 14 4 19 18 4 20 19 4 18 3 21 20 4 5 21 4 1 10 9 1 11 10 1 12 11 1 13 12 1 3 13 2 6 5 2 7 6 2 8 7 2 9 8 2 1 9 2 5 4 
14 12 1 1.16573417585634e-15
0.278167359695562 0.121 0.8604 0.304567359695562 0.121 0.870483902697002 0.287705058711687 0.121 0.861565740575916 0.296681218195288 0.121 0.864994328410212 0.304567359695562 0.121 0.929516097302998 0.278167359695562 0.121 0.9396 0.296681218195288 0.121 0.935005671589788 0.287705058711687 0.121 0.938434259424084 0.251767359695562 0.121 0.929516097303001 0.268629660679437 0.121 0.938434259424084 0.259653501195837 0.121 0.935005671589789 0.251767359695562 0.121 0.870483902696999 0.259653501195837 0.121 0.864994328410211 0.268629660679437 0.121 0.861565740575916 -3.46944695195361e-17 0.0264 0.0100839026970025 0.0527999999999997 0.00116574057591574 0.035937699016125 0.00459432841021171 0.0449138584997264 0.0691160973029977 0.0528 0.0792 0.0264 0.0746056715897882 0.0449138584997264 0.0780342594240842 0.035937699016125 0.0691160973029991 2.07125983031631e-15 0.0780342594240844 0.0168623009838758 0.074605671589789 0.00788614150027506 0.0100839026969985 0 0.00459432841021094 0.00788614150027504 0.00116574057591554 0.0168623009838757 5 3 1 5 4 3 5 2 4 5 8 7 5 6 8 5 10 6 5 11 10 5 9 11 5 12 9 5 13 12 5 14 13 5 1 14 
72 70 1 0.000388431401048995
0.251767359695562 0.187 0.870483902697003 0.251767359695562 0.121 0.870483902696999 0.251767359695562 0.187 0.929516097302998 0.244631052117834 0.187 0.921058871623429 0.240113465150601 0.187 0.910957240070428 0.238567359695562 0.187 0.9 0.240113465150601 0.187 0.889042759929572 0.244631052117834 0.187 0.878941128376572 0.251767359695562 0.121 0.929516097303001 0.278167359695562 0.121 0.9396 0.268629660679437 0.121 0.938434259424084 0.259653501195837 0.121 0.935005671589789 0.304567359695562 0.121 0.929516097302998 0.296681218195288 0.121 0.935005671589788 0.287705058711687 0.121 0.938434259424084 0.304567359695561 0.187 0.929516097302998 0.304567359695562 0.187 0.870483902697003 0.311703667273289 0.187 0.878941128376572 0.316221254240523 0.187 0.889042759929572 0.317767359695562 0.187 0.9 0.316221254240523 0.187 0.910957240070428 0.311703667273289 0.187 0.921058871623429 0.304567359695562 0.121 0.870483902697002 0.278167359695562 0.121 0.8604 0.287705058711687 0.121 0.861565740575916 0.296681218195288 0.121 0.864994328410212 0.278167359695562 0 0.8604 0.278167359695562 4.84960132462352e-18 0.9396 0.287694062541218 0.00952670284565594 0.861563013478024 0.296661185396438 0.0184938257008762 0.864983740763102 0.303816640810947 0.0256492811153853 0.869829246309316 0.30922076199659 0.0310534023010279 0.875426717648419 0.312727575678603 0.0345602159830411 0.880667347021023 0.315194892795123 0.0370275330995617 0.885959993142421 0.316728232368729 0.0385608726731673 0.890987836070966 0.317527852300892 0.0393604926053307 0.895651250540017 0.317765567503485 0.0395982078079237 0.900376747130696 0.317437984388476 0.0392706246929146 0.905096865333541 0.316549779485285 0.0383824197897231 0.909744221420179 0.315113632679322 0.0369462729837598 0.914252470403741 0.313150046195767 0.0349826865002055 0.918557253170347 0.310687051912757 0.0325196922171949 0.922597115260557 0.307759811182319 0.0295924514867568 0.926314384184395 0.304410112871974 0.0262427531764119 0.929655992745513 0.299370128279771 0.0212027685842093 0.93344551695466 0.293064448969728 0.0148970892741663 0.936691098800084 0.286280977240073 0.00811361754451112 0.938759891774119 0.282245857319988 0.00407849762442592 0.939389413008162 0.278167359695562 0 0.8604 0.268640656849906 0.00952670284565594 0.938436986521976 0.259673533994686 0.0184938257008762 0.935016259236898 0.252518078580176 0.0256492811153853 0.930170753690684 0.247113957394534 0.0310534023010279 0.924573282351581 0.243607143712521 0.0345602159830411 0.919332652978977 0.241139826596 0.0370275330995617 0.914040006857579 0.239606487022394 0.0385608726731673 0.909012163929034 0.238806867090231 0.0393604926053307 0.904348749459983 0.238569151887638 0.0395982078079237 0.899623252869304 0.238896735002647 0.0392706246929146 0.894903134666459 0.239784939905839 0.0383824197897231 0.890255778579821 0.241221086711802 0.0369462729837598 0.885747529596259 0.243184673195356 0.0349826865002055 0.881442746829653 0.245647667478367 0.0325196922171949 0.877402884739443 0.248574908208805 0.0295924514867568 0.873685615815605 0.25192460651915 0.0262427531764119 0.870344007254487 0.256964591111352 0.0212027685842093 0.86655448304534 0.263270270421395 0.0148970892741663 0.863308901199916 0.270053742151051 0.00811361754451112 0.861240108225881 0.274088862071145 0.00407849762441696 0.860610586991837 0.278167359695562 0.121 0.8604 0.259653501195837 0.121 0.864994328410211 0.268629660679437 0.121 0.861565740575916 5.55345765095262 0 5.55345765095262 0.066 3.87132030981674 0 4.15167653333939 0 4.43203275686204 0 4.71238898038468 0 4.99274520390733 0 5.27310142742998 0 3.87132030981676 0.066 3.14159265358979 0.066 3.38483520566542 0.066 3.62807775774106 0.066 2.41186499736283 0.066 2.65510754943849 0.066 2.89835010151414 0.066 2.41186499736283 0 0.729727656226965 0 1.01008387974961 0 1.29044010327226 0 1.5707963267949 0 1.85115255031755 0 2.13150877384019 0 0.729727656226967 0.066 0 0.066 0.243242552075653 0.066 0.486485104151305 0.066 0 0.187 3.14159265358979 0.187 0.242956458874942 0.17747329596751 0.485912917749994 0.168506178325959 0.704573730737486 0.161350719767472 0.901368462426052 0.155946593147027 1.06077219509369 0.152439778701572 1.20836824386002 0.1499724646614 1.34120468774978 0.148439129297573 1.46075748725064 0.147639512432339 1.58031028675161 0.147401798269685 1.69986308625267 0.147729379967365 1.81941588575382 0.148617581582912 1.93896868525502 0.150053724609148 2.05852148475622 0.152017308443973 2.17807428425738 0.15448030238975 2.29762708375846 0.15740754525525 2.41717988325945 0.160757247110769 2.57658361592729 0.16579723529348 2.75591281517853 0.172102913156958 2.93524201442985 0.178886380681617 3.03841733400982 0.182921500807914 6.28318530718004 0.187000000000018 3.38454911246505 0.177473295967498 3.62750557134028 0.168506178325926 3.8461663843279 0.161350719767435 4.04296111601679 0.155946593147001 4.20236484868483 0.15243977870156 4.34996089745156 0.149972464661403 4.4827973413416 0.148439129297585 4.60235014084261 0.147639512432356 4.72190294034359 0.147401798269702 4.84145573984452 0.147729379967378 4.96100853934542 0.148617581582915 5.08056133884629 0.150053724609139 5.20011413834714 0.152017308443952 5.31966693784799 0.154480302389719 5.43921973734884 0.157407545255212 5.5587725368497 0.160757247110729 5.71817626951751 0.165797235293446 5.89750546876875 0.172102913156938 6.07683466801992 0.178886380681611 6.18000998759994 0.182921500807922 6.28318530717959 0.066 5.79670020302832 0.066 6.03994275510395 0.066 52 12 9 52 51 12 4 9 3 29 24 25 29 27 24 53 9 4 53 52 9 54 53 4 55 4 5 30 25 26 55 54 4 30 29 25 56 55 5 31 26 23 31 30 26 57 5 6 57 56 5 18 23 17 32 31 23 32 23 18 58 57 6 59 6 7 59 58 6 33 32 18 60 59 7 34 18 19 34 33 18 61 7 8 61 60 7 35 34 19 62 61 8 36 35 19 36 19 20 63 62 8 2 8 1 37 36 20 2 63 8 38 37 20 38 20 21 64 63 2 65 64 2 39 38 21 40 39 21 66 2 71 40 21 22 66 65 2 41 40 22 67 71 72 42 41 22 67 66 71 13 42 22 13 22 16 68 67 72 43 42 13 69 68 72 44 43 13 69 72 70 49 69 70 45 13 14 45 44 13 46 14 15 46 45 14 47 46 15 48 15 10 48 47 15 28 48 10 50 10 11 50 28 10 51 11 12 51 50 11 
20 18 1 8.56519716263549e-17
0.251767359695562 0.187 0.929516097302998 0.251767359695562 0.187 0.870483902697003 0.249261003921336 0.187 0.927066263056689 0.246981073656259 0.187 0.924404416876352 0.244945427753766 0.187 0.921551409189533 0.243170011570772 0.187 0.918529587805244 0.241668732066573 0.187 0.915362622862012 0.240453348868664 0.187 0.912075321418027 0.23953338215875 0.187 0.908693433135716 0.238916038100497 0.187 0.905243448582834 0.238606152393147 0.187 0.901752391729993 0.238606152393147 0.187 0.898247608270008 0.238916038100497 0.187 0.894756551417167 0.23953338215875 0.187 0.891306566864285 0.240453348868664 0.187 0.887924678581973 0.241668732066573 0.187 0.884637377137988 0.243170011570771 0.187 0.881470412194757 0.244945427753766 0.187 0.878448590810467 0.246981073656259 0.187 0.875595583123648 0.249261003921335 0.187 0.872933736943312 -0.0295160973029977 -0.0263999999999995 0.0295160973029973 -0.0264 -0.0270662630566888 -0.0289063557742259 -0.0244044168763523 -0.0311862860393027 -0.0215514091895332 -0.0332219319417957 -0.018529587805244 -0.0349973481247901 -0.0153626228620123 -0.0364986276289887 -0.0120753214180271 -0.0377140108268974 -0.0086934331357156 -0.0386339775368113 -0.0052434485828335 -0.0392513215950646 -0.00175239172999286 -0.039561207302415 0.00175239172999232 -0.039561207302415 0.00524344858283296 -0.0392513215950646 0.00869343313571508 -0.0386339775368114 0.0120753214180266 -0.0377140108268976 0.0153626228620118 -0.0364986276289889 0.0185295878052435 -0.0349973481247904 0.0215514091895327 -0.033221931941796 0.0244044168763519 -0.0311862860393031 0.0270662630566885 -0.0289063557742262 2 1 20 20 1 3 20 3 4 20 4 5 20 5 19 19 5 18 18 5 6 18 6 7 18 7 17 17 7 16 16 7 8 16 8 9 16 9 10 16 10 11 16 11 12 16 12 13 16 13 14 16 14 15 
40 38 1 9.00153975420557e-05
0.251767359695562 0.1606 0.9066 0.304567359695562 0.1606 0.9066 0.251767359695562 0.1606 0.9066 0.251767359695562 0.158456983503249 0.906242393795224 0.251767359695562 0.156546196096248 0.905208327362016 0.251767359695562 0.155074701243467 0.903609857843608 0.251767359695562 0.1542019582448 0.901620204215129 0.251767359695562 0.154022542346156 0.899454976319883 0.251767359695562 0.154555896044077 0.89734881019729 0.251767359695562 0.155744222189557 0.89552994162727 0.251767359695562 0.157458747205955 0.894195473242037 0.251767359695562 0.159513675704147 0.893490015397542 0.251767359695562 0.161686324295853 0.893490015397542 0.251767359695562 0.163741252794045 0.894195473242037 0.251767359695562 0.165455777810443 0.89552994162727 0.251767359695562 0.166644103955923 0.89734881019729 0.251767359695562 0.167177457653844 0.899454976319883 0.251767359695562 0.1669980417552 0.901620204215129 0.251767359695562 0.166125298756533 0.903609857843608 0.251767359695562 0.164653803903752 0.905208327362016 0.251767359695562 0.162743016496751 0.906242393795224 0.304567359695562 0.1606 0.9066 0.304567359695562 0.158456983503249 0.906242393795224 0.304567359695562 0.156546196096248 0.905208327362016 0.304567359695562 0.155074701243467 0.903609857843608 0.304567359695562 0.1542019582448 0.901620204215129 0.304567359695562 0.154022542346156 0.899454976319883 0.304567359695562 0.154555896044077 0.89734881019729 0.304567359695562 0.155744222189557 0.89552994162727 0.304567359695562 0.157458747205955 0.894195473242037 0.304567359695562 0.159513675704147 0.893490015397542 0.304567359695562 0.161686324295853 0.893490015397542 0.304567359695562 0.163741252794045 0.894195473242037 0.304567359695562 0.165455777810443 0.89552994162727 0.304567359695562 0.166644103955923 0.89734881019729 0.304567359695562 0.167177457653844 0.899454976319883 0.304567359695562 0.1669980417552 0.901620204215129 0.304567359695562 0.166125298756533 0.903609857843608 0.304567359695562 0.164653803903752 0.905208327362016 0.304567359695562 0.162743016496751 0.906242393795224 6.28318530717959 0 6.28318530717959 0.0528 0 0 0.330693963535768 0 0.661387927071535 0 0.992081890607303 0 1.32277585414307 0 1.65346981767884 0 1.98416378121461 0 2.31485774475037 0 2.64555170828614 0 2.97624567182191 0 3.30693963535768 0 3.63763359889345 0 3.96832756242921 0 4.29902152596498 0 4.62971548950075 0 4.96040945303652 0 5.29110341657228 0 5.62179738010805 0 5.95249134364382 0 0 0.0528 0.330693963535768 0.0528 0.661387927071535 0.0528 0.992081890607303 0.0528 1.32277585414307 0.0528 1.65346981767884 0.0528 1.98416378121461 0.0528 2.31485774475037 0.0528 2.64555170828614 0.0528 2.97624567182191 0.0528 3.30693963535768 0.0528 3.63763359889345 0.0528 3.96832756242921 0.0528 4.29902152596498 0.0528 4.62971548950075 0.0528 4.96040945303652 0.0528 5.29110341657228 0.0528 5.62179738010805 0.0528 5.95249134364382 0.0528 23 3 4 23 22 3 24 4 5 24 23 4 25 5 6 25 24 5 26 6 7 26 25 6 27 7 8 27 26 7 28 8 9 28 27 8 29 9 10 29 28 9 30 10 11 30 29 10 31 11 12 31 30 11 32 12 13 32 31 12 33 13 14 33 32 13 34 14 15 34 33 14 35 15 16 35 34 15 36 16 17 36 35 16 37 36 17 37 17 18 38 37 18 38 18 19 39 38 19 39 19 20 40 39 20 40 20 21 2 40 21 2 21 1 
21 21 1 2.4301612330319e-16
0.304567359695562 0.121 0.870483902697002 0.304567359695562 0.121 0.929516097302998 0.304567359695562 0.187 0.870483902697003 0.304567359695561 0.187 0.929516097302998 0.304567359695562 0.1606 0.9066 0.304567359695562 0.158215805003165 0.906154316714069 0.304567359695562 0.156153608751933 0.904877458853656 0.304567359695562 0.154691922277057 0.902941873148125 0.304567359695562 0.154028154436453 0.900608971172458 0.304567359695562 0.154251950755059 0.898193824265524 0.304567359695562 0.15533308629995 0.896022611399897 0.304567359695562 0.157125547725009 0.894388566904185 0.304567359695562 0.159387253182411 0.893512377542086 0.304567359695562 0.161812746817589 0.893512377542086 0.304567359695562 0.164074452274991 0.894388566904185 0.304567359695562 0.16586691370005 0.896022611399897 0.304567359695562 0.166948049244941 0.898193824265524 0.304567359695562 0.167171845563547 0.900608971172458 0.304567359695562 0.166508077722943 0.902941873148125 0.304567359695562 0.165046391248067 0.904877458853656 0.304567359695562 0.162984194996835 0.906154316714069 0.0100839026970022 0 0.0691160973029977 0 0.0100839026970028 -0.066 0.0691160973029972 -0.066 0.0462 -0.0396 0.0457543167140688 -0.0372158050031648 0.0444774588536564 -0.0351536087519327 0.0425418731481251 -0.0336919222770565 0.0402089711724578 -0.0330281544364527 0.0377938242655242 -0.0332519507550593 0.0356226113998969 -0.0343330862999504 0.0339885669041845 -0.0361255477250094 0.0331123775420862 -0.0383872531824106 0.0331123775420862 -0.0408127468175894 0.0339885669041845 -0.0430744522749906 0.0356226113998968 -0.0448669137000496 0.0377938242655242 -0.0459480492449406 0.0402089711724578 -0.0461718455635473 0.0425418731481251 -0.0455080777229435 0.0444774588536564 -0.0440463912480673 0.0457543167140688 -0.0419841949968352 15 3 16 17 16 3 14 3 15 18 17 3 13 3 14 4 19 18 4 20 19 4 18 3 21 20 4 5 21 4 1 10 9 1 11 10 1 12 11 1 13 12 1 3 13 2 6 5 2 7 6 2 8 7 2 9 8 2 1 9 2 5 4 
20 18 1 1.63931368479808e-16
0.304567359695562 0.187 0.870483902697003 0.304567359695561 0.187 0.929516097302998 0.307073715469788 0.187 0.872933736943312 0.309353645734865 0.187 0.875595583123648 0.311389291637358 0.187 0.878448590810467 0.313164707820352 0.187 0.881470412194757 0.314665987324551 0.187 0.884637377137988 0.315881370522459 0.187 0.887924678581973 0.316801337232373 0.187 0.891306566864285 0.317418681290626 0.187 0.894756551417167 0.317728566997977 0.187 0.898247608270008 0.317728566997977 0.187 0.901752391729993 0.317418681290626 0.187 0.905243448582833 0.316801337232373 0.187 0.908693433135715 0.315881370522459 0.187 0.912075321418027 0.31466598732455 0.187 0.915362622862012 0.313164707820352 0.187 0.918529587805244 0.311389291637358 0.187 0.921551409189533 0.309353645734865 0.187 0.924404416876352 0.307073715469788 0.187 0.927066263056689 0.0295160973029973 0.0264 -0.0295160973029978 0.0264 0.0270662630566884 0.0289063557742263 0.0244044168763519 0.0311862860393031 0.0215514091895327 0.033221931941796 0.0185295878052435 0.0349973481247904 0.0153626228620117 0.0364986276289889 0.0120753214180266 0.0377140108268976 0.00869343313571508 0.0386339775368114 0.00524344858283298 0.0392513215950646 0.00175239172999236 0.039561207302415 -0.00175239172999281 0.039561207302415 -0.00524344858283343 0.0392513215950646 -0.00869343313571552 0.0386339775368113 -0.012075321418027 0.0377140108268975 -0.0153626228620122 0.0364986276289888 -0.0185295878052439 0.0349973481247902 -0.021551409189533 0.0332219319417958 -0.0244044168763522 0.0311862860393028 -0.0270662630566887 0.028906355774226 3 2 1 3 4 5 3 5 6 3 6 7 3 7 8 3 8 9 3 9 10 3 10 11 3 11 12 3 12 13 3 13 14 3 14 15 3 15 16 3 16 17 3 17 18 3 18 19 3 19 20 3 20 2 
109 108 1 0.000219551633310674
0.278167359695562 4.84960132462352e-18 0.9396 0.418 9.69920264924705e-18 0.9396 0.231 9.69920264924705e-18 0.9396 0.231 9.69920264924705e-18 0.9396 0.231 -0.00772557675183868 0.938839097103968 0.231 -0.0151542639216576 0.936585629487447 0.231 -0.0220005812275762 0.932926196647181 0.231 -0.0280014285349873 0.928001428534987 0.231 -0.0329261966471808 0.922000581227576 0.231 -0.036585629487447 0.915154263921658 0.231 -0.0388390971039679 0.907725576751839 0.231 -0.0396 0.9 0.231 -0.0388390971039679 0.892274423248161 0.231 -0.036585629487447 0.884845736078342 0.231 -0.0329261966471808 0.877999418772424 0.231 -0.0280014285349873 0.871998571465013 0.231 -0.0220005812275762 0.867073803352819 0.231 -0.0151542639216575 0.863414370512553 0.231 -0.00772557675183866 0.861160902896032 0.231 3.03222640955014e-17 0.8604 0.231 0.00772557675183872 0.861160902896032 0.231 0.0151542639216576 0.863414370512553 0.231 0.0220005812275763 0.867073803352819 0.231 0.0280014285349873 0.871998571465013 0.231 0.0329261966471808 0.877999418772424 0.231 0.036585629487447 0.884845736078342 0.231 0.0388390971039679 0.892274423248161 0.231 0.0396 0.9 0.231 0.0388390971039679 0.907725576751839 0.231 0.0365856294874469 0.915154263921658 0.231 0.0329261966471807 0.922000581227576 0.231 0.0280014285349872 0.928001428534987 0.231 0.0220005812275761 0.932926196647181 0.231 0.0151542639216574 0.936585629487447 0.231 0.00772557675183853 0.938839097103968 0.278167359695562 4.84960132462352e-18 0.9396 0.418 9.69920264924705e-18 0.9396 0.418 -0.00772557675183868 0.938839097103968 0.418 -0.0151542639216576 0.936585629487447 0.418 -0.0220005812275762 0.932926196647181 0.418 -0.0280014285349873 0.928001428534987 0.418 -0.0329261966471808 0.922000581227576 0.418 -0.036585629487447 0.915154263921658 0.418 -0.0388390971039679 0.907725576751839 0.418 -0.0396 0.9 0.418 -0.0388390971039679 0.892274423248161 0.418 -0.036585629487447 0.884845736078342 0.418 -0.0329261966471808 0.877999418772424 0.418 -0.0280014285349873 0.871998571465013 0.418 -0.0220005812275762 0.867073803352819 0.418 -0.0151542639216575 0.863414370512553 0.418 -0.00772557675183866 0.861160902896032 0.418 3.03222640955014e-17 0.8604 0.418 0.00772557675183872 0.861160902896032 0.418 0.0151542639216576 0.863414370512553 0.418 0.0220005812275763 0.867073803352819 0.418 0.0280014285349873 0.871998571465013 0.418 0.0329261966471808 0.877999418772424 0.418 0.036585629487447 0.884845736078342 0.418 0.0388390971039679 0.892274423248161 0.418 0.0396 0.9 0.418 0.0388390971039679 0.907725576751839 0.418 0.0365856294874469 0.915154263921658 0.418 0.0329261966471807 0.922000581227576 0.418 0.0280014285349872 0.928001428534987 0.418 0.0220005812275761 0.932926196647181 0.418 0.0151542639216574 0.936585629487447 0.418 0.00772557675183853 0.938839097103968 0.278167359695562 0 0.8604 0.2877046397298 0.00953728003423823 0.861565636605395 0.296680454980007 0.0185130952844454 0.864993924770277 0.303840710611615 0.0256733509160533 0.869849725494762 0.309245834198977 0.0310784745034155 0.875458434798478 0.312750779210769 0.0345834195152071 0.880708885604113 0.315214074589869 0.037046714894307 0.88601068566584 0.316741878749473 0.0385745190539109 0.891046426425194 0.317534993735565 0.0393676340400036 0.895716381191988 0.317764829694426 0.0395974699988643 0.900447626729591 0.317428098092758 0.0392607383971968 0.905172467545271 0.316529616945505 0.0383622572499428 0.909823299786182 0.315082241878839 0.0369148821832774 0.914333578527177 0.313106682189612 0.0349393224940499 0.918638769907287 0.310631204533086 0.0324638448375248 0.92267727449155 0.307691228478672 0.0295238687831098 0.926391308646555 0.304328819720493 0.0261614600249317 0.929727731318819 0.299272429218698 0.0211050695231365 0.933507253549397 0.292949842826966 0.014782483131404 0.93673742223496 0.286152067998332 0.00798470830277071 0.938786652772825 0.282180372914836 0.00401301321927456 0.939396138451654 0.268630079661323 0.00953728003423823 0.938434363394605 0.259654264411116 0.0185130952844454 0.935006075229723 0.252494008779508 0.0256733509160533 0.930150274505238 0.247088885192146 0.0310784745034155 0.924541565201522 0.243583940180355 0.0345834195152071 0.919291114395887 0.241120644801255 0.037046714894307 0.91398931433416 0.239592840641651 0.0385745190539109 0.908953573574806 0.238799725655558 0.0393676340400036 0.904283618808012 0.238569889696697 0.0395974699988643 0.899552373270409 0.238906621298365 0.0392607383971968 0.894827532454729 0.239805102445619 0.0383622572499428 0.890176700213818 0.241252477512284 0.0369148821832774 0.885666421472823 0.243228037201512 0.0349393224940499 0.881361230092713 0.245703514858037 0.0324638448375248 0.87732272550845 0.248643490912452 0.0295238687831098 0.873608691353445 0.25200589967063 0.0261614600249317 0.870272268681181 0.257062290172425 0.0211050695231365 0.866492746450603 0.263384876564158 0.014782483131404 0.86326257776504 0.270182651392791 0.00798470830277071 0.861213347227175 0.274154346476296 0.0040130132192656 0.860603861548345 6.28318530717959 0.0471673596955617 6.28318530717959 0.187 6.28318530717959 0 0 0 0.196349540849362 0 0.392699081698724 0 0.589048622548086 0 0.785398163397448 0 0.98174770424681 0 1.17809724509617 0 1.37444678594553 0 1.5707963267949 0 1.76714586764426 0 1.96349540849362 0 2.15984494934298 0 2.35619449019234 0 2.55254403104171 0 2.74889357189107 0 2.94524311274043 0 3.14159265358979 0 3.33794219443916 0 3.53429173528852 0 3.73064127613788 0 3.92699081698724 0 4.12334035783661 0 4.31968989868597 0 4.51603943953533 0 4.71238898038469 0 4.90873852123405 0 5.10508806208342 0 5.30143760293278 0 5.49778714378214 0 5.6941366846315 0 5.89048622548087 0 6.08683576633023 0 0 0.0471673596955617 0 0.187 0.196349540849362 0.187 0.392699081698724 0.187 0.589048622548086 0.187 0.785398163397448 0.187 0.98174770424681 0.187 1.17809724509617 0.187 1.37444678594553 0.187 1.5707963267949 0.187 1.76714586764426 0.187 1.96349540849362 0.187 2.15984494934298 0.187 2.35619449019234 0.187 2.55254403104171 0.187 2.74889357189107 0.187 2.94524311274043 0.187 3.14159265358979 0.187 3.33794219443916 0.187 3.53429173528852 0.187 3.73064127613788 0.187 3.92699081698724 0.187 4.12334035783661 0.187 4.31968989868597 0.187 4.51603943953533 0.187 4.71238898038469 0.187 4.90873852123405 0.187 5.10508806208342 0.187 5.30143760293278 0.187 5.49778714378214 0.187 5.6941366846315 0.187 5.89048622548087 0.187 6.08683576633023 0.187 3.14159265358979 0.0471673596955617 3.38482430441895 0.0567046409111778 3.62805595524732 0.0656804509495857 3.84696444099245 0.0728407097522162 4.04398207816303 0.0782458387696683 4.20356636427135 0.0817507845141654 4.35132959214965 0.0842140767882387 4.48431649724035 0.0857418767314897 4.60400471182219 0.0865349886672907 4.72369292640423 0.0867648236199051 4.84338114098646 0.0864280934732624 4.96306935556886 0.0855296156383641 5.08275757015139 0.0840822443493393 5.20244578473403 0.0821066872764394 5.32213399931672 0.0796312099053655 5.44182221389944 0.0766912316685218 5.56151042848212 0.0733288193499946 5.72109471459227 0.0682724253122685 5.90062703646597 0.0619498404704623 6.0801593583394 0.0551520698103532 6.18167233275954 0.0511803744569656 6.03995365635024 0.037630078479936 5.79672200552092 0.0286542684415015 5.57781351977446 0.021494009638839 5.38079588260261 0.0160888806213591 5.22121159649338 0.0125839348768444 5.07344836861443 0.0101206426027615 4.94046146352333 0.00859284265950791 4.8207732489413 0.00779973072370985 4.70108503435923 0.00756989577110266 4.58139681977713 0.00790662591775628 4.46170860519501 0.00880510375266794 4.3420203906129 0.0102524750417074 4.22233217603082 0.0122280321146219 4.10264396144877 0.0147035094857094 3.98295574686679 0.0176434877225647 3.86326753228485 0.0210059000411013 3.70368324617566 0.0260622940788365 3.52415092430282 0.0323848789206501 3.34461860242987 0.0391826495807655 3.2431056280096 0.0431543449341651 5 36 4 38 36 5 38 37 36 39 5 6 39 38 5 40 6 7 40 39 6 41 7 8 41 40 7 42 8 9 42 41 8 43 9 10 43 42 9 44 10 11 44 43 10 45 11 12 45 44 11 46 12 13 46 45 12 47 13 14 47 46 13 48 14 15 48 47 14 49 15 16 49 48 15 50 16 17 50 49 16 51 17 18 51 50 17 69 19 20 52 18 19 52 51 18 52 19 69 109 69 20 21 109 20 108 109 21 53 52 69 107 21 22 106 22 23 55 54 70 105 106 23 24 105 23 104 105 24 56 71 72 56 55 71 25 104 24 103 104 25 102 103 25 57 56 72 57 72 73 26 102 25 101 102 26 58 57 73 58 73 74 100 101 26 27 100 26 59 58 74 59 74 75 59 75 76 28 99 27 98 99 28 97 98 28 60 59 76 60 76 77 29 97 28 61 60 77 61 77 78 61 78 79 30 96 29 30 95 96 62 61 79 62 79 80 31 94 30 63 62 80 63 80 81 63 81 82 32 93 31 64 82 83 64 83 84 64 63 82 33 92 32 65 84 85 65 64 84 34 91 33 66 85 86 66 65 85 90 34 35 67 66 86 67 86 87 68 67 87 68 87 88 68 88 89 2 68 89 2 89 1 3 1 35 35 1 90 69 70 54 69 54 53 70 71 55 90 91 34 91 92 33 92 93 32 93 94 31 94 95 30 96 97 29 99 100 27 106 107 22 107 108 21 
71 69 1 5.57279916657549e-17
0.231 9.69920264924705e-18 0.9396 0.231 -0.00349985214205476 0.939445038154168 0.231 -0.00697231319582303 0.93898136540322 0.231 -0.0103902064454224 0.938212610615103 0.231 -0.0137267822420237 0.937144790338351 0.231 -0.016955927356122 0.935786261714433 0.231 -0.0200523693489627 0.934147657071793 0.231 -0.0229918743636405 0.932241800713462 0.231 -0.0257514367878875 0.930083608549498 0.231 -0.0283094593041808 0.927689971359771 0.231 -0.0306459219180354 0.925079622600703 0.231 -0.0327425386416048 0.922272991790575 0.231 -0.034582900606329 0.919292044620848 0.231 -0.036152604484579 0.916160111044841 0.231 -0.0374393652152244 0.912901702689221 0.231 -0.0384331121508933 0.909542321017282 0.231 -0.039126067874442 0.906108257745426 0.231 -0.0395128090677898 0.90262638907483 0.231 -0.0395903089567356 0.899123965348734 0.231 -0.0393579609995702 0.895628397781555 0.231 -0.0388175836340874 0.892167043928974 0.231 -0.0379734060458428 0.888766993577962 0.231 -0.0368320350690427 0.885454856732476 0.231 -0.0354024034791085 0.882256555354092 0.231 -0.0336957000815977 0.879197120487514 0.231 -0.0317252821446296 0.876300496358707 0.231 -0.0295065708601526 0.873589352978869 0.231 -0.0270569306522075 0.871084908720849 0.231 -0.0243955332767664 0.868806764256618 0.231 -0.0215432077767482 0.866772749155432 0.231 -0.0185222774665163 0.864998782343276 0.231 -0.0153563852216769 0.863498747515688 0.231 -0.0120703084415213 0.862284384479018 0.231 -0.00868976513228178 0.861365197270521 0.231 -0.00524121262886315 0.860748379776383 0.231 -0.00175164053032493 0.860438759429809 0.231 0.00175164053032508 0.860438759429809 0.231 0.00524121262886329 0.860748379776383 0.231 0.00868976513228193 0.861365197270521 0.231 0.0120703084415214 0.862284384479018 0.231 0.015356385221677 0.863498747515688 0.231 0.0185222774665164 0.864998782343276 0.231 0.0215432077767483 0.866772749155432 0.231 0.0243955332767665 0.868806764256618 0.231 0.0270569306522076 0.871084908720849 0.231 0.0295065708601527 0.873589352978869 0.231 0.0317252821446297 0.876300496358707 0.231 0.0336957000815977 0.879197120487514 0.231 0.0354024034791086 0.882256555354092 0.231 0.0368320350690427 0.885454856732476 0.231 0.0379734060458428 0.888766993577962 0.231 0.0388175836340874 0.892167043928974 0.231 0.0393579609995702 0.895628397781555 0.231 0.0395903089567356 0.899123965348734 0.231 0.0395128090677898 0.90262638907483 0.231 0.039126067874442 0.906108257745426 0.231 0.0384331121508933 0.909542321017282 0.231 0.0374393652152244 0.912901702689221 0.231 0.036152604484579 0.916160111044841 0.231 0.034582900606329 0.919292044620848 0.231 0.0327425386416048 0.922272991790575 0.231 0.0306459219180354 0.925079622600703 0.231 0.0283094593041809 0.927689971359771 0.231 0.0257514367878875 0.930083608549498 0.231 0.0229918743636406 0.932241800713462 0.231 0.0200523693489627 0.934147657071793 0.231 0.0169559273561221 0.935786261714433 0.231 0.0137267822420238 0.937144790338351 0.231 0.0103902064454225 0.938212610615103 0.231 0.00697231319582313 0.93898136540322 0.231 0.00349985214205487 0.939445038154168 0.0396 -6.93889390390723e-18 0.0394450381541678 0.00349985214205476 0.0389813654032199 0.00697231319582303 0.0382126106151033 0.0103902064454224 0.0371447903383511 0.0137267822420237 0.0357862617144333 0.016955927356122 0.0341476570717931 0.0200523693489627 0.0322418007134615 0.0229918743636405 0.0300836085494981 0.0257514367878875 0.0276899713597708 0.0283094593041808 0.0250796226007027 0.0306459219180354 0.0222729917905749 0.0327425386416048 0.0192920446208475 0.034582900606329 0.0161601110448412 0.036152604484579 0.0129017026892207 0.0374393652152244 0.00954232101728194 0.0384331121508933 0.00610825774542598 0.039126067874442 0.00262638907483013 0.0395128090677898 -0.000876034651266185 0.0395903089567356 -0.00437160221844467 0.0393579609995702 -0.00783295607102646 0.0388175836340874 -0.0112330064220381 0.0379734060458428 -0.0145451432675244 0.0368320350690427 -0.0177434446459081 0.0354024034791085 -0.0208028795124862 0.0336957000815977 -0.0236995036412927 0.0317252821446296 -0.0264106470211314 0.0295065708601526 -0.028915091279151 0.0270569306522075 -0.0311932357433817 0.0243955332767664 -0.0332272508445682 0.0215432077767482 -0.0350012176567242 0.0185222774665163 -0.0365012524843116 0.0153563852216769 -0.037715615520982 0.0120703084415213 -0.0386348027294793 0.00868976513228178 -0.0392516202236168 0.00524121262886314 -0.039561240570191 0.00175164053032494 -0.039561240570191 -0.00175164053032508 -0.0392516202236168 -0.0052412126288633 -0.0386348027294793 -0.00868976513228193 -0.037715615520982 -0.0120703084415214 -0.0365012524843115 -0.015356385221677 -0.0350012176567242 -0.0185222774665164 -0.0332272508445681 -0.0215432077767483 -0.0311932357433816 -0.0243955332767665 -0.0289150912791509 -0.0270569306522076 -0.0264106470211313 -0.0295065708601527 -0.0236995036412926 -0.0317252821446297 -0.0208028795124861 -0.0336957000815977 -0.017743444645908 -0.0354024034791086 -0.0145451432675243 -0.0368320350690427 -0.0112330064220381 -0.0379734060458428 -0.0078329560710264 -0.0388175836340874 -0.0043716022184446 -0.0393579609995702 -0.000876034651266136 -0.0395903089567356 0.00262638907483017 -0.0395128090677898 0.00610825774542602 -0.039126067874442 0.00954232101728197 -0.0384331121508933 0.0129017026892207 -0.0374393652152244 0.0161601110448412 -0.036152604484579 0.0192920446208475 -0.034582900606329 0.0222729917905749 -0.0327425386416048 0.0250796226007027 -0.0306459219180354 0.0276899713597708 -0.0283094593041809 0.0300836085494981 -0.0257514367878875 0.0322418007134615 -0.0229918743636406 0.0341476570717931 -0.0200523693489627 0.0357862617144332 -0.0169559273561221 0.0371447903383511 -0.0137267822420238 0.0382126106151033 -0.0103902064454225 0.0389813654032199 -0.00697231319582313 0.0394450381541678 -0.00349985214205487 10 56 57 10 57 58 10 58 59 10 59 60 10 60 61 10 61 62 10 62 63 10 63 64 10 64 65 10 65 66 10 66 67 10 67 68 10 68 69 10 69 70 10 70 71 10 71 1 10 1 2 10 2 3 10 3 4 10 4 5 10 5 6 10 6 7 10 7 8 10 8 9 10 11 12 10 12 13 10 13 14 10 14 15 10 15 16 10 16 17 10 17 18 10 18 19 10 19 20 10 20 21 10 21 22 10 22 23 10 23 24 10 24 25 10 25 26 10 26 27 10 27 28 10 28 29 10 29 30 10 30 31 10 31 32 10 32 33 10 33 34 10 34 35 10 35 36 10 36 37 10 37 38 10 38 39 10 39 40 10 40 41 10 41 42 10 42 43 10 43 44 10 44 45 10 45 46 10 46 47 10 47 48 10 48 49 10 49 50 10 50 51 10 51 52 10 52 53 10 53 54 10 54 55 10 55 56 
71 69 1 5.57279916657549e-17
0.418 9.69920264924705e-18 0.9396 0.418 -0.00349985214205476 0.939445038154168 0.418 -0.00697231319582303 0.93898136540322 0.418 -0.0103902064454224 0.938212610615103 0.418 -0.0137267822420237 0.937144790338351 0.418 -0.016955927356122 0.935786261714433 0.418 -0.0200523693489627 0.934147657071793 0.418 -0.0229918743636405 0.932241800713462 0.418 -0.0257514367878875 0.930083608549498 0.418 -0.0283094593041808 0.927689971359771 0.418 -0.0306459219180354 0.925079622600703 0.418 -0.0327425386416048 0.922272991790575 0.418 -0.034582900606329 0.919292044620848 0.418 -0.036152604484579 0.916160111044841 0.418 -0.0374393652152244 0.912901702689221 0.418 -0.0384331121508933 0.909542321017282 0.418 -0.039126067874442 0.906108257745426 0.418 -0.0395128090677898 0.90262638907483 0.418 -0.0395903089567356 0.899123965348734 0.418 -0.0393579609995702 0.895628397781555 0.418 -0.0388175836340874 0.892167043928974 0.418 -0.0379734060458428 0.888766993577962 0.418 -0.0368320350690427 0.885454856732476 0.418 -0.0354024034791085 0.882256555354092 0.418 -0.0336957000815977 0.879197120487514 0.418 -0.0317252821446296 0.876300496358707 0.418 -0.0295065708601526 0.873589352978869 0.418 -0.0270569306522075 0.871084908720849 0.418 -0.0243955332767664 0.868806764256618 0.418 -0.0215432077767482 0.866772749155432 0.418 -0.0185222774665163 0.864998782343276 0.418 -0.0153563852216769 0.863498747515688 0.418 -0.0120703084415213 0.862284384479018 0.418 -0.00868976513228178 0.861365197270521 0.418 -0.00524121262886315 0.860748379776383 0.418 -0.00175164053032493 0.860438759429809 0.418 0.00175164053032508 0.860438759429809 0.418 0.00524121262886329 0.860748379776383 0.418 0.00868976513228193 0.861365197270521 0.418 0.0120703084415214 0.862284384479018 0.418 0.015356385221677 0.863498747515688 0.418 0.0185222774665164 0.864998782343276 0.418 0.0215432077767483 0.866772749155432 0.418 0.0243955332767665 0.868806764256618 0.418 0.0270569306522076 0.871084908720849 0.418 0.0295065708601527 0.873589352978869 0.418 0.0317252821446297 0.876300496358707 0.418 0.0336957000815977 0.879197120487514 0.418 0.0354024034791086 0.882256555354092 0.418 0.0368320350690427 0.885454856732476 0.418 0.0379734060458428 0.888766993577962 0.418 0.0388175836340874 0.892167043928974 0.418 0.0393579609995702 0.895628397781555 0.418 0.0395903089567356 0.899123965348734 0.418 0.0395128090677898 0.90262638907483 0.418 0.039126067874442 0.906108257745426 0.418 0.0384331121508933 0.909542321017282 0.418 0.0374393652152244 0.912901702689221 0.418 0.036152604484579 0.916160111044841 0.418 0.034582900606329 0.919292044620848 0.418 0.0327425386416048 0.922272991790575 0.418 0.0306459219180354 0.925079622600703 0.418 0.0283094593041809 0.927689971359771 0.418 0.0257514367878875 0.930083608549498 0.418 0.0229918743636406 0.932241800713462 0.418 0.0200523693489627 0.934147657071793 0.418 0.0169559273561221 0.935786261714433 0.418 0.0137267822420238 0.937144790338351 0.418 0.0103902064454225 0.938212610615103 0.418 0.00697231319582313 0.93898136540322 0.418 0.00349985214205487 0.939445038154168 0.0396 0 0.0394450381541678 0.00349985214205476 0.0389813654032199 0.00697231319582303 0.0382126106151033 0.0103902064454224 0.0371447903383511 0.0137267822420237 0.0357862617144333 0.016955927356122 0.0341476570717931 0.0200523693489627 0.0322418007134615 0.0229918743636405 0.0300836085494981 0.0257514367878875 0.0276899713597708 0.0283094593041808 0.0250796226007027 0.0306459219180354 0.0222729917905749 0.0327425386416048 0.0192920446208475 0.034582900606329 0.0161601110448412 0.036152604484579 0.0129017026892207 0.0374393652152244 0.00954232101728194 0.0384331121508933 0.00610825774542598 0.039126067874442 0.00262638907483013 0.0395128090677898 -0.000876034651266185 0.0395903089567356 -0.00437160221844467 0.0393579609995702 -0.00783295607102646 0.0388175836340874 -0.0112330064220381 0.0379734060458428 -0.0145451432675244 0.0368320350690427 -0.0177434446459081 0.0354024034791085 -0.0208028795124862 0.0336957000815977 -0.0236995036412927 0.0317252821446296 -0.0264106470211314 0.0295065708601526 -0.028915091279151 0.0270569306522075 -0.0311932357433817 0.0243955332767664 -0.0332272508445682 0.0215432077767482 -0.0350012176567242 0.0185222774665163 -0.0365012524843116 0.0153563852216769 -0.037715615520982 0.0120703084415213 -0.0386348027294793 0.00868976513228178 -0.0392516202236168 0.00524121262886314 -0.039561240570191 0.00175164053032494 -0.039561240570191 -0.00175164053032508 -0.0392516202236168 -0.0052412126288633 -0.0386348027294793 -0.00868976513228193 -0.037715615520982 -0.0120703084415214 -0.0365012524843115 -0.015356385221677 -0.0350012176567242 -0.0185222774665164 -0.0332272508445681 -0.0215432077767483 -0.0311932357433816 -0.0243955332767665 -0.0289150912791509 -0.0270569306522076 -0.0264106470211313 -0.0295065708601527 -0.0236995036412926 -0.0317252821446297 -0.0208028795124861 -0.0336957000815977 -0.017743444645908 -0.0354024034791086 -0.0145451432675243 -0.0368320350690427 -0.0112330064220381 -0.0379734060458428 -0.0078329560710264 -0.0388175836340874 -0.0043716022184446 -0.0393579609995702 -0.000876034651266136 -0.0395903089567356 0.00262638907483017 -0.0395128090677898 0.00610825774542602 -0.039126067874442 0.00954232101728197 -0.0384331121508933 0.0129017026892207 -0.0374393652152244 0.0161601110448412 -0.036152604484579 0.0192920446208475 -0.034582900606329 0.0222729917905749 -0.0327425386416048 0.0250796226007027 -0.0306459219180354 0.0276899713597708 -0.0283094593041809 0.0300836085494981 -0.0257514367878875 0.0322418007134615 -0.0229918743636406 0.0341476570717931 -0.0200523693489627 0.0357862617144332 -0.0169559273561221 0.0371447903383511 -0.0137267822420238 0.0382126106151033 -0.0103902064454225 0.0389813654032199 -0.00697231319582313 0.0394450381541678 -0.00349985214205487 10 56 57 10 57 58 10 58 59 10 59 60 10 60 61 10 61 62 10 62 63 10 63 64 10 64 65 10 65 66 10 66 67 10 67 68 10 68 69 10 69 70 10 70 71 10 71 1 10 1 2 10 2 3 10 3 4 10 4 5 10 5 6 10 6 7 10 7 8 10 8 9 10 11 12 10 12 13 10 13 14 10 14 15 10 15 16 10 16 17 10 17 18 10 18 19 10 19 20 10 20 21 10 21 22 10 22 23 10 23 24 10 24 25 10 25 26 10 26 27 10 27 28 10 28 29 10 29 30 10 30 31 10 31 32 10 32 33 10 33 34 10 34 35 10 35 36 10 36 37 10 37 38 10 38 39 10 39 40 10 40 41 10 41 42 10 42 43 10 43 44 10 44 45 10 45 46 10 46 47 10 47 48 10 48 49 10 49 50 10 50 51 10 51 52 10 52 53 10 53 54 10 54 55 10 55 56 

TShapes 66
Ve
2.00001e-07
0.251767359695562 0.121 0.870483902696999
0 0

0101101
*
Ve
2.00001e-07
0.251767359695562 0.121 0.929516097303001
0 0

0101101
*
Ve
1.00000000027756e-07
0.251767359695562 0.187 0.870483902697003
0 0

0101101
*
Ve
1.00000000305311e-07
0.251767359695562 0.187 0.929516097302998
0 0

0101101
*
Ve
1e-07
0.251767359695562 0.1606 0.9066
0 0

0101101
*
Ve
1.00001000002876e-07
0.278167359695562 0.121 0.8604
0 0

0101101
*
Ve
2.00001e-07
0.304567359695562 0.121 0.870483902697002
0 0

0101101
*
Ve
2.00001e-07
0.304567359695562 0.121 0.929516097302998
0 0

0101101
*
Ve
2.00001e-07
0.278167359695562 0.121 0.9396
0 0

0101101
*
Ve
1.00000000305311e-07
0.304567359695561 0.187 0.929516097302998
0 0

0101101
*
Ve
1.00000000027756e-07
0.304567359695562 0.187 0.870483902697003
0 0

0101101
*
Ve
5.65686399473682e-07
0.278167359695562 0 0.8604
0 0

0101101
*
Ve
1.0000000000485e-07
0.278167359695562 4.84960132462352e-18 0.9396
0 0

0101101
*
Ve
1e-07
0.304567359695562 0.1606 0.9066
0 0

0101101
*
Ve
1e-07
0.418 9.69920264924705e-18 0.9396
0 0

0101101
*
Ve
1e-07
0.231 9.69920264924705e-18 0.9396
0 0

0101101
*
Ed
 1e-07 1 1 0
1  1 0 0.0100839026969985 0.0691160973030014
2  1 1 0 0.0100839026969985 0.0691160973030014
2  2 2 0 0.0100839026969985 0.0691160973030014
0

0101000
+66 0 -65 0 *
Ed
 1e-07 1 1 0
1  2 0 0 0.066
2  3 3 0 0 0.066
2  4 1 0 0 0.066
0

0101000
+64 0 -66 0 *
Ed
 1e-07 1 1 0
1  3 0 0 0.066
2  5 3 0 0 0.066
2  6 1 0 0 0.066
0

0101000
+63 0 -65 0 *
Ed
 1e-07 1 1 0
1  4 0 0.0100839026970027 0.0691160973029978
2  7 1 0 0.0100839026970027 0.0691160973029978
2  8 4 0 0.0100839026970027 0.0691160973029978
2  9 5 0 0.0100839026970027 0.0691160973029978
0

0101000
+64 0 -63 0 *
Ed
 1e-07 1 1 0
1  5 0 0 6.28318530717959
2  10 6 0 0 6.28318530717959
2  11 7 0 0 6.28318530717959
2  12 1 0 0 6.28318530717959
0

0101000
+62 0 -62 0 *
Ed
 1e-07 1 1 0
1  6 0 0 0.729727656226958
2  13 3 0 0 0.729727656226958
2  14 2 0 0 0.729727656226958
0

0101000
+61 0 -60 0 *
Ed
 1e-07 1 1 0
1  7 0 0.0100839026970022 0.0691160973029977
2  15 8 0 0.0100839026970022 0.0691160973029977
2  16 2 0 0.0100839026970022 0.0691160973029977
0

0101000
+60 0 -59 0 *
Ed
 1e-07 1 1 0
1  8 0 2.41186499736283 3.14159265358979
2  17 3 0 2.41186499736283 3.14159265358979
2  18 2 0 2.41186499736283 3.14159265358979
0

0101000
+59 0 -58 0 *
Ed
 1e-07 1 1 0
1  8 0 3.14159265358979 3.87132030981669
2  17 3 0 3.14159265358979 3.87132030981669
2  18 2 0 3.14159265358979 3.87132030981669
0

0101000
+58 0 -65 0 *
Ed
 1e-07 1 1 0
1  9 0 5.55345765095269 6.28318530717959
2  19 3 0 5.55345765095269 6.28318530717959
2  20 2 0 5.55345765095269 6.28318530717959
0

0101000
+66 0 -61 0 *
Ed
 1e-07 1 1 0
1  10 0 3.87132030981674 5.55345765095262
2  21 3 0 3.87132030981674 5.55345765095262
2  22 5 0 3.87132030981674 5.55345765095262
0

0101000
+63 0 -64 0 *
Ed
 1e-07 1 1 0
1  11 0 0 0.066
2  23 3 0 0 0.066
2  24 8 0 0 0.066
0

0101000
+57 0 -59 0 *
Ed
 1e-07 1 1 0
1  10 0 0.729727656226965 2.41186499736284
2  21 3 0 0.729727656226965 2.41186499736284
2  22 5 0 0.729727656226965 2.41186499736284
0

0101000
+56 0 -57 0 *
Ed
 1e-07 1 1 0
1  12 0 -0 0.066
2  25 3 0 -0 0.066
2  26 8 0 -0 0.066
0

0101000
+56 0 -60 0 *
Ed
 1e-07 1 1 0
1  13 0 0.066 0.187
3  27 28CN 3 0 0.066 0.187
0

0101000
+61 0 -55 0 *
Ed
 1e-07 1 1 0
1  14 0 1.5707963267949 4.71238898038469
2  29 3 0 1.5707963267949 4.71238898038469
2  30 9 0 1.5707963267949 4.71238898038469
0

0101000
+55 0 -54 0 *
Ed
 1e-07 1 1 0
1  15 0 1.5707963267949 4.71238898038514
2  31 3 0 1.5707963267949 4.71238898038514
2  32 9 0 1.5707963267949 4.71238898038514
0

0101000
+54 0 -55 0 *
Ed
 1e-07 1 1 0
1  16 0 0 0.0528
3  33 34CN 6 0 0 0.0528
0

0101000
-53 0 +62 0 *
Ed
 1e-07 1 1 0
1  17 0 0 6.28318530717959
2  35 6 0 0 6.28318530717959
2  36 10 0 0 6.28318530717959
2  37 8 0 0 6.28318530717959
0

0101000
+53 0 -53 0 *
Ed
 1e-07 1 1 0
1  18 0 0.0100839026970027 0.0691160973029977
2  38 8 0 0.0100839026970027 0.0691160973029977
2  39 4 0 0.0100839026970027 0.0691160973029977
2  40 5 0 0.0100839026970027 0.0691160973029977
0

0101000
+56 0 -57 0 *
Ed
 1e-07 1 1 0
1  19 0 0.0471673596955617 0.187
3  41 42CN 9 0 0.0471673596955617 0.187
0

0101000
+54 0 -52 0 *
Ed
 1e-07 1 1 0
1  19 0 0 0.0471673596955617
3  41 42CN 9 0 0 0.0471673596955617
0

0101000
+51 0 -54 0 *
Ed
 1e-07 1 1 0
1  20 0 0 6.28318530717959
2  43 9 0 0 6.28318530717959
2  44 11 0 0 6.28318530717959
0

0101000
+51 0 -51 0 *
Ed
 1e-07 1 1 0
1  21 0 0 6.28318530717959
2  45 9 0 0 6.28318530717959
2  46 12 0 0 6.28318530717959
0

0101000
+52 0 -52 0 *
Wi

0101100
-50 0 -49 0 +48 0 +47 0 *
Wi

0101100
-46 0 *
Wi

0101100
-45 0 -44 0 -43 0 -42 0 +50 0 -41 0 *
Wi

0101100
+49 0 +40 0 -48 0 +42 0 +43 0 +39 0 +38 0 -37 0 +45 0 -36 0 
-35 0 -34 0 +36 0 +41 0 *
Wi

0101100
+40 0 +47 0 *
Wi

0101100
+33 0 +46 0 -33 0 -32 0 *
Wi

0101100
-44 0 -37 0 +39 0 +31 0 *
Wi

0101100
-32 0 *
Wi

0101100
-31 0 +38 0 *
Wi

0101100
+30 0 +29 0 +28 0 -29 0 -30 0 -27 0 *
Wi

0101100
+35 0 +34 0 *
Wi

0101100
-28 0 *
Wi

0101100
+27 0 *
Fa
0  1e-07 1 0
2  1
0101000
+26 0 +25 0 *
Fa
0  1e-07 2 0
2  2
0101000
+24 0 *
Fa
0  1e-07 3 0
2  3
0101000
+23 0 *
Fa
0  1e-07 5 0
2  4
0101000
+22 0 *
Fa
0  1e-07 6 0
2  5
0101000
+21 0 *
Fa
0  1e-07 8 0
2  6
0101000
+20 0 +19 0 *
Fa
0  1e-07 5 0
2  7
0101000
+18 0 *
Fa
0  1e-07 9 0
2  8
0101000
+17 0 +16 0 *
Fa
0  1e-07 11 0
2  9
0101000
-15 0 *
Fa
0  1e-07 12 0
2  10
0101000
+14 0 *
Sh

0101100
+13 0 +12 0 +11 0 -10 0 +9 0 -8 0 -7 0 +6 0 -5 0 +4 0 
*
So

0100000
+3 0 *
Co

1100000
-66 0 +65 0 -64 0 +63 0 -62 0 -61 0 +60 0 +59 0 +58 0 +57 0 
+56 0 +55 0 +54 0 -53 0 -52 0 +51 0 -50 0 -49 0 +48 0 +47 0 
-46 0 -45 0 -44 0 -43 0 -42 0 -41 0 +40 0 +39 0 +38 0 -37 0 
-36 0 -35 0 -34 0 +33 0 -32 0 -31 0 +30 0 +29 0 +28 0 -27 0 
+26 0 +25 0 +24 0 +23 0 -22 0 +21 0 -20 0 -19 0 -18 0 +17 0 
+16 0 +15 0 +14 0 +13 0 +12 0 +11 0 -10 0 +9 0 -8 0 -7 0 
+6 0 -5 0 +4 0 +3 0 +2 0 *

+1 0 