DBRep_DrawableShape

CASCADE Topology V1, (c) Matra-Datavision
Locations 8
1
0.866025403784439            -0.5               0               0 
            0.5 0.866025403784439               0               0 
              0               0               1               0 
1
             -1 -1.22464679914735e-16               0               0 
1.22464679914735e-16              -1               0               0 
              0               0               1               0 
1
0.866025403784439            -0.5               0               0 
            0.5 0.866025403784439               0               0 
              0               0               1               0 
1
             -1 -1.22464679914735e-16               0               0 
1.22464679914735e-16              -1               0               0 
              0               0               1               0 
2  3 1 4 1 0
2  3 1 4 -1 3 -1 0
2  3 1 4 1 3 -1 0
2  3 -1 0
Curve2ds 170
1 0.059999999999999998 0 0 -1 
1 0.36080000000000001 0 0 1 
1 0 0 1 0 
1 0 0.079199999999999993 1 0 
1 0 -0.019800000000000005 1 0 
1 0 0 0 -1 
1 0.36080000000000001 0 0 1 
1 0 0 1 0 
1 0 0.36080000000000001 1 0 
1 0.059999999999999998 0 0 1 
1 0 0.11880000000000002 1 0 
2 0 0 1 0 -0 1 0.27999999999999997
1 0 0.060000000000000012 1 0 
2 -3.4694469519536142e-18 0.059400000000000008 -1 1.6653345369377348e-16 -1.6653345369377348e-16 -1 0.27999999999999997
2 0 0 -1 1.6653345369377348e-16 -1.6653345369377348e-16 -1 0.27999999999999997
2 -3.4694469519536142e-18 0.059400000000000008 -1 1.6653345369377348e-16 -1.6653345369377348e-16 -1 0.27999999999999997
2 0 0 -1 1.6653345369377348e-16 -1.6653345369377348e-16 -1 0.27999999999999997
1 0.059999999999999998 0 0 1 
1 0 0.079200000000000007 1 0 
1 0.28160000000000002 0.099000000000000005 1 0 
1 0.059999999999999998 0 0 1 
1 0 0 1 0 
1 0.059999999999999998 0 0 -1 
1 0 0 0 1 
1 0.28160000000000002 0.019800000000000005 0 1 
1 0.059999999999999998 0 0 1 
1 0 0 1 0 
1 0.28160000000000002 0.019800000000000005 1 0 
1 0 0 0 1 
1 0 0 1 0 
1 0.28160000000000002 0.019800000000000005 1 0 
1 0 0 1 0 
1 0 0 1 0 
1 0 0 1 0 
2 0 0 1 0 -0 1 0.013200000000000002
2 0.030000000000000027 0.039599999999999969 1 0 -0 1 0.01319999999999999
1 0 0 0 1 
1 0 0.11880000000000002 1 0 
2 0 0 1 0 -0 1 0.27999999999999997
1 0 0 1 0 
2 -3.4694469519536142e-18 0.059400000000000008 -1 1.6653345369377348e-16 -1.6653345369377348e-16 -1 0.27999999999999997
2 0 0 -1 1.6653345369377348e-16 -1.6653345369377348e-16 -1 0.27999999999999997
2 -3.4694469519536142e-18 0.059400000000000008 -1 1.6653345369377348e-16 -1.6653345369377348e-16 -1 0.27999999999999997
2 0 0 -1 1.6653345369377348e-16 -1.6653345369377348e-16 -1 0.27999999999999997
1 0 0 0 1 
1 0 0.079200000000000007 1 0 
1 0.28160000000000002 0.099000000000000005 1 0 
1 0 0 0 1 
1 0 0 1 0 
1 0 0 0 -1 
1 0 0 0 1 
1 0.28160000000000002 0.019800000000000005 0 1 
8 -4.0000000001150227e-07 0.060000400000000009
1 0 0.27362682617024231 1 0 
8 -4.0000000001150227e-07 0.060000400000000009
1 6.0694180998548433 0 0 1 
1 2.9278254462650506 0 0 1 
8 -4.0000000001150227e-07 0.060000400000000009
1 0 0.27362682617024231 1 0 
8 -4.0000000001150227e-07 0.060000400000000009
1 0.21376720732474264 0 0 1 
1 3.3553598609145356 0 0 1 
1 0 -0.11880000000000002 1 0 
1 0 0.36080000000000001 1 0 
8 3.3553598609145214 6.0694180998548584
1 -3.1415926535897931 0.060000000000000012 1 0 
2 0 0 -1 1.6653345369377348e-16 -1.6653345369377348e-16 -1 0.27999999999999997
8 0.2137672073247282 2.9278254462650652
1 3.1415926535897927 0.060000000000000012 1 0 
2 0 0 -1 1.6653345369377348e-16 -1.6653345369377348e-16 -1 0.27999999999999997
2 0 0.059400000000000008 1 0 -0 1 0.27999999999999997
2 0 0 1 0 -0 1 0.27999999999999997
8 6.0694180998548584 6.2831853071795862
1 -3.1415926535897936 0.060000000000000012 1 0 
2 0 0 -1 1.6653345369377348e-16 -1.6653345369377348e-16 -1 0.27999999999999997
2 0 0.059400000000000008 1 0 -0 1 0.27999999999999997
2 0 0 1 0 -0 1 0.27999999999999997
8 0 0.2137672073247282
1 3.1415926535897931 0.060000000000000012 1 0 
2 0 0 -1 1.6653345369377348e-16 -1.6653345369377348e-16 -1 0.27999999999999997
2 0 0 0.86602540378443871 -0.49999999999999994 0.49999999999999994 0.86602540378443871 0.19078784028338916
1 0 0.30469265401539752 1 0 
1 0 -0.079200000000000007 1 0 
1 0 0.079199999999999993 1 0 
1 0 -0.099000000000000005 1 0 
1 0 -0.079200000000000007 1 0 
1 0 0 1 0 
1 0 0.079200000000000007 1 0 
2 0 0 1 0 -0 1 0.013200000000000002
2 0.030000000000000027 0.039599999999999969 1 0 -0 1 0.01319999999999999
1 6.2831853071795862 -0 0 1 
1 0 -0 0 1 
1 0 0.020642943266424508 1 0 
7 0 0  10 56 7  4.7123889803846888 0.60824557891020914  4.767077088895145 0.60824557891020914  4.8217648284867538 0.60347305878032553  4.8755317676723795 0.59392861837683275  4.9274486641643307 0.57973942466808237  4.9767120848426005 0.5611666615676667  5.0227387886850918 0.53856664013310362  5.0651835711975748 0.51234154958945211  5.1038851807653796 0.48290149958726181  5.1387858292331492 0.45064517405425164  5.2243793088259363 0.35523918451785363  5.267283883117015 0.28706359312704677  5.2987424673818166 0.21345774982914864  5.3195828857045857 0.13626876402173593  5.3305243046124815 0.057000980286744607  5.3319201638747469 -0.023010915702639068  5.3237644592387365 -0.10248008536258232  5.3056977852656901 -0.18006385560571542  5.2770172229425576 -0.25419290951735807  5.2073284285388963 -0.37470840015564078  5.1711940826971787 -0.42339721985612044  5.1285722786933547 -0.4683642305413514  5.0792756158130938 -0.50876466620793503  5.0233360874262871 -0.54369412372761872  4.9610363005020188 -0.57217074965010395  4.8933713783186246 -0.59325027401596342  4.8222442261425709 -0.60624968241830179  4.7498440143152019 -0.61092701958587736  4.6245298540384585 -0.6047671374693675  4.5712697612646487 -0.59751632835941726  4.5193249067457035 -0.58570859714510781  4.46953377183066 -0.56951609859352925  4.4225805242127123 -0.54922563571153671  4.378933809025936 -0.52519832847944303  4.3388526027869174 -0.49782509304545003  4.3024423665614222 -0.46749599588547081  4.2697232320342167 -0.43458703921084574  4.1970412805945738 -0.34675300539450371  4.1616367978872946 -0.28904689733732047  4.1342949929577113 -0.22753506630020942  4.1145727180881293 -0.16330749647144099  4.1020565007028278 -0.097308388491411643  4.0964785467015945 -0.030375325173996742  4.0977468977824225 0.03669860928863132  4.1059535375439209 0.10310870097485003  4.1213590728119822 0.16799434222377291  4.1672158237664627 0.29278452698621871  4.1976668328825326 0.35268938723856991  4.2359643144009169 0.4091379577293992  4.2824862254201435 0.46107149108865997  4.3375866344431415 0.50726882176240906  4.4012627976480871 0.54642520775814774  4.4731103320373222 0.57703143256003386  4.5508880004053935 0.59784040694921714  4.6316385701622202 0.60824557891020925  4.7123889803846897 0.60824557891020925 
 0 11 0.78539816339743884 9 2.1598449493429386 9 3.1906800388020828 9 3.9638063558964278 9 5.1234958315380092 9 6.2831853071795862 11
8 3.3553598609145214 6.0694180998548584
1 -3.1415926535897931 0 1 0 
2 0 0 -1 1.6653345369377348e-16 -1.6653345369377348e-16 -1 0.27999999999999997
8 0.2137672073247282 2.9278254462650652
1 3.1415926535897927 0 1 0 
2 0 0 -1 1.6653345369377348e-16 -1.6653345369377348e-16 -1 0.27999999999999997
2 0 0.059400000000000008 1 0 -0 1 0.27999999999999997
2 0 0 1 0 -0 1 0.27999999999999997
8 6.0694180998548584 6.2831853071795862
1 -3.1415926535897936 0 1 0 
2 0 0 -1 1.6653345369377348e-16 -1.6653345369377348e-16 -1 0.27999999999999997
2 0 0.059400000000000008 1 0 -0 1 0.27999999999999997
2 0 0 1 0 -0 1 0.27999999999999997
8 0 0.2137672073247282
1 3.1415926535897931 0 1 0 
2 0 0 -1 1.6653345369377348e-16 -1.6653345369377348e-16 -1 0.27999999999999997
2 0 0 0.86602540378443871 -0.49999999999999994 0.49999999999999994 0.86602540378443871 0.20000000000000001
1 0 0 1 0 
8 -4.0000000001150227e-07 0.060000400000000009
1 0 0.27362682617024231 1 0 
8 -4.0000000001150227e-07 0.060000400000000009
1 0.21376720732474264 0 0 1 
1 3.3553598609145356 0 0 1 
8 -4.0000000001150227e-07 0.060000400000000009
1 0 0.27362682617024231 1 0 
8 -4.0000000001150227e-07 0.060000400000000009
1 6.0694180998548433 0 0 1 
1 2.9278254462650506 0 0 1 
1 0 0.11880000000000002 1 0 
1 0.059999999999999998 0 0 1 
1 0.36080000000000001 0 0 1 
1 0.059999999999999998 0 0 -1 
1 0.28160000000000002 0.099000000000000005 1 0 
1 0.059999999999999998 0 0 1 
1 0 0 1 0 
1 0.059999999999999998 0 0 1 
1 0.28160000000000002 0.019800000000000005 0 1 
1 0.059999999999999998 0 0 -1 
1 0.059999999999999998 0 0 -1 
1 0.36080000000000001 0 0 1 
1 0.28160000000000002 0.019800000000000005 1 0 
1 0.059999999999999998 0 0 1 
1 6.2831853071795862 -6.2831853071795862 0 1 
1 0 -6.2831853071795862 0 1 
1 0 0.058557056733575502 1 0 
7 0 0  10 56 7  1.5707963267948966 0.60824557891020914  1.5161082182844414 0.60824557891020914  1.4614204786880789 0.60347305878032553  1.4076535395043748 0.59392861837683275  1.355736643001046 0.57973942466808237  1.3064732223167286 0.5611666615676667  1.2604465184862725 0.53856664013310362  1.2180017359848567 0.51234154958945211  1.1793001264102334 0.48290149958726181  1.1443994779464366 0.45064517405425164  1.0588059983536495 0.35523918451785363  1.0159014240394533 0.28706359312704677  0.98444283986468695 0.21345774982914864  0.96360242137889141 0.13626876402173593  0.95266100257867947 0.057000980286744607  0.95126514343064628 -0.023010915702639068  0.95942084789858195 -0.10248008536258232  0.97748752192897614 -0.18006385560571542  1.0061680842370282 -0.25419290951735807  1.0758568786406892 -0.37470840015564078  1.1119912244327321 -0.42339721985612044  1.1546130285380969 -0.4683642305413514  1.2039096910273657 -0.50876466620793503  1.2598492194465507 -0.54369412372761872  1.3221490065829129 -0.57217074965010395  1.3898139286885454 -0.59325027401596342  1.4609410810717407 -0.60624968241830179  1.5333412928643844 -0.61092701958587736  1.6586554531411282 -0.6047671374693675  1.7119155459132256 -0.59751632835941726  1.7638604004261169 -0.58570859714510781  1.8136515353407656 -0.56951609859352925  1.8606047829590455 -0.54922563571153671  1.9042514981431851 -0.52519832847944303  1.9443327043832046 -0.49782509304545003  1.9807429406170178 -0.46749599588547081  2.0134620751453678 -0.43458703921084574  2.086144026585012 -0.34675300539450371  2.121548509287186 -0.28904689733732047  2.1488903142238707 -0.22753506630020942  2.168612589090571 -0.16330749647144099  2.181128806471154 -0.097308388491411643  2.1867067604761661 -0.030375325173996742  2.1854384093984178 0.03669860928863132  2.1772317696307004 0.10310870097485003  2.1618262343676031 0.16799434222377291  2.1159694834131231 0.29278452698621871  2.0855184745942097 0.35268938723856991  2.0472209920990281 0.4091379577293992  2.0006990844849497 0.46107149108865997  1.945598672144115 0.50726882176240906  1.8819225106562953 0.54642520775814774  1.8100749745208304 0.57703143256003386  1.7322973070658918 0.59784040694921714  1.6515467370173655 0.60824557891020925  1.5707963267948966 0.60824557891020925 
 0 11 0.78539816339744972 9 2.1598449493429883 9 3.190680038802137 9 3.9638063558965029 9 5.1234958315380457 9 6.2831853071795862 11
1 6.2831853071795862 -6.2831853071795862 0 1 
1 0 -6.2831853071795862 0 1 
1 0 -1.5707963267948966 1 0 
1 0 1.5707963267948966 1 0 
1 0 0.11880000000000002 1 0 
1 0 0 0 1 
1 0.36080000000000001 0 0 1 
1 0 0 0 -1 
1 0.28160000000000002 0.099000000000000005 1 0 
1 0 0 0 1 
1 0 0 1 0 
1 0 0 0 1 
1 0.28160000000000002 0.019800000000000005 0 1 
1 0 0 0 -1 
1 0 0 0 -1 
1 0.36080000000000001 0 0 1 
1 0 0 0 1 
1 0.28160000000000002 0.019800000000000005 1 0 
1 0 0.36080000000000001 1 0 
1 0 -0.11880000000000002 1 0 
1 0 0 1 0 
1 0 0.36080000000000001 1 0 
1 0 -0.099000000000000005 1 0 
1 0 0.079199999999999993 1 0 
1 0 0 1 0 
1 0 -0.079200000000000007 1 0 
2 0.030000000000000027 0.039599999999999969 1 0 -0 1 0.01319999999999999
1 0 0.079200000000000007 1 0 
1 0 0 1 0 
1 0 0 1 0 
1 0 -0.019800000000000005 1 0 
1 0 0.079199999999999993 1 0 
2 0.030000000000000027 0.039599999999999969 1 0 -0 1 0.01319999999999999
1 0 0 1 0 
1 0 0.058557056733575502 1 0 
7 0 0  10 56 7  1.5707963267948966 0.60824557891020914  1.5161082182844414 0.60824557891020914  1.4614204786880789 0.60347305878032553  1.4076535395043748 0.59392861837683275  1.355736643001046 0.57973942466808237  1.3064732223167286 0.5611666615676667  1.2604465184862725 0.53856664013310362  1.2180017359848567 0.51234154958945211  1.1793001264102334 0.48290149958726181  1.1443994779464366 0.45064517405425164  1.0588059983536495 0.35523918451785363  1.0159014240394533 0.28706359312704677  0.98444283986468695 0.21345774982914864  0.96360242137889141 0.13626876402173593  0.95266100257867947 0.057000980286744607  0.95126514343064628 -0.023010915702639068  0.95942084789858195 -0.10248008536258232  0.97748752192897614 -0.18006385560571542  1.0061680842370282 -0.25419290951735807  1.0758568786406892 -0.37470840015564078  1.1119912244327321 -0.42339721985612044  1.1546130285380969 -0.4683642305413514  1.2039096910273657 -0.50876466620793503  1.2598492194465507 -0.54369412372761872  1.3221490065829129 -0.57217074965010395  1.3898139286885454 -0.59325027401596342  1.4609410810717407 -0.60624968241830179  1.5333412928643844 -0.61092701958587736  1.6586554531411282 -0.6047671374693675  1.7119155459132256 -0.59751632835941726  1.7638604004261169 -0.58570859714510781  1.8136515353407656 -0.56951609859352925  1.8606047829590455 -0.54922563571153671  1.9042514981431851 -0.52519832847944303  1.9443327043832046 -0.49782509304545003  1.9807429406170178 -0.46749599588547081  2.0134620751453678 -0.43458703921084574  2.086144026585012 -0.34675300539450371  2.121548509287186 -0.28904689733732047  2.1488903142238707 -0.22753506630020942  2.168612589090571 -0.16330749647144099  2.181128806471154 -0.097308388491411643  2.1867067604761661 -0.030375325173996742  2.1854384093984178 0.03669860928863132  2.1772317696307004 0.10310870097485003  2.1618262343676031 0.16799434222377291  2.1159694834131231 0.29278452698621871  2.0855184745942097 0.35268938723856991  2.0472209920990281 0.4091379577293992  2.0006990844849497 0.46107149108865997  1.945598672144115 0.50726882176240906  1.8819225106562953 0.54642520775814774  1.8100749745208304 0.57703143256003386  1.7322973070658918 0.59784040694921714  1.6515467370173655 0.60824557891020925  1.5707963267948966 0.60824557891020925 
 0 11 0.78539816339744972 9 2.1598449493429883 9 3.190680038802137 9 3.9638063558965029 9 5.1234958315380457 9 6.2831853071795862 11
1 6.2831853071795862 -0 0 1 
1 0 -0 0 1 
1 6.2831853071795862 -0 0 1 
1 0 -0 0 1 
1 0 0.020642943266424508 1 0 
7 0 0  10 56 7  4.7123889803846888 0.60824557891020914  4.767077088895145 0.60824557891020914  4.8217648284867538 0.60347305878032553  4.8755317676723795 0.59392861837683275  4.9274486641643307 0.57973942466808237  4.9767120848426005 0.5611666615676667  5.0227387886850918 0.53856664013310362  5.0651835711975748 0.51234154958945211  5.1038851807653796 0.48290149958726181  5.1387858292331492 0.45064517405425164  5.2243793088259363 0.35523918451785363  5.267283883117015 0.28706359312704677  5.2987424673818166 0.21345774982914864  5.3195828857045857 0.13626876402173593  5.3305243046124815 0.057000980286744607  5.3319201638747469 -0.023010915702639068  5.3237644592387365 -0.10248008536258232  5.3056977852656901 -0.18006385560571542  5.2770172229425576 -0.25419290951735807  5.2073284285388963 -0.37470840015564078  5.1711940826971787 -0.42339721985612044  5.1285722786933547 -0.4683642305413514  5.0792756158130938 -0.50876466620793503  5.0233360874262871 -0.54369412372761872  4.9610363005020188 -0.57217074965010395  4.8933713783186246 -0.59325027401596342  4.8222442261425709 -0.60624968241830179  4.7498440143152019 -0.61092701958587736  4.6245298540384585 -0.6047671374693675  4.5712697612646487 -0.59751632835941726  4.5193249067457035 -0.58570859714510781  4.46953377183066 -0.56951609859352925  4.4225805242127123 -0.54922563571153671  4.378933809025936 -0.52519832847944303  4.3388526027869174 -0.49782509304545003  4.3024423665614222 -0.46749599588547081  4.2697232320342167 -0.43458703921084574  4.1970412805945738 -0.34675300539450371  4.1616367978872946 -0.28904689733732047  4.1342949929577113 -0.22753506630020942  4.1145727180881293 -0.16330749647144099  4.1020565007028278 -0.097308388491411643  4.0964785467015945 -0.030375325173996742  4.0977468977824225 0.03669860928863132  4.1059535375439209 0.10310870097485003  4.1213590728119822 0.16799434222377291  4.1672158237664627 0.29278452698621871  4.1976668328825326 0.35268938723856991  4.2359643144009169 0.4091379577293992  4.2824862254201435 0.46107149108865997  4.3375866344431415 0.50726882176240906  4.4012627976480871 0.54642520775814774  4.4731103320373222 0.57703143256003386  4.5508880004053935 0.59784040694921714  4.6316385701622202 0.60824557891020925  4.7123889803846897 0.60824557891020925 
 0 11 0.78539816339743884 9 2.1598449493429386 9 3.1906800388020828 9 3.9638063558964278 9 5.1234958315380092 9 6.2831853071795862 11
1 6.2831853071795862 -6.2831853071795862 0 1 
1 0 -6.2831853071795862 0 1 
1 0 -1.5707963267948966 1 0 
1 0 1.5707963267948966 1 0 
Curves 64
1 0.36080000000000001 -0.059400000000000008 0.46000000000000002 0 1 0 
1 0.36080000000000001 -0.039600000000000003 0.40000000000000002 0 0 1 
1 0.36080000000000001 -0.059400000000000008 0.40000000000000002 -0 1 0 
1 0.36080000000000001 -0.059400000000000008 0.40000000000000002 0 0 1 
1 0 0.059400000000000008 0.46000000000000002 1 0 -0 
2 0 0 0.46000000000000002 0 0 1 1 0 -0 -0 1 0 0.27999999999999997
1 0.28160000000000002 0.039600000000000003 0.46000000000000002 1 0 -0 
1 0 -0.059400000000000008 0.46000000000000002 1 0 -0 
1 0.28160000000000002 -0.039600000000000003 0.46000000000000002 -0 1 0 
1 0.28160000000000002 -0.039600000000000003 0.46000000000000002 1 0 -0 
1 0.28160000000000002 -0.039600000000000003 0.40000000000000002 1 0 -0 
1 0.28160000000000002 -0.039600000000000003 0.40000000000000002 0 0 1 
2 0.32119999999999999 -0.039600000000000003 0.43000000000000005 0 1 0 0 -0 1 1 0 -0 0.013200000000000002
1 0 0.059400000000000008 0.40000000000000002 1 0 -0 
2 0 0 0.40000000000000002 0 0 1 1 0 -0 -0 1 0 0.27999999999999997
1 0.28160000000000002 0.039600000000000003 0.40000000000000002 1 0 -0 
1 0 -0.059400000000000008 0.40000000000000002 1 0 -0 
1 0.28160000000000002 -0.039600000000000003 0.40000000000000002 -0 1 0 
1 0.27362682617024231 -0.059400000000000008 0.40000000000000002 0 0 1 
1 0.27362682617024231 0.059400000000000008 0.40000000000000002 0 0 1 
1 0.36080000000000001 0.059400000000000008 0.40000000000000002 0 0 1 
2 0 0 0.46000000000000002 0 0 1 1 0 -0 -0 1 0 0.27999999999999997
2 0 0 0.46000000000000002 0 0 1 1 0 -0 -0 1 0 0.27999999999999997
2 0 0 0.46000000000000002 0 0 1 1 0 -0 -0 1 0 0.19078784028338916
1 0.36080000000000001 0.039600000000000003 0.40000000000000002 0 0 1 
1 0.28160000000000002 0.039600000000000003 0.40000000000000002 0 0 1 
2 0.32119999999999999 0.039600000000000003 0.43000000000000005 0 1 0 0 -0 1 1 0 -0 0.013200000000000002
1 0.32119999999999999 -0.039600000000000003 0.44320000000000004 0 1 0 
2 0.32119999999999999 -0.018957056733575495 0.43000000000000005 0 1 0 0 -0 1 1 0 -0 0.013200000000000002
2 0 0 0.40000000000000002 0 0 1 1 0 -0 -0 1 0 0.27999999999999997
2 0 0 0.40000000000000002 0 0 1 1 0 -0 -0 1 0 0.27999999999999997
2 0 0 0.40000000000000002 0 0 1 1 0 -0 -0 1 0 0.20000000000000001
1 0.27362682617024231 0.059400000000000008 0.40000000000000002 0 0 1 
1 0.27362682617024231 -0.059400000000000008 0.40000000000000002 0 0 1 
1 0 0.059400000000000008 0.46000000000000002 1 0 -0 
1 0.36080000000000001 -0.059400000000000008 0.46000000000000002 0 1 0 
1 0.28160000000000002 0.039600000000000003 0.46000000000000002 1 0 -0 
1 0 -0.059400000000000008 0.46000000000000002 1 0 -0 
1 0.28160000000000002 -0.039600000000000003 0.46000000000000002 -0 1 0 
1 0.36080000000000001 -0.059400000000000008 0.46000000000000002 0 1 0 
1 0.28160000000000002 -0.039600000000000003 0.46000000000000002 1 0 -0 
2 0 0 0.40000000000000002 -2.4492935982947064e-16 -1 0 1 -2.4492935982947064e-16 0 0 0 1 0.20000000000000001
2 0.32119999999999999 0.018957056733575495 0.43000000000000005 0 1 0 0 -0 1 1 0 -0 0.013200000000000002
2 0.32119999999999999 0 0.43000000000000005 -2.4492935982947064e-16 -1 0 1 -2.4492935982947064e-16 0 0 0 1 0.023100000000000002
1 0 0.059400000000000008 0.40000000000000002 1 0 -0 
1 0.36080000000000001 -0.059400000000000008 0.40000000000000002 -0 1 0 
1 0.28160000000000002 0.039600000000000003 0.40000000000000002 1 0 -0 
1 0 -0.059400000000000008 0.40000000000000002 1 0 -0 
1 0.28160000000000002 -0.039600000000000003 0.40000000000000002 -0 1 0 
1 0.36080000000000001 -0.059400000000000008 0.40000000000000002 -0 1 0 
1 0.28160000000000002 -0.039600000000000003 0.40000000000000002 1 0 -0 
1 0.36080000000000001 0.059400000000000008 0.40000000000000002 0 0 1 
1 0.36080000000000001 -0.059400000000000008 0.40000000000000002 0 0 1 
1 0.36080000000000001 0.039600000000000003 0.40000000000000002 0 0 1 
1 0.28160000000000002 0.039600000000000003 0.40000000000000002 0 0 1 
2 0.32119999999999999 0.039600000000000003 0.43000000000000005 0 1 0 0 -0 1 1 0 -0 0.013200000000000002
1 0.28160000000000002 -0.039600000000000003 0.40000000000000002 0 0 1 
1 0.36080000000000001 -0.039600000000000003 0.40000000000000002 0 0 1 
2 0.32119999999999999 -0.039600000000000003 0.43000000000000005 0 1 0 0 -0 1 1 0 -0 0.013200000000000002
2 0.32119999999999999 0.018957056733575495 0.43000000000000005 0 1 0 0 -0 1 1 0 -0 0.013200000000000002
1 0.32119999999999999 -0.039600000000000003 0.44320000000000004 0 1 0 
1 0.32119999999999999 -0.039600000000000003 0.44320000000000004 0 1 0 
2 0.32119999999999999 -0.018957056733575495 0.43000000000000005 0 1 0 0 -0 1 1 0 -0 0.013200000000000002
2 0.32119999999999999 0 0.43000000000000005 -2.4492935982947064e-16 -1 0 1 -2.4492935982947064e-16 0 0 0 1 0.023100000000000002
Polygon3D 0
PolygonOnTriangulations 0
Surfaces 34
1 0.36080000000000001 -0.059400000000000008 0.40000000000000002 1 0 -0 0 0 1 0 -1 0 
1 0 -0.059400000000000008 0.46000000000000002 0 0 1 1 0 -0 -0 1 0 
1 0.36080000000000001 -0.039600000000000003 0.40000000000000002 1 0 -0 0 0 1 0 -1 0 
1 0.28160000000000002 -0.039600000000000003 0.40000000000000002 -0 1 0 0 0 1 1 0 -0 
1 0 -0.059400000000000008 0.40000000000000002 0 0 1 1 0 -0 -0 1 0 
1 0 -0.059400000000000008 0.40000000000000002 -0 1 0 0 0 1 1 0 -0 
1 0 0.059400000000000008 0.40000000000000002 -0 1 0 0 0 1 1 0 -0 
1 0 0 0.46000000000000002 0 0 1 1 0 -0 -0 1 0 
2 0 0 0.40000000000000002 0 0 1 1 0 -0 -0 1 0 0.27999999999999997
1 0 0 0.46000000000000002 0 0 1 1 0 -0 -0 1 0 
1 0.28160000000000002 0.039600000000000003 0.40000000000000002 -0 1 0 0 0 1 1 0 -0 
1 0.28160000000000002 -0.039600000000000003 0.46000000000000002 0 0 1 1 0 -0 -0 1 0 
1 0.28160000000000002 -0.039600000000000003 0.40000000000000002 1 0 -0 0 0 1 0 -1 0 
1 0.28160000000000002 -0.039600000000000003 0.40000000000000002 0 0 1 1 0 -0 -0 1 0 
2 0.32119999999999999 -0.039600000000000003 0.43000000000000005 0 1 0 0 -0 1 1 0 -0 0.013200000000000002
1 0.32119999999999999 -0.039600000000000003 0.43000000000000005 0 1 0 0 -0 1 1 0 -0 
1 0 0 0.40000000000000002 0 0 1 1 0 -0 -0 1 0 
1 0 0 0.40000000000000002 0 0 1 1 0 -0 -0 1 0 
2 0 0 0.40000000000000002 0 0 1 1 0 -0 -0 1 0 0.27999999999999997
1 0 -0.059400000000000008 0.46000000000000002 0 0 1 1 0 -0 -0 1 0 
4 0 0 0.40000000000000002 0 0 1 1 0 -0 -0 1 0 0.20000000000000001
1 0.32119999999999999 0.039600000000000003 0.43000000000000005 0 1 0 0 -0 1 1 0 -0 
4 0.32119999999999999 0 0.43000000000000005 0 0 1 1 0 -0 -0 1 0 0.023100000000000002
1 0 -0.059400000000000008 0.40000000000000002 0 0 1 1 0 -0 -0 1 0 
1 0 0.059400000000000008 0.40000000000000002 -0 1 0 0 0 1 1 0 -0 
1 0 -0.059400000000000008 0.40000000000000002 -0 1 0 0 0 1 1 0 -0 
1 0.36080000000000001 -0.059400000000000008 0.40000000000000002 1 0 -0 0 0 1 0 -1 0 
1 0.28160000000000002 0.039600000000000003 0.40000000000000002 -0 1 0 0 0 1 1 0 -0 
1 0.28160000000000002 -0.039600000000000003 0.40000000000000002 1 0 -0 0 0 1 0 -1 0 
1 0.36080000000000001 -0.059400000000000008 0.40000000000000002 1 0 -0 0 0 1 0 -1 0 
1 0.28160000000000002 -0.039600000000000003 0.40000000000000002 -0 1 0 0 0 1 1 0 -0 
2 0.32119999999999999 -0.039600000000000003 0.43000000000000005 0 1 0 0 -0 1 1 0 -0 0.013200000000000002
2 0.32119999999999999 -0.039600000000000003 0.43000000000000005 0 1 0 0 -0 1 1 0 -0 0.013200000000000002
4 0.32119999999999999 0 0.43000000000000005 0 0 1 1 0 -0 -0 1 0 0.023100000000000002
Triangulations 0

TShapes 200
Ve
1e-07
0.3212 0 0.43
0 0

0101101
*
Ve
1e-07
0.278167359695562 0.1606 0.43
0 0

0101101
*
Ve
1e-07
0.3608 -0.0594 0.46
0 0

0101101
*
Ve
1e-07
0.3608 -0.0396 0.46
0 0

0101101
*
Ve
1e-07
0.3608 -0.0396 0.4
0 0

0101101
*
Ve
1e-07
0.3608 -0.0594 0.4
0 0

0101101
*
Ve
1.00000003795575e-07
0.273626826170244 0.0593999999999962 0.46
0 0

0101101
*
Ve
1e-07
0.3608 0.0594 0.46
0 0

0101101
*
Ve
1e-07
0.28 -6.85802207522518e-17 0.46
0 0

0101101
*
Ve
1e-07
0.3608 0.0396 0.46
0 0

0101101
*
Ve
1.00000003812922e-07
0.273626826170244 -0.0593999999999962 0.46
0 0

0101101
*
Ve
1e-07
0.2816 0.0396 0.46
0 0

0101101
*
Ve
1e-07
0.2816 -0.0396 0.46
0 0

0101101
*
Ve
1e-07
0.2816 -0.0396 0.4
0 0

0101101
*
Ve
1e-07
0.3212 -0.0396 0.4432
0 0

0101101
*
Ve
1.00000003795575e-07
0.273626826170244 0.0593999999999962 0.4
0 0

0101101
*
Ve
1e-07
0.3608 0.0594 0.4
0 0

0101101
*
Ve
1e-07
0.28 -6.85802207522518e-17 0.4
0 0

0101101
*
Ve
1e-07
0.3608 0.0396 0.4
0 0

0101101
*
Ve
1.00000003812922e-07
0.273626826170244 -0.0593999999999962 0.4
0 0

0101101
*
Ve
1e-07
0.2816 0.0396 0.4
0 0

0101101
*
Ve
1.00000003812922e-07
0.266667782620338 0.0853715041003296 0.46
0 0

0101101
*
Ve
1.00000003795575e-07
0.207267782620342 0.188255322069914 0.46
0 0

0101101
*
Ve
1e-07
0.242487113059643 0.14 0.46
0 0

0101101
*
Ve
2.00001e-07
0.190787840283389 -4.67295435838578e-17 0.46
0 0

0101101
*
Ve
1e-07
0.3212 0.0396 0.4432
0 0

0101101
*
Ve
2.00001e-07
0.3212 -0.0189570567335766 0.4432
0 0

0101101
*
Ve
1.00000003812922e-07
0.266667782620338 0.0853715041003296 0.4
0 0

0101101
*
Ve
1.00000003795575e-07
0.207267782620342 0.188255322069914 0.4
0 0

0101101
*
Ve
1e-07
0.242487113059643 0.14 0.4
0 0

0101101
*
Ve
2.00001e-07
0.199999999999994 -4.89858719658926e-17 0.40000005
0 0

0101101
*
Ve
1e-07
0.282761965685425 0.231841908984796 0.46
0 0

0101101
*
Ve
1e-07
0.292661965685426 0.214694605989864 0.46
0 0

0101101
*
Ve
1e-07
0.224072753705698 0.175094605989864 0.46
0 0

0101101
*
Ve
1e-07
0.342161965685426 0.128958091015204 0.46
0 0

0101101
*
Ve
1e-07
0.263672753705698 0.106505394010136 0.46
0 0

0101101
*
Ve
1e-07
0.332261965685425 0.146105394010136 0.46
0 0

0101101
*
Ve
2.00001e-07
0.3212 0.0189570567335766 0.4432
0 0

0101101
*
Ve
1e-07
0.3212 0 0.4531
0 0

0101101
*
Ve
1e-07
0.3212 0 0.4069
0 0

0101101
*
Ve
1e-07
0.282761965685425 0.231841908984796 0.4
0 0

0101101
*
Ve
1e-07
0.292661965685426 0.214694605989864 0.4
0 0

0101101
*
Ve
1e-07
0.224072753705698 0.175094605989864 0.4
0 0

0101101
*
Ve
1e-07
0.342161965685426 0.128958091015204 0.4
0 0

0101101
*
Ve
1e-07
0.263672753705698 0.106505394010136 0.4
0 0

0101101
*
Ve
1e-07
0.332261965685425 0.146105394010136 0.4
0 0

0101101
*
Ve
1e-07
0.258367359695562 0.194894605989864 0.4432
0 0

0101101
*
Ve
1e-07
0.297967359695562 0.126305394010136 0.4432
0 0

0101101
*
Ve
2.00001e-07
0.268688831328773 0.17701729271226 0.4432
0 0

0101101
*
Ve
2.00001e-07
0.28764588806235 0.14418270728774 0.4432
0 0

0101101
*
Ve
1e-07
0.278167359695562 0.1606 0.4531
0 0

0101101
*
Ve
1e-07
0.278167359695562 0.1606 0.4069
0 0

0101101
*
Ed
 1e-07 1 1 0
1  1 0 0 0.0198
2  1 1 0 0 0.0198
2  2 2 0 0 0.0198
0

0101000
+198 0 -197 0 *
Ed
 1e-07 1 1 0
1  2 0 0 0.06
2  3 3 0 0 0.06
2  4 4 0 0 0.06
2  5 1 0 0 0.06
0

0101000
-197 0 +196 0 *
Ed
 1e-07 1 1 0
1  3 0 0 0.0198
2  6 1 0 0 0.0198
2  7 5 0 0 0.0198
0

0101000
+195 0 -196 0 *
Ed
 1e-07 1 1 0
1  4 0 0 0.06
2  8 1 0 0 0.06
2  9 6 0 0 0.06
0

0101000
-198 0 +195 0 *
Ed
 1e-07 1 1 0
1  5 0 0.273626826170244 0.3608
2  10 7 0 0.273626826170244 0.3608
2  11 2 0 0.273626826170244 0.3608
0

0101000
+194 0 -193 0 *
Ed
 1e-07 1 1 0
1  6 0 3.14159265358979 3.35535986091452
2  12 8 0 3.14159265358979 3.35535986091452
2  13 9 0 3.14159265358979 3.35535986091452
2  14 2 6 3.14159265358979 3.35535986091452
2  15 10 6 3.14159265358979 3.35535986091452
0

0101000
+192 6 -194 6 *
Ed
 1e-07 1 1 0
1  1 0 0.099 0.1188
2  1 1 0 0.099 0.1188
2  2 2 0 0.099 0.1188
0

0101000
+191 0 -193 0 *
Ed
 1e-07 1 1 0
1  6 0 2.92782544626507 3.14159265358979
2  12 8 0 2.92782544626507 3.14159265358979
2  13 9 0 2.92782544626507 3.14159265358979
2  16 2 6 2.92782544626507 3.14159265358979
2  17 10 6 2.92782544626507 3.14159265358979
0

0101000
+190 6 -192 6 *
Ed
 1e-07 1 1 0
1  7 0 0 0.0792
2  18 11 0 0 0.0792
2  19 12 0 0 0.0792
2  20 2 0 0 0.0792
0

0101000
-191 0 +189 0 *
Ed
 1e-07 1 1 0
1  8 0 0.273626826170244 0.3608
2  21 6 0 0.273626826170244 0.3608
2  22 2 0 0.273626826170244 0.3608
0

0101000
+190 0 -198 0 *
Ed
 1e-07 1 1 0
1  9 0 0 0.0792
2  23 13 0 0 0.0792
2  24 12 0 0 0.0792
2  25 2 0 0 0.0792
0

0101000
-189 0 +188 0 *
Ed
 1e-07 1 1 0
1  10 0 0 0.0792
2  26 4 0 0 0.0792
2  27 12 0 0 0.0792
2  28 2 0 0 0.0792
0

0101000
-197 0 +188 0 *
Ed
 1e-07 1 1 0
1  11 0 0 0.0792
2  29 4 0 0 0.0792
2  30 14 0 0 0.0792
2  31 5 0 0 0.0792
0

0101000
-196 0 +187 0 *
Ed
 1e-07 1 1 0
1  12 0 0 0.06
2  32 13 0 0 0.06
2  33 4 0 0 0.06
0

0101000
-188 0 +187 0 *
Ed
 1e-07 1 1 0
1  13 0 0 6.28318530717959
2  34 15 0 0 6.28318530717959
2  35 16 0 0 6.28318530717959
2  36 4 0 0 6.28318530717959
0

0101000
+186 0 -186 0 *
Ed
 1e-07 1 1 0
1  14 0 0.273626826170244 0.3608
2  37 7 0 0.273626826170244 0.3608
2  38 5 0 0.273626826170244 0.3608
0

0101000
+185 0 -184 0 *
Ed
 1e-07 1 1 0
1  15 0 3.14159265358979 3.35535986091452
2  39 17 0 3.14159265358979 3.35535986091452
2  40 9 0 3.14159265358979 3.35535986091452
2  41 5 6 3.14159265358979 3.35535986091452
2  42 18 6 3.14159265358979 3.35535986091452
0

0101000
+183 6 -185 6 *
Ed
 1e-07 1 1 0
1  3 0 0.099 0.1188
2  6 1 0 0.099 0.1188
2  7 5 0 0.099 0.1188
0

0101000
+182 0 -184 0 *
Ed
 1e-07 1 1 0
1  15 0 2.92782544626507 3.14159265358979
2  39 17 0 2.92782544626507 3.14159265358979
2  40 9 0 2.92782544626507 3.14159265358979
2  43 5 6 2.92782544626507 3.14159265358979
2  44 18 6 2.92782544626507 3.14159265358979
0

0101000
+181 6 -183 6 *
Ed
 1e-07 1 1 0
1  16 0 0 0.0792
2  45 11 0 0 0.0792
2  46 14 0 0 0.0792
2  47 5 0 0 0.0792
0

0101000
-182 0 +180 0 *
Ed
 1e-07 1 1 0
1  17 0 0.273626826170244 0.3608
2  48 6 0 0.273626826170244 0.3608
2  49 5 0 0.273626826170244 0.3608
0

0101000
+181 0 -195 0 *
Ed
 1e-07 1 1 0
1  18 0 0 0.0792
2  50 13 0 0 0.0792
2  51 14 0 0 0.0792
2  52 5 0 0 0.0792
0

0101000
-180 0 +187 0 *
Ed
 1e-07 1 1 0
1  19 0 0 0.06
2  53 6 0 0 0.06
2  54 19 0 0 0.06
2  55 9 7 0 0.06
0

0101000
+181 0 -190 0 *
Ed
 1e-07 1 1 0
1  20 0 0 0.06
2  56 7 0 0 0.06
2  57 19 0 0 0.06
2  58 9 7 0 0.06
0

0101000
+185 0 -194 0 *
Ed
 1e-07 1 1 0
1  21 0 0 0.06
2  59 1 0 0 0.06
2  60 7 0 0 0.06
0

0101000
-193 0 +184 0 *
Ed
 1e-07 1 1 0
1  6 0 3.35535986091452 6.06941809985486
2  12 8 0 3.35535986091452 6.06941809985486
2  13 9 0 3.35535986091452 6.06941809985486
2  61 19 6 3.35535986091452 6.06941809985486
2  62 10 6 3.35535986091452 6.06941809985486
0

0101000
+194 6 -179 8 *
Ed
 1e-07 1 1 0
1  6 0 0.213767207324728 2.92782544626507
2  12 8 0 0.213767207324728 2.92782544626507
2  13 9 0 0.213767207324728 2.92782544626507
2  63 19 6 0.213767207324728 2.92782544626507
2  64 10 6 0.213767207324728 2.92782544626507
0

0101000
+178 8 -190 6 *
Ed
 1e-07 1 1 0
1  22 0 6.06941809985486 6.28318530717959
2  65 20 0 6.06941809985486 6.28318530717959
2  66 8 0 6.06941809985486 6.28318530717959
2  67 19 6 6.06941809985486 6.28318530717959
2  68 10 6 6.06941809985486 6.28318530717959
0

0101000
+179 8 -177 8 *
Ed
 1e-07 1 1 0
1  23 0 0 0.213767207324728
2  69 20 0 0 0.213767207324728
2  70 8 0 0 0.213767207324728
2  71 19 6 0 0.213767207324728
2  72 10 6 0 0.213767207324728
0

0101000
+177 8 -178 8 *
Ed
 1e-07 1 1 0
1  24 0 0 6.28318530717959
2  73 10 3 0 6.28318530717959
2  74 21 0 0 6.28318530717959
0

0101000
+176 0 -176 0 *
Ed
 1e-07 1 1 0
1  25 0 0 0.06
2  75 3 0 0 0.06
2  76 11 0 0 0.06
2  77 1 0 0 0.06
0

0101000
-191 0 +182 0 *
Ed
 1e-07 1 1 0
1  26 0 0 0.06
2  78 13 0 0 0.06
2  79 11 0 0 0.06
0

0101000
-189 0 +180 0 *
Ed
 1e-07 1 1 0
1  27 0 0 6.28318530717959
2  80 15 0 0 6.28318530717959
2  81 22 0 0 6.28318530717959
2  82 11 0 0 6.28318530717959
0

0101000
+175 0 -175 0 *
Ed
 1e-07 1 1 0
1  28 0 0 0.0206429432664234
3  83 84CN 15 0 0 0.0206429432664234
0

0101000
+186 0 -174 0 *
Ed
 1e-07 1 1 0
1  29 0 0 6.28318530717959
2  85 15 0 0 6.28318530717959
2  86 23 0 0 6.28318530717959
0

0101000
+174 0 -174 0 *
Ed
 1e-07 1 1 0
1  15 0 3.35535986091452 6.06941809985486
2  39 17 0 3.35535986091452 6.06941809985486
2  40 9 0 3.35535986091452 6.06941809985486
2  87 19 6 3.35535986091452 6.06941809985486
2  88 18 6 3.35535986091452 6.06941809985486
0

0101000
+185 6 -173 8 *
Ed
 1e-07 1 1 0
1  15 0 0.213767207324728 2.92782544626507
2  39 17 0 0.213767207324728 2.92782544626507
2  40 9 0 0.213767207324728 2.92782544626507
2  89 19 6 0.213767207324728 2.92782544626507
2  90 18 6 0.213767207324728 2.92782544626507
0

0101000
+172 8 -181 6 *
Ed
 1e-07 1 1 0
1  30 0 6.06941809985486 6.28318530717959
2  91 24 0 6.06941809985486 6.28318530717959
2  92 17 0 6.06941809985486 6.28318530717959
2  93 19 6 6.06941809985486 6.28318530717959
2  94 18 6 6.06941809985486 6.28318530717959
0

0101000
+173 8 -171 8 *
Ed
 1e-07 1 1 0
1  31 0 0 0.213767207324728
2  95 24 0 0 0.213767207324728
2  96 17 0 0 0.213767207324728
2  97 19 6 0 0.213767207324728
2  98 18 6 0 0.213767207324728
0

0101000
+171 8 -172 8 *
Ed
 1e-07 1 1 0
1  32 0 0 6.28318530717959
2  99 18 3 0 6.28318530717959
2  100 21 0 0 6.28318530717959
0

0101000
+170 0 -170 0 *
Ed
 1e-07 1 1 0
1  33 0 0 0.06
2  101 25 0 0 0.06
2  102 9 0 0 0.06
2  103 19 6 0 0.06
0

0101000
+172 8 -178 8 *
Ed
 1e-07 1 1 0
1  34 0 0 0.06
2  104 26 0 0 0.06
2  105 9 0 0 0.06
2  106 19 6 0 0.06
0

0101000
+173 8 -179 8 *
Ed
 1e-07 1 1 0
1  35 0 0.273626826170244 0.3608
2  107 20 0 0.273626826170244 0.3608
2  108 25 0 0.273626826170244 0.3608
0

0101000
+178 8 -169 8 *
Ed
 1e-07 1 1 0
1  36 0 0.099 0.1188
2  109 20 0 0.099 0.1188
2  110 27 0 0.099 0.1188
0

0101000
+168 8 -169 8 *
Ed
 1e-07 1 1 0
1  37 0 0 0.0792
2  111 20 0 0 0.0792
2  112 28 0 0 0.0792
0

0101000
-168 8 +167 8 *
Ed
 1e-07 1 1 0
1  38 0 0.273626826170244 0.3608
2  113 20 0 0.273626826170244 0.3608
2  114 26 0 0.273626826170244 0.3608
0

0101000
+179 8 -166 8 *
Ed
 1e-07 1 1 0
1  39 0 0 0.0792
2  115 20 0 0 0.0792
2  116 29 0 0 0.0792
0

0101000
-167 8 +165 8 *
Ed
 1e-07 1 1 0
1  40 0 0 0.0198
2  117 30 0 0 0.0198
2  118 20 0 0 0.0198
0

0101000
+166 8 -164 8 *
Ed
 1e-07 1 1 0
1  41 0 0 0.0792
2  119 20 0 0 0.0792
2  120 31 0 0 0.0792
0

0101000
-164 8 +165 8 *
Ed
 1e-07 1 1 0
1  42 0 6.28318555717958 6.58787796119498
3  121 122CN 21 0 6.28318555717958 6.58787796119498
0

0101000
+170 0 -176 0 *
Ed
 1e-07 1 1 0
1  43 0 0 6.28318530717959
2  123 15 0 0 6.28318530717959
2  124 23 0 0 6.28318530717959
0

0101000
+163 0 -163 0 *
Ed
 1e-07 1 1 0
1  28 0 0.0585570567335766 0.0792
3  83 84CN 15 0 0.0585570567335766 0.0792
0

0101000
+163 0 -175 0 *
Ed
 1e-07 1 1 0
1  44 0 4.71238898038469 7.85398163397448
3  125 126CN 23 0 4.71238898038469 7.85398163397448
0

0101000
-162 0 +161 0 *
Ed
 1e-07 1 1 1
2  127 23 0 0 6.28318530717959
0

0101000
+161 0 -161 0 *
Ed
 1e-07 1 1 1
2  128 23 0 0 6.28318530717959
0

0101000
+162 0 -162 0 *
Ed
 1e-07 1 1 0
1  45 0 0.273626826170244 0.3608
2  129 24 0 0.273626826170244 0.3608
2  130 25 0 0.273626826170244 0.3608
0

0101000
+172 8 -160 8 *
Ed
 1e-07 1 1 0
1  46 0 0.099 0.1188
2  131 24 0 0.099 0.1188
2  132 27 0 0.099 0.1188
0

0101000
+159 8 -160 8 *
Ed
 1e-07 1 1 0
1  47 0 0 0.0792
2  133 24 0 0 0.0792
2  134 28 0 0 0.0792
0

0101000
-159 8 +158 8 *
Ed
 1e-07 1 1 0
1  48 0 0.273626826170244 0.3608
2  135 24 0 0.273626826170244 0.3608
2  136 26 0 0.273626826170244 0.3608
0

0101000
+173 8 -157 8 *
Ed
 1e-07 1 1 0
1  49 0 0 0.0792
2  137 24 0 0 0.0792
2  138 29 0 0 0.0792
0

0101000
-158 8 +156 8 *
Ed
 1e-07 1 1 0
1  50 0 0 0.0198
2  139 30 0 0 0.0198
2  140 24 0 0 0.0198
0

0101000
+157 8 -155 8 *
Ed
 1e-07 1 1 0
1  51 0 0 0.0792
2  141 31 0 0 0.0792
2  142 24 0 0 0.0792
0

0101000
-155 8 +156 8 *
Ed
 1e-07 1 1 0
1  52 0 0 0.06
2  143 25 0 0 0.06
2  144 27 0 0 0.06
0

0101000
-169 8 +160 8 *
Ed
 1e-07 1 1 0
1  53 0 0 0.06
2  145 30 0 0 0.06
2  146 26 0 0 0.06
0

0101000
-166 8 +157 8 *
Ed
 1e-07 1 1 0
1  54 0 0 0.06
2  147 27 0 0 0.06
2  148 28 0 0 0.06
0

0101000
-168 8 +159 8 *
Ed
 1e-07 1 1 0
1  55 0 0 0.06
2  149 28 0 0 0.06
2  150 29 0 0 0.06
0

0101000
-167 8 +158 8 *
Ed
 1e-07 1 1 0
1  56 0 0 6.28318530717959
2  151 28 0 0 6.28318530717959
2  152 32 0 0 6.28318530717959
0

0101000
+154 8 -154 8 *
Ed
 1e-07 1 1 0
1  57 0 0 0.06
2  153 31 0 0 0.06
2  154 29 0 0 0.06
0

0101000
-165 8 +156 8 *
Ed
 1e-07 1 1 0
1  58 0 0 0.06
2  155 30 0 0 0.06
2  156 31 0 0 0.06
0

0101000
-164 8 +155 8 *
Ed
 1e-07 1 1 0
1  59 0 0 6.28318530717959
2  157 31 0 0 6.28318530717959
2  158 33 0 0 6.28318530717959
0

0101000
+153 8 -153 8 *
Ed
 1e-07 1 1 0
1  60 0 0 6.28318530717959
2  159 32 0 0 6.28318530717959
2  160 34 0 0 6.28318530717959
0

0101000
+152 8 -152 8 *
Ed
 1e-07 1 1 0
1  61 0 0.0585570567335766 0.0792
3  161 162CN 32 0 0.0585570567335766 0.0792
0

0101000
+152 8 -154 8 *
Ed
 1e-07 1 1 0
1  62 0 0 0.0206429432664234
3  163 164CN 33 0 0 0.0206429432664234
0

0101000
+153 8 -151 8 *
Ed
 1e-07 1 1 0
1  63 0 0 6.28318530717959
2  165 33 0 0 6.28318530717959
2  166 34 0 0 6.28318530717959
0

0101000
+151 8 -151 8 *
Ed
 1e-07 1 1 0
1  64 0 4.71238898038469 7.85398163397448
3  167 168CN 34 0 4.71238898038469 7.85398163397448
0

0101000
-150 8 +149 8 *
Ed
 1e-07 1 1 1
2  169 34 0 0 6.28318530717959
0

0101000
+149 8 -149 8 *
Ed
 1e-07 1 1 1
2  170 34 0 0 6.28318530717959
0

0101000
+150 8 -150 8 *
Wi

0101100
-148 0 +147 0 +146 0 -145 0 *
Wi

0101100
-144 3 -143 5 +142 3 -141 5 +140 3 +139 3 +138 3 +148 3 -137 3 *
Wi

0101100
-136 0 -147 0 +135 0 +137 0 *
Wi

0101100
-134 0 *
Wi

0101100
-133 3 -132 5 +131 3 -130 5 +129 3 +128 3 +127 3 +146 3 -136 3 *
Wi

0101100
-128 3 +126 3 -145 3 +139 3 *
Wi

0101100
-133 3 +125 3 -124 3 +144 3 *
Wi

0101100
+143 5 +141 5 +123 5 +122 5 +121 5 +120 5 *
Wi

0101100
-119 0 *
Wi

0101100
-142 0 +124 0 +131 0 -118 0 *
Wi

0101100
-129 0 -118 0 +117 0 +140 0 *
Wi

0101100
-116 0 *
Wi

0101100
-135 0 -138 0 +127 0 +117 0 *
Wi

0101100
+115 0 +134 0 -115 0 -114 0 *
Wi

0101100
+132 5 +130 5 +113 5 +112 5 +111 5 +110 5 *
Wi

0101100
-109 0 *
Wi

0101100
-122 5 +126 3 +112 5 -108 5 *
Wi

0101100
-123 5 +107 5 +113 5 -125 3 *
Wi

0101100
-106 5 -120 5 +105 5 -121 5 +104 5 +103 5 +102 5 +101 5 -100 5 *
Wi

0101100
-119 0 +99 0 +109 0 -99 0 *
Wi

0101100
+98 0 -97 0 -116 0 +97 0 *
Wi

0101100
+96 0 +95 0 -96 0 -94 0 *
Wi

0101100
+114 0 *
Wi

0101100
-98 0 *
Wi

0101100
-93 5 -110 5 +92 5 -111 5 +91 5 +90 5 +89 5 +88 5 -87 5 *
Wi

0101100
-93 5 +108 5 -86 5 +106 5 *
Wi

0101100
-90 5 +107 5 -85 5 +103 5 *
Wi

0101100
-105 0 +86 0 +92 0 -84 0 *
Wi

0101100
-91 0 -84 0 +83 0 +104 0 *
Wi

0101100
-82 0 *
Wi

0101100
-81 0 -102 0 +89 0 +83 0 *
Wi

0101100
-101 0 +80 0 +88 0 -85 0 *
Wi

0101100
-87 0 -80 0 +81 0 +100 0 *
Wi

0101100
-79 0 *
Wi

0101100
+78 0 -77 0 -82 0 +77 0 *
Wi

0101100
+76 0 +79 0 -76 0 -75 0 *
Wi

0101100
+74 0 +73 0 -74 0 -72 0 *
Wi

0101100
+75 0 *
Wi

0101100
-78 0 *
Fa
0  1e-07 1 0

0111000
+71 0 *
Fa
0  1e-07 2 3

0101000
+70 0 *
Fa
0  1e-07 4 0

0101000
+69 0 +68 0 *
Fa
0  1e-07 5 3

0101000
+67 0 *
Fa
0  1e-07 6 3

0101000
+66 0 *
Fa
0  1e-07 7 3

0101000
+65 0 *
Fa
0  1e-07 10 3

0111000
+64 0 +63 0 *
Fa
0  1e-07 1 0

0101000
+62 0 *
Fa
0  1e-07 11 0

0101000
+61 0 +60 0 *
Fa
0  1e-07 13 0

0101000
+59 0 *
Fa
0  1e-07 15 0

0101000
+58 0 *
Fa
0  1e-07 18 3

0111000
+57 0 +56 0 *
Fa
0  1e-07 19 3

0101000
+55 0 *
Fa
0  1e-07 19 3

0101000
+54 0 *
Fa
0  1e-07 20 5

0101000
+53 0 *
Fa
0  1e-07 21 0

0111000
+52 0 *
Fa
0  1e-07 15 0

0101000
+51 0 *
Fa
0  1e-07 23 0

0101000
+50 0 +49 0 +48 0 *
Fa
0  1e-07 24 5

0101000
+47 0 *
Fa
0  1e-07 25 5

0101000
+46 0 *
Fa
0  1e-07 26 5

0101000
+45 0 *
Fa
0  1e-07 27 0

0111000
+44 0 *
Fa
0  1e-07 28 0

0101000
+43 0 +42 0 *
Fa
0  1e-07 29 0

0101000
+41 0 *
Fa
0  1e-07 30 0

0101000
+40 0 *
Fa
0  1e-07 31 0

0101000
+39 0 +38 0 *
Fa
0  1e-07 32 0

0101000
+37 0 *
Fa
0  1e-07 33 0

0101000
+36 0 *
Fa
0  1e-07 34 0

0101000
+35 0 +34 0 +33 0 *
Sh

0101100
+32 3 +31 0 +30 3 -29 0 -28 0 +27 0 +26 0 +25 3 -24 3 +23 3 
+22 3 -21 0 +20 0 +19 0 +18 0 -17 0 +16 3 +15 3 -14 0 +13 0 
-12 0 +11 5 -10 5 +9 5 +8 5 +7 5 +6 5 +5 5 +4 5 *
So

0100000
+3 0 *
Co

1100000
+200 1 +199 2 -198 3 +197 3 +196 3 +195 3 -194 3 +193 3 -192 3 +191 3 
-190 3 +189 3 +188 3 -187 3 -186 3 +185 3 -184 3 +183 3 -182 3 +181 3 
-180 3 -179 4 +178 4 -177 4 -176 0 +175 3 -174 3 +173 4 -172 4 +171 4 
+170 0 +169 4 +168 4 +167 4 -166 4 +165 4 -164 4 +163 3 -162 3 +161 3 
-160 4 -159 4 -158 4 +157 4 -156 4 +155 4 +154 4 -153 4 +152 4 -151 4 
-150 4 +149 4 -148 3 +147 3 +146 3 -145 3 -144 3 -143 5 +142 3 -141 5 
+140 3 +139 3 +138 3 -137 3 -136 3 +135 3 -134 3 +133 3 +132 5 -131 3 
+130 5 -129 3 -128 3 -127 3 -126 3 +125 3 -124 3 +123 5 +122 5 +121 5 
+120 5 -119 0 -118 3 -117 3 +116 3 +115 3 -114 3 -113 5 -112 5 -111 5 
-110 5 +109 0 -108 5 +107 5 -106 5 +105 5 +104 5 +103 5 +102 5 +101 5 
-100 5 -99 0 +98 3 -97 3 +96 3 +95 3 -94 3 +93 5 -92 5 -91 5 
-90 5 -89 5 -88 5 +87 5 -86 5 +85 5 -84 5 -83 5 +82 5 -81 5 
+80 5 -79 5 +78 5 -77 5 +76 5 -75 5 +74 5 +73 5 -72 5 +71 3 
+70 0 +69 3 +68 3 -67 0 -66 0 +65 0 +64 0 +63 0 +62 3 -61 3 
-60 3 +59 3 +58 3 -57 0 -56 0 +55 0 +54 0 +53 0 -52 0 +51 3 
+50 3 +49 3 +48 3 -47 0 +46 0 -45 0 +44 5 -43 5 -42 5 +41 5 
+40 5 +39 5 +38 5 +37 5 +36 5 +35 5 +34 5 +33 5 +32 3 +31 0 
+30 3 -29 0 -28 0 +27 0 +26 0 +25 3 -24 3 +23 3 +22 3 -21 0 
+20 0 +19 0 +18 0 -17 0 +16 3 +15 3 -14 0 +13 0 -12 0 +11 5 
-10 5 +9 5 +8 5 +7 5 +6 5 +5 5 +4 5 +3 0 +2 0 *

+1 0 